<svg height="216" viewBox="0 0 216 216" width="216" xmlns="http://www.w3.org/2000/svg"><g fill="none" fill-rule="evenodd"><g transform="translate(45 2)"><path d="m27 8c-13.2563177 0-24 10.7436823-24 24s10.7436823 24 24 24 24-10.7436823 24-24-10.7436823-24-24-24z" fill="#2e316a" fill-rule="nonzero"/><path d="m26.8430058 10.1904325c-.4226608-1.25986015 1.7635155-.43443453 2.6817095-.52132144.5101078-.47787799 1.9675587-.14481151 2.7983056-.20273611 1.2825568.30410417 2.9586252.70957645 3.381286 1.43363395.8744705-.0434434 1.719792.289623 2.579688.6516518.8015979.477878 1.7052175.9123126 2.579688 1.4191528.8453215.4344346 1.719792.6371707 2.6525605 1.2453791.9910666.5647649 1.632345 1.3901905 2.608837 2.1866538 1.8363881 1.6218889 3.9934153 4.1271281 5.3342701 7.2840191 1.3845783 3.1279286 1.8509626 6.806141 1.1805352 9.8037394-.0145745.7095764.1457451 1.245379.2477666 1.7811816.0874471.5358026.1603196 1.0860863.0728726 1.8101439-1.5448979 5.749017-4.2557565 9.6299655-7.4184248 12.8447811-1.6031959 1.6074078-3.3667115 3.0700041-5.4654407 4.3443454-2.0695802 1.2888224-4.4597996 2.4617957-7.3309777 3.2437779-1.2679823.1158492-2.2298998.2461795-3.0752213.4344345-.8453215.1158492-1.6177704.0579246-2.4047939-.4344345-4.3723525.5068403-8.9050247-.8688691-12.067693-3.1713722-1.6614939-.2172172-3.2792644-.6082083-4.8970348-1.535002-1.93840964-1.1874544-3.38128597-2.7369376-4.56182116-4.5615626-1.25340772-1.7956628-2.22989979-3.8664674-3.43958399-6.3282631.07287255.1448115.43723526-.4489157.14574509-.5937272-1.42830183-.6806141-1.95298413-4.5470815-2.18617627-6.7482165-.1748941-1.5784455-.40808623-3.8519862-.13117057-6.41515.21861762-2.5486826.83074698-5.4014694 1.92383511-7.950152 1.58862142-2.4038711 3.48330752-4.9670349 5.94639944-7.3998683 2.66713505-1.911512 5.66948375-3.72165589 8.94874815-4.77877993 3.2646899-1.08608634 6.7625719-1.37570937 9.7503462-.57924605.4226607 1.1005675-1.2388332.78198217-1.3845783 1.46259628-.3935118.66613296 2.608837.07240575.9327685.6516518.4226608 1.2743413-2.2590488.7095764-2.6234115.5647649-1.4865999.3330665-2.4339429.3475476-3.5416056.3909911-2.0112821.8254256-4.2120329 1.7087758-6.3544856 2.9251925-2.1278783 1.2308979-4.15373494 2.8093434-5.78607988 4.6194873-.91819403 1.0136806-1.28255674 1.9259931-1.64691946 2.7224564-.40808623.7819822-.64127837 1.5494832-1.39915281 2.38939-.20404311 1.8101439-.67042738 4.02576-.61212935 6.4441123.02914902 2.3893899.36436271 4.9235914 1.19510969 7.0812829.13117058 1.1584921.27691566 2.1721727.62670387 3.0120795.16031959.4199534.32063918.8254256.46638426 1.2019355.17489411.3620288.37893722.7095765.55383133 1.0426429.32063918.6806141.6995764 1.2888225 1.03479009 1.9549554.30606468.6950953.64127838 1.3757094.94734305 2.2445785 2.27362331 1.6363701 4.37235251 3.0410418 6.80629541 4.3298642 2.4339429 1.2598602 5.2468231 2.4183523 8.8467267 2.8093434 3.5999035.6371706 7.3164032.1737738 10.6393911-1.2453791 3.3084134-1.4481151 6.3253367-3.6782124 8.7884286-6.6613295.7287254-.4344346 1.3117058-1.4481151 1.9092606-2.3459465.5246823-.9412749 1.0785136-1.7522193 1.7635155-1.9694366 0-.579246.1311706-1.1874544.3206392-1.8246251.1603196-.6516518.3497882-1.3322659.5975549-1.9983988.4080862-1.3612282.8744705-2.7658999 1.0785136-3.8375051-.6995764-1.0426429-.2769157-1.1874544-.7141509-2.1866538.116596-1.1584921-.0728726-2.2300973-.1894686-3.3017025-.2623412-1.0281618-.4518098-2.0563235-.9181941-2.9975983-.7870234-1.9259931-2.0550057-3.6926936-3.8185212-5.2711391-1.4428763-1.723257-2.5068154-2.7224564-3.468733-3.547882-.9910666-.7675011-1.9384096-1.3612283-3.4250095-1.6653324-.7141509-.4489157-1.2096842-.7530199-1.6323449-1.0860864-.4372353-.3330664-.9036195-.5213214-1.6760685-.4489157-.6412784-.3041041-1.1513862.188255-1.1513862-.4054722-.8161724-.3620288-1.3845783-.4344345-1.7926645-.5502837-.4080862-.0724058-.6558529-.2027362-.889045-.7530199-1.2388332-.4054722-3.2501154.1158492-3.3375624-1.0136806z" fill="#2e316a"/><path d="m27 48c13.2548736 0 24-10.7451264 24-24s-10.7451264-24-24-24-24 10.7451264-24 24 10.7451264 24 24 24z" fill="#ffcd00" fill-rule="nonzero"/><path d="m26.9140571 2.01173021c-.3068608-1.29032258 1.3297301-.42521995 2.0165138-.60117303.3945353-.58651026 1.4758544-.17595307 2.1188008-.41055718.9790321.16129032 2.264925.35190616 2.6010107.96774194 1.358955-.33724341 2.6448478.48387096 4.1207022.9090909.7160085.16129033 1.4027923.17595308 2.2064753.4398827.8329079.23460411 1.4466295.76246335 2.2941498 1.17302053.8767452.36656892 1.7534904.98240469 2.7471349 1.62756598.90597.71847508 1.9434517 1.49560118 2.7617472 2.49266862 1.7681028 1.89149563 3.0539956 4.38416423 3.3608565 6.73020533.4237601.9824046 1.1836059 1.2756598 1.4904667 2.346041.6867837 4.4721408.3214732 7.9618768-.350698 11.3196481-.7452334 3.3431085-1.7827152 6.7008798-4.1353147 10.5278592-.7744582.6158358-1.0959314 1.2903226-1.5050792 1.7888563-.4091477.4985338-.8475203.8797654-1.636591.9237537-2.0165138 2.6246334-4.9974473 4.516129-7.9199312 5.1466276-.3945353.5571847-.8621327.9824047-1.3443426 1.4369501-.4968222.42522-1.0228693.8797654-1.6658158 1.1583578-1.5489164.7917889-3.1416701.9530792-4.7782611 1.0117302-.8182955-.0146628-1.6658158-.0439883-2.5717858-.058651-.8913576-.0879766-1.8411648-.0879766-2.8786466-.1173021.1168994 0-.1315118-.5865102-.3360856-.4105572-.4675975.3958945-1.4320171.4692082-2.4402741.2639297-1.0082569-.2346042-2.1188008-.5278593-2.9224838-.8064517-1.1689936-.3079178-2.8055845-.8357771-4.5882997-1.6275659-1.7534903-.8211144-3.69694206-1.8475074-5.36275786-3.13783-1.40279225-1.686217-2.86403418-3.5777126-4.36911337-5.7331378-.97903209-2.28739-1.88500209-4.7653959-2.45488644-7.3020528-.55527193-2.5366569-.49682226-5.1906158.23379871-7.4340176 1.11054386-.3079179.77445822.9237537 1.46124193 1.0410558.65755887.2932551.11689935-1.9648094.65755887-.7038124 1.28589289-.3225806.73062096 1.7008798.45298499 1.9941349.35069807 1.0997068.10228694 1.8621701.10228694 2.6979472 1.02286935 3.0938417 2.0457387 6.9501467 4.12070224 10.0879766.61372161.8357771 1.2128308 1.2609971 1.72426549 1.686217.5552719.3812317 1.0228693.7478006 1.4466295 1.5249267.6575589.2492668 1.4027923.5131965 2.1626381.8651026.7744582.2932552 1.6073661.601173 2.4694988.9237537 1.7534903.5131965 3.6092676 1.026393 5.3773703 1.0117302.8036831.4105572 1.5635289.542522 2.2357002.659824.6721713.1319649 1.2858929.1173021 1.8557772.1173021 1.1543811.058651 2.1334132-.0293255 3.5069807.4985337 1.9288393-1.0557185 3.6823296-1.744868 5.5381069-2.6979472 1.8411648-.9384164 3.8576787-1.9941349 5.9326422-3.7536657 2.3087622-1.5395894 4.0914774-3.6950146 5.3627579-6.0997067 1.2858929-2.4193549 2.0895759-5.0879766 2.5425609-7.9765396.2922484-.5718475.3653105-1.4516129.3799229-2.2727273 0-.8064516.0876746-1.5689149.6429465-1.9648094-.9790321-1.4956011-.7160086-4.2521994-1.0667066-5.9237536-.9790321-.4545455-.5844968-.7331379-1.2858929-1.2609971-1.081319-3.313783-3.1124453-5.61583579-6.34179-7.21407626-.7013961-.48387096-1.2858929-.86510263-1.7681027-1.23167155-.4968223-.3372434-.9498073-.58651026-1.358955-.83577713-.8036831-.49853372-1.636591-.68914956-2.7909721-.74780058-1.2128308-.36656892-1.4027923-1.26099707-2.6156231-.86510264-.4968222-.20527859-.8913575.38123167-.8913575-.23460411-1.2566681-.5718475-1.7096531.02932552-2.0311263-1.05571847-.9351949-.26392962-2.440274.21994135-2.5133361-.89442815z" fill="#2e316a"/><g transform="translate(87 17)"><path d="m27 8c-13.2563177 0-24 10.7436823-24 24s10.7436823 24 24 24 24-10.7436823 24-24-10.7436823-24-24-24z" fill="#2e316a" fill-rule="nonzero"/><path d="m26.8430058 10.1904325c-.4226608-1.25986015 1.7635155-.43443453 2.6817095-.52132144.5101078-.47787799 1.9675587-.14481151 2.7983056-.20273611 1.2825568.30410417 2.9586252.70957645 3.381286 1.43363395.8744705-.0434434 1.719792.289623 2.579688.6516518.8015979.477878 1.7052175.9123126 2.579688 1.4191528.8453215.4344346 1.719792.6371707 2.6525605 1.2453791.9910666.5647649 1.632345 1.3901905 2.608837 2.1866538 1.8363881 1.6218889 3.9934153 4.1271281 5.3342701 7.2840191 1.3845783 3.1279286 1.8509626 6.806141 1.1805352 9.8037394-.0145745.7095764.1457451 1.245379.2477666 1.7811816.0874471.5358026.1603196 1.0860863.0728726 1.8101439-1.5448979 5.749017-4.2557565 9.6299655-7.4184248 12.8447811-1.6031959 1.6074078-3.3667115 3.0700041-5.4654407 4.3443454-2.0695802 1.2888224-4.4597996 2.4617957-7.3309777 3.2437779-1.2679823.1158492-2.2298998.2461795-3.0752213.4344345-.8453215.1158492-1.6177704.0579246-2.4047939-.4344345-4.3723525.5068403-8.9050247-.8688691-12.067693-3.1713722-1.6614939-.2172172-3.2792644-.6082083-4.8970348-1.535002-1.93840964-1.1874544-3.38128597-2.7369376-4.56182116-4.5615626-1.25340772-1.7956628-2.22989979-3.8664674-3.43958399-6.3282631.07287255.1448115.43723526-.4489157.14574509-.5937272-1.42830183-.6806141-1.95298413-4.5470815-2.18617627-6.7482165-.1748941-1.5784455-.40808623-3.8519862-.13117057-6.41515.21861762-2.5486826.83074698-5.4014694 1.92383511-7.950152 1.58862142-2.4038711 3.48330752-4.9670349 5.94639944-7.3998683 2.66713505-1.911512 5.66948375-3.72165589 8.94874815-4.77877993 3.2646899-1.08608634 6.7625719-1.37570937 9.7503462-.57924605.4226607 1.1005675-1.2388332.78198217-1.3845783 1.46259628-.3935118.66613296 2.608837.07240575.9327685.6516518.4226608 1.2743413-2.2590488.7095764-2.6234115.5647649-1.4865999.3330665-2.4339429.3475476-3.5416056.3909911-2.0112821.8254256-4.2120329 1.7087758-6.3544856 2.9251925-2.1278783 1.2308979-4.15373494 2.8093434-5.78607988 4.6194873-.91819403 1.0136806-1.28255674 1.9259931-1.64691946 2.7224564-.40808623.7819822-.64127837 1.5494832-1.39915281 2.38939-.20404311 1.8101439-.67042738 4.02576-.61212935 6.4441123.02914902 2.3893899.36436271 4.9235914 1.19510969 7.0812829.13117058 1.1584921.27691566 2.1721727.62670387 3.0120795.16031959.4199534.32063918.8254256.46638426 1.2019355.17489411.3620288.37893722.7095765.55383133 1.0426429.32063918.6806141.6995764 1.2888225 1.03479009 1.9549554.30606468.6950953.64127838 1.3757094.94734305 2.2445785 2.27362331 1.6363701 4.37235251 3.0410418 6.80629541 4.3298642 2.4339429 1.2598602 5.2468231 2.4183523 8.8467267 2.8093434 3.5999035.6371706 7.3164032.1737738 10.6393911-1.2453791 3.3084134-1.4481151 6.3253367-3.6782124 8.7884286-6.6613295.7287254-.4344346 1.3117058-1.4481151 1.9092606-2.3459465.5246823-.9412749 1.0785136-1.7522193 1.7635155-1.9694366 0-.579246.1311706-1.1874544.3206392-1.8246251.1603196-.6516518.3497882-1.3322659.5975549-1.9983988.4080862-1.3612282.8744705-2.7658999 1.0785136-3.8375051-.6995764-1.0426429-.2769157-1.1874544-.7141509-2.1866538.116596-1.1584921-.0728726-2.2300973-.1894686-3.3017025-.2623412-1.0281618-.4518098-2.0563235-.9181941-2.9975983-.7870234-1.9259931-2.0550057-3.6926936-3.8185212-5.2711391-1.4428763-1.723257-2.5068154-2.7224564-3.468733-3.547882-.9910666-.7675011-1.9384096-1.3612283-3.4250095-1.6653324-.7141509-.4489157-1.2096842-.7530199-1.6323449-1.0860864-.4372353-.3330664-.9036195-.5213214-1.6760685-.4489157-.6412784-.3041041-1.1513862.188255-1.1513862-.4054722-.8161724-.3620288-1.3845783-.4344345-1.7926645-.5502837-.4080862-.0724058-.6558529-.2027362-.889045-.7530199-1.2388332-.4054722-3.2501154.1158492-3.3375624-1.0136806z" fill="#2e316a"/><path d="m27 48c13.2548736 0 24-10.7451264 24-24s-10.7451264-24-24-24-24 10.7451264-24 24 10.7451264 24 24 24z" fill="#ffcd00" fill-rule="nonzero"/><path d="m26.9140571 2.01173021c-.3068608-1.29032258 1.3297301-.42521995 2.0165138-.60117303.3945353-.58651026 1.4758544-.17595307 2.1188008-.41055718.9790321.16129032 2.264925.35190616 2.6010107.96774194 1.358955-.33724341 2.6448478.48387096 4.1207022.9090909.7160085.16129033 1.4027923.17595308 2.2064753.4398827.8329079.23460411 1.4466295.76246335 2.2941498 1.17302053.8767452.36656892 1.7534904.98240469 2.7471349 1.62756598.90597.71847508 1.9434517 1.49560118 2.7617472 2.49266862 1.7681028 1.89149563 3.0539956 4.38416423 3.3608565 6.73020533.4237601.9824046 1.1836059 1.2756598 1.4904667 2.346041.6867837 4.4721408.3214732 7.9618768-.350698 11.3196481-.7452334 3.3431085-1.7827152 6.7008798-4.1353147 10.5278592-.7744582.6158358-1.0959314 1.2903226-1.5050792 1.7888563-.4091477.4985338-.8475203.8797654-1.636591.9237537-2.0165138 2.6246334-4.9974473 4.516129-7.9199312 5.1466276-.3945353.5571847-.8621327.9824047-1.3443426 1.4369501-.4968222.42522-1.0228693.8797654-1.6658158 1.1583578-1.5489164.7917889-3.1416701.9530792-4.7782611 1.0117302-.8182955-.0146628-1.6658158-.0439883-2.5717858-.058651-.8913576-.0879766-1.8411648-.0879766-2.8786466-.1173021.1168994 0-.1315118-.5865102-.3360856-.4105572-.4675975.3958945-1.4320171.4692082-2.4402741.2639297-1.0082569-.2346042-2.1188008-.5278593-2.9224838-.8064517-1.1689936-.3079178-2.8055845-.8357771-4.5882997-1.6275659-1.7534903-.8211144-3.69694206-1.8475074-5.36275786-3.13783-1.40279225-1.686217-2.86403418-3.5777126-4.36911337-5.7331378-.97903209-2.28739-1.88500209-4.7653959-2.45488644-7.3020528-.55527193-2.5366569-.49682226-5.1906158.23379871-7.4340176 1.11054386-.3079179.77445822.9237537 1.46124193 1.0410558.65755887.2932551.11689935-1.9648094.65755887-.7038124 1.28589289-.3225806.73062096 1.7008798.45298499 1.9941349.35069807 1.0997068.10228694 1.8621701.10228694 2.6979472 1.02286935 3.0938417 2.0457387 6.9501467 4.12070224 10.0879766.61372161.8357771 1.2128308 1.2609971 1.72426549 1.686217.5552719.3812317 1.0228693.7478006 1.4466295 1.5249267.6575589.2492668 1.4027923.5131965 2.1626381.8651026.7744582.2932552 1.6073661.601173 2.4694988.9237537 1.7534903.5131965 3.6092676 1.026393 5.3773703 1.0117302.8036831.4105572 1.5635289.542522 2.2357002.659824.6721713.1319649 1.2858929.1173021 1.8557772.1173021 1.1543811.058651 2.1334132-.0293255 3.5069807.4985337 1.9288393-1.0557185 3.6823296-1.744868 5.5381069-2.6979472 1.8411648-.9384164 3.8576787-1.9941349 5.9326422-3.7536657 2.3087622-1.5395894 4.0914774-3.6950146 5.3627579-6.0997067 1.2858929-2.4193549 2.0895759-5.0879766 2.5425609-7.9765396.2922484-.5718475.3653105-1.4516129.3799229-2.2727273 0-.8064516.0876746-1.5689149.6429465-1.9648094-.9790321-1.4956011-.7160086-4.2521994-1.0667066-5.9237536-.9790321-.4545455-.5844968-.7331379-1.2858929-1.2609971-1.081319-3.313783-3.1124453-5.61583579-6.34179-7.21407626-.7013961-.48387096-1.2858929-.86510263-1.7681027-1.23167155-.4968223-.3372434-.9498073-.58651026-1.358955-.83577713-.8036831-.49853372-1.636591-.68914956-2.7909721-.74780058-1.2128308-.36656892-1.4027923-1.26099707-2.6156231-.86510264-.4968222-.20527859-.8913575.38123167-.8913575-.23460411-1.2566681-.5718475-1.7096531.02932552-2.0311263-1.05571847-.9351949-.26392962-2.440274.21994135-2.5133361-.89442815z" fill="#2e316a"/></g><path d="m15.9606395 47.91c2.1422071 26.400155 3.1553272 47.140155 3.0393605 62.22s-1.4624203 37.685161-4.0393605 67.815948l25.0393605.779052c-1.3333333-12.483033 0-22.536366 4-30.16 6-11.435451 40.9921769-16.871275 56.48-31.830193 10.325215-9.972613 17.998549-26.2242484 23.02-48.754907l-24.645-.7595436c.4232408 14.4256455-4.7369536 26.358235-15.4805832 35.7977686-11.171569 9.815528-36.5735764 16.544938-38.8744168 15.762593-5-1.700129-6.3333333-26.0733415-4-73.1196371z" fill="#2e316a"/><g transform="translate(0 154)"><path d="m27 8c-13.2563177 0-24 10.7436823-24 24s10.7436823 24 24 24 24-10.7436823 24-24-10.7436823-24-24-24z" fill="#2e316a" fill-rule="nonzero"/><path d="m26.8430058 10.1904325c-.4226608-1.25986015 1.7635155-.43443453 2.6817095-.52132144.5101078-.47787799 1.9675587-.14481151 2.7983056-.20273611 1.2825568.30410417 2.9586252.70957645 3.381286 1.43363395.8744705-.0434434 1.719792.289623 2.579688.6516518.8015979.477878 1.7052175.9123126 2.579688 1.4191528.8453215.4344346 1.719792.6371707 2.6525605 1.2453791.9910666.5647649 1.632345 1.3901905 2.608837 2.1866538 1.8363881 1.6218889 3.9934153 4.1271281 5.3342701 7.2840191 1.3845783 3.1279286 1.8509626 6.806141 1.1805352 9.8037394-.0145745.7095764.1457451 1.245379.2477666 1.7811816.0874471.5358026.1603196 1.0860863.0728726 1.8101439-1.5448979 5.749017-4.2557565 9.6299655-7.4184248 12.8447811-1.6031959 1.6074078-3.3667115 3.0700041-5.4654407 4.3443454-2.0695802 1.2888224-4.4597996 2.4617957-7.3309777 3.2437779-1.2679823.1158492-2.2298998.2461795-3.0752213.4344345-.8453215.1158492-1.6177704.0579246-2.4047939-.4344345-4.3723525.5068403-8.9050247-.8688691-12.067693-3.1713722-1.6614939-.2172172-3.2792644-.6082083-4.8970348-1.535002-1.93840964-1.1874544-3.38128597-2.7369376-4.56182116-4.5615626-1.25340772-1.7956628-2.22989979-3.8664674-3.43958399-6.3282631.07287255.1448115.43723526-.4489157.14574509-.5937272-1.42830183-.6806141-1.95298413-4.5470815-2.18617627-6.7482165-.1748941-1.5784455-.40808623-3.8519862-.13117057-6.41515.21861762-2.5486826.83074698-5.4014694 1.92383511-7.950152 1.58862142-2.4038711 3.48330752-4.9670349 5.94639944-7.3998683 2.66713505-1.911512 5.66948375-3.72165589 8.94874815-4.77877993 3.2646899-1.08608634 6.7625719-1.37570937 9.7503462-.57924605.4226607 1.1005675-1.2388332.78198217-1.3845783 1.46259628-.3935118.66613296 2.608837.07240575.9327685.6516518.4226608 1.2743413-2.2590488.7095764-2.6234115.5647649-1.4865999.3330665-2.4339429.3475476-3.5416056.3909911-2.0112821.8254256-4.2120329 1.7087758-6.3544856 2.9251925-2.1278783 1.2308979-4.15373494 2.8093434-5.78607988 4.6194873-.91819403 1.0136806-1.28255674 1.9259931-1.64691946 2.7224564-.40808623.7819822-.64127837 1.5494832-1.39915281 2.38939-.20404311 1.8101439-.67042738 4.02576-.61212935 6.4441123.02914902 2.3893899.36436271 4.9235914 1.19510969 7.0812829.13117058 1.1584921.27691566 2.1721727.62670387 3.0120795.16031959.4199534.32063918.8254256.46638426 1.2019355.17489411.3620288.37893722.7095765.55383133 1.0426429.32063918.6806141.6995764 1.2888225 1.03479009 1.9549554.30606468.6950953.64127838 1.3757094.94734305 2.2445785 2.27362331 1.6363701 4.37235251 3.0410418 6.80629541 4.3298642 2.4339429 1.2598602 5.2468231 2.4183523 8.8467267 2.8093434 3.5999035.6371706 7.3164032.1737738 10.6393911-1.2453791 3.3084134-1.4481151 6.3253367-3.6782124 8.7884286-6.6613295.7287254-.4344346 1.3117058-1.4481151 1.9092606-2.3459465.5246823-.9412749 1.0785136-1.7522193 1.7635155-1.9694366 0-.579246.1311706-1.1874544.3206392-1.8246251.1603196-.6516518.3497882-1.3322659.5975549-1.9983988.4080862-1.3612282.8744705-2.7658999 1.0785136-3.8375051-.6995764-1.0426429-.2769157-1.1874544-.7141509-2.1866538.116596-1.1584921-.0728726-2.2300973-.1894686-3.3017025-.2623412-1.0281618-.4518098-2.0563235-.9181941-2.9975983-.7870234-1.9259931-2.0550057-3.6926936-3.8185212-5.2711391-1.4428763-1.723257-2.5068154-2.7224564-3.468733-3.547882-.9910666-.7675011-1.9384096-1.3612283-3.4250095-1.6653324-.7141509-.4489157-1.2096842-.7530199-1.6323449-1.0860864-.4372353-.3330664-.9036195-.5213214-1.6760685-.4489157-.6412784-.3041041-1.1513862.188255-1.1513862-.4054722-.8161724-.3620288-1.3845783-.4344345-1.7926645-.5502837-.4080862-.0724058-.6558529-.2027362-.889045-.7530199-1.2388332-.4054722-3.2501154.1158492-3.3375624-1.0136806z" fill="#2e316a"/><path d="m27 48c13.2548736 0 24-10.7451264 24-24s-10.7451264-24-24-24-24 10.7451264-24 24 10.7451264 24 24 24z" fill="#ffcd00" fill-rule="nonzero"/><path d="m26.9140571 2.01173021c-.3068608-1.29032258 1.3297301-.42521995 2.0165138-.60117303.3945353-.58651026 1.4758544-.17595307 2.1188008-.41055718.9790321.16129032 2.264925.35190616 2.6010107.96774194 1.358955-.33724341 2.6448478.48387096 4.1207022.9090909.7160085.16129033 1.4027923.17595308 2.2064753.4398827.8329079.23460411 1.4466295.76246335 2.2941498 1.17302053.8767452.36656892 1.7534904.98240469 2.7471349 1.62756598.90597.71847508 1.9434517 1.49560118 2.7617472 2.49266862 1.7681028 1.89149563 3.0539956 4.38416423 3.3608565 6.73020533.4237601.9824046 1.1836059 1.2756598 1.4904667 2.346041.6867837 4.4721408.3214732 7.9618768-.350698 11.3196481-.7452334 3.3431085-1.7827152 6.7008798-4.1353147 10.5278592-.7744582.6158358-1.0959314 1.2903226-1.5050792 1.7888563-.4091477.4985338-.8475203.8797654-1.636591.9237537-2.0165138 2.6246334-4.9974473 4.516129-7.9199312 5.1466276-.3945353.5571847-.8621327.9824047-1.3443426 1.4369501-.4968222.42522-1.0228693.8797654-1.6658158 1.1583578-1.5489164.7917889-3.1416701.9530792-4.7782611 1.0117302-.8182955-.0146628-1.6658158-.0439883-2.5717858-.058651-.8913576-.0879766-1.8411648-.0879766-2.8786466-.1173021.1168994 0-.1315118-.5865102-.3360856-.4105572-.4675975.3958945-1.4320171.4692082-2.4402741.2639297-1.0082569-.2346042-2.1188008-.5278593-2.9224838-.8064517-1.1689936-.3079178-2.8055845-.8357771-4.5882997-1.6275659-1.7534903-.8211144-3.69694206-1.8475074-5.36275786-3.13783-1.40279225-1.686217-2.86403418-3.5777126-4.36911337-5.7331378-.97903209-2.28739-1.88500209-4.7653959-2.45488644-7.3020528-.55527193-2.5366569-.49682226-5.1906158.23379871-7.4340176 1.11054386-.3079179.77445822.9237537 1.46124193 1.0410558.65755887.2932551.11689935-1.9648094.65755887-.7038124 1.28589289-.3225806.73062096 1.7008798.45298499 1.9941349.35069807 1.0997068.10228694 1.8621701.10228694 2.6979472 1.02286935 3.0938417 2.0457387 6.9501467 4.12070224 10.0879766.61372161.8357771 1.2128308 1.2609971 1.72426549 1.686217.5552719.3812317 1.0228693.7478006 1.4466295 1.5249267.6575589.2492668 1.4027923.5131965 2.1626381.8651026.7744582.2932552 1.6073661.601173 2.4694988.9237537 1.7534903.5131965 3.6092676 1.026393 5.3773703 1.0117302.8036831.4105572 1.5635289.542522 2.2357002.659824.6721713.1319649 1.2858929.1173021 1.8557772.1173021 1.1543811.058651 2.1334132-.0293255 3.5069807.4985337 1.9288393-1.0557185 3.6823296-1.744868 5.5381069-2.6979472 1.8411648-.9384164 3.8576787-1.9941349 5.9326422-3.7536657 2.3087622-1.5395894 4.0914774-3.6950146 5.3627579-6.0997067 1.2858929-2.4193549 2.0895759-5.0879766 2.5425609-7.9765396.2922484-.5718475.3653105-1.4516129.3799229-2.2727273 0-.8064516.0876746-1.5689149.6429465-1.9648094-.9790321-1.4956011-.7160086-4.2521994-1.0667066-5.9237536-.9790321-.4545455-.5844968-.7331379-1.2858929-1.2609971-1.081319-3.313783-3.1124453-5.61583579-6.34179-7.21407626-.7013961-.48387096-1.2858929-.86510263-1.7681027-1.23167155-.4968223-.3372434-.9498073-.58651026-1.358955-.83577713-.8036831-.49853372-1.636591-.68914956-2.7909721-.74780058-1.2128308-.36656892-1.4027923-1.26099707-2.6156231-.86510264-.4968222-.20527859-.8913575.38123167-.8913575-.23460411-1.2566681-.5718475-1.7096531.02932552-2.0311263-1.05571847-.9351949-.26392962-2.440274.21994135-2.5133361-.89442815z" fill="#2e316a"/></g></g><g fill="#2f326a"><path d="m48 180.563812c5.3886568 10.036896 13.3886568 14.920289 24 14.650182 10.6113432-.270108 18.6113432-6.066947 24-17.390517-3.3038547 18.140071-11.3038547 27.210106-24 27.210106s-20.6961453-8.15659-24-24.469771z" opacity=".2"/><path d="m134 43.563812c5.388657 10.0368955 13.388657 14.9202894 24 14.6501817 10.611343-.2701078 18.611343-6.0669466 24-17.3905164-3.303855 18.1400704-11.303855 27.2101056-24 27.2101056s-20.696145-8.1565903-24-24.4697709z" opacity=".2"/><path d="m48 28.563812c5.3886568 10.0368955 13.3886568 14.9202894 24 14.6501817 10.6113432-.2701078 18.6113432-6.0669466 24-17.3905164-3.3038547 18.1400704-11.3038547 27.2101056-24 27.2101056s-20.6961453-8.1565903-24-24.4697709z" opacity=".2"/></g></g></svg>