<svg fill="none" height="216" viewBox="0 0 216 216" width="216" xmlns="http://www.w3.org/2000/svg"><path d="m147.95 48.5987-40.34-10.27 11.28 40.07z" fill="#00ecbb"/><path clip-rule="evenodd" d="m146.72 48.9587c1.09-.49-.74 1-1.16 1.49.12.19-.89 1.1-1.15 1.54-.718.8338-1.526 1.5851-2.41 2.24-.43.91-1.8 2.08-2.74 3.26-.45.56-.66 1-1.14 1.69s-1.09 1.27-1.65 2c-1.09 1.45-2.56 3.38-4.26 5.39-1.695 2.0375-3.581 3.9092-5.63 5.59-.75.83-.78 1.44-1.54 2.28l-5.29 4.79-1.57 1.43-.45-1.94c-1.22-5.28-2.39-9.54-4.35-15.59-.22-2-1.08-2.81-.69-4.21-1.14-3.1415-1.971-6.3869-2.48-9.69-.776-1.0792-1.446-2.2313-2-3.44-.845-2.3019-1.497-4.6701-1.95-7.08l-.58-2.32 2.23.63c1.01.2978 2.035.5448 3.07.74-.13 0 .08.42.3.33 1.07-.41 3.85.57 5.58.95l11.32 2.39c2.234.845 4.51 1.5727 6.82 2.18 2.14.88 4.62 1.65 7 2.44s4.73 1.58 6.48 2.35c-.41.29-1.45-.12-2 0-.77 0 2 .56.29.32-.51.32-2.38-.32-2.46-.46-.938-.17-1.856-.4347-2.74-.79-3.871-.8403-7.694-1.8919-11.45-3.15-2.13-.63-3.35-.47-4.83-1.21-3.25-.21-7.95-1.08-12-1.57-1.991-.6432-4.014-1.1839-6.06-1.62l2-2c.224.8867.348 1.7957.37 2.71 2.31 4.34 3.49 8.76 5.31 15.31 1.4 6.76 3.42 12.87 5.07 19.78.066.7767.214 1.5442.44 2.29l-2.55-.65c.79-.76 1.56-1.49 2.21-1.51.88-1.65 3.43-3.53 4.95-4.71.16-.9.52-.83.9-1.58 2.763-2.3947 5.264-5.0765 7.46-8 2.67-2.78 3.88-3.61 5.14-5.41 1.1-1.06 1.94-1.46 2.43-2.29.52-.45.3-.61.82-.77 1.39-1.15 1.3-1.37 2.38-1.89.84-.82 1.84-1.97 2.56-2.24z" fill="#484b7d" fill-rule="evenodd"/><ellipse cx="109.39" cy="70.7087" fill="#484b7d" rx="85.83" ry="1.03"/><ellipse cx="109.39" cy="70.7087" fill="#484b7d" rx="85.83" ry="1.03"/><path clip-rule="evenodd" d="m195.39 69.4587c.093.0432.18.0969.26.16 0 0 0 0 .08.06.108.0694.206.1535.29.25.134.1477.221.3323.25.53 0 .28 0 .27 0 .25-.048-.2261-.147-.4383-.29-.62-.068-.08-.149-.1477-.24-.2l-.12-.06h-.12c-.07-.0082-.14-.0082-.21 0h-.32c-.593.0313-1.187.0313-1.78 0-1.45-.08-3.29-.23-4.39-.19-1.08.36-4.51.14-6.37.32-3-.08-6.93 0-8.47-.37-3.7.46-8.14.16-12.71.33-2.14.09-3.95.32-6.36.43s-4.73.08-7.42.19c-10.58.44-27.38 1.08-40.23.38-3 0-4.42.44-7.42.48-24.44-.55-38.49-.75-63.52 0-5.36-.2-8.22.45-11.62-.11-.27 0-.59.07-.79.11.1462-.0715.2629-.1917.33-.34.0595-.1682.0595-.3518 0-.52-.0594-.1671-.1865-.3014-.35-.37-.08 0 0 0 0 0h.4c.56 0 1.15.06 1.74.08l3.52.09 7 .16c4.63.13 9.15.31 13.42.56 3.45-.37 6.75-.7 10.59-.85 9.37-.38 17.08.38 28.59.15-.34 0 .55.39 1.06.24 2.34-.65 10.18-.38 14.83-.45 6.58-.1 18.65-.41 29.64-.76 5.69.2 12.1.24 19.06.13 6.54.26 13.64.29 20.71.33l10.52.12 5.11.11 2.48.06h2.33v.07c-.043.0211-.081.0519-.11.09-.086.0908-.123.2172-.1.34h.06c.021-.0743.058-.1427.11-.2.039-.0402.087-.071.14-.09v.09c-.316.1491-.653.247-1 .29-.712.0324-1.413.1916-2.07.47-.49.24 1 .23 2.19.17l.78-.06h.31.17.07c.122-.0633.222-.1606.29-.28.04-.0862.07-.1768.09-.27.002.162-.064.3175-.18.43-.052.0606-.117.1085-.19.14h-.1l-.18.07c-.24.06-.56.13-1.06.21.53.4-.91.62-2.53.65-1.286.0432-2.572-.0103-3.85-.16-2.829.1354-5.663.1154-8.49-.06-10.29.41-22.69 0-33.9-.14-6.27-.08-8.77.44-13.77.06-8.1.67-21.33 1-32.84 1.46-11.82-.46-16.85.28-25.42-.56-6.6.48-13.05.68-20.19.72s-15-.06-24.35-.35l-3.59-.23-.93-.08-.52-.07-.35-.05h-.11-.06-.16l-.31-.11c-.1674-.0821-.3251-.1827-.47-.3-.2367-.1965-.4278-.4422-.56-.72-.1182-.2546-.1861-.5296-.2-.81-.0128-.2581.0246-.5161.11-.76.1885-.54.5843-.9826 1.1-1.23l.15-.06c.1037-.0422.2107-.0757.32-.1h.24l.34-.05h.5.93c2.4-.09 4.71-.12 7-.16l13.85-.16c9.24-.1 18.54-.17 28.3-.08 4 .36 11.58-.12 13.78.66 5.16-.55 13.95-.06 19.07.21 2.45-.54 2.83-.22 5.29-.49 11.22.32 20.08.19 31.78-.39 11.37-.12 14.75.26 22.26-.3 4.44 0 5.91.5 9.54.12 1.81.08 2.75-.37 3.18 0 4.61.29 5.87-.1 7.42.63 1.6.08 3.67.07 5.37.16s3.08.13 3.37.6z" fill="#484b7d" fill-rule="evenodd"/><path d="m109.39 71.7487c-47.3999 0-85.8299-.47-85.8299-1l73.19 53.2003v19.18c0 .58 5.6599 1 12.6399 1s12.64-.46 12.64-1v-19.22l73.19-53.2003c0 .57-38.43 1.04-85.83 1.04z" fill="#ffcd00"/><path clip-rule="evenodd" d="m109.54 72.9787c-1.21-.87 5.07-.33 7.72-.48 1.29-.4 5.46-.27 7.71-.5 3.69 0 8.4-.15 10.28.21 4.48-.52 9.86-.3 15.41-.56 2.59-.11 4.78-.37 7.71-.53s5.73-.17 9-.33l12.91-.63 7.32-.35 3.77-.19 1.88-.11.92-.08h.43.16l-.14.05c-.084.0427-.165.0929-.24.15-.336.2703-.531.6787-.53 1.11l2.3 1.17c-5.79 4.3-11.71 8.53-17.1 12.08-2.92 2.18-4.08 3.51-7 5.68-19.16 13.3303-31.85 22.2603-49.34 35.0903l.42-.82c0 4.19.09 10.06.15 16.54 0 .81-.07 1.58-.08 2.3v.34c-.005.229-.07.454-.19.65-.083.109-.177.21-.28.3l-.17.11c-.245.136-.507.237-.78.3-.41.09-.76.15-1.1.2-1.36.19-2.54.29-3.66.37-2.081.182-4.176.111-6.24-.21-2.87.08-5.74.08-8.61-.07-1.454-.049-2.9029-.186-4.3399-.41l-.57-.12c-.2532-.05-.4965-.141-.72-.27l-.15-.09c-.0775-.07-.1479-.147-.21-.23-.1024-.159-.1611-.342-.17-.53v-.89c0-.7 0-1.4 0-2.1 0-5.6.15-11.06.36-16.22l.18.36-.1-.08c-3.63-2.13-7.08-4.19-11-6.78-9.46-6.32-16.61-12.4-28.06-20.4003.34.24-.32-.7-.9-.94-2.72-1.14-10.26-6.94-14.86-10.19l-19.27-13.51 3.25-1.66c.0024-.3503-.0872-.6952-.26-1-.1792-.3179-.4421-.5808-.76-.76l-.17-.08h-.07-.13.13.56 1.32 3 6.77c6.89.37 14.66.53 23.1.54 15.86.77 34.43.54 50.0899 1.64 1.12.77-3.34.5-3.86 1-1.21.44 7.36.15 2.57.48 1.19.89-6.78.43-7.71.23-4.4199.1-7.1999-.1-10.2799-.26-12.48.21-27.51-.34-41.11-.75-7.6-.21-10.66.26-16.7-.28-1.26.05-2.61.09-4.05.11h-2.21-1.17-.61-.32-.2-.16-.11c-.2429-.1329-.3984-.3833-.41-.66l.1-1.26 1 .69 25.88 17.34c11.35 8.79 16.72 11.76 24.66 18.5403 7.76 4.9 15.09 9.94 23.52 16l.88.63v1.12 11.93 7.25h-2.04l.07-.05c.043-.027.0776-.065.1-.11.0563-.062.1066-.129.15-.2.06-.12.19-.34.28-.55l.28-.71.07-.2.26.06c.44.08 1 .15 1.53.21 1.0999.12 2.2599.19 3.4499.25 3.18.22 6.38.29 9.54.27 1.58 0 3.15-.06 4.7-.14.77-.05 1.54-.11 2.28-.19l1-.14.37-.09v.14c.108.31.242.611.4.9.08.184.195.351.34.49.08.05.05.05.1.05h-1.86v-.06c0-6.36 0-12.7.07-19.11v-1l.76-.56c7.8-5.64 15.76-11.41 24.13-17.34 4.1-2.51 11.32-8.3103 13.93-9.2403 4.76-4.1 13.68-10 18.85-13.4 2.28-2.21 2.84-2.21 5.09-4.21 4.23-2.93 8.09-5.67 11.83-8.41l1.73-1.27v2.15c-.004.2484-.092.4881-.25.68-.111.1423-.255.2555-.42.33h-.15l-.21.06h-.25-.4l-.75.06-1.46.09-2.89.14-5.84.27-12.44.65c-13.8.35-17.9 0-27 .71-5.39.06-7.18-.4-11.57 0-2.19 0-3.33.42-3.85 0-5.6-.19-7.11.23-9-.46-3.89.15-10 .5-10.29-.25z" fill="#484b7d" fill-rule="evenodd"/><path clip-rule="evenodd" d="m118.67 120.729c.28.82-.08.37-.13.53.06.4-.12.3-.14.54-.14 0-.26.2-.42-.14 0 .54-.27.35-.41.61s-.08.37-.14.53-.18.16-.26.31c-.31.61-.87 1.46-1.59.9-.11.07-.08.47-.2.54-.908-.42-1.965-.36-2.82.16-.3-.26-.29.36-.6-.36-.346.324-.884.324-1.23 0-.029.345-.117.684-.26 1-.31.53-.78-.11-1.23.25 0 0-.09-.37-.09-.23 0 .67-.36.48-.55.59-.409.302-.793.637-1.15 1-.257-.172-.583-.205-.87-.09-.67-.51-1.29-.13-2-1.12-.17-.75 0-.51 0-1s-.28-.1-.17-.46c-.18-.86.17-.47.23-.28.14-.13.27 0 .4.18.4-.31 1 .06 1.53.22.29.07.3-.46.59-.1.299-.609.679-1.174 1.13-1.68.58.34.64-.45 1.16.26.35-1.13.88-1.18 1.67-1.32.9.3 1.57-.15 2.45-.06.25.34.47-.17.74.57.1-.57.58-.17.86 0 0-.55.07-.24.1-.53.55.19.88 0 1.21-.79.42-.31.65 0 .8-.71.17-.08.36.36.39-.11.09 0 0-.42.13 0 .25.15.19-.27.44.38.11.08.23-.31.43.41z" fill="#ffcd00" fill-rule="evenodd"/><path clip-rule="evenodd" d="m117.86 125.999c.45.75 0 .4-.08.58.13.38-.09.34-.08.58-.16 0-.27.29-.51 0 .06.55-.27.44-.39.74 0 .14 0 .4-.08.58s-.18.21-.25.39c-.28.71-.83 1.73-1.77 1.37-.13.1 0 .5-.18.6-1.211-.146-2.434.145-3.45.82-.38-.21-.36.41-.76-.27-.405.386-1.018.455-1.5.17-.046.374-.162.737-.34 1.07-.39.55-1 0-1.5.34 0 0-.11-.37-.1-.22 0 .67-.44.51-.66.64-.469.302-.902.658-1.29 1.06-.313-.164-.687-.164-1 0-.8-.4-1.35.1-2.38-.61-.38-.68-.09-.51-.26-.94s-.37 0-.32-.38c-.43-.78.12-.54.23-.37.15-.19.35-.05.54 0 .45-.44 1.27-.22 1.91-.15.36 0 .35-.52.72-.2.26-.73.9-1.17 1.39-1.81.72.28.81-.51 1.43.17.44-1.18 1.07-1.26 2-1.49 1 .21 1.78-.35 2.8-.45.33.28.52-.28.93.39 0-.58.65-.3 1-.17-.11-.54 0-.26 0-.56.66 0 1-.3 1.29-1.14.44-.43.76-.2.82-1 .19-.13.48.25.45-.22.11 0-.06-.43.15-.08.31.08.18-.33.57.25.24.08.32-.35.67.31z" fill="#ffcd00" fill-rule="evenodd"/><path clip-rule="evenodd" d="m112.46 133.279c.38.78.07.34.1.49.15.36 0 .27.1.48-.07 0-.06.17-.25-.15.16.49 0 .3 0 .53s.08.34.1.48 0 .14 0 .27c0 .54.11 1.29-.42.75 0 .06.13.42.11.48-.66-.35-1-.42-1.2.1-.24-.24 0 .31-.41-.33 0 .3-.18.3-.54 0 .13.3.233.612.31.93.09.47-.39-.08-.43.25 0 0-.2-.33-.13-.2.3.59 0 .44 0 .54-.048.29-.068.585-.06.88-.2-.14-.33-.14-.4 0-.52-.41-.59 0-1.38-.83-.176-.267-.336-.544-.48-.83-.22-.38-.17-.06-.29-.38-.5-.73-.15-.42 0-.26 0-.13.14 0 .26.11 0-.3.47 0 .77.08s-.07-.43.21-.13c-.13-.508-.207-1.027-.23-1.55.41.27.11-.43.65.18-.31-1-.07-1.1.25-1.25.54.25.7-.16 1.15-.08.25.31.16-.15.56.52-.16-.51.22-.13.42.06-.2-.5 0-.21-.13-.48.32.19.4 0 .31-.69.11-.26.32 0 .17-.61.06-.07.29.35.16-.08-.13-.39 0 0 0 0 .17.15 0-.24.33.37.13.02.07-.32.39.35z" fill="#ffcd00" fill-rule="evenodd"/><path clip-rule="evenodd" d="m112.72 137.399c.51.71.19.29.27.41.22.32.14.22.26.4 0 0 0 .12-.17-.18.1.129.184.27.25.42l.26.4c.07.12 0 .1.12.21.26.44.62 1 .17.47 0 0 .24.37.25.41-.42-.45-.59-.6-.45-.27-.2-.24.14.25-.31-.36.11.21 0 .17-.22-.14l.53.8c.23.38-.2-.18-.08 0 0 0-.23-.31-.14-.19.37.55.2.35.23.42l.34.65c-.15-.18-.21-.22-.19-.16-.353-.346-.686-.709-1-1.09-.45-.63-.28-.41-.54-.79s-.11-.11-.29-.38c-.51-.72-.24-.37-.12-.21-.05-.1.07.06.16.18-.11-.22.2.14.38.32-.21-.35.18.18 0 0-.35-.54-.47-.79-.74-1.23.29.33-.14-.3.35.33-.57-.87-.5-.85-.44-.87.34.36.22.09.44.28.165.177.318.364.46.56-.3-.44 0 0 .19.16l-.27-.4c.22.23.15.09-.18-.45-.08-.18.13.1-.22-.44 0 0 .27.34 0 0-.23-.34 0 0 0 0 .14.17-.1-.18.3.38.16.05-.03-.24.4.36z" fill="#ffcd00" fill-rule="evenodd"/><path clip-rule="evenodd" d="m175.3 76.3987c.54.71-.78.68-1.19 1-.06.46-.84.68-1.13 1.07-.64.3-1.34.88-1.84.74-.48.88-1.47 1.22-2.2 2-.34.37-.52.81-.86 1.26s-.75.77-1.1 1.27-.74 1.07-1.13 1.68c-.413.6908-.864 1.3585-1.35 2-.6.7789-1.361 1.4199-2.23 1.88-.877.4549-1.869.636-2.85.52-.82.08-1.26.47-2.25.26-.566-.2225-1.077-.5635-1.5-1l-.52-.54v-.51c-.039-.729.352-1.4135 1-1.75.31-.1558.653-.2379 1-.24.521-.0105 1.037.1098 1.5.35.302.1429.568.3513.78.61.154.1814.27.3924.34.62.056.1846.083.377.08.57-.015.573-.239 1.1207-.63 1.54-.458.4679-.988.8595-1.57 1.16l-1.35.79c-1.78 1.07-3.54 2.25-5.69 3.82-1.2.4-1.44 1.27-2.51 1.05-1.639 1.3489-3.478 2.4352-5.45 3.22-.412.7753-.927 1.4923-1.53 2.1303-1.57 1.54-3.45 1.9-5.53 3.55.06 0-.31-.25-.33-.07-.1.85-1.75 1.61-2.61 2.25-1.22.91-3.39 2.66-5.34 4.3-1.348.583-2.629 1.31-3.82 2.17-.735.291-1.453.625-2.15 1-.633.305-1.242.66-1.82 1.06-.188.14-.362.297-.52.47-.09.08-.15.1-.2.24-.096.431.104.875.49 1.09 0 .4-.13.49-.35.53s-.44 0-.6.13.12.38.43.49.55.17-.07.19c0 .46-.47.47-1 .12-.41-.271-.692-.697-.78-1.18-.608-.834-.541-1.983.16-2.74.744-1.204 1.855-2.136 3.17-2.66l3.57-1.8c1.27-.68 1.48-1.43 2.66-1.71 1.22-1.55 3.63-3.42 5.57-5.29 2.52-1.11 3.08-2.37 5.17-2.76 2-2.5203 4.45-4.0003 8.08-6.3403 3.91-1.94 7.22-4.41 11.09-6.56.212-.0051.42-.0563.61-.15l.15-.12s0 0 .08.06c.109.0624.223.1159.34.16.18.06.25 0 .17 0l.41-.09h-.05c-.077.0481-.144.109-.2.18-.071.0806-.135.1677-.19.26 0 0-.06.13-.06.11.016-.0826.016-.1674 0-.25-.104.0464-.204.0998-.3.16-.005-.0632-.005-.1268 0-.19-.042-.1312-.095-.2584-.16-.38-.13-.22-.25-.17-.08-.18l.36-.9c.516.4538 1.151.7519 1.83.86.42-.58.53-.28.91-.65 1.006-.17 1.905-.7306 2.5-1.56.65-.82 1.29-2 2.11-3.18 1.91-2.06 2.81-2.23 4-3.81.91-.63 1.45-.4 2-1.23.41-.17.39-.68.68-.37 1.09-.35 1.19-.85 1.83-.39.67-.21 1.67-.99 1.97-.32z" fill="#ffeb99" fill-rule="evenodd"/><path clip-rule="evenodd" d="m180.2 74.0487c.42.76.15.3.21.44.077.1397.147.2832.21.43 0 0 0 .13-.15-.19.078.1399.142.2873.19.44 0 .1.15.31.2.44s0 .11.09.22c.2.47.47 1.11.08.51 0 0 .2.39.2.43-.38-.49-.54-.65-.46-.29-.17-.27.1.26-.27-.4.08.23 0 .18-.22-.16.19.37.35.7.42.87.18.41-.19-.2-.1.06l-.12-.21c.31.58.15.37.17.45s.13.39.24.69c-.13-.19-.19-.24-.19-.17-.304-.3756-.585-.7697-.84-1.18-.37-.68-.23-.45-.45-.85-.085-.1354-.162-.2756-.23-.42-.43-.77-.19-.39-.1-.22 0-.1.07.07.15.19-.08-.23.19.16.35.35s-.16-.37.06 0c-.28-.59-.37-.85-.57-1.33.25.36-.09-.32.32.37-.45-1-.38-.92-.3-.94.31.39.23.1.44.31.152.1901.286.3944.4.61-.24-.48 0 0 .18.17-.24-.47-.09-.19-.21-.43.19.25.15.1-.11-.49 0-.19.13.12-.15-.46 0 0 .23.37 0 0-.19-.37 0 0 0 0 .12.18-.08-.19.25.41.11.01-.04-.3.31.35z" fill="#ffeb99" fill-rule="evenodd"/><path clip-rule="evenodd" d="m99.5801 123.139h1.9199c.51 0 1.19 0 .48 0h.48c-.62 0-.84 0-.48 0h-.48c.24 0 .16 0-.24 0h1c-.27 0 .45 0 0 0h-.26.48.72-.24c-.63 0-.35 0-1.44 0h-1.46c-.8899 0-.4399 0-.2399 0h.2399.48c-.41 0 .25 0 0 0h-1.4399.48c-1 0-1 0-1 0h.48.72c-.53 0 0 0 .2399 0-.1598.01-.3201.01-.4799 0 .31 0 .15 0-.48 0-.1599-.01-.3202-.01-.48 0 0 0 .43 0 0 0h.48z" fill="#ffeb99" fill-rule="evenodd"/><path d="m168.15 72.4287 1.3-.25c-.449-.0666-.908.0216-1.3.25z" fill="#484b7d" opacity=".2"/><path d="m45.27 70.3987 4 .78c-1.6821.3993-2.8206 1.967-2.68 3.69.25 2.16 2 3.78 3.7 5.17 11.58 9.64 24 18.26 36.32 26.8703l10.8 7.52c3.88 2.7 7.87 5.45 12.44 6.65 1.16.3 2.46.57 3.15 1.55.391.689.601 1.467.61 2.26l1.62 18.12c-1.76.07-3.77.12-5.9.12-7 0-12.64-.46-12.64-1v-19.22l-73.19-53.2003c.01.27 8.23.52 21.77.69z" fill="#484b7d" opacity=".2"/><path d="m74.3 10.4387-36.05 20.82 36.05 20.81z" fill="#eb0075" stroke="#ba9cff"/><path clip-rule="evenodd" d="m73.6801 11.5588c.44-1.11.14 1.21.21 1.88.21 0 .12 1.4.24 1.9.0792 1.0847.0356 2.175-.13 3.25.33.95.16 2.74.31 4.25.07.71.26 1.2.37 2s.1 1.67.21 2.59c.23 1.8.53 4.2.71 6.83.2014 2.6559.1445 5.3251-.17 7.97 0 1.11.44 1.57.49 2.7-.16 2.78-.31 5.2-.42 7.17l-.13 2.13-1.68-1.08c-4.56-2.92-8.36-5.16-14-8.12-1.52-1.25-2.73-1.26-3.42-2.54-3.0178-1.4706-5.8847-3.2323-8.56-5.26-1.3026-.2425-2.5786-.6109-3.81-1.1-2.2113-1.0513-4.329-2.2891-6.33-3.7l-2-1.26 2-1.1c.85-.46 1.75-1 2.71-1.61-.11.07.34.24.44 0 .48-1 3.16-2.28 4.66-3.21l9.78-6.2c2.1957-.9511 4.3387-2.0193 6.42-3.2 2.14-.86 4.46-2 6.73-3.15s4.49-2.17 6.28-2.85005c-.09.50005-1.12.93005-1.47 1.41005-.53.58 1.81-1 .42 0-.13.59-1.92 1.43-2.07 1.39-.7786.5444-1.6054 1.0164-2.47 1.41-3.3666 2.0952-6.8414 4.0112-10.41 5.74-2 1-2.73 2-4.29 2.5-2.49 2.12-6.45 4.78-9.73 7.29-1.8784.9281-3.7075 1.9528-5.48 3.07v-2.8c.7847.4797 1.5127 1.0466 2.17 1.69 4.68 1.49 8.61 3.83 14.49 7.25 5.72 3.86 11.43 6.83 17.43 10.62.5877.5125 1.228.9617 1.91 1.34l-2.27 1.31c-.0911-.9089.0899-1.8242.52-2.63-.52-1.79 0-4.92.26-6.82-.51-.75-.2-1-.45-1.76.3085-3.6416.228-7.3056-.24-10.93 0-3.85.26-5.29-.1-7.46 0-1.53.37-2.4.14-3.34.06-.68-.2-.64 0-1.12.19-1.79 0-1.89.38-3 .08-1.22-.03-2.72.35-3.45z" fill="#484b7d" fill-rule="evenodd"/><path clip-rule="evenodd" d="m142.75 46.9787v.48.48s0 .13 0-.24v.53.48.24c0 .51 0 1.19 0 .48v.47c0-.61 0-.83 0-.47 0-.32 0 .28 0-.48 0 .24 0 .16 0-.24v1c0-.27 0 .45 0 0v-.24.47.73c0-.23 0-.3 0-.24 0-.63 0-.35 0-1.44v-1.76c0-.11 0 .09 0 .24 0-.24 0 .23 0 .48 0-.65 0-.92 0-1.44.011.1598.011.3202 0 .48 0-1 0-1 0-1v.48.72c0-.53 0 0 0 .24v-.48c0 .31 0 .15 0-.48.009-.1599.009-.3201 0-.48 0 0 0 .43 0 0v.48c-.01.1 0-.24 0 .51z" fill="#ffcd00" fill-rule="evenodd"/><path clip-rule="evenodd" d="m171.14 18.8187c-.86 0-.33 0-.48 0h-.48.24c-.51 0-.26 0-.48 0h-.72c-.51 0-1.19 0-.48 0h-.48c.62 0 .84 0 .48-.07.16-.0086.32-.0086.48 0h.24-1c-.45 0 .27 0 0 0h.24c-.66 0-.4 0-.48 0h-.72c.23 0 .3 0 .24 0 .63 0 .34 0 1.44-.05h1.44c.89 0 .44 0 .24 0 .11 0-.09 0-.24 0 .24 0-.23 0-.48 0s.41 0 0 0h1.44c-.44 0 .32 0-.48 0h1c-.161.0071-.322.0271-.48.06-.24.0131-.48.0131-.72 0 .53 0 0 0-.24 0 .16-.0092.32-.0092.48 0h.48.48c-.43 0 0 0 0 0s.41 0 0 0h-1z" fill="#ffcd00" fill-rule="evenodd"/><path clip-rule="evenodd" d="m98.1999 31.5087c-.8.33-.36 0-.52 0-.39.11-.3 0-.52 0 0-.09-.2-.15.13-.32-.52.08-.34-.13-.6-.18-.11 0-.36 0-.51 0s-.16-.09-.31-.12c-.6-.11-1.42-.32-.9-.94-.07-.06-.46 0-.53 0 .3-.89.35-1.36-.26-1.92.24-.27-.35-.12.32-.5-.33-.17-.37-.46-.09-.85-.3288.0669-.665.0904-1 .07-.52-.08 0-.57-.32-.78 0 0 .35-.17.21-.13-.64.2-.49-.12-.61-.22-.3133-.2119-.6486-.3896-1-.53.1401-.1829.1401-.437 0-.62.43-.6 0-.91.87-1.7.69-.34.48-.13.91-.3s.07-.23.42-.25c.79-.38.46 0 .29.08.14.06 0 .2-.13.33.34.19.05.72-.06 1.13 0 .22.47.09.16.38.5767.0455 1.1449.1665 1.69.36-.27.5.49.35-.15.89 1.11 0 1.2.35 1.39.88-.24.72.23 1.1.19 1.76-.32.25.19.3-.52.64.55-.05.18.38 0 .62.53-.12.23 0 .51 0-.16.43.08.62.81.72.3.25 0 .47.7.45.08.12-.35.32.11.27 0 .07.41-.06 0 .09-.15.2.26.09-.37.38.01.03.39.03-.31.31z" fill="#484b7d" fill-rule="evenodd"/><path clip-rule="evenodd" d="m112 29.2287c-.87 0-.33-.12-.47-.19-.4-.05-.25-.13-.47-.2 0-.07-.12-.18.25-.2-.5-.13-.25-.23-.45-.36s-.34-.13-.47-.2-.11-.13-.23-.2c-.49-.31-1.15-.79-.41-1.08 0-.08-.44-.14-.47-.22.65-.6.89-.95.58-1.63.33-.12-.27-.23.5-.27-.23-.26-.14-.5.28-.7-.325-.0769-.641-.191-.94-.34-.43-.27.29-.42 0-.74 0 0 .38 0 .24 0-.66-.1-.39-.29-.45-.42-.196-.2942-.424-.5659-.68-.81.24-.14.32-.3.27-.48.65-.31.39-.72 1.51-1 .32.0177.638.0645.95.14.44.06.16-.14.48 0 .89 0 .43.17.23.18.1.1-.1.15-.25.2.22.29-.27.58-.53.86s.38.25 0 .35c.498.2771.962.6128 1.38 1-.46.28.29.46-.52.63 1 .41.94.73.88 1.22-.51.46-.25.94-.57 1.42-.39.08 0 .31-.74.32.52.16 0 .36-.27.48.53.1.21.09.47.17-.33.27-.19.51.43.85.17.31-.19.38.44.61 0 .12-.44.13 0 .25-.06 0 .4.1 0 .08-.22.11.2.17-.49.16-.09-.01.24.12-.48.12z" fill="#484b7d" fill-rule="evenodd"/><path clip-rule="evenodd" d="m128.77 24.8087c.71.5.21.28.29.41.3.26.14.25.29.42-.07 0 0 .22-.32 0 .35.38.08.32.18.54s.22.29.29.42 0 .17.07.3c.24.52.51 1.3-.26 1.11 0 .09.27.36.25.45-.87.11-1.27.25-1.41 1-.33-.1.08.34-.56-.08 0 .34-.19.48-.64.38.211.2549.393.5334.54.83.18.49-.49.16-.49.56 0 0-.29-.24-.19-.14.45.49.12.47.1.61-.04.3489-.04.7012 0 1.05-.27 0-.43 0-.51.21-.69-.18-.76.31-1.79-.21-.57-.52-.31-.4-.63-.73s-.22 0-.39-.29c-.65-.59-.22-.4-.06-.28 0-.14.17 0 .32 0 0-.35.56-.25.93-.29.19 0-.14-.44.24-.26-.234-.5036-.406-1.0343-.51-1.58.52.08 0-.52.77-.15-.57-.94-.32-1.13 0-1.46.67-.05.73-.57 1.26-.76.36.17.13-.26.77.19-.33-.43.2-.29.49-.23-.38-.38-.12-.18-.3-.4.42 0 .44-.3.11-.92 0-.33.36-.19 0-.73 0-.1.44.15.14-.18.07 0-.28-.3 0-.06.24 0-.08-.25.49.14.13-.01-.07-.31.53.13z" fill="#484b7d" fill-rule="evenodd"/><path clip-rule="evenodd" d="m6 3.76872c1 .02-.14 1.46-.25 2.17.29.46-.17 1.51-.11 2.15-.09597.93029-.34252 1.83881-.73 2.68998.13205.658.18243 1.3297.15 2-.05936.7234-.03924 1.451.06 2.17.14251.6793.33299 1.3477.57 2 .1.38.15.76.22 1.14s.17.76.29 1.17c.62305 1.9185 1.37476 3.7927 2.25 5.61.94 2 2 4 2.85 5.8.61.7 1.15.84 1.78 1.49l.82 1.07c.2519.3127.5224.6099.81.89.5303.5275 1.129.9816 1.78 1.35.9878.7032 2.3018.7427 3.33.1.9174-.9436 1.3522-2.2553 1.18-3.56-.0918-1.656-.6462-3.2531-1.6-4.61-.2343-.5821-.6087-1.0974-1.09-1.5-.1899-.1563-.3611-.3342-.51-.53-.1668-.2076-.2924-.4452-.37-.7-.6034-.3021-1.2464-.5176-1.91-.64-.6398-.095-1.2902-.095-1.93 0-.6362.1243-1.2521.3363-1.83.63-.581.3152-1.1274.6906-1.63 1.12-.33367 1.0383-.61403 2.0931-.84 3.16-.32 1.34-.7 2.49-.93 3.82-.31415 1.5069-.35817 3.0577-.13 4.58 0-.11-.36.2-.2.34.7.65.84 3 1.36 4.35 1.0337 2.8212 2.5986 5.418 4.61 7.65.9424 1.68 2.1708 3.1825 3.63 4.44 1.3683 1.634 2.9529 3.0739 4.71 4.28 1.77 1.31 3.66 2.47 5.31 3.83 0 .83-1 .1-1.32.47-.48.27 1.76.93.44.71-.05 1-1.88-.36-2-.66-.8731-.358-1.673-.8732-2.36-1.52-3.2987-1.8002-6.1679-4.2942-8.41-7.31-1.27-1.6-2.18-2-2.78-3.53-2-1.81-4.33-5.71-5.61-9.5-.2-2-.41-3.46-.48-4.78-.11045-1.3226.09521-2.6525.6-3.88-.23491-2.5044.37783-5.0153 1.74-7.13.83557-1.3224 1.99122-2.4127 3.36-3.17 1.7164-.9362 3.7198-1.1999 5.62-.74 1.8751.5993 3.5221 1.7578 4.72 3.32 1.0973 1.3937 1.8909 3.0014 2.33 4.72.4949 1.7652.5294 3.6278.1 5.41-.2864 1.0426-.8376 1.9934-1.6 2.76-.8378.8488-1.9515 1.3702-3.14 1.47-1.0628-.0304-2.112-.247-3.1-.64-1-.42-1.69-1-1.78-1.54-1.0525-.4483-1.9473-1.2004-2.57-2.16-.6388-.8642-1.1978-1.7846-1.67-2.75-.9-.37-.7-.67-1.38-1.22-.44-.84-.8-1.66-1.19-2.44s-.74-1.55-1-2.34-.71-1.56-1-2.4-.78-1.71-1.17-2.66-.32-1.74-.43-2.43-.11-1.28-.16-1.83-.06-1.05-.13-1.59-.17-1.09-.28-1.75c0-1.56.62-2 .34-3.30998.16-.58-.22-1.01.21-1.08.51-1.53.29-2 1.09-2.39.36-1.03.71-2.77 1.36-2.57z" fill="#484b7d" fill-rule="evenodd"/><path d="m25.18 62.4288c-2.1562-.0284-4.3108.1288-6.44.47 3.8333 1.3 7.72 2.41 11.66 3.33-1.57-3.08-4-8.54-5.82-12-.14 1.4.67 5.75.83 7.15" fill="#484b7d"/><path clip-rule="evenodd" d="m26.0001 61.3387c-.41.17-.22-.46-.33-.7-.22-.09-.21-.49-.35-.68 0-.35-.18-.77 0-1-.31-.38-.27-.9-.45-1.4-.08-.24-.23-.42-.33-.69s-.12-.53-.22-.83c-.2036-.5846-.3313-1.1929-.38-1.81l-.08-2.11 1.29 1.88c.5662.7691.9834 1.6374 1.23 2.56.16.3.41.36.58.66.7443 2.3055 1.7123 4.5328 2.89 6.65.12.61.54.78.37 1.29.19.31.38.63.54 1l.41.78-.87-.2c-.6704-.1524-1.3212-.3805-1.94-.68-.424.1127-.8614.1666-1.3.16-1.09-.06-1.85-.64-3.15-.88 0 0 0-.2-.08-.15-.36.24-1.18-.14-1.7-.26-.74-.17-2.1-.44-3.35-.7-.12-.06-.25-.13-.4-.19l-4.31-2 4.49-.18c.5962-.0329 1.1903-.0963 1.78-.19 1.55.13 3.34-.1 4.83.48.1.38-.32.24-.37.47s.69.08.24.24c.1.44-.63.22-.72.12-.3195.0365-.6431.0058-.95-.09-1.16.16-2.56 0-3.84.1-.2593.0128-.5153.0633-.76.15v-.35c.2697.0293.526.1332.74.3 1 0 2.45.31 3.77.43 1.22.6 1.88.39 2.7 1 1.574-.0152 3.1404.2211 4.64.7l-1.24 1.57-.16-.34c-.76-2.06-1.73-3.82-2.56-5.89 0-.49-.59-1.18-.34-1.57-.4512-.5811-.7409-1.271-.84-2-.36-.13-.23-.24-.48-.43-.2417-.7087-.5781-1.3814-1-2l1.13-.21c.0425.4307.1399.8541.29 1.26.0383.8361.2352 1.6573.58 2.42.09.49-.12.69.16 1.07 0 .2.25.27.05.35 0 .54.21.65-.11.88.04.36.29.9-.1 1.01z" fill="#484b7d" fill-rule="evenodd"/><path clip-rule="evenodd" d="m210.46 4.71872c.69-.63.77 1.1 1.13 1.69.47.2.65 1.29 1 1.81.18 1 .59 2.14998.25 2.69998.328.5747.517 1.2188.55 1.88.06.69.12 1.4.19 2.15s.34 1.28.39 2.08c.025.3996.025.8004 0 1.2 0 .4-.07.81-.07 1.26-.007 2.1717-.344 4.3298-1 6.4-.705 2.2811-1.911 4.3756-3.53 6.13-.59.82-.52 1.49-1.18 2.28l-1.1 1.08c-.39.35-.79.68-1.2 1-.791.583-1.651 1.0667-2.56 1.44-.919.3788-1.907.5594-2.9.53-1.034-.0578-2.02-.451-2.81-1.12-.729-.6702-1.258-1.5283-1.53-2.48-.255-.8971-.373-1.8276-.35-2.76.049-2.0392.61-4.0335 1.63-5.8.64-.74 1.09-1.32 1.54-1.82.223-.2247.471-.4227.74-.59.293-.1439.613-.2257.94-.24.699-.5053 1.491-.8688 2.33-1.07.85-.18 1.729-.18 2.58 0 .807.2034 1.567.5598 2.24 1.05.61.4781 1.134 1.0563 1.55 1.71 1.114.6202 2.048 1.5196 2.71 2.61.8 1.404 1.24 2.9845 1.28 4.6.09 1.56 0 3.2 0 5.17 0-.11-.4.15-.28.34.62.86-.1 3.51-.52 5-.806 3.3414-2.121 6.5388-3.9 9.48-1.36 1.46-2.85 3.09-4.57 4.76-1.896 1.3934-3.869 2.6788-5.91 3.85-2.005 1.163-4.198 1.9652-6.48 2.37-.57-.59.63-.82.56-1.3.11-.53-1.83.65-.81-.16-.62-.68 1.42-1.12 1.73-1.06.777-.4575 1.611-.8106 2.48-1.05 2.69-1.82 6.1-3.82 8.72-6.34 1.43-1.43 1.49-2.38 2.72-3.46.46-1.26 1.12-2.82 1.66-4.55.567-1.7375.923-3.5372 1.06-5.36.45-1.3393.66-2.7476.62-4.16-.047-1.1704.02-2.3426.2-3.5-.688-1.7826-1.613-3.4643-2.75-5-1.14-1.43-2.64-2.47-4.5-2.08-1.071.1751-2.043.7287-2.74 1.56-.801.9168-1.383 2.0045-1.7 3.18-.345 1.1385-.4 2.3449-.16 3.51.26 1 .74 1.62 1.55 1.79.524.2157 1.116.1901 1.62-.07.538-.2822 1.143-.4135 1.75-.38.619-.7315 1.287-1.4197 2-2.06.81-.72 1.59-1.48 2.18-2.05 0-.93.31-.86.5-1.64.501-.6692.952-1.3744 1.35-2.11.358-.7072.666-1.439.92-2.19.261-.7616.455-1.5446.58-2.34.143-.8495.224-1.7086.24-2.57.11-.86.2-1.57.28-2.18s.09-1.14.13-1.62c.02-.4708 0-.9426-.06-1.41-.049-.5134-.167-1.0179-.35-1.5-.09-1.32.27-1.82-.29-2.83 0-.53998-.56-.71998-.18-.92998-.05-1.4-.62-1.62-.07-2.27-.17-.93-1.09-2.2-.4-2.56z" fill="#484b7d" fill-rule="evenodd"/><path d="m193.6 62.4288c2.156-.0288 4.311.1285 6.44.47-3.827 1.3-7.71 2.41-11.65 3.33 1.56-3.08 4-8.54 5.81-12 .14 1.4-.67 5.75-.83 7.15" fill="#484b7d"/><path clip-rule="evenodd" d="m194 61.4787c-.44.06-.11-.48-.14-.73-.18-.15-.05-.53-.13-.75s.06-.79.27-.94c-.19-.45 0-.93 0-1.47 0-.24-.11-.46-.14-.74s0-.54 0-.85c-.06-.48-.12-1.13-.24-1.66l1.22.24c-.304.889-.75 1.7231-1.32 2.47-.13.32 0 .55-.15.87-1.34 2.0226-2.469 4.1772-3.37 6.43-.41.48-.29.91-.8 1.09-.123.3416-.267.6755-.43 1l-.46-.59c.655-.168 1.325-.2718 2-.31.312-.3046.666-.5639 1.05-.77 1-.49 1.9-.38 3.12-.87 0 0 .11.16.15.08.16-.39 1-.52 1.54-.71.7-.27 2-.83 3.08-1.37.145-.0179.289-.0446.43-.08l.18 2.17c-.543-.1495-1.099-.2467-1.66-.29-1.42-.48-3.12-.42-4.58-1-.11-.38.31-.25.36-.48s-.7-.07-.24-.24c-.12-.44.64-.22.73-.12.34-.0319.682.0161 1 .14 1.304.0109 2.601.2062 3.85.58.256.0538.518.0773.78.07h.72l-.69.35c-.234.1352-.499.2075-.77.21-1.076.7075-2.199 1.3422-3.36 1.9-1.36.17-1.81.7-2.86.58-1.367.8314-2.881 1.3917-4.46 1.65l-2.31.55 1.07-2.12.17-.32c1.17-1.8 1.89-3.7 3-5.64.36-.33.54-1.21 1-1.27.169-.7205.533-1.3809 1.05-1.91-.11-.37 0-.33 0-.65.406-.6276.742-1.2984 1-2l.74-1.94.38 2.16c.1.52.15 1 .22 1.53-.136.8598-.163 1.7334-.08 2.6-.06.51-.31.64-.16 1.08-.06.2.15.34-.05.36-.19.5 0 .67-.37.79-.08.38.02.94-.34.92z" fill="#484b7d" fill-rule="evenodd"/><path clip-rule="evenodd" d="m50.1899 61.3787c-.57.32-.3 0-.43-.08-.29.09-.26-.08-.44-.07s-.21-.22 0-.39c-.41 0-.31-.22-.54-.32s-.3 0-.43-.09-.16-.15-.29-.21c-.52-.25-1.27-.72-.95-1.41-.07-.11-.37-.06-.45-.17.1686-.9058-.0023-1.842-.48-2.63.16-.28-.3-.28.21-.57-.2722-.3193-.3161-.7745-.11-1.14-.2832-.0319-.558-.1167-.81-.25-.42-.31 0-.74-.25-1.17 0 0 .27-.08.16-.08-.5 0-.38-.36-.47-.54-.221-.3992-.4682-.7834-.74-1.15.1367-.2521.1585-.5507.06-.82.4-.61.12-1.23.89-1.84.57-.08.38.08.73.07s.08-.25.35-.12c.65-.09.35.19.2.24.1.14 0 .24-.14.35.22.39-.07.92-.19 1.4-.05.26.35.31.08.55.53.25.81.74 1.29 1.11-.24.52.36.59-.15 1 .88.34.94.82 1.11 1.53-.15.81.25 1.41.3 2.2-.22.24.19.42-.34.69.45.06.21.52.1.78.4 0 .18 0 .41.07-.06.5.18.79.8 1 .3.36.12.58.68.65.09.15-.21.35.15.34 0 .08.32 0 0 .11-.06.23.24.14-.2.42.08.22.39.28-.11.54z" fill="#c7c7d4" fill-rule="evenodd"/><path clip-rule="evenodd" d="m63.2699 59.8787c-.54.36-.23.09-.34.13s-.2 0-.35.12-.13 0 .1-.18c-.35.15-.22 0-.39 0s-.25.08-.36.1-.1 0-.2 0c-.4.07-1 .07-.58-.33 0 0-.32.08-.37.06.27-.52.36-.75 0-1 .2-.16-.23 0 .29-.28-.21-.06-.21-.21.05-.41-.2405.0465-.485.0699-.73.07-.36 0 .13-.29-.11-.4 0 0 .28-.08.18-.06-.5.09-.33-.07-.4-.12-.1965-.128-.404-.2384-.62-.33.15-.12.19-.22.13-.32.43-.26.19-.46 1-.72.2398-.0144.4803-.0144.72 0 .33 0 .1-.08.36-.06.65-.08.33 0 .18.06.09 0-.06.08-.16.12.19.1-.14.3-.3.47s.32 0 0 .17c.3827.0323.7633.0858 1.14.16-.29.21.28.12-.28.37.8-.06.79.07.84.27-.28.31 0 .42-.12.7s.09.1-.43.36c.38-.1.08.15-.07.29.37-.15.16 0 .35-.1-.15.22 0 .27.49.16.18 0 0 .2.43 0 .05 0-.25.23.05.09 0 0 .28-.13 0 0s.17 0-.26.26c-.01.14.23.05-.24.35z" fill="#c7c7d4" fill-rule="evenodd"/><path clip-rule="evenodd" d="m75.94 58.4987c.55.35.2.16.28.23.1008.0673.1946.1443.28.23 0 0 .06.09-.18-.06.31.23.14.15.26.26l.28.23c.046.0442.0894.0909.13.14.28.26.66.63.17.39 0 0 .26.21.27.24-.46-.14-.64-.16-.5.11-.22-.11.15.16-.34-.14.12.14 0 .16-.24 0l.57.45c.25.24-.22 0-.1.14l-.15-.09c.41.28.22.22.25.27.1112.1538.2314.3007.36.44-.17-.06-.23-.06-.21 0-.3458-.0994-.6809-.2334-1-.4-.48-.31-.3-.22-.59-.41s-.11 0-.31-.19c-.55-.36-.25-.21-.13-.13 0-.06.08 0 .18.06-.11-.15.22 0 .41 0s-.22-.21 0-.07c-.28-.2353-.5471-.4856-.8-.75.32.12-.14-.22.38.07-.61-.5-.53-.53-.45-.61.36.1.24-.1.48-.08s0-.08.5.23c-.32-.24 0-.08.21 0-.1062-.0636-.2037-.141-.29-.23.23.08.17 0-.19-.35-.08-.13.15 0-.23-.31 0 0 .29.15 0 0-.25-.18 0 0 0 0 .25.18-.11-.12.32.16.11.03-.09-.1.38.17z" fill="#c7c7d4" fill-rule="evenodd"/><circle cx="79.49" cy="168.399" fill="#dfdff2" r="12.28"/><circle cx="112.49" cy="199.849" fill="#dfdff2" r="12.28"/><circle cx="140.02" cy="164.489" fill="#dfdff2" r="12.28"/><circle cx="35.8401" cy="197.699" fill="#dfdff2" r="12.28"/><circle cx="174.26" cy="199.849" fill="#dfdff2" r="12.28"/><path clip-rule="evenodd" d="m93 168.369c-.86.24-.36-1-.58-1.51-.44-.2-.38-1-.73-1.38-.12-.7-.59-1.47-.37-1.95-.3769-.299-.6869-.674-.91-1.1-.2553-.44-.5644-.847-.92-1.21-.3954-.298-.8172-.559-1.26-.78-.44-.31-.8-.65-1.3-.94-1.2032-.587-2.4675-1.04-3.77-1.35-1.3899-.35-2.8-.54-4.11-.84-.62 0-.85.49-1.42.63-2.1395.086-4.1871.893-5.81 2.29-.8018.661-1.4791 1.46-2 2.36-.6002 1.003-.9977 2.114-1.17 3.27-.2075.405-.3139.854-.31 1.31.0013.387-.1712.754-.47 1 .2136 1.938.5916 3.855 1.13 5.73.72.47 1.39.83 2 1.31.6966.566 1.3641 1.166 2 1.8.7091.722 1.5952 1.246 2.57 1.52-.07 0 0 .39.11.29.65-.4 2 .17 3 .17 1.8826-.055 3.7064-.667 5.24-1.76 1.144-.322 2.1648-.981 2.93-1.89 1.1024-.76 1.9881-1.794 2.57-3 .6188-1.278 1.1728-2.587 1.66-3.92.7801-.2.47.6.93.73s.21-1.41.5-.48c.89-.22.38 1.41.11 1.54-.0311.699-.2599 1.375-.66 1.95-.2969 1.293-.8929 2.498-1.74 3.52-.8758 1.035-1.9124 1.923-3.07 2.63-1.19.77-1.5 1.47-2.71 1.61-.946.791-2.0561 1.361-3.25 1.67-1.4377.382-2.9227.557-4.41.52-1.43-.54-2.45-.82-3.33-1.23-.4382-.174-.8491-.409-1.22-.7-.4064-.305-.7466-.69-1-1.13-1.6385-.642-3.0366-1.778-4-3.25-1.1863-1.793-1.8985-3.857-2.07-6-.0159-2.43.4709-4.837 1.43-7.07.9711-2.221 2.5436-4.126 4.54-5.5.5937-.248 1.1686-.539 1.72-.87.62-.27 1.21-.48 1.61-.2.2946-.256.6335-.456 1-.59.4007-.129.8125-.219 1.23-.27.7789-.069 1.5637-.026 2.33.13.58-.57.68-.23 1.29-.47 1.2688.206 2.5218.5 3.75.88 1.305.353 2.5792.811 3.81 1.37.8992.593 1.7076 1.314 2.4 2.14.5312.639 1.1095 1.237 1.73 1.79.2369.386.3997.814.48 1.26.1127.376.3151.719.59 1 .11.46.64.56.28.8.0413.425.1285.844.26 1.25.0655.287-.0591.585-.31.74.09.82.43 2.12-.3 2.18z" fill="#484b7d" fill-rule="evenodd"/><path clip-rule="evenodd" d="m126 199.809c-.87.25-.36-1-.58-1.51-.44-.19-.39-1-.73-1.37-.12-.7-.59-1.47-.37-1.95-.38-.299-.693-.674-.92-1.1-.255-.44-.564-.847-.92-1.21-.392-.298-.81-.559-1.25-.78-.44-.31-.81-.65-1.31-.94-1.199-.589-2.46-1.042-3.76-1.35-1.39-.35-2.8-.54-4.12-.84-.61.05-.85.49-1.41.63-2.14.071-4.193.868-5.82 2.26-.799.664-1.476 1.462-2 2.36-.592 1.007-.989 2.116-1.17 3.27-.201.407-.307.855-.31 1.31.009.388-.165.758-.47 1 .22 1.948.601 3.875 1.14 5.76.72.47 1.38.83 2 1.31.699.563 1.367 1.164 2 1.8.712.718 1.597 1.241 2.57 1.52-.07 0 0 .39.12.29.64-.4 2 .17 3 .17 1.886-.04 3.718-.642 5.26-1.73 1.146-.325 2.169-.983 2.94-1.89 1.102-.758 1.985-1.793 2.56-3 .65-1.23 1.11-2.56 1.67-3.92.78-.21.46.6.92.73s.22-1.41.51-.48c.89-.22.38 1.41.11 1.54-.029.696-.258 1.37-.66 1.94-.299 1.295-.894 2.504-1.74 3.53-.876 1.035-1.912 1.923-3.07 2.63-1.19.77-1.5 1.47-2.71 1.61-.949.786-2.058 1.356-3.25 1.67-1.441.382-2.93.557-4.42.52-1.42-.54-2.44-.82-3.32-1.23-.44-.176-.854-.411-1.23-.7-.407-.305-.747-.69-1-1.13-1.638-.643-3.036-1.779-4-3.25-1.1899-1.792-1.9056-3.857-2.0801-6-.0125-2.431.4778-4.838 1.44-7.07.9811-2.243 2.5801-4.161 4.6101-5.53.592-.252 1.166-.543 1.72-.87.62-.27 1.21-.48 1.61-.21.277-.247.595-.443.94-.58.401-.128.813-.218 1.23-.27.782-.07 1.57-.026 2.34.13.58-.57.68-.23 1.28-.47 1.233.196 2.452.47 3.65.82 1.304.361 2.577.822 3.81 1.38.899.593 1.708 1.314 2.4 2.14.548.652 1.143 1.264 1.78 1.83.226.388.388.81.48 1.25.103.38.307.725.59 1 .11.46.64.56.27.8.052.423.139.841.26 1.25.065.287-.059.585-.31.74.11.84.44 2.14-.28 2.19z" fill="#484b7d" fill-rule="evenodd"/><path clip-rule="evenodd" d="m153.53 164.459c-.87.24-.37-1-.58-1.51-.45-.2-.39-1-.73-1.38-.12-.7-.59-1.47-.37-1.94-.385-.297-.7-.677-.92-1.11-.256-.437-.565-.84-.92-1.2-.392-.301-.81-.566-1.25-.79-.44-.31-.81-.64-1.31-.93-1.201-.588-2.461-1.044-3.76-1.36-1.39-.34-2.8-.54-4.12-.84-.61.06-.85.5-1.41.63-2.14.08-4.191.879-5.82 2.27-.801.658-1.479 1.454-2 2.35-.596 1.008-.993 2.122-1.17 3.28-.202.404-.308.848-.31 1.3.009.388-.165.759-.47 1 .216 1.94.591 3.86 1.12 5.74.688.403 1.356.84 2 1.31.701.56 1.369 1.161 2 1.8.716.711 1.6 1.231 2.57 1.51-.07 0 0 .4.12.3.64-.4 2 .17 3 .16 1.887-.035 3.72-.638 5.26-1.73 1.149-.318 2.174-.977 2.94-1.89 1.1-.76 1.983-1.794 2.56-3 .65-1.24 1.11-2.56 1.67-3.93.78-.2.46.61.92.73s.22-1.41.5-.47c.9-.23.39 1.4.12 1.54-.029.696-.258 1.37-.66 1.94-.301 1.295-.897 2.502-1.74 3.53-.879 1.032-1.915 1.92-3.07 2.63-1.19.77-1.5 1.46-2.71 1.61-.95.783-2.059 1.349-3.25 1.66-1.44.387-2.929.562-4.42.52-1.42-.54-2.44-.81-3.32-1.23-.442-.172-.857-.408-1.23-.7-.407-.305-.747-.69-1-1.13-1.638-.643-3.036-1.779-4-3.25-1.19-1.792-1.906-3.856-2.08-6-.012-2.431.478-4.838 1.44-7.07.985-2.241 2.583-4.158 4.61-5.53.594-.248 1.168-.539 1.72-.87.61-.27 1.21-.47 1.61-.2.277-.247.595-.443.94-.58.399-.136.811-.229 1.23-.28.782-.065 1.57-.021 2.34.13.58-.57.67-.23 1.28-.47 1.271.211 2.527.505 3.76.88 1.305.353 2.579.811 3.81 1.37.9.596 1.708 1.321 2.4 2.15.546.651 1.141 1.259 1.78 1.82.227.391.389.817.48 1.26.104.38.308.725.59 1 .11.47.64.56.27.8.051.426.138.848.26 1.26.061.284-.063.576-.31.73.02.82.35 2.12-.37 2.18z" fill="#484b7d" fill-rule="evenodd"/><path clip-rule="evenodd" d="m49.35 197.669c-.86.24-.36-1-.57-1.51-.45-.2-.39-1-.74-1.38-.12-.7-.59-1.47-.37-1.94-.3795-.301-.6899-.679-.91-1.11-.2556-.437-.5647-.84-.92-1.2-.3952-.301-.8169-.566-1.26-.79-.44-.31-.8-.64-1.3-.93-1.201-.595-2.4658-1.052-3.77-1.36-1.39-.34-2.79-.54-4.11-.84-.62.05-.85.5-1.42.63-2.137.081-4.1841.881-5.81 2.27-.804.655-1.4818 1.451-2 2.35-.5998 1.006-.9973 2.121-1.17 3.28-.2064.402-.3127.848-.31 1.3.0012.387-.1713.754-.47 1 .2182 1.959.6029 3.896 1.15 5.79.72.46 1.39.82 2 1.3.697.569 1.3646 1.173 2 1.81.7124.716 1.5977 1.236 2.57 1.51-.07 0 0 .39.11.3.65-.4 2 .17 3 .16 1.8905-.035 3.7267-.638 5.27-1.73 1.1468-.316 2.1694-.976 2.93-1.89 1.1036-.759 1.9895-1.793 2.57-3 .65-1.24 1.11-2.57 1.66-3.93.78-.2.47.61.93.73s.21-1.41.5-.47c.89-.23.39 1.4.11 1.54-.0306.694-.2558 1.367-.65 1.94-.3067 1.294-.9053 2.502-1.75 3.53-.8764 1.035-1.9128 1.923-3.07 2.63-1.19.77-1.5 1.46-2.71 1.61-.947.787-2.0571 1.354-3.25 1.66-1.4369.387-2.9225.562-4.41.52-1.43-.54-2.45-.81-3.33-1.23-.4401-.17-.8516-.406-1.22-.7-.4065-.305-.7467-.69-1-1.13-1.6386-.642-3.0367-1.778-4-3.25-1.1863-1.793-1.8985-3.857-2.07-6-.0166-2.431.4738-4.839 1.44-7.07.9807-2.244 2.5796-4.162 4.61-5.53.5894-.25 1.1608-.541 1.71-.87.62-.27 1.22-.47 1.61-.2.2951-.253.634-.45 1-.58.399-.137.8113-.23 1.23-.28.7789-.064 1.563-.021 2.33.13.58-.57.68-.23 1.29-.47 1.2678.211 2.5205.505 3.75.88 1.3049.353 2.5791.811 3.81 1.37.8999.596 1.7083 1.321 2.4 2.15.5459.651 1.141 1.259 1.78 1.82.2352.387.3978.814.48 1.26.1126.376.3151.719.59 1 .11.47.65.56.28.8.0412.428.1284.85.26 1.26.0608.284-.0632.576-.31.73-.08.77.26 2.07-.47 2.13z" fill="#484b7d" fill-rule="evenodd"/><path clip-rule="evenodd" d="m187.77 199.809c-.86.25-.36-1-.58-1.51-.44-.19-.38-1-.73-1.37-.12-.7-.59-1.47-.37-1.95-.377-.299-.687-.674-.91-1.1-.256-.443-.568-.849-.93-1.21-.39-.3-.809-.561-1.25-.78-.42-.337-.857-.65-1.31-.94-1.199-.589-2.46-1.042-3.76-1.35-1.39-.35-2.8-.54-4.11-.84-.62.05-.85.49-1.42.63-2.137.073-4.185.87-5.81 2.26-.802.661-1.479 1.46-2 2.36-.6 1.003-.998 2.114-1.17 3.27-.208.405-.314.854-.31 1.31.001.387-.171.754-.47 1 .207 1.938.578 3.855 1.11 5.73.72.47 1.39.83 2 1.31.697.566 1.364 1.166 2 1.8.707.72 1.589 1.244 2.56 1.52-.06 0 0 .39.12.29.65-.4 2 .17 3 .17 1.89-.04 3.725-.642 5.27-1.73 1.144-.322 2.165-.981 2.93-1.89 1.102-.761 1.988-1.794 2.57-3 .619-1.278 1.173-2.587 1.66-3.92.78-.21.47.6.93.73s.21-1.41.5-.48c.89-.22.38 1.41.11 1.54-.029.696-.258 1.37-.66 1.94-.299 1.295-.894 2.504-1.74 3.53-.876 1.035-1.912 1.923-3.07 2.63-1.19.77-1.5 1.47-2.71 1.61-.946.791-2.056 1.361-3.25 1.67-1.438.382-2.923.557-4.41.52-1.43-.54-2.45-.82-3.33-1.23-.44-.176-.854-.412-1.23-.7-.404-.308-.744-.692-1-1.13-1.639-.642-3.037-1.778-4-3.25-1.186-1.794-1.901-3.858-2.08-6-.008-2.431.482-4.837 1.44-7.07.985-2.241 2.583-4.158 4.61-5.53.592-.252 1.166-.543 1.72-.87.62-.27 1.21-.48 1.61-.21.294-.254.634-.451 1-.58.4-.13.812-.22 1.23-.27.779-.07 1.564-.026 2.33.13.58-.57.68-.23 1.29-.47 1.267.209 2.52.5 3.75.87 1.304.361 2.577.822 3.81 1.38.899.593 1.708 1.314 2.4 2.14.548.652 1.143 1.264 1.78 1.83.231.386.393.808.48 1.25.104.38.307.725.59 1 .11.46.64.56.27.8.052.423.139.841.26 1.25.074.285-.048.586-.3.74-.03.82.31 2.12-.42 2.17z" fill="#484b7d" fill-rule="evenodd"/><path d="m92.8501 53.0187c-1.933-.9203-3.9401-1.6763-6-2.26 2.9133 2.78 5.9633 5.4267 9.15 7.94-.13-3.45-.06-9.44-.25-13.33-.72 1.21-1.8 5.5-2.24 6.84" fill="#484b7d"/><path clip-rule="evenodd" d="m94.08 52.3887c-.45 0 0-.52 0-.78-.15-.17 0-.53 0-.76s.15-.78.38-.9c-.13-.47.13-.92.18-1.45 0-.25 0-.48 0-.77s.11-.53.15-.84c.0647-.6333.2126-1.2554.44-1.85l.81-2 .39 2.25c.1797.9381.1797 1.9019 0 2.84 0 .34.24.5.26.84-.3009 2.408-.3612 4.84-.18 7.26-.15.61.15.93-.22 1.33.0531.3579.0865.7184.1 1.08v.88l-.7-.54c-.5477-.4169-1.0445-.8969-1.48-1.43-.4165-.0483-.824-.1561-1.21-.32-1-.51-1.42-1.36-2.5-2.12 0 0 .08-.19 0-.17-.42.07-1-.62-1.43-1-.6-.46-1.73-1.28-2.75-2l-.32-.37-3-3.6 4.16 1.71c.5559.2235 1.1234.4171 1.7.58 1.35.76 3.06 1.3 4.18 2.45-.07.39-.39.09-.54.28s.59.35.12.31c-.09.45-.66-.06-.7-.19-.3388-.0888-.6533-.2529-.92-.48-1.11-.34-2.34-1-3.53-1.52-.2412-.092-.4933-.1525-.75-.18l.18-.3c.2277.1383.4142.3351.54.57.9.4 2.1 1.31 3.24 2 .87 1 1.54 1.14 2 2.07 1.4317.6476 2.7515 1.5184 3.91 2.58l-1.78.91v-.38c.18-2.19 0-4.19.15-6.42.19-.45 0-1.32.34-1.57-.144-.7205-.0922-1.4664.15-2.16-.28-.27-.12-.32-.26-.59.0812-.7359.061-1.4796-.06-2.21l1.11.28c-.128.3992-.2086.812-.24 1.23-.3278.7726-.5043 1.6009-.52 2.44-.13.48-.4.58-.3 1-.08.19.11.35-.1.34-.25.48-.09.68-.47.75-.15.38-.17 1.01-.53.92z" fill="#484b7d" fill-rule="evenodd"/><path d="m108.05 159.479c-1.59-1.452-3.304-2.764-5.12-3.92 2 3.506 4.157 6.923 6.47 10.25.88-3.33 2.68-9 3.62-12.82-1 1-3.32 4.74-4.13 5.89" fill="#484b7d"/><path clip-rule="evenodd" d="m109.41 159.229c-.42-.16.13-.5.21-.75-.1-.21.17-.51.19-.74.2-.29.38-.7.63-.75 0-.49.39-.85.59-1.34.09-.23.11-.47.21-.74s.26-.47.39-.76c.255-.591.592-1.143 1-1.64l1.35-1.63-.28 2.26c-.095.95-.363 1.875-.79 2.73-.08.34.07.55 0 .88-.978 2.216-1.732 4.524-2.25 6.89-.32.54-.13.94-.59 1.21-.06.36-.14.72-.22 1.07l-.22.85-.52-.72c-.4-.561-.735-1.165-1-1.8-.392-.192-.752-.441-1.07-.74-.78-.77-1-1.71-1.77-2.75 0 0 .13-.16 0-.17-.42-.05-.78-.88-1.09-1.32-.44-.62-1.28-1.73-2-2.75-.05-.13-.1-.26-.17-.41l-2.01-4.34 3.49 2.84c.464.361.948.695 1.45 1 1.07 1.13 2.56 2.15 3.29 3.56-.18.36-.4 0-.59.12s.46.51 0 .33c-.22.4-.61-.25-.62-.38-.261-.192-.482-.433-.65-.71-1-.65-1.94-1.67-2.93-2.48-.207-.153-.432-.281-.67-.38l.25-.24c.186.197.311.443.36.71.74.64 1.62 1.86 2.53 2.83.52 1.26 1.14 1.53 1.33 2.57 1.191 1.031 2.204 2.25 3 3.61l-2 .34.09-.36c.81-2 1.25-4 2-6.1.31-.38.34-1.27.78-1.4.05-.738.295-1.449.71-2.06-.18-.34 0-.33-.07-.64.284-.682.479-1.398.58-2.13l1 .59c-.255.351-.464.734-.62 1.14-.66 1.06-1 1.3-1.21 2.18-.26.42-.55.44-.59.9-.13.16 0 .37-.19.3-.38.39-.28.62-.67.59-.12.32-.32.91-.64.73z" fill="#484b7d" fill-rule="evenodd"/><path d="m49.4901 175.519c.0288-2.156-.1285-4.311-.47-6.44-1.3333 3.833-2.4566 7.716-3.37 11.65 3.08-1.56 8.54-4 12-5.81-1.4-.14-5.76.67-7.15.83" fill="#484b7d"/><path clip-rule="evenodd" d="m50.58 176.359c-.16-.41.47-.22.7-.34s.49-.2.68-.34c.35 0 .78-.19 1 0 .37-.31.89-.27 1.39-.45.24-.08.43-.23.69-.33s.53-.12.83-.22c.6001-.208 1.226-.333 1.86-.37l2.11-.08-1.84 1.26c-.7718.565-1.6439.979-2.57 1.22-.3.17-.36.42-.66.59-2.3216.752-4.5627 1.734-6.69 2.93-.62.12-.79.54-1.3.36-.31.2-.63.39-.94.55l-.79.41.2-.87c.1541-.673.3821-1.327.68-1.95-.1133-.421-.1671-.855-.16-1.29.06-1.1.64-1.85.88-3.15 0 0 .21 0 .15-.08-.24-.36.14-1.18.26-1.7.17-.74.45-2.1.7-3.35.07-.12.13-.25.2-.4l2-4.31.18 4.49c0 .55.1 1.15.19 1.78-.13 1.55.1 3.34-.47 4.83-.39.1-.25-.32-.48-.37s-.08.68-.24.24c-.44.1-.22-.63-.12-.72-.0414-.336-.0107-.677.09-1-.15-1.15 0-2.55-.09-3.83-.0201-.259-.0739-.515-.16-.76h.35c-.0297.268-.1298.523-.29.74 0 1-.32 2.45-.44 3.77-.6 1.22-.39 1.87-1 2.7.0157 1.575-.2241 3.142-.71 4.64l-1.57-1.24.34-.16c2.06-.76 3.82-1.73 5.89-2.56.49 0 1.18-.59 1.57-.34.579-.455 1.2699-.745 2-.84.13-.36.24-.23.43-.48.7087-.242 1.3815-.578 2-1l.21 1.13c-.4306.042-.854.14-1.26.29-.8375.027-1.6621.214-2.43.55-.49.09-.69-.12-1.06.16-.21 0-.28.25-.36.05-.54 0-.65.21-.88-.11-.42.07-1 .32-1.07-.05z" fill="#484b7d" fill-rule="evenodd"/><path clip-rule="evenodd" d="m86.25 145.159c.32.83-.68.45-1 .68-.1.43-.72.43-1 .73-.53.11-1.12.47-1.49.21-.44.68-1.24.74-1.87 1.26-.29.26-.46.6-.75.91s-.65.48-1 .82c-.9 1-2 2.34-3.18 3.44l-.12-2.21c.2762.222.5826.404.91.54.34-.07.37-.51.54-.64.2145-.032.4194-.11.6-.23l.33 1.87c-.8863-.908-2.1234-1.386-3.39-1.31-1.4698.093-2.8713.654-4 1.6-.9.2-.91 1-1.82.73-1.026 1.196-2.2465 2.21-3.61 3-.0965.677-.299 1.335-.6 1.95-.79 1.43-2.2 1.89-3.31 3.52 0-.05-.35-.19-.3 0 .23.74-.83 1.56-1.28 2.21-.9339 1.395-1.7854 2.845-2.55 4.34-.821.695-1.5235 1.519-2.08 2.44-1.79 1.44-3 3.75-5 5.06-.74-.27-.18-.66-.54-1s-.67.82-.6.07c-.84-.31.14-1.06.37-1.07.217-.46.5648-.847 1-1.11.9947-1.693 2.2386-3.227 3.69-4.55.74-.8.58-1.46 1.42-1.9.34-1.5 1.56-3.47 2.48-5.32 1.69-1.26 1.72-2.42 3.33-3 .84-2.4 2.41-3.92 4.91-6.14 1.4541-1.035 2.9891-1.951 4.59-2.74 1.7932-.862 3.816-1.125 5.77-.75.4929.236 1.0006.44 1.52.61.53.23 1 .58 1 1 .2435.028.4785.106.69.23l.82.42-.54 1.15c-.3218.613-.871 1.076-1.53 1.29-.5484.178-1.1321.219-1.7.12-.52.55-.62.22-1.23.37-.5112-.18-.9855-.451-1.4-.8l-1-.87.94-.79c1.1708-1.022 2.2545-2.139 3.24-3.34 1.71-1.28 2.44-1.2 3.47-2.35.78-.34 1.19 0 1.69-.62.34-.05.38-.54.58-.18.89 0 1-.49 1.47.11.5 0 1.38-.49 1.53.24z" fill="#484b7d" fill-rule="evenodd"/><path d="m153.51 191.959c-2.146-.185-4.304-.185-6.45 0 3.72 1.58 7.507 2.996 11.36 4.25-1.32-3.19-3.34-8.83-4.88-12.41-.25 1.39.23 5.79.28 7.2" fill="#484b7d"/><path clip-rule="evenodd" d="m154.44 190.939c-.43.13-.2-.48-.29-.73-.2-.1-.16-.5-.29-.7 0-.35-.13-.79 0-1-.29-.41-.2-.92-.34-1.43-.07-.24-.2-.44-.28-.71s-.09-.54-.16-.85c-.163-.613-.241-1.246-.23-1.88l.08-2.11 1.15 2c.497.812.836 1.711 1 2.65.15.31.39.39.54.7.562 2.355 1.356 4.65 2.37 6.85.08.62.47.82.27 1.32.17.32.33.65.47 1l.34.81-.85-.26c-.658-.199-1.29-.478-1.88-.83-.431.085-.873.105-1.31.06-1.08-.14-1.8-.78-3.07-1.12 0 0 0-.2-.07-.15-.37.21-1.17-.23-1.68-.39-.72-.23-2.06-.6-3.28-.95l-.38-.23-4.15-2.3 4.49.15c.597.017 1.195 0 1.79-.05 1.54.25 3.33.16 4.77.85.08.39-.33.22-.4.44s.68.13.22.26c.07.45-.64.17-.72.07-.341.009-.681-.049-1-.17-1.16.07-2.55-.16-3.83-.2-.26 0-.519.034-.77.1l.06-.35c.263.052.508.172.71.35 1 .06 2.42.5 3.73.73 1.17.68 1.84.53 2.61 1.23 1.573.107 3.119.465 4.58 1.06l-1.36 1.47-.14-.35c-.59-2.11-1.43-3.94-2.1-6.07 0-.49-.5-1.22-.22-1.59-.409-.613-.644-1.325-.68-2.06-.35-.16-.22-.26-.45-.47-.181-.717-.457-1.407-.82-2.05l1.14-.13c.007.434.075.864.2 1.28-.039.838.08 1.676.35 2.47 0 .5-.17.68.08 1.07 0 .21.23.3 0 .36-.07.53.15.66-.18.87.15.34.35.93-.02.98z" fill="#484b7d" fill-rule="evenodd"/><path d="m167.9 60.3587c-.276-2.1386-.734-4.2496-1.37-6.31-.747 4-1.32 8-1.72 12 2.83-2 7.91-5.15 11.08-7.42-1.41.05-5.61 1.46-7 1.81" fill="#484b7d"/><path clip-rule="evenodd" d="m169.09 61.0387c-.22-.38.43-.29.65-.43.06-.22.45-.27.62-.43.34-.09.74-.29 1-.17.33-.36.85-.39 1.32-.63.22-.12.39-.29.64-.43s.51-.2.79-.33c.564-.2924 1.167-.5044 1.79-.63l2.08-.37-1.68 1.54c-.683.6691-1.488 1.2019-2.37 1.57-.27.21-.3.46-.57.67-2.197 1.0649-4.28 2.3481-6.22 3.83-.6.21-.7.64-1.24.54-.272.238-.555.4616-.85.67l-.73.51.08-.88c.058-.6795.192-1.3503.4-2-.169-.4022-.28-.8265-.33-1.26-.09-1.1.38-1.93.44-3.25 0 0 .2 0 .13-.1-.29-.31 0-1.18 0-1.72.07-.75.15-2.14.23-3.41.054-.1374.101-.2776.14-.42l1.37-4.54.8 4.42c.1.53.25 1.12.43 1.74.09 1.55.56 3.28.2 4.84-.37.15-.28-.28-.52-.3s0 .69-.21.27c-.42.17-.3-.59-.22-.69-.069-.3297-.069-.6702 0-1-.32-1.12-.4-2.53-.63-3.79-.057-.253-.144-.4982-.26-.73h.35c.011.2727-.055.5431-.19.78.15 1 0 2.46.09 3.79-.42 1.29-.12 1.91-.65 2.82.237 1.5557.22 3.1397-.05 4.69l-1.73-1 .31-.21c1.94-1 3.55-2.24 5.48-3.34.49-.09 1.09-.75 1.51-.57.517-.523 1.162-.9021 1.87-1.1.08-.38.21-.27.36-.53.661-.3367 1.276-.7568 1.83-1.25l.37 1.09c-.421.1018-.828.2564-1.21.46-.825.1456-1.615.4441-2.33.88-.48.16-.71 0-1 .31-.2 0-.24.28-.34.1-.54.05-.62.29-.89 0-.4.02-.94.35-1.06-.01z" fill="#484b7d" fill-rule="evenodd"/><path d="m152.258 19.7927 4.54 16.9438 17.272 4.4091 12.672-12.4325-4.54-16.9438-17.19-4.4311z" fill="#00d9f5"/><g clip-rule="evenodd" fill-rule="evenodd"><path d="m153.232 20.1241c-.966-.0028.623-.952 1.005-1.4906-.087-.3255.765-1.0772 1.006-1.4905.606-.6858 1.234-1.2902 2.069-1.7758.437-.9894 1.595-1.9102 2.442-3.0094.382-.5386.601-1.0333 1.065-1.5938.442-.642 1.01-1.14306 1.535-1.80694.524-.66387 1.169-1.53441 1.917-2.34551l.262-.33194.639.09055c3.193.45273 6.31 1.27489 9.247 2.40704.928.18749 1.398-.02557 2.347.2433 2.211.71606 4.051 1.3571 5.601 1.9013l.579.1938.131.4884c.953 4.542 1.913 8.123 3.576 13.3473.19 1.6936.9 2.3757.528 3.6093l.087.3256.088.3255-.263.332c-1.818 2.0574-3.844 3.996-6.04 5.631-.519 1.0113-1.06 1.9413-1.764 2.9152-1.333 1.5783-2.873 3.0377-4.517 4.4377l-.486.4791-.578-.1938c-.765-.2314-1.611-.4408-2.539-.6283.104.0594-.087-.3256-.251-.2817-.879.3228-3.112-.4746-4.596-.7746-2.042-.4125-5.754-1.1624-9.073-1.756-.29-.0969-.601-.2752-.972-.3502l-1.157-.3878-.158-.9172c-.311-1.4869-.687-3.2179-1.167-5.0084-.299-2.1005-.806-4.3199-1.209-6.4798-.463-2.0566-.763-4.1571-.877-6.2201.574-.1536.611.9702 1.004 1.1266.459.4006-.376-1.731.219-.4947.677-.0942.807 1.7027.687 1.9094.3.7919.436 1.6277.49 2.4855.976 3.3149 1.789 6.6736 2.333 10.0169.197.7324.393 1.4649.671 2.1754l-.229-.2002c.639.0905 1.299.2625 1.921.6191 2.572.0961 6.655.921 10.22 1.4487 1.736.5817 3.553 1.1413 5.409 1.5163l-1.31.3511c.568-.5011 1.218-1.0241 1.911-1.3844 2.311-3.4977 5.085-6.2474 9.258-10.3312l1.196-1.1055-.427 1.6844c-1.128-5.1932-2.578-9.9511-3.75-15.307-.092-.6731-.185-1.3461-.36-1.9972l.939.8825c-.95-.2689-1.818-.5597-2.112-1.0041-1.665.01-4.231-1.0472-5.721-1.6946-.819.2194-.884-.0248-1.687-.0714-2.522-.8944-5.06-1.52268-7.697-1.86292l1.147-.30723c-.405.45722-.787.99582-1.169 1.53442-2.327 2.45523-3.222 3.04413-4.408 4.84463-.89.9364-1.567 1.0305-2.026 1.9386-.426.3758-.257.6794-.71.6264-1.179.8394-1.07 1.2463-1.993 1.4063-.797.3009-1.562 1.3781-2.283 1.3095z" fill="#484b7d"/><path d="m156.988 37.0458-4.666-17.4142 12.439-12.62109 15.366 4.34239s-12.635 3.3266-16.546 7.6687c-3.91 4.3421-6.593 18.0242-6.593 18.0242z" fill="#484b7d" opacity=".2"/><path d="m70.9999 214.429c-.61-.28.18-.66.3-1-.14-.31.25-.66.3-1 .29-.36.55-.9.92-.92 0-.68.57-1.11.86-1.76.13-.3.15-.63.28-1s.36-.63.52-1c.64-1.52 1.69-3.88 3.24-5.16.23-.39.1-.74.34-1.13 2.2052-2.332 4.0885-4.949 5.6-7.78.64-.55.5-1.16 1.26-1.29.5937-1.261 1.3986-2.411 2.38-3.4-.0268-.594.0407-1.188.2-1.76.44-1.38 1.48-2.11 2.2-3.71 0 .05.29.07.23-.05-.25-.55.5-1.48.8-2.12.43-.9 1.12-2.6 1.71-4.16.6054-.746 1.1191-1.562 1.53-2.43 1.34-1.52 2.21-3.67 3.83-5 .58.14.14.54.42.75s.52-.77.47-.12c.66.17-.09.9-.28.94-.1555.411-.4137.776-.75 1.06-.7325 1.558-1.6454 3.025-2.72 4.37-.52.8-.37 1.32-1 1.84-.396 1.654-.9004 3.281-1.51 4.87-1.18 1.4-1.08 2.34-2.26 3.16-.35 2.12-1.38 3.74-2.91 6.15-1.83 2.25-3.11 4.62-5 7-.57.34-.94 1.49-1.61 1.43-.12.87-1.19 1.76-1.79 2.28.11.54-.12.45-.17.87-1.1161 1.19-1.9711 2.6-2.51 4.14-.9 1.48-1.43 1.73-1.72 2.94-.39.55-.8.52-.87 1.16-.2.19 0 .52-.3.38-.55.47-.41.81-1 .68-.25.32-.51 1.08-.99.77z" fill="#c7c7d4"/><path d="m63.3201 195.599c.58.28.19.18.27.26.25.15.14.15.27.26 0 0 0 .15-.23 0 .31.24.11.21.21.36s.2.18.27.27 0 .11.09.2c.24.35.53.87-.05.79 0 .06.24.24.24.3-.62.13-.89.23-.92.75-.25-.06.09.24-.41 0 0 .24-.09.34-.43.28.1802.173.338.368.47.58.17.34-.34.12-.31.4 0 0-.23-.17-.15-.09.36.34.12.33.11.43.0051.255.0319.509.08.76-.2 0-.32 0-.37.14-.5-.13-.53.22-1.29-.17-.43-.39-.24-.29-.49-.53s-.15 0-.29-.22c-.49-.44-.18-.29-.06-.2 0-.1.12 0 .23 0 0-.25.37-.17.64-.19s-.13-.3.15-.17c-.1951-.352-.359-.72-.49-1.1.37.05 0-.36.53-.1-.49-.65-.35-.78-.16-1 .47 0 .45-.39.8-.53.28.1.06-.19.58.1-.29-.28.1-.2.31-.17-.32-.24-.11-.12-.26-.26.29 0 .27-.23 0-.63 0-.22.22-.14-.14-.48 0-.07.33.08.07-.13-.25-.18.05 0 0 0 .25.18-.09-.16.38.06.03-.04-.15-.23.35.03z" fill="#c7c7d4"/><path d="m68.8899 202.029c.59.28.21.15.3.22.26.15.15.13.29.23 0 0 0 .11-.21 0 .33.21.14.17.26.28s.22.16.29.23.06.08.13.15c.29.27.67.67.13.55 0 0 .27.19.28.24-.53 0-.75.09-.63.45-.24-.05.15.18-.38 0 .12.17 0 .24-.29.18.25.18.48.33.59.43s-.26.08-.14.28c0 0-.26-.12-.17-.07.44.24.22.23.25.3.0949.188.2088.365.34.53-.18 0-.26 0-.25.11-.49-.08-.37.16-1.17-.08-.2159-.106-.4261-.223-.63-.35-.29-.16-.13 0-.33-.14-.6-.29-.27-.2-.13-.15 0-.07.09 0 .2 0-.11-.18.27-.14.49-.17s-.23-.22.06-.13c-.2863-.246-.5538-.514-.8-.8.35 0-.13-.28.44-.09-.63-.48-.53-.58-.42-.76.41 0 .31-.29.59-.38.28.09 0-.14.55.1-.32-.22.06-.14.26-.1-.35-.2-.13-.1-.3-.21.26 0 .2-.15-.17-.47-.07-.18.18-.09-.21-.38 0-.06.32.09 0-.1-.26-.16 0 0 0 0 .26.16-.11-.12.36.09.13-.07-.08-.24.42.01z" fill="#c7c7d4"/><path d="m106.64 181.599c-.65 0-.24-.12-.34-.19-.29-.06-.18-.13-.34-.19 0-.08-.08-.18.2-.19-.37-.14-.17-.22-.32-.36s-.24-.13-.33-.2-.07-.13-.16-.21c-.35-.31-.79-.81-.21-1.05 0-.08-.31-.16-.33-.24.55-.55.77-.86.63-1.54.26-.09-.16-.24.41-.22-.13-.27 0-.49.32-.64-.232-.11-.45-.248-.65-.41-.28-.31.29-.38.17-.71 0 0 .28.05.18 0-.47-.17-.24-.32-.26-.45-.086-.3-.2-.591-.34-.87.18-.067.3-.238.3-.43.54-.2.45-.64 1.33-.71.56.14.34.17.67.28s.15-.11.36 0c.64.17.28.23.13.2 0 .11-.11.12-.23.15.1.29-.32.49-.57.71s.23.29-.09.33c.42.32.53.68.85 1-.39.21.14.45-.5.52.7.49.59.77.48 1.21-.45.37-.31.83-.6 1.26-.3 0 0 .28-.59.24.37.19 0 .34-.25.43.38.12.15.1.34.19-.27.23-.19.47.25.81.1.29-.17.34.29.58 0 .1-.35.1 0 .22 0 0 .3.1 0 .08s.14.16-.38.14c-.06.17.14.32-.42.26z" fill="#c7c7d4"/><path d="m116.7 176.609c-.64.11-.25 0-.36 0-.12.012-.24.012-.36 0 0 0-.1 0 .17-.07-.38 0-.2 0-.36 0h-.36c-.063.005-.127.005-.19 0-.38-.05-.9-.23-.36-.31 0 0-.32-.06-.35-.09.47-.19.65-.23.43-.49.24 0-.19-.12.37 0-.15-.11-.08-.17.23-.14-.227-.084-.448-.184-.66-.3-.29-.2.24-.07.09-.23l.17.06c-.45-.22-.24-.21-.27-.27s-.2-.29-.34-.51c.18 0 .25 0 .25-.07.46.15.38-.1 1.09.33.46.35.28.25.55.46s.11.05.29.22c.52.4.25.21.13.13 0 .06-.07 0-.17-.08.12.14-.2 0-.39-.05s.23.19 0 .06c.4.28.55.42.89.62-.31-.1.21.13-.36-.06.71.32.67.31.64.35-.36 0-.16.05-.38.07-.18.014-.36.014-.54 0 .39.06 0 .06-.19.08h.36c-.23 0-.12.1.36.11.14 0-.12.06.36 0-.32.05 0 0 0 0s.31 0 0 0 .15 0-.36.07c-.08.04.17.01-.38.11z" fill="#c7c7d4"/><path d="m140 201.739c-.53.38-.41-.26-.61-.41-.31 0-.38-.32-.61-.42-.12-.28-.4-.58-.22-.84-.51-.16-.56-.64-.91-1-.17-.16-.41-.23-.61-.4s-.3-.38-.51-.58c-.84-.76-2.09-2-2.26-3.37-.17-.25-.51-.23-.68-.47-.624-2.063-1.643-3.985-3-5.66-.09-.58-.62-.59-.32-1.18-.653-.68-1.118-1.517-1.35-2.43-.425-.085-.829-.252-1.19-.49-.8-.59-.8-1.52-1.61-2.37 0 0 .2-.21.08-.19-.54.1-.83-.66-1.15-1s-1.33-1.34-2.17-2.08c-.229-.604-.568-1.16-1-1.64-.41-1.32-1.52-2.4-1.68-3.93.39-.43.46 0 .76-.2s-.29-.55.15-.39c.46-.49.61.24.54.4.217.207.354.482.39.78.756.873 1.361 1.867 1.79 2.94.31.56.78.54.83 1.12 1.003.603 1.947 1.3 2.82 2.08.43 1.17 1.18 1.27 1.17 2.32 1.41.67 2.08 1.77 3.1 3.39.73 1.82 1.86 3.23 2.68 5.05 0 .5.64 1 .25 1.48.6.26.71 1.22.8 1.77.47 0 .28.17.57.29.328 1.058.978 1.988 1.86 2.66.68 1 .59 1.39 1.38 1.84.22.4 0 .69.44.87.05.18.4.11.14.29.07.49.41.46 0 .83.2.33.65.68.13.94z" fill="#c7c7d4"/><path d="m144.51 198.999v.37.35-.17.36.36c.005.056.005.113 0 .17 0 .39 0 .9 0 .37v.35c0-.46 0-.62-.06-.35 0-.24 0 .21 0-.37 0 .19 0 .13 0-.17v.72c0-.2 0 .33 0 0v-.18.35.55c0-.18 0-.23 0-.18 0-.47 0-.26 0-1.09 0-.57 0-.37 0-.72s0-.11 0-.35c0-.67 0-.33 0-.18 0-.08 0 .07 0 .18 0-.19 0 .17 0 .35 0-.3 0 .18 0 0 0-.48 0-.68 0-1.07v.35c0-.78 0-.74 0-.72-.009.123-.009.247 0 .37v.54c0-.4 0 0 0 .18-.009-.123-.009-.247 0-.37 0 .24 0 .12 0-.35 0-.15 0 .12 0-.37 0 0 0 .33 0 0v.37z" fill="#c7c7d4"/><path d="m125.35 150.229c-.65 0-.26 0-.36 0h-.36.18c-.119.024-.241.024-.36 0h-.36-.18c-.39 0-.9-.07-.36-.1h-.36c.46-.06.62-.09.36-.15h.36c-.18 0-.13-.05.18-.07h-.72c-.34 0 .19 0 0-.07h.18c-.5 0-.31 0-.36 0l-.54-.07c.17 0 .22 0 .18-.05.358-.052.718-.085 1.08-.1h.72.36c.66 0 .32 0 .18 0 .07 0-.08 0-.18 0 .18 0-.18.05-.36.08s.3 0 0 0c.48 0 .68.06 1.08.09-.33 0 .24 0-.36.06.78 0 .74.06.72.11-.37 0-.15.08-.36.13-.18.012-.36.012-.54 0 .39 0 0 0-.18 0h.36c-.24 0-.12 0 .36.07.14 0-.13 0 .36.06-.33 0 0 0 0 0s.3 0 0 0 .15 0-.36 0c-.06.01.2.01-.36.01z" fill="#c7c7d4"/><path d="m130.81 154.459c-.53.38-.27.06-.39.08s-.22 0-.38.08-.17-.08 0-.27c-.36.15-.27 0-.46 0s-.27.08-.38.09-.13 0-.25 0c-.45 0-1.07.07-.83-.49-.07 0-.32.14-.38.11 0-.7-.1-1.06-.68-1.27.09-.25-.27 0 .07-.44-.28 0-.39-.2-.33-.55-.203.145-.421.269-.65.37-.38.12-.16-.39-.48-.41 0 0 .18-.23.1-.15-.36.35-.37.09-.48.07-.275-.037-.554-.037-.83 0 .034-.164-.061-.328-.22-.38 0-.55-.35-.56-.14-1.41.29-.49.25-.27.45-.56s-.06-.17.15-.33c.34-.57.29-.2.22-.07.12 0 .08.14.07.26.31 0 .36.45.46.76.06.15.34-.12.26.19.404-.191.836-.313 1.28-.36 0 .43.48.08.25.67.76-.38 1-.13 1.29.21.09.59.55.76.71 1.26-.15.27.23.18-.18.61.38-.17.24.25.16.46.35-.21.17-.05.36-.13 0 .36.21.45.76.39.29.14.12.36.62.23.09.08-.18.31.14.2 0 .06.29-.12.05.06-.07.19.21 0-.19.36.04.13.31.05-.15.36z" fill="#c7c7d4"/><path d="m92.3 154.659c-.38-.52-.06-.26-.09-.37-.15-.26 0-.22-.09-.38s.07-.16.26 0c-.16-.36 0-.26 0-.45s-.09-.26-.11-.37 0-.13 0-.24c0-.44-.11-1 .43-.79 0-.07-.13-.32-.11-.38.68 0 1 0 1.21-.58.25.1 0-.27.43.1 0-.27.19-.37.53-.28-.1374-.21-.2578-.431-.36-.66-.11-.37.39-.12.41-.42 0 0 .21.18.14.1-.33-.37-.08-.35-.06-.46.0338-.266.0338-.535 0-.8.2 0 .33 0 .38-.18.53.09.55-.28 1.37 0 .47.33.26.27.53.48s.17 0 .32.18c.54.39.18.3.06.22 0 .12-.14.07-.26 0 0 .29-.44.29-.74.35s.11.34-.19.23c.1761.4.2875.825.33 1.26-.42 0-.08.44-.65.17.36.76.12.94-.2 1.22-.56 0-.71.47-1.18.6-.26-.16-.17.2-.59-.21.17.37-.23.21-.44.12.21.35.06.17.14.36-.34 0-.42.18-.34.72-.12.27-.34.1-.19.59-.07.08-.3-.19-.18.13-.06 0 .12.28-.06 0-.18-.07 0 .2-.35-.2-.08.13-.03.4-.35-.06z" fill="#c7c7d4"/><path d="m156.36 192.829c-.65.57-.44 0-.64 0-.36.18-.39-.08-.64 0-.11-.18-.39-.27-.17-.59-.55.14-.56-.24-.92-.32-.17 0-.43 0-.63 0s-.29-.15-.5-.19c-.85-.15-2-.36-2.18-1.42-.17-.09-.49.16-.66.07-.299-.623-.702-1.191-1.19-1.68-.467-.462-1.051-.787-1.69-.94-.14-.43-.51.07-.41-.71-.534.054-1.067-.108-1.48-.45l-.08.29v.07l-.66-1.24c-.15-.29-.31-.5-.39-.64s0-.29.07-.43c.161-.147.191-.389.07-.57 0 0 .38-.07.23-.07-.66 0-.47-.32-.62-.48-.325-.27-.738-.409-1.16-.39-.009-.296-.213-.549-.5-.62-.25-.85-1.14-.84-1.68-2.07.09-.77.27-.45.39-.9s-.37-.22 0-.49c.11-.88.49-.35.49-.14.28 0 .39.2.52.39.77 0 1.47.76 2 1.39.28.33.75 0 .74.59.86-.11 1.81.64 2.58 1.52-.026.443.015.888.12 1.32.065.391-.108.783-.44 1 .401.751.343 1.665-.15 2.36l-2-3.46c.818-.214 1.68-.183 2.48.09 1.312.686 2.529 1.54 3.62 2.54 0 .47.68.44.31 1.15.61-.2.76.58.84 1 .48-.3.28 0 .59-.13.353.731 1.098 1.191 1.91 1.18.69.44.58.85 1.41.82.24.22-.06.6.44.52 0 .13.44-.11.14.17 0 .39.43.2 0 .71-.06.21.48.28-.16.75z" fill="#484b7d"/><path d="m105.32 150.809h.49 1.43c.52 0 1.2 0 .49 0h.47c-.61 0-.83 0-.47.05-.163.018-.327.018-.49 0 .25 0 .17 0-.23 0h.99c-.26 0 .46 0 0 0h-.23.47.72c-.22 0-.29 0-.23 0-.63 0-.35 0-1.45 0h-1.67.24.47c-.4 0 .24 0 0 0h-1.43.47c-1 0-1 0-1 0 .163.011.327.011.49 0h.72c-.53 0 0 0 .24 0h-.49c.32 0 .16 0-.47 0-.19 0 .16 0-.49 0 0 0 .44 0 0 0h.49z" fill="#484b7d"/><path d="m108.62 163.919c-.86 0-.33-.16-.48-.24-.4 0-.26-.17-.48-.23 0-.12-.14-.26.23-.33-.51-.13-.27-.3-.48-.46s-.35-.15-.49-.23-.11-.18-.24-.27c-.52-.39-1.23-1-.53-1.48 0-.11-.45-.15-.49-.26.593-.643.735-1.581.36-2.37.31-.22-.3-.29.46-.47-.27-.33-.22-.69.17-1-.348-.056-.685-.163-1-.32-.48-.31.21-.65-.09-1.05 0 0 .38-.06.24-.06-.67 0-.44-.34-.53-.51-.234-.364-.509-.7-.82-1 .191-.187.258-.468.17-.72.57-.55.22-1.07 1.26-1.68.76-.13.5 0 1 0s.12-.24.46-.13c.88-.14.46.16.27.21.12.12-.07.23-.2.34.28.36-.13.88-.34 1.32-.09.25.43.29 0 .52.568.289 1.09.659 1.55 1.1-.4.49.37.61-.4 1 .744.15 1.227.874 1.08 1.62-.43.75-.11 1.41-.36 2.16-.37.17.09.44-.69.56.53.17 0 .52-.21.73.53.07.21.09.49.18-.3.43-.14.76.51 1.19.2.43-.15.56.5.84 0 .17-.43.23 0 .36-.06.07.41.1 0 .12-.21.18.21.22-.48.29-.06.06.31.25-.44.27z" fill="#484b7d"/><path d="m40.3701 31.7779 32.815 20.025s-14.0344-11.04-13.8897-20.42c.1446-9.38 15.0046-20.42 15.0046-20.42z" fill="#484b7d" opacity=".2"/><path d="m109.06 38.6662 9.044 37.3635s-2.118-17.7303 4.617-24.2607c6.735-6.5303 25.049-3.8292 25.049-3.8292z" fill="#484b7d" opacity=".2"/><path d="m80.4773 157.723s-5.161 6.053-5.5437 11.2c-.459 6.174 3.4512 12.28 3.4512 12.28s-12.3382-3.378-11.1748-13.408c1.1633-10.029 13.2673-10.072 13.2673-10.072z" fill="#484b7d" opacity=".2"/><path d="m36.4773 185.723s-5.161 6.053-5.5437 11.2c-.459 6.174 3.4512 12.28 3.4512 12.28s-12.3382-3.378-11.1748-13.408c1.1633-10.029 13.2673-10.072 13.2673-10.072z" fill="#484b7d" opacity=".2"/><path d="m140.477 153.723s-5.161 6.053-5.543 11.2c-.459 6.174 3.451 12.28 3.451 12.28s-12.338-3.378-11.175-13.408c1.163-10.029 13.267-10.072 13.267-10.072z" fill="#484b7d" opacity=".2"/><path d="m113.477 188.723s-5.161 6.053-5.543 11.2c-.459 6.174 3.451 12.28 3.451 12.28s-12.3384-3.378-11.175-13.408c1.163-10.029 13.267-10.072 13.267-10.072z" fill="#484b7d" opacity=".2"/><path d="m174.477 188.723s-5.161 6.053-5.543 11.2c-.459 6.174 3.451 12.28 3.451 12.28s-12.338-3.378-11.175-13.408c1.163-10.029 13.267-10.072 13.267-10.072z" fill="#484b7d" opacity=".2"/></g></svg>