<svg height="216" viewBox="0 0 216 216" width="216" xmlns="http://www.w3.org/2000/svg"><g fill="none" fill-rule="evenodd" transform="translate(8 11)"><path d="m128.570656 193.829098h-6.432306c-1.339668-.171351-2.688837-.333183-4.028505-.523573-9.596202-1.351773-18.052262-5.435649-25.9287487-10.899857-12.1859113-8.599155-23.530445-18.336796-33.8812456-29.082149-17.2541621-17.715836-34.1092742-35.821973-51.08790173-53.813875-1.79040799-1.9434641-3.42941869-4.0216411-4.90261434-6.2162498-1.28528823-1.8723797-2.0014281-4.07785-2.06175836-6.3495233-.14251786-4.0362786 1.90023812-7.0158899 4.82660482-9.519525 2.93274268-2.6373549 7.15186991-3.2701348 10.72684411-1.6087998 2.2520605 1.0229481 4.2579178 2.5196922 5.881237 4.3885011l25.7007205 26.9021778c1.8242286 1.903905 3.6294548 3.80781 5.4726858 5.711715.6420283.814673 1.7152778 1.154248 2.7078393.856757.8899868-.254944 1.5595781-.992179 1.7292167-1.903905.1593362-1.013305-.23598-2.03439-1.0356298-2.674986l-24.5035705-25.8740694c-8.076012-8.5485335-16.152024-17.097067-24.22803595-25.6456005-2.82867475-2.7818052-4.18707915-6.7344213-3.66745956-10.6713876 1.06413335-8.5675726 9.50119061-12.9275151 16.90261801-8.6151702 2.0657146 1.2552869 3.9515447 2.7860773 5.6057025 4.550333 15.2019049 15.7706798 30.3404686 31.5699183 45.4156909 47.3977153.3147463.3388673.6511657.6568565 1.0071262.9519525.8004239.669697 1.9644226.669697 2.7648465 0 .8901393-.6344765 1.1282048-1.8563937.5415679-2.7797013-.3870918-.6435249-.8461097-1.240761-1.3681715-1.7801512-4.3325429-4.6645673-8.6555846-9.3291346-13.0166311-13.9651433-13.2319914-14.0888971-26.4766511-28.174621-39.733979-42.2571718-1.7496436-1.8007939-3.0941182-3.9561045-3.9429941-6.3209646-2.593825-7.4918662 1.9477441-14.93613484 9.7007156-15.63106017 4.3902559-.37109315 8.7079107 1.2954467 11.714968 4.52177437 3.0783857 3.0462481 5.9952513 6.235289 8.9881263 9.3576932l44.0855243 46.1220989c.950119.9519526 1.9002381 1.9800613 2.8503571 2.9224942.7863789.9696187 2.2042788 1.1265248 3.1828989.3522225.9529315-.8428949 1.1394609-2.2608163.4370548-3.3223143-.2444989-.3949538-.5312272-.7620358-.8551072-1.0947454-2.5463191-2.7130646-5.1021393-5.4070902-7.6009525-8.1201548-11.6294572-12.3182655-23.2304109-24.6270114-34.7173503-37.0119135-1.4650848-1.6061619-2.6675713-3.4342557-3.5629465-5.4166098-1.7370806-3.5174136-1.1613384-7.74012985 1.4536822-10.66186806 2.6983381-3.29375568 6.0902631-5.03582876 10.4513096-4.26474723s7.8099786 3.11288469 10.8218561 6.14009367c5.4631845 5.45468782 10.8598608 10.97601242 16.2660382 16.47829792 15.8353174 16.0753046 31.6706354 32.144263 47.5059534 48.2068749 3.942994 3.988681 8.123517 7.7298544 12.209029 11.585262 2.261284 2.1418932 4.950121.180871 5.330168-1.7420731.131146-.9124026.026462-1.8432592-.304038-2.7035451-2.992875-8.3486235-6.042757-16.6782079-9.073637-25.0077923-1.130585-3.0254262-1.734756-6.2227636-1.786224-9.4528884-.095012-9.6147203 4.247033-16.897157 12.019006-22.1995325 3.648458-2.5036351 8.104516-.9043549 9.681714 3.3127947 7.347587 19.6292607 14.669838 39.2648678 21.966752 58.9068212 1.900238 5.0643873 3.401427 10.281087 5.577199 15.2312402 3.518284 7.890242 4.660832 16.638007 3.287412 25.169624-1.577198 10.290607-5.833731 19.476948-11.534445 28.054041-7.467615 11.055681-16.847038 20.685321-27.695971 28.434821-6.931749 5.232427-14.938173 8.854789-23.439437 10.604751-2.109264.3903-4.275536.656847-6.422805.970991z" fill="#ffcd00" fill-rule="nonzero"/><path d="m171.734565 133.713298c-3.220904-7.986882-9.501191-15.231241-9.168649-23.846411.380048-8.900756 7.904991-16.1831923 8.883613-24.9982725.750594-6.81598-2.47981-13.3273351-5.615203-19.4579093l-14.812356-28.8156024c-.731592-1.4184092-2.014253-3.0557675-3.496439-2.7035451-1.679654 3.568123-2.505956 7.4794444-2.413302 11.4234301.048426 3.2295701.64938 6.4268902 1.776723 9.4528884 3.030879 8.3295844 6.080762 16.6591689 9.073637 25.0077924.3305.8602858.435183 1.7911424.304038 2.7035451-.357062 1.5538575-1.733999 2.6575323-3.325417 2.665467-.871463 2.2764145-2.732976 4.0293331-5.054633 4.7597625-4.750596 1.304175-9.197153-2.6464279-12.503567-6.3019256-6.54632-7.2443585-12.864612-14.6981467-19.401431-21.9520248-12.228033-13.5653232-25.1876565-26.4262016-38.1282781-39.3537166-6.6508334-6.6065504-13.3016668-13.21310082-20.19003-19.54358499-1.5358813.83710171-2.8868216 1.9769309-3.9714976 3.35087283-2.6150206 2.92173821-3.1907628 7.14445446-1.4536822 10.66186806.9011786 1.9836301 2.1101273 3.8117979 3.5819489 5.4166098 9.1084747 9.8178035 18.2612883 19.6007021 27.4584407 29.3486958 2.3879659 2.4560374 4.7442612 4.9533262 7.0688858 7.4918662l.1330167.1427929c2.5463191 2.7130646 5.1021393 5.4070902 7.6009525 8.1201549.32388.3327095.6106082.6997915.8551071 1.0947453.7024062 1.061498.5158768 2.4794194-.4370548 3.3223143.0406953 1.9155738-.9405447 3.7077065-2.5748226 4.7026454-3.1924 1.6849559-6.8598596-1.0376283-9.4251811-3.5793414-18.0395938-17.8142046-35.4806126-36.2186198-52.3230565-55.2132455-3.0593833-3.4841461-7.2399072-7.3205147-11.6104549-7.4823467-4.437056 2.7416233-6.5083155 8.3295845-4.5605714 13.9556238.8488758 2.3648601 2.1933505 4.5201707 3.9429941 6.3209646 13.2446596 14.0888971 26.4893193 28.1777942 39.7339789 42.2666914.7790977.8186791 1.5391929 1.6563973 2.3087894 2.4750765 2.0504061 1.9048013 3.9559452 3.9603907 5.7007143 6.1496132 1.6627084 1.7801512 3.3254167 3.5507828 4.9786239 5.3404535.5214843.536416.9804823 1.1304325 1.3681714 1.7706317.586637.9233076.3485715 2.1452248-.5415678 2.7797013-.0689599.0561461-.1420052.1070582-.2185274.1523124.6460809 2.465557.4845607 5.3023755-1.7197155 6.2828866-1.9002381.8281986-3.9619965-.3141444-5.6437072-1.4755264-20.1615264-13.9365847-34.4038111-34.8033837-51.8765006-52.0622826-2.3182905-2.2942056-5.035631-4.6550478-8.21852984-4.8739969-2.23309179 1.9781786-3.64645289 4.7220623-3.96199647 7.6917763-.51961959 3.9369663.83878481 7.8895824 3.66745956 10.6713876 8.06967785 8.5485335 16.14568985 17.097067 24.22803595 25.6456005l23.6104586 25.0173124c1.4831499 1.33382 2.8035007 2.838857 3.9334929 4.483696.1710214 4.854958-5.8527334 7.967842-10.5558227 6.777902-4.7030894-1.189941-8.1425203-5.083427-11.2874144-8.777002l-18.0617633-21.2380609c-2.4228036-2.8558575-4.9216167-5.711715-8.2185299-7.5299443-2.85985833-1.5612021-6.59382622-1.9895807-9.51069173-.6282887-1.0204657 1.6894976-1.51961239 3.6435694-1.43467978 5.6165198.06430689 2.2739029.78724959 4.479991 2.08076074 6.3495233 1.47359277 2.1913273 3.11259439 4.2663102 4.90261434 6.2067303 16.97862753 17.9919025 33.83373963 36.0980395 51.08790173 53.8138755 10.3508006 10.745352 21.6953343 20.482994 33.8812456 29.082149 7.8479837 5.464207 16.3325467 9.519525 25.9287487 10.899856 1.339668.190391 2.688837.352222 4.028505.523574h6.432306c2.147269-.314144 4.313541-.561652 6.441807-.951953 8.495397-1.755483 16.495124-5.381003 23.420435-10.61427 1.168647-.856757 2.30879-1.732554 3.439431-2.617869 2.408415-2.932623 4.542504-6.080982 6.375299-9.405291 6.090263-11.080727 8.237532-24.798363 3.486937-36.516898z" fill="#ffb800" fill-rule="nonzero"/><g fill="#2e316a"><path d="m128.979207 193.771981c-1.672209.237988 1.814728-.247507 6.593827-1.037628 2.547349-.52264 5.052912-1.23217 7.496439-2.122854 2.168141-.790226 4.287478-1.708894 6.346795-2.751143 2.879485-1.47585 5.648419-3.158869 8.285039-5.035829 3.363421-2.3894 6.831356-5.188141 9.17815-7.253878 4.066048-3.532089 7.876142-7.349535 11.401428-11.42343 3.410928-3.931564 6.090263-7.61562 7.600953-9.767032 3.795116-5.623508 6.875121-11.69947 9.168649-18.087098 2.346794-6.81598 3.800476-14.488717 2.907364-22.190013-.38506-3.432983-1.199034-6.803902-2.422804-10.033579-.598575-1.6088-1.330166-3.170002-2.08076-4.8454387-.750594-1.6754364-1.444181-3.4555876-2.156771-5.3594926-1.406176-3.8649272-2.71734-7.6156201-4.218528-11.4234301l-4.579574-11.966043c-3.163897-8.2915064-6.869361-17.8300705-10.840859-28.082599l-6.090263-15.8214507c-.472732-1.1241051-1.287308-2.0701705-2.327791-2.7035451-1.019641-.5992835-2.225656-.7961482-3.382424-.5521324-.588432.1244258-1.150957.3498698-1.662709.6663667-.290134.1730223-.569363.3637734-.836104.5711715l-.864609.6378082c-1.138176.8726614-2.211476 1.8271333-3.211402 2.8558575-1.005694 1.0146121-1.915365 2.1204334-2.717341 3.3032752-.819768 1.1655442-1.517063 2.4128875-2.08076 3.7221343-1.125678 2.6369327-1.769316 5.4550602-1.900238 8.3200649-.170632 2.8861398.134319 5.7807329.902613 8.5675726.361045 1.3898507.88361 2.7321037 1.406176 4.169552.522565 1.4374483 1.016627 2.8558575 1.52019 4.2361886 2.014253 5.6260394 4.000002 11.1949615 5.938244 16.6210908.247031.6758863.484561 1.3612921.722091 2.0276588.143895.376143.264473.7608291.361045 1.1518626.097862.4225369.161411.8523202.190024 1.2851359.014472.461288-.03347.9224151-.142518 1.3708116-.11349.4852386-.3061.9483944-.570071 1.3708116-.514953.7981296-1.246753 1.4322588-2.109265 1.8277488-.915207.4130184-1.950139.4740143-2.907364.1713515-.218527-.0856758-.446556-.180871-.665083-.2855858-.218528-.1047148-.39905-.2379881-.589074-.3712615l-.503563-.4283786-.370547-.361742-2.95487-2.8558575c-3.724467-3.427029-6.527318-5.911625-9.225656-8.5009359-2.698338-2.5893108-5.368173-5.150063-8.921618-8.738924l-39.2589193-40.3532668-8.9501216-9.1577831-4.3990512-4.4932158c-.7220905-.74252296-1.444181-1.48504591-2.1757726-2.21804934-.7087824-.69972099-1.457466-1.3576726-2.242281-1.97054169-1.5260799-1.21519149-3.2355187-2.17920888-5.0641346-2.85585753-1.758709-.69712051-3.6544935-.97731276-5.5391941-.81867915-1.8369321.23639934-3.5576764 1.03033284-4.9311179 2.27516649-1.4360189 1.21033871-2.5712565 2.73885973-3.3159155 4.46465726-.6688588 1.72253706-.7391457 3.62058996-.199525 5.38805116.28598.9123179.664854 1.7927465 1.1306416 2.6273889.4640286.8638545.9878759 1.6940847 1.5676965 2.4845961.6003704.7930463 1.2509575 1.5466399 1.9477441 2.2561274l2.1092643 2.2561275 4.2470322 4.550333 17.5296966 18.7153862c3.0023762 3.2112532 6.0649266 6.4732771 9.1876513 9.7860718l4.7505953 5.0263093 2.4133024 2.5512327 1.2256535 1.2851359c.4877552.4825688.9066032 1.0303644 1.244656 1.6278387.389453.72131.536076 1.5493224.418052 2.3608423-.131852.8573306-.5876958 1.631033-1.2731591 2.1609322-.7189548.5662672-1.6535798.7794095-2.5463191.580691-.7752255-.1975959-1.4775955-.6138842-2.0237536-1.1994602-1.7292167-1.7579389-3.4616004-3.5380901-5.1971513-5.3404535l-10.6983405-11.0902467c-12.2280323-13.2511789-19.3444241-19.8767684-26.7648539-28.6918486l-8.3135418-8.5675726-4.1425191-4.2837863c-1.2866092-1.3977989-2.803574-2.5634788-4.4845619-3.446068-3.3681728-1.71566305-7.3235171-1.84125034-10.7933525-.3427029-3.358852 1.5986248-5.6243436 4.8568019-5.9572465 8.5675725-.1934477 3.7220423 1.0830401 7.3708145 3.5534453 10.1573333 2.5083143 2.7987404 5.18765 5.6070002 7.7244679 8.3676625l14.9738764 16.335505c8.2185298 8.2343892 16.152024 16.0118412 25.0451383 25.3695343l4.0475072 4.2361887 1.9857489 2.103815c.3230404.3331834.6840857.723484 1.0261285 1.1328235.1710215.2094296.3420429.4378982.5035631.6663668.1775422.2597574.3393538.5299637.4845608.8091596.3602803.7355369.451082 1.5745465.2565321 2.3703618-.2088751.7457271-.6397574 1.4099021-1.2351548 1.903905-.598172.5251838-1.3534181.8365706-2.147269.8853158-.7819566.0332487-1.5550899-.1761994-2.2137775-.5997301-.2490904-.1710372-.481337-.3654807-.6935869-.580691l-.598575-.5521325c-.3800476-.3712614-.6650833-.6854058-.950119-1.0281087l-1.9002381-2.0276588-15.6294585-16.2974269-16.4465609-17.3255357-8.9786251-9.3862517c-1.4827787-1.6524084-3.1038881-3.1747331-4.8456072-4.550333-1.6875073-1.357833-3.6802177-2.2825879-5.8052275-2.6940256.4940619.1237539.1235155-.1047147-.6080762-.2284686l-.5890738-.1047147h-.6650833c-.429204-.0186829-.8587019.029488-1.2731596.1427928-1.0823253.2653455-2.1130319.7093081-3.0498821 1.3136945-1.28162705.8017064-2.36373422 1.8859017-3.1638965 3.1700019-2.04794271 3.3461764-2.25908971 7.505552-.56057024 11.042649.49541377.9549928 1.10825975 1.844055 1.82422859 2.646428.35154405.3998201.79810001.8567573 1.2066512 1.3041749l1.26365835 1.3327335 5.0166286 5.311895c3.2969132 3.4841462 6.4418072 6.81598 9.1401454 9.6527985l30.6413396 32.0807995 2.3372929 2.446518c.5982936.630328 1.0323121 1.398683 1.2636583 2.237088.1165036.499148.1390588 1.01569.0665083 1.523124-.1977959 1.49451-1.1489797 2.781985-2.5178155 3.40799-.9287309.439186-1.9837957.530373-2.9738726.257027-.8501854-.260438-1.6191265-.735807-2.2327798-1.380331l-1.19715-1.237538c-3.1828989-3.293756-6.4228048-6.663668-9.6912144-10.005021l-19.5629514-20.1718734c-1.414465-1.7061367-3.0805167-3.1860058-4.9406191-4.3885011-.8934979-.5029043-1.8529553-.8778147-2.8503572-1.1137844-.9797676-.2382429-1.996846-.2802985-2.992875-.1237538-.98071902.1925432-1.91584157.5705448-2.75534528 1.1137844-.93872425.6218684-1.80271015 1.350167-2.57482265 2.1704517-1.54983081 1.5119169-2.48143342 3.5484267-2.61282741 5.7117151-.03202883 1.1243775.11879466 2.2464833.44655596 3.3223142.16266646.5393191.37580605 1.0620407.63657977 1.5612021.27674875.5286324.59442803 1.0347172.95011906 1.5136045.76959644 1.0947454 1.56769644 2.1704517 2.40380121 3.2080799.41805239.5140544.84560597 1.0185892 1.29216192 1.5136045.44655596.4950153.90261311.9519525 1.39667502 1.4850459 3.8828199 4.0553174 7.8194798 8.2312164 11.8099799 12.5276954l21.9477502 24.198632c3.8004763 4.125128 7.6009525 8.28516 11.4014287 12.480098 1.9002381 2.075256 3.8004762 4.217149 5.7672227 6.254328 1.9667464 2.037178 3.9524953 4.083876 5.9762489 6.073457 8.0208635 7.971786 16.6660825 15.28713 25.8527395 21.875868 4.463175 3.243522 9.3030553 5.93185 14.4133063 8.005921 2.511197.989931 5.093345 1.788664 7.724468 2.389401 2.603326.609249 5.244657.875796 7.847983 1.228018-2.175772-.285585-4.199526-.523573-4.750595-.628288l.674584.104715 4.047508.523573c-1.320666-.19039-3.059384-.371261-4.921617-.666366-1.924188-.29272-3.828162-.706044-5.700714-1.237539-2.632703-.744854-5.20796-1.680226-7.705466-2.79874-4.7539548-2.174283-9.2745134-4.828059-13.4916906-7.920245-3.7054643-2.60835-6.9358691-5.083426-10.270787-7.758413-7.0712392-5.656869-13.8302299-11.694815-20.2470372-18.087097-6.5653226-6.663668-13.1971537-13.698597-19.9525002-20.743046l-20.1045192-21.333255-9.99525252-10.595232c-3.31591551-3.4841458-6.65083341-7.0539677-8.78860129-11.3663125-.97524554-2.3329091-1.19135359-4.9145542-.61757738-7.377632.59082217-2.1227934 1.74691034-4.0445501 3.34441908-5.5594026 1.34757049-1.4263243 2.99677699-2.5322539 4.82660481-3.2366385 1.7319754-.5902368 3.5931289-.6890749 5.3776739-.2855858 1.7102395.3690823 3.3269614 1.0850523 4.7505953 2.1038151 1.3829346 1.0310333 2.6564503 2.2017388 3.8004762 3.4936657 2.441806 2.5321936 4.9501203 5.2166997 7.7529715 8.3200649 4.8266048 4.8263992 10.3753001 10.4714775 16.4180573 16.5925317l4.6080775 4.759763 2.3372928 2.389401c.5441415.64145 1.4850817.764955 2.1757727.285586.663008-.41893.9213489-1.260158.6080762-1.980062-.2291035-.429942-.5313421-.816523-.8931119-1.142343l-1.2256536-1.275616-4.9976263-5.188141-41.36818375-42.837863-1.22565358-1.4469678c-.4085512-.4378982-.88361073-.9519525-1.28266073-1.4755264-.80753278-1.0426508-1.48402732-2.1808432-2.0142524-3.3889509-1.88371519-4.5995727-1.27352296-9.8465635 1.6152024-13.8889871 1.32889833-1.816899 3.12516107-3.2382572 5.19715126-4.1124348 1.9596489-.8171462 4.097845-1.109132 6.2042774-.8472378 1.9579689.2725478 3.8396956.9431132 5.5296929 1.9705417 1.5221436.9382086 2.9451381 2.0290436 4.2470322 3.2556776 1.292162 1.1994601 2.3562953 2.3894008 3.486937 3.5317438 8.8836132 9.2339393 16.7981049 17.4968871 26.5083217 28.1777942l11.7244692 11.7756525 2.9263667 2.9510528 1.4631833 1.4755264.7315917.7425229.6270786.5806911c.1107299.1445938.258478.2564412.4275535.3236638.0750096.0174698.153019.0174698.2280286 0 .0756376-.0109368.1474251-.0403611.2090262-.0856757.0970376-.0776769.1805182-.1709695.247031-.2760662.0570071-.161832.0570071-.0856758 0-.3331834 0 0-.0855108-.1427929-.1615203-.2570272l-.2375297-.3331834c-.1710215-.2189491-.3705465-.4474177-.5795727-.6758863l-23.8574895-25.0649095-26.1757801-27.7113374-3.5249417-3.7602125c-1.3126735-1.4225879-2.4163968-3.0252737-3.2779107-4.7597625-.8919194-1.8352435-1.4363611-3.8203188-1.6057012-5.8545079-.1617016-2.1238169.1632819-4.2565665.950119-6.2352889 1.6659384-4.1838862 5.3498362-7.22501717 9.767224-8.06303776 2.1681065-.42535529 4.4009283-.39293311 6.5558215.09519525 2.1804144.51791666 4.2309541 1.48035436 6.0237548 2.82729895.8889905.65233736 1.7216914 1.37837616 2.4893119 2.17045176l2.0617584 2.1704517 4.1045143 4.3313839 8.1425203 8.5675725 16.1425228 17.0304304 16.0760145 16.8590789c2.6603333 2.7892208 5.3681727 5.711715 8.0095036 8.3676625l.9501191 1.0281087c.1483908.1586169.3301342.2821808.5320667.361742h.1900238c.091865-.0421767.1682713-.1120736.2185274-.19991.1620599-.3063061.1285316-.679561-.0855108-.9519525-.19026-.3026328-.4168091-.580771-.6745845-.8281987l-.950119-1.0661868-32.0950218-34.2702903-8.1330192-8.6627678-1.0261285-1.0947454c-.3705465-.4093396-.7220905-.8281987-1.0641334-1.2565773-.661445-.8543042-1.2615282-1.7545753-1.795725-2.6940256-1.2105981-1.946121-1.9311834-4.1577844-2.0997631-6.4447185-.0711375-2.3746171.618057-4.70972373 1.9667464-6.66366751.6310011-.93858804 1.3569318-1.80947183 2.1662715-2.59883034.8203322-.83111339 1.7430486-1.55407644 2.7458441-2.15141267 2.0733408-1.19678879 4.4699404-1.70967165 6.8503584-1.46600686 2.2460088.25281604 4.426415.91755817 6.432306 1.96102216 1.7118646.94849101 3.306364 2.09555084 4.7505953 3.4175095 1.5866988 1.43744829 2.9643714 2.97961135 4.5320679 4.54081346l9.5011906 9.70991556c6.3087905 6.4256794 12.0380086 12.3753826 14.3658006 15.2312401 6.280286 6.0163399 14.517819 14.3744829 22.679341 22.789743l11.923995 12.3753826c3.75297 3.988681 7.401427 7.4633077 10.527319 10.4714776l3.800476 3.2175995c.701588.5329886 1.676719.5132908 2.356295-.0475976.346135-.2480846.629273-.5741584.826604-.9519525.089886-.1863526.150766-.3853956.180522-.5902106.028553-.2562312.028553-.5148504 0-.7710815-.106425-.6774755-.30461-1.3372343-.589073-1.9610222l-.883611-2.6178694c-1.577198-4.4551377-3.116391-8.7865216-4.636581-13.0322298l-2.251782-6.3114451c-.828989-2.0890749-1.502252-4.2368548-2.014253-6.4256795-.483414-2.1866691-.69405-4.4250047-.627078-6.6636675.045931-2.2515993.364979-4.4892468.950119-6.6636676 1.184519-4.3238583 3.477363-8.2620324 6.650833-11.42343 1.564466-1.5842685 3.286843-3.0037451 5.140144-4.2361887 1.030753-.6798906 2.211228-1.0981018 3.439431-1.2184992 1.289036-.0997463 2.580658.1571008 3.733968.742523 1.138502.5908933 2.116675 1.4500793 2.850357 2.503635.35954.5179471.662167 1.0733029.902613 1.6563974.256533.5711715.408552 1.0376282.617578 1.5612021l2.346794 6.2067304c3.230405 8.3295844 6.574824 16.9542741 10.147271 26.1406158 3.363422 8.9673926 6.232782 16.3259855 8.551072 22.7611844 2.318291 6.435199 3.942994 12.0993164 5.98575 16.9447547 2.183036 4.9058393 3.507189 10.1514883 3.914491 15.5073063.375693 5.814436-.237959 11.650552-1.814728 17.258899-.898488 3.14219-2.045427 6.207657-3.42993 9.167303-1.187648 2.541713-2.356295 4.683606-3.534442 6.663667-2.565497 4.339833-5.422438 8.499934-8.551072 12.451539-2.217718 2.813925-4.607081 5.487674-7.154397 8.005921-3.850589 3.878909-7.947841 7.503913-12.266037 10.852258-2.907364 2.218049-4.826604 3.6079-7.040382 5.01679-2.485926 1.616578-5.079492 3.060582-7.762472 4.321864-2.758985 1.29186-5.618894 2.355251-8.551072 3.179522-1.368171.3903-2.679336.685405-3.876486.951952s-2.289787.352223-3.211402.504535z"/><path d="m129.083721 194.942883c-1.729217-.171352 1.795725-.733004 6.650833-1.532644 2.579024-.528965 5.11867-1.235077 7.600952-2.113334 2.201353-.801612 4.344306-1.755874 6.413304-2.855858 1.529692-.951952 4.855108-2.855857 8.199527-5.330934 3.169731-2.296456 6.208541-4.769062 9.102141-7.40619 4.069665-3.528196 7.880028-7.345912 11.401429-11.42343 3.410927-3.941084 6.118766-7.61562 7.714967-9.719435 3.664102-5.720966 6.675825-11.835864 8.978625-18.229891 2.327791-6.825499 3.733967-14.507756 2.850357-22.209052-.39453-3.431089-1.218092-6.798858-2.451307-10.02406-.598575-1.6088-1.339668-3.170002-2.090262-4.8454382-.750594-1.6754364-1.444181-3.4555876-2.147269-5.3690121-1.406177-3.8649272-2.698339-7.61562-4.190025-11.4234301l-4.579574-11.966043-10.878864-28.101638-6.090263-15.8214507c-.472732-1.1241051-1.287308-2.0701705-2.327791-2.7035451-1.019641-.5992835-2.225656-.7961482-3.382424-.5521324-.588432.1244258-1.150957.3498698-1.662709.6663667-.290134.1730223-.569363.3637734-.836104.5711715l-.864609.6378082c-1.138176.8726614-2.211476 1.8271333-3.211402 2.8558575-1.005694 1.0146121-1.915365 2.1204334-2.717341 3.3032752-.819768 1.1655442-1.517063 2.4128875-2.08076 3.7221343-1.125678 2.6369327-1.769316 5.4550602-1.900238 8.3200649-.170632 2.8861398.134319 5.7807329.902613 8.5675726.361045 1.3898507.88361 2.7321037 1.406176 4.169552.522565 1.4374483 1.016627 2.8558575 1.52019 4.2361886 2.014253 5.6260394 4.000002 11.1949615 5.938244 16.6210908.247031.6758863.484561 1.3612921.722091 2.0276588.143895.376143.264473.7608291.361045 1.1518626.097862.4225369.161411.8523202.190024 1.2851359.014472.461288-.03347.9224151-.142518 1.3708116-.11349.4852386-.3061.9483944-.570071 1.3708116-.514953.7981296-1.246753 1.4322588-2.109265 1.8277488-.915207.4130184-1.950139.4740143-2.907364.1713515-.218527-.0856758-.446556-.180871-.665083-.2855858-.218528-.1047148-.39905-.2379881-.589074-.3712615l-.503563-.4283786-.370547-.361742-2.95487-2.8558575c-3.724467-3.427029-6.527318-5.911625-9.225656-8.5009359-2.698338-2.5893108-5.368173-5.150063-8.921618-8.738924l-39.2589193-40.3532668-8.9501216-9.1577831-4.3990512-4.4932158c-.7220905-.74252296-1.444181-1.48504591-2.1757726-2.21804934-.7087824-.69972099-1.457466-1.3576726-2.242281-1.97054169-1.5260799-1.21519149-3.2355187-2.17920888-5.0641346-2.85585753-1.758709-.69712051-3.6544935-.97731276-5.5391941-.81867915-1.8369321.23639934-3.5576764 1.03033284-4.9311179 2.27516649-1.4360189 1.21033871-2.5712565 2.73885973-3.3159155 4.46465726-.6688588 1.72253706-.7391457 3.62058996-.199525 5.38805116.28598.9123179.664854 1.7927465 1.1306416 2.6273889.4640286.8638545.9878759 1.6940847 1.5676965 2.4845961.6003704.7930463 1.2509575 1.5466399 1.9477441 2.2561274l2.1092643 2.2561275 4.2470322 4.550333 17.5296966 18.7153862c3.0023762 3.2112532 6.0649266 6.4732771 9.1876513 9.7860718l4.7505953 5.0263093 2.4133024 2.5512327 1.2256535 1.2851359c.4877552.4825688.9066032 1.0303644 1.244656 1.6278387.389453.72131.536076 1.5493224.418052 2.3608423-.131852.8573306-.5876958 1.631033-1.2731591 2.1609322-.7189548.5662672-1.6535798.7794095-2.5463191.580691-.7752255-.1975959-1.4775955-.6138842-2.0237536-1.1994602-1.7292167-1.7579389-3.4616004-3.5380901-5.1971513-5.3404535l-10.6983405-11.0902467c-12.2280323-13.2511789-19.3444241-19.8767684-26.7648539-28.6918486l-8.3135418-8.5675726-4.1425191-4.2837863c-1.2866092-1.3977989-2.803574-2.5634788-4.4845619-3.446068-3.3681728-1.71566305-7.3235171-1.84125034-10.7933525-.3427029-3.358852 1.5986248-5.6243436 4.8568019-5.9572465 8.5675725-.1934477 3.7220423 1.0830401 7.3708145 3.5534453 10.1573333 2.5083143 2.7987404 5.18765 5.6070002 7.7244679 8.3676625l14.9738764 16.335505c8.2185298 8.2343892 16.152024 16.0118412 25.0451383 25.3695343l4.0475072 4.2361887 1.9857489 2.103815c.3230404.3331834.6840857.723484 1.0261285 1.1328235.1710215.2094296.3420429.4378982.5035631.6663668.1775422.2597574.3393538.5299637.4845608.8091596.3602803.7355369.451082 1.5745465.2565321 2.3703618-.2088751.7457271-.6397574 1.4099021-1.2351548 1.903905-.598172.5251838-1.3534181.8365706-2.147269.8853158-.7819566.0332487-1.5550899-.1761994-2.2137775-.5997301-.2490904-.1710372-.481337-.3654807-.6935869-.580691l-.598575-.5521325c-.3800476-.3712614-.6650833-.6854058-.950119-1.0281087l-1.9002381-2.0276588-15.6294585-16.2974269-16.4465609-17.3255357-8.9786251-9.3862517c-1.4827787-1.6524084-3.1038881-3.1747331-4.8456072-4.550333-1.6875073-1.357833-3.6802177-2.2825879-5.8052275-2.6940256.4940619.1237539.1235155-.1047147-.6080762-.2284686l-.5890738-.1047147h-.6650833c-.429204-.0186829-.8587019.029488-1.2731596.1427928-1.0823253.2653455-2.1130319.7093081-3.0498821 1.3136945-1.28162705.8017064-2.36373422 1.8859017-3.1638965 3.1700019-2.04794271 3.3461764-2.25908971 7.505552-.56057024 11.042649.49541377.9549928 1.10825975 1.844055 1.82422859 2.646428.35154405.3998201.79810001.8567573 1.2066512 1.3041749l1.26365835 1.3327335 5.0166286 5.311895c3.2969132 3.4841462 6.4418072 6.81598 9.1401454 9.6527985l30.6413396 32.0807995 2.3372929 2.446518c.5982936.630328 1.0323121 1.398683 1.2636583 2.237088.1165036.499148.1390588 1.01569.0665083 1.523124-.1977959 1.49451-1.1489797 2.781985-2.5178155 3.40799-.9287309.439186-1.9837957.530373-2.9738726.257027-.8501854-.260438-1.6191265-.735807-2.2327798-1.380331l-1.19715-1.237538c-3.1828989-3.293756-6.4228048-6.663668-9.6912144-10.005021l-19.5629514-20.1718734c-1.414465-1.7061367-3.0805167-3.1860058-4.9406191-4.3885011-.8934979-.5029043-1.8529553-.8778147-2.8503572-1.1137844-.9797676-.2382429-1.996846-.2802985-2.992875-.1237538-.98071902.1925432-1.91584157.5705448-2.75534528 1.1137844-.93872425.6218684-1.80271015 1.350167-2.57482265 2.1704517-1.54983081 1.5119169-2.48143342 3.5484267-2.61282741 5.7117151-.03202883 1.1243775.11879466 2.2464833.44655596 3.3223142.15855754.5407695.37185892 1.0638879.63657977 1.5612021.27609591.5290086.59380684 1.0351438.95011906 1.5136045.76959644 1.1042649 1.55819525 2.1799712 2.39430002 3.2175995.41805239.5235739.84560597 1.0281087 1.28266073 1.523124.43705477.4950153.90261311.9519525 1.38717383 1.4945654l11.86698707 12.5562538c7.1448953 7.701296 14.6318334 15.707216 22.2327859 23.85593l11.5819513 12.318265c1.9477441 2.046698 3.8669846 4.169552 5.8527334 6.178172 1.9857489 2.00862 3.9809989 4.017239 6.0237548 5.968742 8.0865082 7.813006 16.7301104 15.025665 25.8622408 21.580763 4.3923337 3.195196 9.1398305 5.869019 14.1472725 7.967843 2.452034.997922 4.973352 1.815591 7.543946 2.446518 1.28266.304625 2.565321.552132 3.857483.771081l3.904989.590211h-.104513l5.881237.133273c1.985749.456937-2.15677.523574-5.881237.628289-1.575322-.210119-3.161563-.327728-4.750595-.352223-.674585 0-.285036.095196.665083.285586.950119.190391 2.460809.380781 4.038006.59973h.066509c4.893113 0 10.451309 0 2.384798.20943.950119.237988-.180522.371261-2.384798.437898h-.047506-.104513c-1.339668-.142793-3.049883-.304625-4.959622-.60925-1.974879-.315002-3.926862-.760214-5.843232-1.332733-2.675445-.790258-5.273633-1.822616-7.762473-3.084326-4.8168673-2.175398-9.3743862-4.886447-13.5867024-8.082077-3.6769607-2.674987-6.8598596-5.235739-10.1567727-7.977362-7.083047-5.689355-13.8277515-11.789103-20.1995312-18.267969-6.5178167-6.758862-13.0736382-13.82235-19.7624764-20.942955l-20.0190085-21.418931-9.98575133-10.604751c-3.31591551-3.4746268-6.65083341-7.0444487-8.79810248-11.3567935-.97524554-2.3329091-1.19135359-4.9145542-.61757738-7.377632.59082217-2.1227934 1.74691034-4.0445501 3.34441908-5.5594026 1.34757049-1.4263243 2.99677699-2.5322539 4.82660481-3.2366385 1.7319754-.5902368 3.5931289-.6890749 5.3776739-.2855858 1.7102395.3690823 3.3269614 1.0850523 4.7505953 2.1038151 1.3829346 1.0310333 2.6564503 2.2017388 3.8004762 3.4936657 2.441806 2.5321936 4.9501203 5.2166997 7.7529715 8.3200649 4.8266048 4.8263992 10.3753001 10.4714775 16.4180573 16.5925317l4.6080775 4.759763 2.3372928 2.389401c.5441415.64145 1.4850817.764955 2.1757727.285586.663008-.41893.9213489-1.260158.6080762-1.980062-.2291035-.429942-.5313421-.816523-.8931119-1.142343l-1.2256536-1.275616-4.9976263-5.188141-41.36818375-42.837863-1.22565358-1.4469678c-.4085512-.4378982-.88361073-.9519525-1.28266073-1.4755264-.80753278-1.0426508-1.48402732-2.1808432-2.0142524-3.3889509-1.88371519-4.5995727-1.27352296-9.8465635 1.6152024-13.8889871 1.32889833-1.816899 3.12516107-3.2382572 5.19715126-4.1124348 1.9596489-.8171462 4.097845-1.109132 6.2042774-.8472378 1.9579689.2725478 3.8396956.9431132 5.5296929 1.9705417 1.5221436.9382086 2.9451381 2.0290436 4.2470322 3.2556776 1.292162 1.1994601 2.3562953 2.3894008 3.486937 3.5317438 8.8836132 9.2339393 16.7981049 17.4968871 26.5083217 28.1777942l11.7244692 11.7756525 2.9263667 2.9510528 1.4631833 1.4755264.7315917.7425229.6270786.5806911c.1107299.1445938.258478.2564412.4275535.3236638.0750096.0174698.153019.0174698.2280286 0 .0756376-.0109368.1474251-.0403611.2090262-.0856757.0970376-.0776769.1805182-.1709695.247031-.2760662.0570071-.161832.0570071-.0856758 0-.3331834 0 0-.0855108-.1427929-.1615203-.2570272l-.2375297-.3331834c-.1710215-.2189491-.3705465-.4474177-.5795727-.6758863l-23.8574895-25.0649095-26.1757801-27.7113374-3.5249417-3.7602125c-1.3126735-1.4225879-2.4163968-3.0252737-3.2779107-4.7597625-.8919194-1.8352435-1.4363611-3.8203188-1.6057012-5.8545079-.1617016-2.1238169.1632819-4.2565665.950119-6.2352889 1.6659384-4.1838862 5.3498362-7.22501717 9.767224-8.06303776 2.1681065-.42535529 4.4009283-.39293311 6.5558215.09519525 2.1804144.51791666 4.2309541 1.48035436 6.0237548 2.82729895.8889905.65233736 1.7216914 1.37837616 2.4893119 2.17045176l2.0617584 2.1704517 4.1045143 4.3313839 8.1425203 8.5675725 16.1425228 17.0304304 16.0760145 16.8590789c2.6603333 2.7892208 5.3681727 5.711715 8.0095036 8.3676625l.9501191 1.0281087c.1483908.1586169.3301342.2821808.5320667.361742h.1900238c.091865-.0421767.1682713-.1120736.2185274-.19991.1620599-.3063061.1285316-.679561-.0855108-.9519525-.19026-.3026328-.4168091-.580771-.6745845-.8281987l-.950119-1.0661868-32.0950218-34.2702903-8.1330192-8.6627678-1.0261285-1.0947454c-.3705465-.4093396-.7220905-.8281987-1.0641334-1.2565773-.661445-.8543042-1.2615282-1.7545753-1.795725-2.6940256-1.2105981-1.946121-1.9311834-4.1577844-2.0997631-6.4447185-.0711375-2.3746171.618057-4.70972373 1.9667464-6.66366751.6310011-.93858804 1.3569318-1.80947183 2.1662715-2.59883034.8203322-.83111339 1.7430486-1.55407644 2.7458441-2.15141267 2.0733408-1.19678879 4.4699404-1.70967165 6.8503584-1.46600686 2.2460088.25281604 4.426415.91755817 6.432306 1.96102216 1.7118646.94849101 3.306364 2.09555084 4.7505953 3.4175095 1.5866988 1.43744829 2.9643714 2.97961135 4.5320679 4.54081346l9.5011906 9.70991556c6.3087905 6.4256794 12.0380086 12.3753826 14.3658006 15.2312401 6.280286 6.0163399 14.517819 14.3744829 22.679341 22.789743l11.923995 12.3753826c3.75297 3.988681 7.401427 7.4633077 10.527319 10.4714776l3.800476 3.2175995c.701588.5329886 1.676719.5132908 2.356295-.0475976.346135-.2480846.629273-.5741584.826604-.9519525.089886-.1863526.150766-.3853956.180522-.5902106.028553-.2562312.028553-.5148504 0-.7710815-.106425-.6774755-.30461-1.3372343-.589073-1.9610222l-.883611-2.6178694c-1.577198-4.4551377-3.116391-8.7865216-4.636581-13.0322298l-2.251782-6.3114451c-.828989-2.0890749-1.502252-4.2368548-2.014253-6.4256795-.483414-2.1866691-.69405-4.4250047-.627078-6.6636675.045931-2.2515993.364979-4.4892468.950119-6.6636676 1.184519-4.3238583 3.477363-8.2620324 6.650833-11.42343 1.564466-1.5842685 3.286843-3.0037451 5.140144-4.2361887 1.030753-.6798906 2.211228-1.0981018 3.439431-1.2184992 1.289036-.0997463 2.580658.1571008 3.733968.742523 1.138502.5908933 2.116675 1.4500793 2.850357 2.503635.35954.5179471.662167 1.0733029.902613 1.6563974.256533.5711715.408552 1.0376282.617578 1.5612021l2.346794 6.2067304c3.230405 8.3295844 6.574824 16.9542741 10.147271 26.1406158 3.363422 8.9673926 6.147271 16.3545441 8.551072 22.770704s4.076011 12.0612382 6.166273 16.8685984c2.257664 4.90821 3.668009 10.164561 4.171022 15.545384.480876 5.862205-.00382 11.763742-1.434679 17.468329-.841858 3.205508-1.947792 6.335482-3.306415 9.357693-1.050936 2.335359-2.217875 4.616552-3.496438 6.835019-2.559734 4.418783-5.350638 8.699013-8.361048 12.8228-3.876485 4.835919-5.814728 7.42523-7.116391 8.243909-3.886037 3.962137-8.010964 7.681735-12.351548 11.137844-2.265801 1.880338-4.724573 3.514172-7.334919 4.873997-2.540284 1.66149-5.187383 3.152959-7.923993 4.464657-2.819865 1.353795-5.750693 2.462143-8.760098 3.312795-1.415677.39982-2.764846.704445-4.000001.951953-1.235155.247507-2.365797.333183-3.315916.456937-1.097416.218949-2.221432.274394-3.334917.161832z"/><path d="m61.5207543 108.448478c.5510691.60925.0760095.352222.1045131.514054.2185274.314145 0 .295106.1140143.504535-.1045131.057117-.1140143.266547-.3895488 0 .2185274.456937-.0665084.390301 0 .666367.0346493.164342.0790673.326462.1330166.485496 0 .161832-.0570071.19991 0 .361742 0 .618769.1045131 1.485046-.7030881 1.351772 0 .104715.199525.39982.1520191.504535-1.0071262.247508-1.5106893.523574-1.8052262 1.437448-.3515441 0 0 .39982-.6175774.066637 0 .418859-.2565321.647328-.7695964.685406.2121428.253959.393901.531915.5415678.828199.1710215.514054-.5415678.380781-.551069.866276 0 0-.3230405-.180871-.2185274-.095195.4940619.40934.152019.514054.1235155.694925-.0174154.414829.0144793.83026.0950119 1.237539-.2468143.045351-.4440104.231744-.5035631.475976-.7315917.152312-.7125893.742523-1.9002381.761562-.693587-.257027-.3990501-.276066-.7885989-.466457-.3895488-.19039-.2280285.152313-.4560571-.114234-.7885988-.295105-.2945369-.361742-.1045131-.314144 0-.161832.1710214-.171352.3325417-.19991 0-.456938.5700714-.704445.950119-.951953.199525-.161832-.1900238-.466457.2375298-.456937-.2913931-.55511-.4812446-1.158004-.5605703-1.780151.5890739-.190391.0855108-.733004.9501191-.618769-.4638883-.613621-.3588257-1.485217.2375298-1.970542.8171024-.333184 1.0356297-1.056667 1.748219-1.475527.3800477.123754.2565322-.380781.8741096 0-.2375298-.485495.351544-.418859.6650833-.3903-.3040381-.418859-.0760095-.218949-.1900238-.466457.5130643-.104715.6365798-.447417.551069-1.208979.199525-.447418.5320667-.285586.3420429-.951953.1140143-.142793.446556.152312.2850357-.257027.0855107 0-.1710214-.361742.0950119-.085676.2755346 0 .047506-.304625.5225655.152313.0570072.047597 0-.323664.5035631.209429z"/><path d="m80.5231355 86.5630899c.6270785.542613.1140143.3427029.152019.5045349.247031.2951052.0570072.3046248.1520191.5045348-.1045131.0666367-.1045131.2855857-.39905.0951952.2470309.4378982 0 .4093396 0 .6854058 0 .1237539.1235154.3427029.152019.4950153s0 .2189491 0 .380781c.0665083.6473278.0950119 1.5802412-.750594 1.504085-.0570072.1142343.1900238.4093396.1330166.5235739-.9172821.1306855-1.6937589.7450677-2.0332548 1.6087997-.3705464 0 0 .4188591-.6555821 0-.0638188.4339613-.4576706.7404152-.8931119.6949254.1876836.2925534.3257337.6142196.4085512.9519525.0855107.5616519-.6270786.3617419-.7410929.8757963 0 0-.2945369-.2189491-.199525-.1142343.4275536.4759762 0 .5616519 0 .7425229-.1199314.4420387-.1963065.8947965-.2280286 1.3517726-.2822655.0220744-.5317312.1923283-.6555821.4474177-.7981 0-.9501191.6854058-2.1092643.4378981-.598575-.4283786-.3040381-.380781-.6365798-.6663667-.3325417-.2855858-.2565321.1047147-.4085512-.2189491-.6840857-.4854958-.1805226-.4378982 0-.3427029 0-.180871.2280286-.1332734.39905-.1237538.0760095-.4759763.7410929-.5902106 1.2161524-.7901206.247031-.1237539-.0665083-.5140544.3515441-.4283787-.1615869-.6209894-.2288505-1.262831-.199525-1.903905.6270785-.1047147.2090261-.7330034 1.0166273-.5045348-.3571314-.6904259-.1453345-1.5392481.494062-1.9800612.8551071-.2855858 1.1306416-1.0090697 1.9002381-1.4279288.3800476.1237539.2660333-.3903005.8836107 0-.2280286-.4950153.3610452-.4378981.6840857-.4188591-.3040381-.4188591-.0665083-.2284686-.1900238-.4759762.5320667-.1332734.6650833-.4950153.5415679-1.2565773.1900238-.4664568.5225654-.3427029.2945369-.9519525.0950119-.1523124.4655583.1047147.2660333-.2855858.0855107 0-.2090262-.3522224.0855107-.0951952.2755346 0 0-.3141444.5415679.0951952.0190024-.019039-.0760095-.39982.4275536.0856757z"/><path d="m103.154971 65.5439786c.722091.3903005.209027.2665467.285036.3903005.285036.2475077.114014.2665467.228029.4569372-.095012.0666367-.095012.2760662-.380048.0666367.23753.4474177-.057007.39982-.066508.6663667s.08551.361742.08551.5235739-.095011.19991-.114014.3712615c-.076009.6568472-.171021 1.5421631-.950119 1.3327335-.066508.0951953.133017.4283786.066508.5330934-.903029-.027841-1.734527.4900333-2.109264 1.3136945-.3705463-.0666367 0 .4093395-.6460808 0-.0862572.4401119-.5099035.7287472-.9501191.6473277.1779086.2976618.3153089.617814.4085512.9519525.0855107.5521324-.6175774.3427029-.7125893.8472377 0 0-.2945369-.2094295-.199525-.1047148.4370548.4664568.0665084.542613 0 .7330035-.0923884.4281605-.1275342.8667301-.1045131 1.3041749-.2688213.0308219-.4970286.2115273-.5890738.4664567-.7695964.0951953-.8361047.7330035-1.99525.6473277-.6555821-.3331833-.3610452-.3331833-.7315917-.5711715-.3705464-.2379881-.2470309.1523124-.4370547-.1523124-.7505941-.380781-.2375298-.4093396-.0665084-.3427029 0-.180871.2090262-.1713514.3800477-.1903905 0-.4854958.6840857-.6854058 1.1306416-.9519525.2280286-.1523124-.1045131-.5140543.3230405-.4664567-.2049879-.6131516-.3014509-1.2574789-.2850357-1.903905.6365798-.1427929.2185274-.761562 1.0356298-.561652-.4085512-1.0661868 0-1.4660069.5890738-2.0276588.8931119-.2760663 1.2446559-.9519526 2.0522571-1.3612921.3705465.1618319.3325417-.380781.8931119.1237538-.16152-.5140544.437055-.3903005.760095-.3331834-.237529-.4569372 0-.2284686-.114014-.4950153.541568-.0571171.760095-.39982.788599-1.1709016.23753-.39982.532067-.218949.304038-.8186791.057007-.0951953.39905.19991.16152-.1523124.057007 0-.256532-.3046248 0 0 .209026.0666366-.095012-.1903905.437055.1903905.152019-.0856758-.095012-.3141444.522565.0380781z"/><path d="m144.418642 130.648011c-.779098.314144-.418052-.552133-.608076-.847238-.39905-.085676-.361045-.618769-.617577-.856757-.047506-.456938-.304039-1.01859 0-1.294656-.541568-.485496-.389549-1.189941-.665084-1.903905-.133016-.314144-.39905-.561652-.570071-.951952-.124967-.367612-.226517-.742801-.304038-1.123304-.367396-.950039-.634877-1.935885-.7981-2.941534-.181801-1.088643-.100346-2.205095.237529-3.255677 0-.466457-.370546-.704445-.380047-1.180421.796704-3.195987 1.430933-6.430443 1.900238-9.690877.494062-.733003 0-1.313694.864608-1.637358.148774-1.424979.651846-2.789823 1.463184-3.969642-.207806-.592947-.307571-1.2184842-.294537-1.8467879.062071-.7107804.307644-1.3931517.712589-1.9800612.423616-.6609452.75901-1.3746325.997625-2.1228541 0 0 .370546.0761562.285036-.0475977-.408551-.59973.361045-1.5897606.617577-2.2656469.171022-.4950153.456057-1.1709016.760095-1.903905.304038-.7330035.598575-1.6468779.950119-2.446518.737946-.7035156 1.377192-1.5041143 1.900239-2.3798813.838439-.7046945 1.625853-1.4681783 2.356295-2.284686.776841-.7975335 1.695103-1.4431712 2.707839-1.903905.63658.380781.085511.6378082.370547.9519525.285035.3141444.693586-.6092496.551069.0571172.712589.4474177-.228029.9519525-.446556.8757963-.227974.3618592-.558901.6470061-.950119.8186791-.464324.6832809-.992432 1.3207841-1.577198 1.9039051-.608076.6282886-1.282661 1.2375382-1.824229 1.903905-.541568.6663667-.408551 1.3136944-1.149644 1.7325535-.076009 1.3898507-.893112 3.1985605-1.168646 4.9596726-1.178148 1.3803311-.779098 2.3703617-1.985749 3.2366385.059258 1.0366017-.03682 2.0762493-.285036 3.0843263-.285035 1.009069-.608076 2.103815-1.016627 3.40799-.561969 1.249433-.991865 2.554372-1.282661 3.893486-.266033 1.332733-.541568 2.674986-.826603 4.093395-.437055.533094-.152019 1.694476-.950119 1.903905.456057.80916-.104514 2.075257-.408552 2.855858.484561.380781.180523.428379.437055.79964-.148106.771239-.189667 1.55922-.123515 2.341803.109555.814416.333465 1.609226.665083 2.360842.247031 1.656398.047506 2.179972.760095 3.198561.114014.637808-.332541.951952.171022 1.380331 0 .276066.456057.333183.08551.456937-.076009.704445.342043.80916-.256532 1.151863-.057007.618769.408551 1.285136-.304038 1.466007z"/><path d="m114.5564 137.511588c-.836105.047598-.247031-.60925-.351544-.951952-.361045-.190391-.180523-.647328-.361045-.951953.076009-.409339 0-.951952.361045-1.132823-.427554-.561652-.114014-1.142343-.247031-1.799191-.057007-.304624-.256532-.580691-.342043-.951952-.08551-.371262 0-.666367-.08551-1.047148-.294537-1.513604-.608077-3.931564.342042-5.587961 0-.418859-.313539-.675886-.285035-1.094745 1.058355-2.750423 1.73606-5.633024 2.014252-8.567573.446556-.666367 0-1.170902.769597-1.494565.025287-1.292244.378414-2.55678 1.026128-3.674537-.287321-.506739-.480475-1.061513-.570071-1.637358-.133017-1.370812.788598-2.256128.950119-3.864928 0 0 .370546 0 .256532-.085675-.532067-.466457 0-1.466007.066508-2.113335.123516-.951952.285036-2.6083498.39905-4.1600324.445755-.779475.766379-1.6243426.950119-2.5036351 1.073635-1.5802412 1.43468-3.7030953 2.964372-5.0929459.731591.0951952.332541.5045348.741093.6949253.408551.1903905.380047-.761562.522565-.1523124.836105.1332734.171022.8662768 0 .9519525-.061783.4057464-.259465.7783737-.56057 1.0566673-.385359 1.5221375-.973374 2.9854052-1.748219 4.350423-.332542.8091596 0 1.2660968-.513065 1.8277488.304039 1.2470579.07601 3.0652869.180523 4.7597629-.807601 1.475526-.266033 2.313244-1.282661 3.284236.551069 1.98958.114015 3.645978-.437054 6.149613-.950119 2.446518-1.187649 4.883516-1.900239 7.472827-.456057.466457-.218527 1.570722-.950119 1.742073.380048.780601-.294536 1.903905-.646081 2.551233.446556.418859.133017.418859.342043.790121-.515158 1.408621-.57499 2.943922-.171021 4.388501 0 1.570721-.418052 1.98958.057007 3.084326 0 .609249-.513064.752042-.152019 1.294655-.07601.237988.342043.418859 0 .428379-.266033.609249.104513.818679-.570071.951952-.304039.39982-.057008 1.123304-.769597 1.085226z"/></g><g fill="#cccfdb"><path d="m54.9649328 173.257405c-.3420428.533093-.551069-.20943-.8266036-.333184-.2945369.104715-.5415678-.276066-.8171024-.333183-.2660333-.285586-.7030881-.561652-.6555821-.885316-.598575-.085676-.8741095-.609249-1.396675-.951952-.247031-.152313-.5320667-.190391-.8171024-.352223s-.4845607-.380781-.7885988-.571171c-1.2161524-.723484-3.0783858-1.980061-3.8004763-3.560303-.2850357-.266546-.6175774-.209429-.8931119-.485495-1.4971181-2.317987-3.2257345-4.477345-5.1591465-6.444719-.2660333-.685406-.8361047-.694925-.7030881-1.380331-.8831079-.802032-1.5970532-1.773058-2.0997631-2.855858-.4948586-.142195-.9633587-.364037-1.3871738-.656847-1.0071262-.761562-1.2066512-1.903905-2.2612834-2.951053 0 0 .1805227-.218949.0570072-.209429-.5605703 0-1.0166274-.885316-1.4156774-1.342253-.5700715-.647328-1.6627084-1.789671-2.6698346-2.855858-.3378866-.761206-.7687312-1.477469-1.2826607-2.132373-.598575-1.656398-1.9002381-3.198561-2.1187655-5.035829.3895488-.39982.4845607.104715.7981 0s-.3420428-.704445.1330167-.40934c.4560571-.456937.6555821.428379.5890738.590211.2440017.282819.4022359.629624.4560571.99955.8578185 1.188476 1.5871702 2.464911 2.1757727 3.80781.39905.713964.8836107.771082 1.0166274 1.466007 1.154508.876157 2.2613957 1.813584 3.3159155 2.80826.6460809 1.418409 1.4726845 1.59928 1.6912119 2.855857 1.6247036.894836 2.5748227 2.179972 4.0760108 4.055318 1.3649326 1.977717 2.8300338 3.884117 4.38955 5.711715.1235155.561652 1.0071262 1.085226.7790976 1.675436.7315917.237989 1.2161524 1.313695 1.5201905 1.903906.4940619 0 .3610453.161831.7125893.266546.7711754 1.155581 1.8199497 2.098353 3.0498822 2.741623 1.1021381.951953 1.244656 1.427929 2.242281 1.799191.4085512.3903.3040381.761562.8551071.866276.1425179.190391.4560572 0 .2945369.285586.3135393.523574.6365798.418859.4370548.951953.2185274.304625.8551072.580691.5035631.961472z"/><path d="m39.668016 176.75107c-.3135393.533094-.3895488 0-.5795726 0-.2375298.171352-.3800477-.057117-.5890739 0-.1615202-.161831-.4655583-.247507-.3895488-.523573-.4465559.104714-.5890738-.247508-.950119-.342703-.1710215-.047598-.3895488 0-.5890738-.047598-.1995251-.047598-.3230405-.171351-.5415679-.237988-.8361048-.237988-2.1282667-.752043-2.4893119-1.80871-.1805227-.142793-.4560572 0-.6365798-.152312-.8057306-1.430591-1.8427728-2.717332-3.0688846-3.80781-.0855107-.456937-.5605702-.352223-.3135393-.894836-.577947-.431021-.9878477-1.050425-1.1591452-1.751592-.3546769.000624-.705097-.077397-1.0261286-.228469-.7030881-.380781-.6175774-1.170901-1.2826607-1.780151 0 0 .2090262-.190391.1045131-.161832-.4940619.114234-.6745846-.495015-.9501191-.761562s-1.0071262-1.056667-1.6437059-1.665917c-.1001779-.492664-.3007149-.959326-.5890739-1.370811-.1045131-1.094746-.8266035-2.046698-.5605702-3.274717.4560571-.304625.4085512 0 .7220905-.095195.3135393-.095196-.1140143-.447418.2280285-.285586.5320667-.342703.4655584.228469.3705465.342703.1374584.181905.1862745.415975.1330166.637808.4551477.733953.7768311 1.542936.9501191 2.389401.1710214.447417.5795726.418859.5225655.894835.7609688.447414 1.4881754.950123 2.1757726 1.504085.2185274.951953.8836108.894835.7790977 1.742073 1.1781476.361742 1.6817107 1.113785 2.5273167 2.189491.7145663 1.182241 1.5384592 2.294571 2.4608083 3.322314 0 .39982.6175774.580691.3325417 1.094746.5320667 0 .7410928.713964.8836107 1.113784.3895488-.142793.2565322 0 .5225655 0 .4329289.706073 1.1506076 1.188922 1.9667464 1.323214.7030881.456937.7505941.790121 1.4631834.790121.2660333.19039.1330167.523573.5415678.437898.0760096.114234.3325417-.104715.1805227.142793.1710214.333183.4275535.152312.2185274.609249.152019.180871.5890738.218949.2755345.656847z"/><path d="m98.0243285 21.4114604c-.6175774 0-.2185274-.2379882-.3135393-.361742-.2755345-.0761562-.1615202-.2570272-.3135393-.361742 0-.1618319-.0665083-.3712614.2090262-.4378981-.351544-.2189491-.1615202-.4378982-.2945369-.6949253-.0570071-.1142343-.2280286-.2189491-.3135393-.361742s-.0570071-.2475076-.1330166-.39982c-.3230405-.5806911-.7410929-1.504085-.1805227-2.1418932 0-.1618319-.2945369-.2570272-.3040381-.4188591.5335078-1.0167606.742454-2.1731671.598575-3.3127947.247031-.2665467-.1615202-.4474177.3895489-.5902106-.1377323-.4942824-.0318442-1.0247442.2850357-1.4279287-.2518447-.1609122-.4684213-.3714294-.6365798-.6187692-.2850357-.51405431.2565322-.88531579.1235155-1.50408492 0 0 .2660333 0 .1710214 0-.4655583-.16183192-.2470309-.56165198-.2755345-.80915963s-.2185274-.95195251-.3895488-1.59928021c.1729114-.28652845.2587533-.61732666.2470309-.95195251.4940619-.65684723.3610453-1.47552638 1.19715-2.09429551.5510691 0 .3420429.18087097.6650834.2284686.3230405.04759762.1330167-.31414433.351544-.08567573.6270786 0 .2850358.31414433.1425179.34270291.0570071.19991002-.0950119.31414432-.2090262.43789815.1330167.55213245-.2565321 1.18042111-.4750595 1.75159261-.1140143.32366385.2470309.48549578-.0570072.72348391.3656528.5653388.6623084 1.17257889.8836108 1.80870976-.3610453.59973008.152019.90435488-.446556 1.31369446.5588148.66080731.744855 1.56054231.4940619 2.38940081-.2574322.9597414-.4479159 1.9362633-.5700714 2.9224942-.2945369.1903905 0 .6187691-.5700715.6854058.3515441.3046248 0 .7425229-.2470309.9519525.3610452.1618319.1330167.1618319.3135393.3046248-.2592317.5616367-.1782299 1.2219682.2090262 1.703995.0950119.6092496-.1710215.761562.2565321 1.1899406 0 .2379881-.3420429.2951053 0 .5045348 0 .0951953.2850357.1713515 0 .1713515-.1710214.2284686.1235155.3141443-.3705464.3617419-.1235155.1237539.1140143.4093396-.4370548.3807811z"/><path d="m110.527895 18.4889662c-.579572-.2284686-.142518-.2665467-.199525-.3903006-.237529-.1523124-.095012-.2475076-.199525-.380781.066509-.1047148 0-.3046248.294537-.2475076-.266033-.2951053 0-.3903006-.095012-.6282887s-.16152-.2475076-.209026-.380781c-.047506-.1332733 0-.2094295 0-.3427029-.16152-.5521324-.342043-1.3708116.323041-1.6659169 0-.1237538-.218528-.2855857-.199525-.4093396.720375-.5616559 1.180326-1.3939162 1.273159-2.303725.285036-.1237538-.066508-.380781.484561-.3236639-.035027-.4191597.181408-.8192161.551069-1.0185892-.204573-.1807194-.375129-.3967437-.503563-.63780814-.171022-.46645672.408551-.59973007.389549-1.1042649 0 0 .266033.05711715.171021 0-.418052-.23798813-.142518-.48549578-.133017-.68540581-.009544-.43805146-.057231-.87443237-.142517-1.30417493.215633-.16749287.355811-.4141335.389548-.68540581.579573-.39030053.560571-1.04714776 1.463184-1.34225303.541568.1142343.313539.20942955.627078.31414432.31354.10471478.161521-.20942955.351544 0 .617578.13327336.228029.31414433.085511.30462481 0 .17135145-.133017.21894907-.256532.29510527 0 .45693721-.427554.85675726-.741093 1.24705779-.152019.2284686.171021.43789815-.16152.55213245.259773.51035049.445342 1.05531032.551069 1.61831926-.456057.37126148 0 .75204248-.665084.95195251.522566.77108151.304039 1.25657731 0 1.98958071-.598575.6282887-.674584 1.3993702-1.168646 2.084776-.313539.0571172-.133017.4759763-.684086.3522224.266034.342703-.209026.542613-.465558.6663668.313539.2475077.095012.1713515.23753.3427029-.389549.3427029-.427557.7234839-.209026 1.3612921-.066509.4854958-.351544.5140543-.057008.9519525-.057007.180871-.389548.1047148-.171021.3712615-.057007.0571171.218527.2189491 0 .1237538-.218527.1142343 0 .2855858-.446556.1427929-.085511.0951952 0 .3903005-.484561.180871z"/><path d="m130.641916 13.3293836c.503563.3617419 0 .3617419 0 .5426129.171021.2379881-.057007.3427029 0 .5330934-.152019.1427929-.228029.4093396-.494062.3046248.104513.4283786-.218528.5235739-.304038.8472377v.542613c0 .1808709-.152019.2855857-.199525.4759762-.199525.761562-.608076 1.903905-1.558195 2.1799713-.114015.1618319 0 .4283786-.095012.5902105-1.260119.6607066-2.349746 1.6057859-3.182899 2.7606623-.418053.0856757-.247031.5235739-.788599.2951053-.314673.544866-.824041.9497439-1.425179 1.1328234.064515.3140257.064515.6379269 0 .9519525-.228028.6568473-.950119.6282887-1.377672 1.2851359 0 0-.218528-.1713514-.171022-.0761562.209026.4569372-.304038.6663668-.494062.9519525-.190023.2855858-.72209 1.0471478-1.12114 1.6944755-.408613.1405643-.774811.3829838-1.064133.7044449-.95012.2284686-1.586699 1.0471477-2.745845.9519525-.39905-.380781-.08551-.3903006-.275534-.6663668s-.370546.180871-.332542-.1713514c-.446556-.4378982.085511-.4759763.209026-.3998201.133017-.2094295.342043-.19991.532067-.2284686.543175-.5234211 1.190782-.9257124 1.900238-1.1804211.361045-.2189491.247031-.5997301.674585-.5997301.245466-.7618818.563643-1.4982891.950119-2.1990103.779097-.2855857.655582-.9519525 1.453682-.8757963.114014-1.1328235.731592-1.6563973 1.624704-2.4941156 1.005731-.706588 1.958404-1.4861054 2.850357-2.3322836.380047 0 .494062-.5711715.950119-.2855857 0-.5045349.617577-.6663668.950119-.7806011-.16152-.380781 0-.2379881 0-.4950153.643735-.3598906 1.075169-1.0082898 1.159145-1.7420731.408551-.6378082.731592-.6378082.722091-1.3041749.171021-.2284686.494062-.0761562.408551-.4664568.104513-.0571171-.095012-.3236638.142518-.1523124.313539-.1237538.142518-.380781.570071-.1332733.085511-.1618319.123516-.5426129.532067-.1618319z"/><path d="m140.0956 56.1672464c-.380047.4950153-.380047 0-.570071-.0856757-.256532.1427928-.361045-.1142343-.570071-.0951953-.142518-.180871-.427554-.3046248-.31354-.5711715-.456057.0571172-.551069-.3046248-.893112-.4378982-.16152-.0666366-.380047 0-.579572-.1047147-.199525-.1047148-.294537-.1999101-.503563-.2855858-.7981-.3141443-2.014253-.9519525-2.280286-1.9610221-.171022-.1427929-.446556 0-.617578-.180871-.684021-1.4489226-1.653596-2.7441836-2.850357-3.80781-.08551-.4569373-.551069-.342703-.294537-.8853159-.573441-.40822-.986746-1.0041229-1.168646-1.6849559-.350337.0047209-.698434-.0566365-1.026129-.180871-.693587-.3427029-.646081-1.1137844-1.320665-1.6754364 0 0 .190024-.19991.085511-.1713515-.47506.1523124-.693587-.4188591-.950119-.6663667-.256533-.2475077-1.073635-.9519525-1.74822-1.4564873-.134433-.46479-.375167-.8917772-.703088-1.2470578-.218527-1.0566673-1.045131-1.903905-.950119-3.1033652.408551-.3712615.408551 0 .693587-.19991.285036-.1999101-.171021-.4283787.190024-.3236639.47506-.4188591.494062.1523124.418052.2855858.209027.1713514.190024.3903005.218528.6092496.530921.6619151.933717 1.4174039 1.187649 2.2275688.209026.4188591.608076.3522225.598575.8186792.799155.3622684 1.5626.7989093 2.280285 1.3041749.275535.8853159.950119.8377182.87411 1.684956 1.187649.2951052 1.729217 1.0376282 2.584324 2.103815.729262 1.1694202 1.535482 2.2888571 2.413302 3.3508728 0 .3998201.589074.6092496.285036 1.1042649.532067 0 .693587.7520425.807601 1.1613821.39905-.1237538.247031.0475976.513064.0571171.376549.728653 1.042353 1.2643982 1.83373 1.4755264.674585.5140544.665083.8662768 1.377673.9519525.23753.2189491.076009.5330934.48456.5045349.066509.1237538.342043-.0571172.161521.1618319.123515.3522224.408551.2094295.133016.6282887.133017.1903905.570072.2855857.199525.6949253z"/><path d="m139.487524 33.5488548c-.475059.3903005-.247031.0666367-.351544.0951953-.104513.0285585-.209026 0-.361045.0951952-.152019.0951953-.16152-.0666367 0-.2475076-.332542.1523124-.256532 0-.437055 0-.180522 0-.247031.0761562-.361045.0951952-.114014.0190391-.123516 0-.228029 0-.437054 0-1.045131 0-.817102-.4950153-.057007 0-.304038.1142343-.370547.0761562 0-.6949253 0-1.0376282-.579572-1.323214.114014-.2284686-.266033 0 .123515-.4093396-.266033-.0571171-.351544-.2570271-.237529-.5902105-.217003.1081467-.446886.1881213-.684086.2379881-.380048 0-.07601-.4188591-.380048-.5045348 0 0 .209026-.180871.123516-.1237538-.408551.2475076-.370547 0-.47506-.0571172-.25879-.0928837-.52613-.1598474-.7981-.19991.056799-.1574018.007109-.333566-.123515-.4378982.180522-.5045348-.190024-.6473277.266033-1.3517725.418052-.3522225.313539-.1713515.579573-.361742.266033-.1903905 0-.1713514.247031-.2475076.48456-.3998201.32304-.0856758.218527 0 .114014 0 0 .1427928 0 .2570271.275535.0761562.171021.4950154.180523.7996402.009501.3046248.342042 0 .180522.2379881.414504-.0675186.835743-.0835054 1.254157-.0475976-.08551.39982.408552.1618319.07601.6568472.769596-.2189491.950119 0 1.130642.3617419 0 .542613.380047.7330035.48456 1.1994602-.171021.2284686.190024.1713514-.228028.5521325.370546-.1427929.199525.2284686.123515.4378981.332542-.1903905.152019-.0475976.342043-.1142343 0 .3236639.180523.4188591.693587.3427029.266033.1237538.104513.3331834.570071.180871.07601.0666367-.171021.2951053.133017.1713514 0 .0571172.266033-.1332733 0 .0571172-.057007.1713514.199525 0-.171021.3331834.038004.0951952.294537-.0095196-.123516.3236638z"/></g></g></svg>