<svg height="216" viewBox="0 0 216 216" width="216" xmlns="http://www.w3.org/2000/svg" xmlns:xlink="http://www.w3.org/1999/xlink"><defs><path id="a" d="m183.64 83.2729622c-2.601193-2.5257318-5.502945-4.7221967-8.64-6.54l1.27-14.24-18.87-4.8-5.69 13.13c-7.257754.200048-14.35271 2.1962558-20.65 5.81l-11.71-8.22-13.59 13.94 8.52 11.5c-3.453963 6.3860338-5.268242 13.5297558-5.28 20.7899998l-13 6 5.28 18.74 14.21-1.63c3.805703 6.192791 9.086331 11.346299 15.37 15l-1.26 14.25 18.87 4.79 5.7-13.13c7.258196-.19714 14.353849-2.193544 20.65-5.81l11.73 8.27 13.59-14-8.52-11.5c3.448103-6.38832 5.262001-13.530542 5.28-20.79l13-6-5.29-18.7099998-14.21 1.6c-1.899062-3.0826798-4.169375-5.920571-6.76-8.45z"/><filter id="b" height="104.4%" width="104.4%" x="-2.2%" y="-2.2%"><feMorphology in="SourceAlpha" operator="erode" radius="1" result="shadowSpreadInner1"/><feOffset dx="0" dy="-4" in="shadowSpreadInner1" result="shadowOffsetInner1"/><feComposite in="shadowOffsetInner1" in2="SourceAlpha" k2="-1" k3="1" operator="arithmetic" result="shadowInnerInner1"/><feColorMatrix in="shadowInnerInner1" type="matrix" values="0 0 0 0 0.184313725   0 0 0 0 0.196078431   0 0 0 0 0.415686275  0 0 0 0.2 0"/></filter><path id="c" d="m125.49 73.9529622c.000322-4.5982865-.563899-9.17922-1.68-13.64l14.08-11.49-12.37-21.43-17 6.46c-6.62013-6.4250519-14.7280083-11.1111306-23.6-13.64l-2.92-17.93999996h-24.74l-2.91 17.93999996c-8.8719917 2.5288694-16.9798698 7.2149481-23.6 13.64l-17-6.46-12.38 21.43 14.08 11.49c-2.2533026 8.9537429-2.2533026 18.3262572 0 27.28l-14.08 11.53 12.37 21.4299998 17-6.46c6.6201302 6.425052 14.7280083 11.111131 23.6 13.64l2.91 17.94h24.75l2.91-17.94c8.8719917-2.528869 16.97987-7.214948 23.6-13.64l17 6.46 12.38-21.4299998-14.08-11.53c1.114812-4.4610194 1.679013-9.0417937 1.68-13.64z"/><filter id="d" height="104%" width="104.2%" x="-2.1%" y="-2%"><feMorphology in="SourceAlpha" operator="erode" radius="1" result="shadowSpreadInner1"/><feOffset dx="1" dy="-4" in="shadowSpreadInner1" result="shadowOffsetInner1"/><feComposite in="shadowOffsetInner1" in2="SourceAlpha" k2="-1" k3="1" operator="arithmetic" result="shadowInnerInner1"/><feColorMatrix in="shadowInnerInner1" type="matrix" values="0 0 0 0 0.184313725   0 0 0 0 0.196078431   0 0 0 0 0.415686275  0 0 0 0.2 0"/></filter></defs><g fill="none" fill-rule="evenodd"><g transform="translate(3 22.877038)"><g fill-rule="nonzero"><use fill="#af64ff" xlink:href="#a"/><use fill="#000" filter="url(#b)" xlink:href="#a"/><circle cx="152.95" cy="114.762962" fill="#2e316a" r="16.08"/><g stroke-linecap="round" stroke-linejoin="round"><use fill="#dfdff2" xlink:href="#c"/><use fill="#000" filter="url(#d)" xlink:href="#c"/><use stroke="#dfdff2" stroke-width=".75" xlink:href="#c"/></g><path d="m125.49 73.9529622c0-.43 0-.84 0-1.26l-6.1-4.28-13.63 13.94 8.52 11.5c-3.391121 6.2628818-5.203496 13.2583748-5.28 20.3799998l16.51 6.27 12.38-21.3799998-14.08-11.53c1.114812-4.4610194 1.679013-9.0417937 1.68-13.64z" fill="#e1c9ff"/><path d="m96 120.682962.61 2.14c3.584294-1.987805 6.937976-4.365566 10-7.09z" fill="#f4677f"/></g><path d="m124.25 74.1229622c.43-.76.56.83.42 3s-.58 5-.82 6.63c-.021209 1.2381399-.185636 2.4696657-.49 3.67l-.07.3.22.18c1.65 1.26 3.52 2.78 4.86 3.71 3.18 2.63 7.22 5.77 9.27 7.72l-.1-.51c-.23.34-.44.63-.63.86-2.42 5.2199998-6.07 10.9999998-9.42 17.2899998-.66 1.22-1.25 2.38-1.84 3.55l-.06.11h-.12c-1.75-.56-3.52-1.11-5.57-1.8-3.57-1.21-6.89-2.5-10.82-3.85l-.82-.29.74-.15c-6.544178 6.759495-14.7101852 11.730706-23.72 14.44l1-1.1c-.87 5.95-1.82 12-2.81 18l-.24 1.24h-1.23c-5.47 0-10.79-.12-15.74-.3-3.72 0-5.87.29-9 .42h-1.28l-.28-1.38c-.15-.71-.31-1.53-.46-2.45-.82-5.6-1.58-10.84-2.27-15.53l1 1.12c-9.0410067-2.699125-17.2818332-7.574948-24-14.2l1.14.23-17 6.38-.79.3-.43-.73-12.44-21.3799998-.45-.77.7-.58 9.42-7.82c1.78-1.34 3.3-2.56 4.66-3.67l-.36 1.08c-1.17-4.72-1.73-8.28-1.32-12.22-.2375844-5.2144904.2845479-10.4358132 1.55-15.5l.28.83c-4.81-3.91-9.5-7.8-14-11.6l-.43-.39.29-.48 4.71-7.72c2.22-4.62 4.37-9 7-14.06l.53-1 1.16.39.66.23c5.74 2 11 4 16.39 6.1l-1.59.33c3.1192556-2.937525 6.5495292-5.5261577 10.23-7.72 4.1891144-2.5158686 8.6598938-4.5297332 13.32-6-.34.11.19.12.79 0l-.83.93c.0888014-.2884882.1359441-.5881809.14-.89-.05-2.83 1.22-10.50999996 2.31-17.12999996l.22-1.37h1.39 5.68l19.1-.17h1.55l.29 1.59c.66 3.67 1.92 10.62999996 3.23 17.88999996l-1.57-1.76c2.9073247.7765073 5.7493519 1.7795757 8.5 3 5.8875559 2.879776 11.286597 6.6658533 16 11.22l-2.22-.46 10-3.81 7.09-2.48 1.59-.56.77 1.4c3.86 7 8 14.31 12.07 21.6l.67 1.19-1 .82c-4.8 3.82-9.6 7.6-14.31 11.22l.42-1.25c1.002524 4.4935478 1.396052 9.1015301 1.17 13.7-.38.73-.49-.35-.62-1.67-.049772-1.0985626-.262079-2.1836839-.63-3.22-.29-.74-.1 1.58-.07 3.34s0 2.95-.2-.06c-.43.75-.56-1.37-.79-3.8s-.59-5.19-.62-5.78-.34-1.39-.48-2l-.16-.62.5-.42c3.49-2.88 6-4.72 8.74-6.78l5.47-4.54-.19 1c-3.96-6.7-8.09-14.04-12.2-21.46l.75.26-17.13 6.16-.19.07-.14-.13c-.59-.57-1.16-1.15-1.76-1.68-2.805869-2.543551-5.908271-4.739407-9.24-6.54-2.75-1.46-5.29-2.72-8.89-4.21-1.05-.32-2.17-.62-3.61-1l-.26-.07-.06-.29c-1.04-5.04-2.21-11.14999996-3.47-17.83999996l1 .84-24.74.59 1.58-1.34-.56 4.13c-1 5.40999996-1.76 9.88999996-2.38 13.81999996l-.16 1-1 .28c-3.9608106 1.1611437-7.7807805 2.7575491-11.39 4.76-3.5883138 1.9758262-7.0037328 4.2505422-10.21 6.8-.52.5-1 1-1.5 1.54l-.56.57-.81-.3c-5.71-1.87-11.34-3.8-17.27-5.9l2.39-.85c-3.66 6.75-7.63 13.75-12.12 21.55l-.51-2.8 14.08 11.48 1.08.88-.34 1.36c-.42 1.69-.78 3.45-1 5.27-1.1379734 6.9836764-.8625328 14.124729.81 21l.3 1.21-1 .78-14.13 11.4299998.44-2.4099998 12.33 21.4499998-2.25-.8 17-6.38 1-.39.79.77c.88.86 1.8 1.72 2.76 2.54 2.833787 2.570778 5.9822534 4.771681 9.37 6.55 3.54 2 7 3.29 8.45 4.18.69.19 1.43.35 2.23.57l.65.17.15.72c1 5.12 2 11.89 2.83 18l-1-.87 9 .28c3.8-.53 4.39-.21 8.19-.48l7.55.11-1.12.94c1.07-6.19 2-12 2.91-17.95l.1-.69.71-.22c7.3514594-2.187598 14.1178938-5.997989 19.8-11.15 1.18-1 2.22-2 2.89-2.65l.8-.77 1 .39 17 6.41-2.2.79c1.91-3.39 3.65-6.59 5.76-10.77 2.92-5.11 4.47-7.12 6.39-10.7899998l.48 2.6299998c-.55-.41-1.15-.8399998-1.82-1.2999998-2.13-1.81-3.54-2.37-3.81-3.11-5.05-4.38-6.92-5.45-8.31-7.25l-1-1.25.37-.68.22-.41c.633753-2.5997917 1.068347-5.2441235 1.3-7.91.27-2.5.36-4.48.73-4.68z" fill="#2e316a"/><circle cx="69.63" cy="73.952962" fill="#2e316a" fill-rule="nonzero" r="20.44"/><path d="m182.88 84.2629622c-.13-.72.85.07 2 1.35s2.46 3.07 3.27 4.1c.714379.6640179 1.33658 1.4207487 1.85 2.25l.17.26h.28c1.62-.24 3.5-.47 4.76-.74 3.23-.34 7.21-.92 9.44-.95l-.43-.29c.06.32.1.6.12.83 1.71 4.2 2.94 9.4699998 4.66 14.7799998.34 1 .68 2 1 3v.11l-.12.07c-1.26.7-2.54 1.42-4 2.2-2.63 1.38-5.18 2.54-8.09 4l-.61.31.41-.64c.120611 3.441514-.164689 6.885254-.85 10.26-.787653 3.891587-2.113738 7.654435-3.94 11.18l-.1-1.46c2.88 3.75 5.8 7.62 8.59 11.44l.74 1-.87.87c-3 3.06-6 6-8.85 8.66-2 2.12-3 3.51-4.65 5.37l-.83.94-1.21-.75c-.49-.3-1-.66-1.64-1.08l-10-7.29 1.5.06c-6.538245 3.602114-13.856375 5.555217-21.32 5.69l1-.66-5.79 13.1-.34.78-.82-.21c-5.38-1.38-11.76-3-18.88-4.74l-.87-.21.07-.91.75-9.61c.24-1.74.39-3.26.51-4.63l.53 1c-3.35-2-5.68-3.57-7.6-6.07-3.096434-2.72775-5.772092-5.898775-7.94-9.41l.79.39c-4.84.56-9.62 1.06-14.23 1.47h-.58l-.13-.53c-.606667-2.36-1.18-4.663333-1.72-6.91-1.47-3.77-2.85-7.39-4.25-11.64l-.35-1.06 1.1-.56.49-.26c4.25-2.18 8.26-4 12.43-5.91l-.87 1.38c.170515-7.284023 1.974925-14.436731 5.28-20.9299998-.12.25.21 0 .49-.42l.09 1.25c-.106054-.2128155-.248153-.4056633-.42-.57-1.71-1.45-5.33-6.4-8.47-10.65l-.82-1.12 1-1 3.12-3.21 10.27-10.82 1.07-1.13 1.34.9 11.9 8-2.31-.16c2.049449-1.2507799 4.196404-2.33429 6.42-3.24 4.913519-1.7055927 10.060671-2.6432783 15.26-2.78l-1.87 1.27 3.33-7.72c.83-1.75 1.68-3.53 2.53-5.34l.73-1.54 1.53.43c6.06 1.72 12.44 3.41 18.78 5.14l1.32.36-.14 1.31c-.5 4.8-1 9.58-1.61 14.22l-.61-1.17c3.089355 1.9377736 5.895932 4.2934138 8.34 7 .14.67-.55.16-1.37-.48-.639213-.588002-1.377202-1.0585548-2.18-1.39-.61-.2.8 1 1.8 1.92s1.66 1.61-.17.11c.12.72-1.15-.34-2.64-1.55s-3.2-2.53-3.54-2.86l-1.37-.8-.55-.32v-.65c.29-3.55.67-6 1-8.65.14-1.78.28-3.61.43-5.58l.62.87c-6-1.5-12.39-3.23-18.82-5l.71-.35-6 13-.08.18h-.2c-.64 0-1.28 0-1.91.06-2.970016.1825447-5.905842.7334318-8.74 1.64-2.34.75-4.46 1.53-7.26 2.66-.75.43-1.53.9-2.53 1.52l-.22.13-.25-.15c-3.45-2.15-7.56-4.82-12-7.76l1.3-.12-13.14 14.36.14-2.06 2 2.56c2.47 3.56 4.58 6.45 6.45 9l.59.8-.48.88c-1.508092 2.8592106-2.692099 5.8779258-3.53 8.9999998-.852982 3.08555-1.471412 6.231185-1.85 9.41 0 .56 0 1.12.07 1.67v.78l-.81.44c-4.16 2.25-8.32 4.4-12.73 6.59l1.06-2.3c1.79 5.77 3.57 11.85 5.51 18.67l-2.32-1.67 14.21-1.62 1.39-.16.73 1.19c.71 1.15 1.5 2.31 2.37 3.45 3.249064 4.449847 7.369243 8.192371 12.11 11l1.08.64-.11 1.22c-.45 4.77-.89 9.5-1.33 14.24l-1.42-2 18.86 4.84-2.1 1.09c1.89-4.29 3.82-8.64 5.79-13.1l.45-1h1.1c1 0 1.94-.06 2.92-.15 2.959934-.129033 5.889279-.653692 8.71-1.56 3-.91 5.66-2.09 7-2.35l1.53-1 .55-.35.64.4c3.49 2.19 7.83 5.38 11.67 8.28l-1.34.13 5.15-4.88c1.71-2.51 2.26-2.62 4.16-4.95l4.22-4.17-.1 1.45c-2.89-4-5.66-7.75-8.52-11.49l-.43-.56.34-.66c2.765905-5.318592 4.284294-11.19722 4.44-17.19.08-1.21.09-2.34.09-3.06v-1.11l1-.48 13-6.08-1 2.12c-.87-2.93-1.74-5.66-3-9.14-1.28-4.4499998-1.5-6.4499998-2.54-9.5299998l2.22 1.43c-.53.09-1.1.2-1.73.33-2.19.2-3.27.79-3.84.44-5.24.4-6.87.95-8.66.63l-1.61-.27-.13-.57-.09-.36c-1.102874-1.7618972-2.343411-3.4337798-3.71-5-1.31-1.54-2.35-2.69-2.19-3.06z" fill="#2e316a"/><g fill="#cccfdb"><path d="m93.67 164.562962c.15.67-.93.15-1.41.21-.27.27-1 .09-1.42.21-.66-.1-1.51-.07-1.82-.39-.9257041.126416-1.8642959.126416-2.79 0-.47 0-.89.15-1.42.19s-1 0-1.63 0c-2.34.09-6.07.08-8.77-.92-.65-.09-1 .15-1.67.07-5.2-1.45-8.15-2.26-13.51-3.58-1.06-.58-1.8-.36-2.33-1.13-1.9693655-.473667-3.8499467-1.260337-5.57-2.33-.8202476.018079-1.6387776-.082974-2.43-.3-2-.56-3.31-1.84-5.61-2.92.06 0 0-.31-.11-.28-.7.16-2.1-.9-3-1.44-1.28-.72-3.6-2.12-5.65-3.53-.88-1-1.9-2-3-3-1.77-2.37-4.15-4.91-5.06-7.76.36-.49.66.28 1 .16s-.67-1.13 0-.58c.43-.54 1 .79.94 1 .4015675.472962.737898.997638 1 1.56 1.5 1.62 3 3.82 4.73 5.6.94 1 1.63 1 2.25 2 1.68.73 4.08 2.27 6.37 3.24 2 1.6 3.21 1.63 4.56 3 2.89.59 5.27 1.75 9 3.13 3.7 1.71 7.44 2.52 11.5 3.65.77.48 2.45.47 2.8 1.14 1.18-.17 3 .55 4 .93.59-.3.64-.06 1.2-.17 2.2384662.593943 4.560343.810246 6.87.64 2.47.17 3.17.51 4.84.23 1 .08 1.24.47 2.06.23.39.08.63-.24.69.08 1 .27 1.28 0 1.57.54.71.08 1.83-.04 1.82.52z"/><path d="m59.58 170.742962c.06.66-.39.23-.6.32-.11.29-.42.17-.6.32-.28 0-.64.06-.76-.23-.37.34-.76.12-1.19.23-.21.05-.39.22-.63.29s-.44 0-.7.09c-1 .25-2.7.47-3.76-.31-.29 0-.48.22-.76.19-1.7717759-.905406-3.6449251-1.596927-5.58-2.06-.38-.4-.8-.08-.89-.72-.860891-.143957-1.6567849-.548886-2.28-1.16-.3808565.155261-.7887267.233436-1.2.23-1-.06-1.35-.9-2.4-1.22 0 0 .09-.27 0-.2-.43.32-1-.21-1.39-.38-.58-.24-1.66-.65-2.67-1-.3924394-.473798-.8665981-.873446-1.4-1.18-.3935835-.539009-.8354057-1.04108-1.32-1.5-.4831073-.492054-.8488698-1.086845-1.07-1.74.31-.5.44-.13.69-.37s-.36-.43.08-.39c.36-.56.6.06.56.22.2391741.138141.4149832.364181.49.63.8458636.604928 1.6060791 1.321415 2.26 2.13.43.4.83.2 1 .71 1.0440464.153325 2.0789254.363639 3.1.63.76.82 1.43.51 1.84 1.4 1.42-.17 2.39.34 3.93 1 1.4652614.820479 3.0097978 1.49056 4.61 2 .27.37 1 .24 1 .86.56-.28 1.23.27 1.65.57.3-.33.28-.1.54-.25.9043264.423218 1.9388883.473509 2.88.14 1 0 1.29.29 2-.11.39 0 .49.39.84.09.16.05.27-.29.28 0 .4.19.53-.12.64.41.35.02.81-.2.81.36z"/><path d="m112.52 16.4429622c-.65.12-.24-.57-.36-.87-.3-.13-.23-.59-.42-.82 0-.41-.22-.89 0-1.15-.47-.4-.44-1-.81-1.52-.198666-.2181866-.412534-.4220298-.64-.61-.23-.23-.35-.48-.61-.71-.573836-.4891587-1.201156-.91184516-1.87-1.25999996-.7-.37-1.4-.67-2-1.07-.34 0-.52.25-.82.27-1.072897-.29340128-2.220574.01647152-3 .81-.759981.88376316-.967885 2.11578446-.54 3.19999996-.021308.2241108.055252.4464989.21.61.123948.1750447.150323.4011238.07.6.140406.1058466.287366.2027066.44.29l-.73.05 1.82-2.08c-.114205-.4758924-.1845-.9612607-.21-1.45 0-1.09999996.63-1.92999996.36-3.30999996 0 0 .29-.09.18-.14-.51-.24-.44-1.14-.64-1.65-.38977-.98562107-1.069802-1.8295583-1.95-2.42-.123264-.24955336-.300964-.46826102-.52-.64-.215049-.1723081-.469182-.2890718-.74-.34-.5510101-.3630363-1.2235893-.4925168-1.87-.36-.6653458.12884191-1.3000162.38338886-1.87.75-.57-.17-.16-.46-.41-.71s-.55.71-.47.07c-.32-.09-.29-.34-.11-.56.1411782-.15267258.3264389-.25753711.53-.3.2842901-.35667512.7050177-.57791981 1.16-.61.7054234-.43314858 1.5424549-.59984552 2.36-.47.8143178.11823935 1.585164.44171938 2.24.94.66.5 1.18.48 1.42 1.19.644923.35261794 1.194123.8571953 1.6 1.47.493716.71532027.906257 1.48338459 1.23 2.29.002935.66809453.039648 1.33561339.11 2 .068996.56977856-.061769 1.14584971-.37 1.63.254424.99083846.209182 2.03488456-.13 2.99999996-.426426 1.2070695-1.136303 2.2941766-2.07 3.17l-.19.14-1.13.88-.89-.74c-1.2938263-1.1078187-1.9903773-2.7602747-1.88-4.46.0500691-1.60037208.8039043-3.09706423 2.06-4.08999996.37-.11.76-.39 1.17-.55s.81-.22 1 0c.404635-.29918946.914619-.41854742 1.41-.33.475434.06069597.93609.20634447 1.36.43.43-.31.44-.07.84-.16.76.37 1.39.73 2 1.12.698931.42248094 1.36725.8936458 2 1.41.411272.48782228.748242 1.03371226 1 1.61999996.204069.456618.473565.8810744.8 1.26.21.65-.1.93.32 1.4 0 .26.37.35.07.46-.06.69.25.85-.25 1.11.06.47.3 1.19-.26 1.21z"/><path d="m198.7 20.0629622c.66-.05.21.47.3.72.29.14.15.5.29.72 0 .33 0 .76-.26.9.35.44.12.9.23 1.41.05.24.22.45.29.72s0 .52.1.82c.27 1.18.58 3.07-.12 4.4 0 .33.26.52.25.85-.761398 2.2081361-1.245113 4.5024237-1.44 6.83-.35.53 0 .93-.6 1.19-.029396 1.020511-.322209 2.0160759-.85 2.89.217309.4036491.356415.8447149.41 1.3.08 1.1-.72 1.76-.89 3 0 0-.29 0-.21.06.39.39-.07 1.16-.19 1.66-.15.73-.44 2.06-.71 3.29-.436664.5741732-.790147 1.2070757-1.05 1.88-.522871.587665-.997729 1.2163503-1.42 1.88-.465121.6542603-1.056801 1.2085349-1.74 1.63-.54-.22-.16-.45-.44-.68s-.42.51-.42 0c-.61-.26 0-.68.19-.68.122318-.2905745.336616-.5329773.61-.69.239558-.5453996.534435-1.064785.88-1.55.37-.51.78-1 1.1-1.54s.12-1 .61-1.35c-.13-1 .23-2.39.24-3.68.73-1.08.31-1.77 1.16-2.48-.36-1.57 0-2.83.46-4.77.616252-1.9125108 1.090868-3.8677952 1.42-5.85.35-.38.14-1.23.75-1.39-.32-.61.18-1.49.45-2-.37-.31-.13-.33-.29-.61.360494-1.1251637.360494-2.3348362 0-3.46 0-1.23.28-1.58-.12-2.43 0-.48.39-.6.1-1 0-.19-.28-.32 0-.34.2-.48-.1-.65.43-.77.13-.34-.08-.91.48-.88z"/><path d="m201.78 54.3429622c.65 0 .24.16.35.24.29 0 .18.17.34.24 0 .11.08.26-.21.28.37.17.16.31.3.49s.24.17.33.28.05.18.13.29c.32.44.68 1.21 0 1.54 0 .12.27.25.27.37-.641262.5454678-1.060944 1.3065871-1.18 2.14-.3.08.05.37-.51.24.016245.3890288-.256894.7304525-.64.8.187817.2049092.330859.4467187.42.71.11.49-.51.44-.59.91 0 0-.25-.15-.17-.07.35.36 0 .49-.05.66s-.2.76-.31 1.24c-.263901.0544493-.494661.2130964-.64.44-.69 0-1 .61-1.89.3-.4-.42-.17-.35-.38-.63s-.23.06-.29-.22c-.46-.48-.08-.37 0-.28 0-.14.2-.08.34-.06.13-.37.68-.41 1.08-.58.21-.1 0-.42.33-.35-.097748-.5111129-.151279-1.0296971-.16-1.55.5-.12.12-.58.77-.48-.339074-.501357-.293735-1.1690806.11-1.62.6-.38.64-1 1-1.51.32 0 .08-.37.67-.26-.33-.29.11-.45.35-.57-.36-.19-.13-.14-.3-.27.31-.31.28-.64-.13-1.1-.07-.38.19-.46-.25-.76 0-.14.36-.15 0-.3 0-.05-.3-.11 0-.1s-.14-.19.38-.2c.22-.1-.03-.28.53-.26z"/></g></g><g transform="translate(127 26)"><path d="m38.3 54.8c14.9 0 26.9-12 26.9-26.9s-12-26.9-26.9-26.9-26.9 12-26.9 26.9 12 26.9 26.9 26.9z" fill="#2e316a" fill-rule="nonzero"/><path d="m28.1 54.8c14.9 0 26.9-12 26.9-26.9s-12-26.9-26.9-26.9-26.9 12-26.9 26.9 12.1 26.9 26.9 26.9z" fill="#21c496" fill-rule="nonzero"/><path d="m20.1 29 4.6 4.6 11.5-11.5" stroke="#fff" stroke-linecap="round" stroke-linejoin="round" stroke-width="9"/><path d="m57.0118258 27.5207689c-1.1738716.5217207-.5217207-2.0868829-.7825811-3.1303244-.6521509-.5217208-.6521509-2.2173132-1.1738717-2.9998943-.2608603-1.434732-1.1738716-3.1303244-.9130112-4.0433357-.652151-.7825811-1.1738717-1.5651622-1.6955924-2.4781735-.652151-.9130113-1.0434415-1.8260226-1.8260226-2.6086037s-1.4347321-1.3043018-2.3477433-1.9564527c-.9130113-.78258114-1.6955924-1.43473206-2.7390339-2.21731317-2.086883-1.30430184-4.956347-2.73903387-8.0866714-3.52161498-3.1303245-.91301129-6.3910791-1.30430184-9.2605431-1.69559239-.652151 0-1.1738717.26086036-1.6955924.39129055-.5217208.26086037-.9130113.39129055-1.5651622.52172074-5.3476376.52172073-9.5214035 2.73903387-12.7821581 5.60849792l-.6521509.52172074-.5217208.65215089c-.3912905.3912906-.7825811.7825811-1.17387163 1.1738717-.65215092.9130113-1.43473203 1.8260226-1.95645277 2.869464-1.17387166 2.086883-2.21731313 4.4346263-2.73903387 7.3040904-.52172074 1.1738716-.52172074 2.0868829-.65215092 2.869464s-.13043018 1.5651622-.65215092 2.3477433c.13043018 4.4346263 1.30430184 8.7388224 2.60860369 12.5212977.65215092.652151 1.30430184 1.0434415 1.82602258 1.6955924.65215092.5217208 1.30430184 1.0434415 1.82602254 1.6955924 1.5651623 1.4347321 2.8694641 2.8694641 4.4346263 4.1737659 1.5651622 1.3043019 3.3911848 2.6086037 5.8693583 3.3911848-.1304302 0 0 .5217208.3912906.5217208 1.1738716-.2608604 4.5650564.7825811 6.6519394.7825811 2.869464.1304302 8.3475318-.6521509 12.2604373-3.2607546 2.3477433-.7825811 4.6954866-2.3477433 6.6519394-4.5650565 2.2173131-1.6955924 4.1737659-4.3041961 5.4780677-7.1736601 1.3043019-2.8694641 2.2173132-5.8693583 2.8694641-8.8692526 1.0434415-.3912905.6521509 1.3043019 1.1738717 1.5651623.5217207.5217207.3912905-2.9998943.6521509-1.0434415 1.1738716-.5217208.5217207 2.869464 0 3.2607546-.1304302 1.8260226-.6521509 2.869464-1.1738717 4.0433357-.6521509 2.4781735-1.8260226 5.0867772-3.6520451 7.4345205-1.8260226 2.3477433-3.9129056 4.3041961-6.2606489 5.7389281-1.1738717.9130113-2.0868829 1.5651622-2.8694641 2.086883-.7825811.6521509-1.6955924 1.0434414-2.869464 1.3043018-1.6955924 1.0434415-4.0433357 2.3477433-7.04323 2.8694641-2.869464.6521509-6.1302186.7825811-9.1301129.6521509-1.434732-.5217207-2.7390338-.7825811-3.7824753-1.3043018-.5217208-.2608604-1.0434415-.3912906-1.5651622-.5217208-.5217208-.1304302-.9130113-.3912905-1.4347321-.6521509-.3912905-.2608604-.9130113-.3912906-1.3043018-.6521509-.3912906-.2608604-.7825811-.5217208-1.1738717-.7825811-.7825811-.5217208-1.5651622-1.1738717-2.2173131-2.086883-3.13032442-1.5651622-5.73892811-3.9129055-7.82581106-7.0432299-2.08688295-3.1303245-3.65204516-7.1736602-4.1737659-12.1300072-.13043018-5.0867772.65215092-9.912694 2.73903387-14.3473203 1.95645277-4.4346262 5.08677719-8.47796195 9.26054309-11.34742601.9130113-.39129055 2.2173131-1.17387166 3.3911848-1.95645277 1.3043018-.65215092 2.4781735-1.04344147 3.1303244-.7825811.5217208-.39129055 1.3043019-.78258111 1.9564528-1.04344148.7825811-.26086037 1.6955924-.39129055 2.6086037-.65215092 1.8260226-.26086037 3.521615-.26086037 4.8259168 0 1.1738717-.7825811 1.434732-.26086037 2.7390339-.65215092 1.434732.13043018 2.7390338.52172074 4.0433357.65215092 1.3043018.39129055 2.4781735.65215092 3.7824753 1.04344148 2.4781735.7825811 4.956347 1.69559239 7.5649507 3.26075461 2.4781735 1.69559239 3.7824754 3.13032442 4.8259168 4.43462626 1.0434415 1.30430183 1.9564528 2.34774333 3.3911848 3.91290553.652151 1.0434415.7825811 1.8260226 1.0434415 2.4781735s.5217208 1.3043019 1.0434415 2.086883c.2608604.9130112 1.0434415 1.1738716.5217207 1.5651622.1304302 1.1738716.3912906 1.9564527.5217208 2.4781735.1304301.5217207 0 .9130113-.2608604 1.434732.3912905 1.434732.7825811 4.0433357-.1304302 4.1737659z" fill="#2e316a"/></g></g></svg>