<svg height="216" viewBox="0 0 216 216" width="216" xmlns="http://www.w3.org/2000/svg"><g fill="none" fill-rule="evenodd" transform="translate(2.075 2)"><g fill="#2f326a"><path d="m172.7 187.3c.4.9-1.7.3-2.6.5-.4.4-1.8.3-2.6.5-1.2 0-2.8.1-3.5-.2-1.5.5-3.3.3-5.2.5-.9.1-1.6.3-2.6.5-1 .1-1.9.1-3 .2-4.3.5-11.2 1.2-16.5.5-1.2 0-1.8.4-3 .5-8.7-.6-17.4-.8-26-.5-2.2-.3-3.4.3-4.8-.5-3.8.2-7.5.2-11.3-.2-1.4.4-2.9.8-4.3 1-3.8.5-7-.3-11.7 0 .1 0-.2-.4-.4-.2-1 .7-4.2.4-6.1.5-2.7.1-7.6.4-12.2.7-2.6-.2-5.2-.3-7.8-.2-5.4-.6-11.6-.3-16.9-1.4-.4-.8 1.1-.5 1.3-1 .4-.4-2.5-.1-.9-.5-.4-.9 2.3-.4 2.6-.2 1.2-.1 2.3 0 3.5.2 4.6-.1 9.3.1 13.9.5 2.6.1 3.6-.4 5.6 0 3.3-.6 8.7-.9 13.5-1.4 4.8.4 6.9-.3 10.4.5 5.4-1 10.6-1 18.2-1 7.8.5 15 .2 23 .5 1.6.4 4.7-.1 5.6.7 2.1-.5 5.7 0 7.8.2 1-.5 1.2-.2 2.2-.5 4.3.3 8.7.1 13-.5 4.7-.2 6 .2 9.1-.5 1.8 0 2.4.4 3.9 0 .7.1 1.1-.4 1.3 0 1.9.2 2.4-.2 3 .5 1.3-.1 3.4-.5 3.5.3z"/><path d="m186 144.5c.9 0 .3 0 .5.1.2 0 .3 0 .5.1 0 0 .1.1-.2.1.5 0 .3.1.5.1.1 0 .3 0 .5.1s.1.1.2.1c.5.1 1.2.3.5.5 0 0 .4.1.5.1-.6.3-.8.4-.5.7-.3.1.3.1-.5.1.2.1.2.2-.2.3.3 0 .6.1 1 .1.5.1-.3.2 0 .3h-.2c.7 0 .4.1.5.2.2.1.5.3.7.3-.2.1-.3.1-.2.2-.6.2-.3.3-1.4.5-.8 0-.5 0-1 0-.4 0-.1.1-.5 0-.9 0-.4-.1-.2-.1-.1 0 .1-.1.2-.1-.2-.1.2-.3.5-.4.1-.1-.4-.1 0-.2-.5-.1-1-.2-1.4-.4.4-.1-.3-.2.5-.3-1-.2-1-.3-1-.5.5-.2.2-.4.5-.7.4 0-.1-.1.7-.2-.5-.1 0-.2.2-.2-.2 0-.3 0-.5-.1.3-.1.2-.2-.5-.4-.2-.1.2-.2-.5-.3 0-.1.4-.1 0-.1.2-.1-.2-.1.5-.1-.1.2-.5.2.3.2z"/><path d="m186 136.5c.9 0 .3 0 .5.1.2 0 .3 0 .5.1 0 0 .1.1-.2.1.5 0 .3.1.5.1.1 0 .3 0 .5.1s.1.1.2.1c.5.1 1.2.3.5.5 0 0 .4.1.5.1-.6.3-.8.4-.5.7-.3.1.3.1-.5.1.2.1.2.2-.2.3.3 0 .6.1 1 .1.5.1-.3.2 0 .3h-.2c.7 0 .4.1.5.2.2.1.5.3.7.3-.2.1-.3.1-.2.2-.6.2-.3.3-1.4.5-.8 0-.5 0-1 0-.4 0-.1.1-.5 0-.9 0-.4-.1-.2-.1-.1 0 .1-.1.2-.1-.2-.1.2-.3.5-.4.1-.1-.4-.1 0-.2-.5-.1-1-.2-1.4-.4.4-.1-.3-.2.5-.3-1-.2-1-.3-1-.5.5-.2.2-.4.5-.7.4 0-.1-.1.7-.2-.5-.1 0-.2.2-.2-.2 0-.3 0-.5-.1.3-.1.2-.2-.5-.4-.2-.1.2-.2-.5-.3 0-.1.4-.1 0-.1.2-.1-.2-.1.5-.1-.1.2-.5.2.3.2z"/><path d="m186 128.5c.9 0 .3 0 .5.1.2 0 .3 0 .5.1 0 0 .1.1-.2.1.5 0 .3.1.5.1.1 0 .3 0 .5.1s.1.1.2.1c.5.1 1.2.3.5.5 0 0 .4.1.5.1-.6.3-.8.4-.5.7-.3.1.3.1-.5.1.2.1.2.2-.2.3.3 0 .6.1 1 .1.5.1-.3.2 0 .3h-.2c.7 0 .4.1.5.2.2.1.5.3.7.3-.2.1-.3.1-.2.2-.6.2-.3.3-1.4.5-.8 0-.5 0-1 0-.4 0-.1.1-.5 0-.9 0-.4-.1-.2-.1-.1 0 .1-.1.2-.1-.2-.1.2-.3.5-.4.1-.1-.4-.1 0-.2-.5-.1-1-.2-1.4-.4.4-.1-.3-.2.5-.3-1-.2-1-.3-1-.5.5-.2.2-.4.5-.7.4 0-.1-.1.7-.2-.5-.1 0-.2.2-.2-.2 0-.3 0-.5-.1.3-.1.2-.2-.5-.4-.2-.1.2-.2-.5-.3 0-.1.4-.1 0-.1.2-.1-.2-.1.5-.1-.1.2-.5.2.3.2z"/><path d="m186 159.5c.9 0 .3 0 .5.1.2 0 .3 0 .5.1 0 0 .1.1-.2.1.5 0 .3.1.5.1.1 0 .3 0 .5.1s.1.1.2.1c.5.1 1.2.3.5.5 0 0 .4.1.5.1-.6.3-.8.4-.5.7-.3.1.3.1-.5.1.2.1.2.2-.2.3.3 0 .6.1 1 .1.5.1-.3.2 0 .3h-.2c.7 0 .4.1.5.2.2.1.5.3.7.3-.2.1-.3.1-.2.2-.6.2-.3.3-1.4.5-.8 0-.5 0-1 0-.4 0-.1.1-.5 0-.9 0-.4-.1-.2-.1-.1 0 .1-.1.2-.1-.2-.1.2-.3.5-.4.1-.1-.4-.1 0-.2-.5-.1-1-.2-1.4-.4.4-.1-.3-.2.5-.3-1-.2-1-.3-1-.5.5-.2.2-.4.5-.7.4 0-.1-.1.7-.2-.5-.1 0-.2.2-.2-.2 0-.3 0-.5-.1.3-.1.2-.2-.5-.4-.2-.1.2-.2-.5-.3 0-.1.4-.1 0-.1.2-.1-.2-.1.5-.1-.1.2-.5.2.3.2z"/><path d="m186 120.5c.9 0 .3 0 .5.1.2 0 .3 0 .5.1 0 0 .1.1-.2.1.5 0 .3.1.5.1.1 0 .3 0 .5.1s.1.1.2.1c.5.1 1.2.3.5.5 0 0 .4.1.5.1-.6.3-.8.4-.5.7-.3.1.3.1-.5.1.2.1.2.2-.2.3.3 0 .6.1 1 .1.5.1-.3.2 0 .3h-.2c.7 0 .4.1.5.2.2.1.5.3.7.3-.2.1-.3.1-.2.2-.6.2-.3.3-1.4.5-.8 0-.5 0-1 0-.4 0-.1.1-.5 0-.9 0-.4-.1-.2-.1-.1 0 .1-.1.2-.1-.2-.1.2-.3.5-.4.1-.1-.4-.1 0-.2-.5-.1-1-.2-1.4-.4.4-.1-.3-.2.5-.3-1-.2-1-.3-1-.5.5-.2.2-.4.5-.7.4 0-.1-.1.7-.2-.5-.1 0-.2.2-.2-.2 0-.3 0-.5-.1.3-.1.2-.2-.5-.4-.2-.1.2-.2-.5-.3 0-.1.4-.1 0-.1.2-.1-.2-.1.5-.1-.1.2-.5.2.3.2z"/><path d="m186 151.5c.9 0 .3 0 .5.1.2 0 .3 0 .5.1 0 0 .1.1-.2.1.5 0 .3.1.5.1.1 0 .3 0 .5.1s.1.1.2.1c.5.1 1.2.3.5.5 0 0 .4.1.5.1-.6.3-.8.4-.5.7-.3.1.3.1-.5.1.2.1.2.2-.2.3.3 0 .6.1 1 .1.5.1-.3.2 0 .3h-.2c.7 0 .4.1.5.2.2.1.5.3.7.3-.2.1-.3.1-.2.2-.6.2-.3.3-1.4.5-.8 0-.5 0-1 0-.4 0-.1.1-.5 0-.9 0-.4-.1-.2-.1-.1 0 .1-.1.2-.1-.2-.1.2-.3.5-.4.1-.1-.4-.1 0-.2-.5-.1-1-.2-1.4-.4.4-.1-.3-.2.5-.3-1-.2-1-.3-1-.5.5-.2.2-.4.5-.7.4 0-.1-.1.7-.2-.5-.1 0-.2.2-.2-.2 0-.3 0-.5-.1.3-.1.2-.2-.5-.4-.2-.1.2-.2-.5-.3 0-.1.4-.1 0-.1.2-.1-.2-.1.5-.1-.1.2-.5.2.3.2z"/><path d="m186 112.5c.9 0 .3 0 .5.1.2 0 .3 0 .5.1 0 0 .1.1-.2.1.5 0 .3.1.5.1.1 0 .3 0 .5.1s.1.1.2.1c.5.1 1.2.3.5.5 0 0 .4.1.5.1-.6.3-.8.4-.5.7-.3.1.3.1-.5.1.2.1.2.2-.2.3.3 0 .6.1 1 .1.5.1-.3.2 0 .3h-.2c.7 0 .4.1.5.2.2.1.5.3.7.3-.2.1-.3.1-.2.2-.6.2-.3.3-1.4.5-.8 0-.5 0-1 0-.4 0-.1.1-.5 0-.9 0-.4-.1-.2-.1-.1 0 .1-.1.2-.1-.2-.1.2-.3.5-.4.1-.1-.4-.1 0-.2-.5-.1-1-.2-1.4-.4.4-.1-.3-.2.5-.3-1-.2-1-.3-1-.5.5-.2.2-.4.5-.7.4 0-.1-.1.7-.2-.5-.1 0-.2.2-.2-.2 0-.3 0-.5-.1.3-.1.2-.2-.5-.4-.2-.1.2-.2-.5-.3 0-.1.4-.1 0-.1.2-.1-.2-.1.5-.1-.1.2-.5.2.3.2z"/><path d="m186 14.9c.9-.3.3 1.1.5 1.7.4.3.3 1.2.5 1.7 0 .8.1 1.8-.2 2.2.5 1 .3 2.1.5 3.3.1.6.3 1 .5 1.7.1.6.1 1.2.2 1.9.5 2.8 1.2 7.1.5 10.5 0 .8.4 1.2.5 1.9-.6 5.5-.8 11-.5 16.5-.3 1.4.3 2.1-.5 3 .2 2.4.2 4.8-.2 7.2.4.9.8 1.8 1 2.8.5 2.4-.3 4.4 0 7.4 0-.1-.4.1-.2.3.7.6.4 2.7.5 3.9.1 1.7.4 4.9.7 7.7-.2 1.6-.3 3.3-.2 5-.6 3.4-.3 7.4-1.4 10.8-.8.2-.5-.7-1-.8-.4-.3-.1 1.6-.5.6-.9.3-.4-1.5-.2-1.7-.1-.7 0-1.5.2-2.2-.1-2.9.1-5.9.5-8.8.1-1.6-.4-2.3 0-3.6-.6-2.1-.9-5.6-1.4-8.5.4-3.1-.3-4.4.5-6.6-1-3.4-1-6.7-1-11.6.5-4.9.2-9.5.5-14.6.4-1-.1-3 .7-3.6-.5-1.3 0-3.6.2-5-.5-.6-.2-.7-.5-1.4.3-2.8.1-5.6-.5-8.3-.2-3 .2-3.8-.5-5.8 0-1.2.4-1.5 0-2.5.1-.5-.4-.7 0-.8.2-1.2-.2-1.5.5-1.9-.1-1-.5-2.3.3-2.4z"/><path d="m183.2 15.8c0-.9 0-.3.1-.5 0-.2 0-.3.1-.5 0 0 .1-.1.1.2 0-.5.1-.3.1-.5 0-.1 0-.3.1-.5 0-.1.1-.1.1-.2.1-.5.3-1.2.5-.5 0 0 .1-.4.1-.5.3.6.4.8.7.5.1.3.1-.3.1.5.1-.2.2-.2.3.2 0-.3.1-.6.1-1 .1-.5.2.3.3 0 0 0 0 .4 0 .2 0-.7.1-.4.2-.5.1-.2.3-.5.3-.7.1.2.1.3.2.2.2.6.3.3.5 1.4v1c0 .4.1.1 0 .5 0 .9-.1.4-.1.2 0 .1-.1-.1-.1-.2-.1.2-.3-.2-.4-.5-.1-.1-.1.4-.2 0-.1.5-.2 1-.4 1.4-.1-.4-.2.3-.3-.5-.2 1-.3 1-.5 1-.2-.5-.4-.2-.7-.5 0-.4-.1.1-.2-.7-.1.5-.2 0-.2-.2 0 .2 0 .3-.1.5-.1-.3-.2-.2-.4.5-.1.2-.2-.2-.3.5-.1 0-.1-.4-.1 0 0-.1 0 .4 0 0-.1-.2-.1.2-.1-.5.3.1.2.4.2-.3z"/><path d="m167.2 15.8c0-.9 0-.3.1-.5 0-.2 0-.3.1-.5 0 0 .1-.1.1.2 0-.5.1-.3.1-.5 0-.1 0-.3.1-.5 0-.1.1-.1.1-.2.1-.5.3-1.2.5-.5 0 0 .1-.4.1-.5.3.6.4.8.7.5.1.3.1-.3.1.5.1-.2.2-.2.3.2 0-.3.1-.6.1-1 .1-.5.2.3.3 0 0 0 0 .4 0 .2 0-.7.1-.4.2-.5.1-.2.3-.5.3-.7.1.2.1.3.2.2.2.6.3.3.5 1.4v1c0 .4.1.1 0 .5 0 .9-.1.4-.1.2 0 .1-.1-.1-.1-.2-.1.2-.3-.2-.4-.5-.1-.1-.1.4-.2 0-.1.5-.2 1-.4 1.4-.1-.4-.2.3-.3-.5-.2 1-.3 1-.5 1-.2-.5-.4-.2-.7-.5 0-.4-.1.1-.2-.7-.1.5-.2 0-.2-.2 0 .2 0 .3-.1.5-.1-.3-.2-.2-.4.5-.1.2-.2-.2-.3.5-.1 0-.1-.4-.1 0 0-.1 0 .4 0 0-.1-.2-.1.2-.1-.5.3.1.2.4.2-.3z"/><path d="m159.2 15.8c0-.9 0-.3.1-.5 0-.2 0-.3.1-.5 0 0 .1-.1.1.2 0-.5.1-.3.1-.5 0-.1 0-.3.1-.5 0-.1.1-.1.1-.2.1-.5.3-1.2.5-.5 0 0 .1-.4.1-.5.3.6.4.8.7.5.1.3.1-.3.1.5.1-.2.2-.2.3.2 0-.3.1-.6.1-1 .1-.5.2.3.3 0 0 0 0 .4 0 .2 0-.7.1-.4.2-.5.1-.2.3-.5.3-.7.1.2.1.3.2.2.2.6.3.3.5 1.4v1c0 .4.1.1 0 .5 0 .9-.1.4-.1.2 0 .1-.1-.1-.1-.2-.1.2-.3-.2-.4-.5-.1-.1-.1.4-.2 0-.1.5-.2 1-.4 1.4-.1-.4-.2.3-.3-.5-.2 1-.3 1-.5 1-.2-.5-.4-.2-.7-.5 0-.4-.1.1-.2-.7-.1.5-.2 0-.2-.2 0 .2 0 .3-.1.5-.1-.3-.2-.2-.4.5-.1.2-.2-.2-.3.5-.1 0-.1-.4-.1 0 0-.1 0 .4 0 0-.1-.2-.1.2-.1-.5.3.1.2.4.2-.3z"/><path d="m151.2 15.8c0-.9 0-.3.1-.5 0-.2 0-.3.1-.5 0 0 .1-.1.1.2 0-.5.1-.3.1-.5 0-.1 0-.3.1-.5 0-.1.1-.1.1-.2.1-.5.3-1.2.5-.5 0 0 .1-.4.1-.5.3.6.4.8.7.5.1.3.1-.3.1.5.1-.2.2-.2.3.2 0-.3.1-.6.1-1 .1-.5.2.3.3 0 0 0 0 .4 0 .2 0-.7.1-.4.2-.5.1-.2.3-.5.3-.7.1.2.1.3.2.2.2.6.3.3.5 1.4v1c0 .4.1.1 0 .5 0 .9-.1.4-.1.2 0 .1-.1-.1-.1-.2-.1.2-.3-.2-.4-.5-.1-.1-.1.4-.2 0-.1.5-.2 1-.4 1.4-.1-.4-.2.3-.3-.5-.2 1-.3 1-.5 1-.2-.5-.4-.2-.7-.5 0-.4-.1.1-.2-.7-.1.5-.2 0-.2-.2 0 .2 0 .3-.1.5-.1-.3-.2-.2-.4.5-.1.2-.2-.2-.3.5-.1 0-.1-.4-.1 0 0-.1 0 .4 0 0-.1-.2-.1.2-.1-.5.3.1.2.4.2-.3z"/><path d="m143.2 15.8c0-.9 0-.3.1-.5 0-.2 0-.3.1-.5 0 0 .1-.1.1.2 0-.5.1-.3.1-.5 0-.1 0-.3.1-.5 0-.1.1-.1.1-.2.1-.5.3-1.2.5-.5 0 0 .1-.4.1-.5.3.6.4.8.7.5.1.3.1-.3.1.5.1-.2.2-.2.3.2 0-.3.1-.6.1-1 .1-.5.2.3.3 0 0 0 0 .4 0 .2 0-.7.1-.4.2-.5.1-.2.3-.5.3-.7.1.2.1.3.2.2.2.6.3.3.5 1.4v1c0 .4.1.1 0 .5 0 .9-.1.4-.1.2 0 .1-.1-.1-.1-.2-.1.2-.3-.2-.4-.5-.1-.1-.1.4-.2 0-.1.5-.2 1-.4 1.4-.1-.4-.2.3-.3-.5-.2 1-.3 1-.5 1-.2-.5-.4-.2-.7-.5 0-.4-.1.1-.2-.7-.1.5-.2 0-.2-.2 0 .2 0 .3-.1.5-.1-.3-.2-.2-.4.5-.1.2-.2-.2-.3.5-.1 0-.1-.4-.1 0 0-.1 0 .4 0 0-.1-.2-.1.2-.1-.5.3.1.2.4.2-.3z"/><path d="m96.2 107.1c0-.9 0-.3.1-.5 0-.2 0-.3.1-.5 0 0 .1-.1.1.2 0-.5.1-.3.1-.5 0-.1 0-.3.1-.5 0-.1.1-.1.1-.2.1-.5.3-1.2.5-.5 0 0 .1-.4.1-.5.3.6.4.8.7.5.1.3.1-.3.1.5.1-.2.2-.2.3.2 0-.3.1-.6.1-1 .1-.5.2.3.3 0 0 0 0 .4 0 .2 0-.7.1-.4.2-.5.1-.2.3-.5.3-.7.1.2.1.3.2.2.2.6.3.3.5 1.4v1c0 .4.1.1 0 .5 0 .9-.1.4-.1.2 0 .1-.1-.1-.1-.2-.1.2-.3-.2-.4-.5-.1-.1-.1.4-.2 0-.1.5-.2 1-.4 1.4-.1-.4-.2.3-.3-.5-.2 1-.3 1-.5 1-.2-.5-.4-.2-.7-.5 0-.4-.1.1-.2-.7-.1.5-.2 0-.2-.2 0 .2 0 .3-.1.5-.1-.3-.2-.2-.4.5-.1.2-.2-.2-.3.5-.1 0-.1-.4-.1 0 0-.1 0 .4 0 0-.1-.2-.1.2-.1-.5.3.1.2.5.2-.3z"/><path d="m88.2 107.1c0-.9 0-.3.1-.5 0-.2 0-.3.1-.5 0 0 .1-.1.1.2 0-.5.1-.3.1-.5 0-.1 0-.3.1-.5 0-.1.1-.1.1-.2.1-.5.3-1.2.5-.5 0 0 .1-.4.1-.5.3.6.4.8.7.5.1.3.1-.3.1.5.1-.2.2-.2.3.2 0-.3.1-.6.1-1 .1-.5.2.3.3 0 0 0 0 .4 0 .2 0-.7.1-.4.2-.5.1-.2.3-.5.3-.7.1.2.1.3.2.2.2.6.3.3.5 1.4v1c0 .4.1.1 0 .5 0 .9-.1.4-.1.2 0 .1-.1-.1-.1-.2-.1.2-.3-.2-.4-.5-.1-.1-.1.4-.2 0-.1.5-.2 1-.4 1.4-.1-.4-.2.3-.3-.5-.2 1-.3 1-.5 1-.2-.5-.4-.2-.7-.5 0-.4-.1.1-.2-.7-.1.5-.2 0-.2-.2 0 .2 0 .3-.1.5-.1-.3-.2-.2-.4.5-.1.2-.2-.2-.3.5-.1 0-.1-.4-.1 0 0-.1 0 .4 0 0-.1-.2-.1.2-.1-.5.3.1.2.5.2-.3z"/><path d="m80.2 107.1c0-.9 0-.3.1-.5 0-.2 0-.3.1-.5 0 0 .1-.1.1.2 0-.5.1-.3.1-.5 0-.1 0-.3.1-.5 0-.1.1-.1.1-.2.1-.5.3-1.2.5-.5 0 0 .1-.4.1-.5.3.6.4.8.7.5.1.3.1-.3.1.5.1-.2.2-.2.3.2 0-.3.1-.6.1-1 .1-.5.2.3.3 0 0 0 0 .4 0 .2 0-.7.1-.4.2-.5.1-.2.3-.5.3-.7.1.2.1.3.2.2.2.6.3.3.5 1.4v1c0 .4.1.1 0 .5 0 .9-.1.4-.1.2 0 .1-.1-.1-.1-.2-.1.2-.3-.2-.4-.5-.1-.1-.1.4-.2 0-.1.5-.2 1-.4 1.4-.1-.4-.2.3-.3-.5-.2 1-.3 1-.5 1-.2-.5-.4-.2-.7-.5 0-.4-.1.1-.2-.7-.1.5-.2 0-.2-.2 0 .2 0 .3-.1.5-.1-.3-.2-.2-.4.5-.1.2-.2-.2-.3.5-.1 0-.1-.4-.1 0 0-.1 0 .4 0 0-.1-.2-.1.2-.1-.5.3.1.2.5.2-.3z"/><path d="m72.2 107.1c0-.9 0-.3.1-.5 0-.2 0-.3.1-.5 0 0 .1-.1.1.2 0-.5.1-.3.1-.5 0-.1 0-.3.1-.5 0-.1.1-.1.1-.2.1-.5.3-1.2.5-.5 0 0 .1-.4.1-.5.3.6.4.8.7.5.1.3.1-.3.1.5.1-.2.2-.2.3.2 0-.3.1-.6.1-1 .1-.5.2.3.3 0 0 0 0 .4 0 .2 0-.7.1-.4.2-.5.1-.2.3-.5.3-.7.1.2.1.3.2.2.2.6.3.3.5 1.4v1c0 .4.1.1 0 .5 0 .9-.1.4-.1.2 0 .1-.1-.1-.1-.2-.1.2-.3-.2-.4-.5-.1-.1-.1.4-.2 0-.1.5-.2 1-.4 1.4-.1-.4-.2.3-.3-.5-.2 1-.3 1-.5 1-.2-.5-.4-.2-.7-.5 0-.4-.1.1-.2-.7-.1.5-.2 0-.2-.2 0 .2 0 .3-.1.5-.1-.3-.2-.2-.4.5-.1.2-.2-.2-.3.5-.1 0-.1-.4-.1 0 0-.1 0 .4 0 0-.1-.2-.1.2-.1-.5.3.1.2.5.2-.3z"/><path d="m64.2 107.1c0-.9 0-.3.1-.5 0-.2 0-.3.1-.5 0 0 .1-.1.1.2 0-.5.1-.3.1-.5 0-.1 0-.3.1-.5 0-.1.1-.1.1-.2.1-.5.3-1.2.5-.5 0 0 .1-.4.1-.5.3.6.4.8.7.5.1.3.1-.3.1.5.1-.2.2-.2.3.2 0-.3.1-.6.1-1 .1-.5.2.3.3 0 0 0 0 .4 0 .2 0-.7.1-.4.2-.5.1-.2.3-.5.3-.7.1.2.1.3.2.2.2.6.3.3.5 1.4v1c0 .4.1.1 0 .5 0 .9-.1.4-.1.2 0 .1-.1-.1-.1-.2-.1.2-.3-.2-.4-.5-.1-.1-.1.4-.2 0-.1.5-.2 1-.4 1.4-.1-.4-.2.3-.3-.5-.2 1-.3 1-.5 1-.2-.5-.4-.2-.7-.5 0-.4-.1.1-.2-.7-.1.5-.2 0-.2-.2 0 .2 0 .3-.1.5-.1-.3-.2-.2-.4.5-.1.2-.2-.2-.3.5-.1 0-.1-.4-.1 0 0-.1 0 .4 0 0-.1-.2-.1.2-.1-.5.3.1.2.5.2-.3z"/><path d="m56.2 107.1c0-.9 0-.3.1-.5 0-.2 0-.3.1-.5 0 0 .1-.1.1.2 0-.5.1-.3.1-.5 0-.1 0-.3.1-.5 0-.1.1-.1.1-.2.1-.5.3-1.2.5-.5 0 0 .1-.4.1-.5.3.6.4.8.7.5.1.3.1-.3.1.5.1-.2.2-.2.3.2 0-.3.1-.6.1-1 .1-.5.2.3.3 0 0 0 0 .4 0 .2 0-.7.1-.4.2-.5.1-.2.3-.5.3-.7.1.2.1.3.2.2.2.6.3.3.5 1.4v1c0 .4.1.1 0 .5 0 .9-.1.4-.1.2 0 .1-.1-.1-.1-.2-.1.2-.3-.2-.4-.5-.1-.1-.1.4-.2 0-.1.5-.2 1-.4 1.4-.1-.4-.2.3-.3-.5-.2 1-.3 1-.5 1-.2-.5-.4-.2-.7-.5 0-.4-.1.1-.2-.7-.1.5-.2 0-.2-.2 0 .2 0 .3-.1.5-.1-.3-.2-.2-.4.5-.1.2-.2-.2-.3.5-.1 0-.1-.4-.1 0 0-.1 0 .4 0 0-.1-.2-.1.2-.1-.5.3.1.2.5.2-.3z"/><path d="m48.2 107.1c0-.9 0-.3.1-.5 0-.2 0-.3.1-.5 0 0 .1-.1.1.2 0-.5.1-.3.1-.5 0-.1 0-.3.1-.5 0-.1.1-.1.1-.2.1-.5.3-1.2.5-.5 0 0 .1-.4.1-.5.3.6.4.8.7.5.1.3.1-.3.1.5.1-.2.2-.2.3.2 0-.3.1-.6.1-1 .1-.5.2.3.3 0 0 0 0 .4 0 .2 0-.7.1-.4.2-.5.1-.2.3-.5.3-.7.1.2.1.3.2.2.2.6.3.3.5 1.4v1c0 .4.1.1 0 .5 0 .9-.1.4-.1.2 0 .1-.1-.1-.1-.2-.1.2-.3-.2-.4-.5-.1-.1-.1.4-.2 0-.1.5-.2 1-.4 1.4-.1-.4-.2.3-.3-.5-.2 1-.3 1-.5 1-.2-.5-.4-.2-.7-.5 0-.4-.1.1-.2-.7-.1.5-.2 0-.2-.2 0 .2 0 .3-.1.5-.1-.3-.2-.2-.4.5-.1.2-.2-.2-.3.5-.1 0-.1-.4-.1 0 0-.1 0 .4 0 0-.1-.2-.1.2-.1-.5.3.1.2.5.2-.3z"/><path d="m40.2 107.1c0-.9 0-.3.1-.5 0-.2 0-.3.1-.5 0 0 .1-.1.1.2 0-.5.1-.3.1-.5 0-.1 0-.3.1-.5 0-.1.1-.1.1-.2.1-.5.3-1.2.5-.5 0 0 .1-.4.1-.5.3.6.4.8.7.5.1.3.1-.3.1.5.1-.2.2-.2.3.2 0-.3.1-.6.1-1 .1-.5.2.3.3 0 0 0 0 .4 0 .2 0-.7.1-.4.2-.5.1-.2.3-.5.3-.7.1.2.1.3.2.2.2.6.3.3.5 1.4v1c0 .4.1.1 0 .5 0 .9-.1.4-.1.2 0 .1-.1-.1-.1-.2-.1.2-.3-.2-.4-.5-.1-.1-.1.4-.2 0-.1.5-.2 1-.4 1.4-.1-.4-.2.3-.3-.5-.2 1-.3 1-.5 1-.2-.5-.4-.2-.7-.5 0-.4-.1.1-.2-.7-.1.5-.2 0-.2-.2 0 .2 0 .3-.1.5-.1-.3-.2-.2-.4.5-.1.2-.2-.2-.3.5-.1 0-.1-.4-.1 0 0-.1 0 .4 0 0-.1-.2-.1.2-.1-.5.3.1.2.5.2-.3z"/><path d="m32.2 107.1c0-.9 0-.3.1-.5 0-.2 0-.3.1-.5 0 0 .1-.1.1.2 0-.5.1-.3.1-.5 0-.1 0-.3.1-.5 0-.1.1-.1.1-.2.1-.5.3-1.2.5-.5 0 0 .1-.4.1-.5.3.6.4.8.7.5.1.3.1-.3.1.5.1-.2.2-.2.3.2 0-.3.1-.6.1-1 .1-.5.2.3.3 0 0 0 0 .4 0 .2 0-.7.1-.4.2-.5.1-.2.3-.5.3-.7.1.2.1.3.2.2.2.6.3.3.5 1.4v1c0 .4.1.1 0 .5 0 .9-.1.4-.1.2 0 .1-.1-.1-.1-.2-.1.2-.3-.2-.4-.5-.1-.1-.1.4-.2 0-.1.5-.2 1-.4 1.4-.1-.4-.2.3-.3-.5-.2 1-.3 1-.5 1-.2-.5-.4-.2-.7-.5 0-.4-.1.1-.2-.7-.1.5-.2 0-.2-.2 0 .2 0 .3-.1.5-.1-.3-.2-.2-.4.5-.1.2-.2-.2-.3.5-.1 0-.1-.4-.1 0 0-.1 0 .4 0 0-.1-.2-.1.2-.1-.5.3.1.2.5.2-.3z"/></g><g transform="translate(164.165153 164.7906)"><path d="m21.2348469 2.20939956c-10.9 0-19.69999998 8.80000004-19.69999998 19.70000004s8.79999998 19.7 19.69999998 19.7 19.7-8.8 19.7-19.7-8.8-19.70000004-19.7-19.70000004z" fill="#eb0075" fill-rule="nonzero"/><g fill="#2f326a"><path d="m21.2348469 42.9093996c-.4-.9 1.6-.4 2.4-.6.3-.5 1.6-.5 2.2-.9 1.1-.2 2.4-.9 3-.7.6-.5 1.2-.9 1.8-1.3.7-.4 1.4-.9 2-1.4l1.5-1.8c.6-.6 1.1-1.3 1.6-2 1.1-1.9 2-3.9 2.6-6 .6-2.3 1-4.6 1.3-6.9 0-.4-.1-.8-.3-1.2s-.3-.8-.4-1.2c-.3-3.6-1.8-6.9-4.2-9.60000004-.3-.3-.5-.6-.9-.9-.3-.3-.6-.6-.9-.9-.7-.5-1.4-1-2.1-1.5-1.7-1-3.5-1.7-5.4-2.1-.7-.3-1.4-.4-2.2-.5-.6 0-1.2-.2-1.7-.5-3.2.2-6.3.9-9.3 2-.4.5-.8 1-1.3 1.4-.4.5-.8 1-1.29999998 1.4-1.1 1.2-2.1 2.1-3.1 3.30000004-1.1 1.3-2 2.7-2.5 4.4 0-.1-.4 0-.3.2.2.9-.6 3.4-.6 4.9-.1 3.2.8 6.4 2.5 9.2.7 1.9 1.9 3.7 3.4 5 1.49999998 1.8 3.29999998 3.2 5.39999998 4.1s4.4 1.7 6.7 2.2c.3.8-1 .4-1.2.9-.4.4 2.2.3.8.5.4.9-2.2.4-2.4 0-1.1-.1-2.1-.4-3.1-.9-2-.5-3.9-1.4-5.59999998-2.7-1.7-1.3-3.1-2.9-4.3-4.7-.3-.5-.6-.8-.9-1.2s-.5-.7-.7-1c-.5-.6-.8-1.4-1-2.1-1.1-1.6-1.8-3.4-2.2-5.2-.5-2.2-.6-4.5-.5-6.8.4-1.1.6-2.1 1-2.9.1-.4.3-.8.4-1.2.2-.4.3-.7.5-1.1.2-.3.3-.7.5-1s.4-.6.6-.9c.4-.6 1-1.20000004 1.6-1.70000004 1.2-2.4 3-4.4 5.3-5.9 2.69999998-1.8 5.89999998-2.8 9.09999998-3.1 3.7-.1 7.4.6 10.8 2 3.4 1.5 6.4 3.9 8.5 7 .3.7.9 1.70000004 1.4 2.60000004.5.7.7 1.5.6 2.4.3.5.6 1 .8 1.5.2.6.3 1.3.5 1.9.2 1.2.2 2.4 0 3.6.6.9.2 1.1.5 2-.1 1.1-.4 2.1-.5 3-.3.9-.4 1.9-.8 2.8-.6 2-1.4 3.9-2.4 5.7-.9 1.4-2 2.6-3.3 3.6-1 .8-1.8 1.5-2.9 2.5-.6.3-1.2.6-1.9.8-.6.2-1.1.5-1.6.8-.7.2-.9.8-1.2.4-.6.1-1.3.2-1.9.4-.2 0-.4.1-.6 0-.2 0-.4-.1-.5-.3-1.2.5-3.2.9-3.3.2z"/><path d="m1.53484692 23.0516645c8.59760998 5.0199715 15.13094328 7.5299573 19.59999998 7.5299573s11.0690567-2.5099858 19.8-7.5299573c-3.7990439 11.7347863-9.9465301 18.0910863-18.4424586 19.0688999-8.4959284.9778136-15.48177557-5.3784863-20.95754138-19.0688999z" opacity=".2"/></g></g><path d="m186.458973 35.6011817 14.596751-25.2850813h-29.193501z" fill="#2f326a" fill-rule="nonzero"/><path d="m186.458973 34.6440177c.159528.8774003-.478582-.6381093-.797636-1.0369276-.159528.0797637-.558346-.7976366-.797637-1.0369276-.398818-.6381093-.797636-1.3559823-1.036927-2.0738553-.558346-.3988183-1.036928-1.5952732-1.675037-2.3929099-.319055-.3988183-.558346-.6381093-.957164-1.0369276-.319055-.478582-.63811-.9571639-1.036928-1.5155096-.797637-.9571639-1.834564-2.3131462-2.871492-3.8286558-1.116691-1.5155096-1.994091-3.1905465-2.711964-4.8655835-.398819-.6381093-.877401-.7976366-1.276219-1.4357459-.8774-1.7548006-1.595273-3.2703102-2.233383-4.5465288l-.079763-.0797637c-.079764-.3190546-.079764-.5583456 0-.79763661.079763-.23929099.239291-.39881832.478582-.55834564.079763 0 .239291-.07976367.398818-.07976367 3.748892.23929099 7.577548.23929099 11.32644 0 1.355982.23929099 2.073855-.23929099 2.951256.39881832 2.313146-.15952733 4.706056-.15952733 7.019202.15952733.8774-.31905466 1.754801-.63810931 2.711965-.79763664 1.675037-.15952732 3.429837-.15952732 5.184638 0h.079763c.159528 0 .398819.07976367.558346.15952733s.319055.23929099.398818.39881832c.079764.15952732.159528.31905465.159528.55834566 0 .1595273-.079764.3988183-.159528.5583456-.398818.5583457-.717873 1.196455-1.116691 1.9143279 0-.0797636-.319055-.0797636-.319055.1595274.159528.7976366-1.116691 2.5524372-1.675036 3.5893648-.797637 1.5952733-2.39291 4.5465288-3.748893 7.2584934-1.036927 1.3559822-1.994091 2.7119645-2.791728 4.2274741-1.036927 1.2762186-1.994091 2.7917282-3.031019 4.2274742-.8774 1.3559822-1.834564 2.6322009-2.871492 3.8286558-.079764-.3988183.319055-1.0369276.398818-1.4357459.079764-.5583457-.717873 1.1964549-.239291.0797636-.159527-.478582.63811-1.5952732.797637-1.5952732.319055-.5583457.638109-1.196455 1.036928-1.675037 1.276218-2.4726735 2.711964-4.7858198 4.307237-7.098966.877401-1.2762186.957164-2.2333826 1.754801-3.0310192.717873-2.2333826 2.153619-5.2644018 3.27031-7.8966027.797637-1.1964549 1.595274-2.4726735 2.233383-3.74889213l1.116691 1.91432793c-.638109 0-1.276219-.1595273-1.914328-.3190547-3.350074.7976367-6.54062.7976367-11.32644.7976367-4.865583-.3988183-9.332349-.1595274-14.357459-.3988183-.558346-.0797637-1.116692-.1595274-1.595274-.1595274l1.036928-1.83456423c.239291.79763663.558346 1.43574593.398818 1.91432793.957164.8774003 1.754801 2.9512555 2.233383 4.2274741.638109.239291.478582.478582.957164.8774003 1.036927 2.3131463 2.39291 4.4667652 3.988183 6.4608568 1.355982 2.3131462 1.675037 3.2703102 2.632201 4.4667651.478582.957164.638109 1.5952733 1.036928 2.0738552.159527.3988184.319054.239291.319054.717873.478582 1.196455.638109 1.1166913.797637 1.9940916.478582.717873.8774 1.5155096 1.036927 2.3131462z" fill="#2f326a"/><path d="m37.7 199.4v-21.1l-18.3-10.5-18.2 10.5v21.1l18.2 10.5z" fill="#af64ff" fill-rule="nonzero"/><path d="m36.6 198.8c1.1.3-1 .9-1.6 1.4 0 .4-1.2 1-1.6 1.4-.9.6-1.8 1.1-2.9 1.4-.8 1-2.4 1.7-3.7 2.7-.6.5-1 1-1.7 1.5-.7.6-1.5 1-2.3 1.6s-1.8 1.4-2.9 2.1l-.4.3-.7-.3c-3.5-1.5-6.8-3.4-9.8-5.6-1-.5-1.6-.4-2.6-1-2.3-1.5-4.2-2.8-5.8-3.9l-.6-.4v-.6c.3-5.5.3-9.9 0-16.4.3-2-.3-3 .5-4.3v-.4-.4l.4-.3c2.7-1.8 5.6-3.4 8.6-4.6.9-1 1.8-1.9 2.9-2.8 2-1.4 4.2-2.6 6.5-3.7l.7-.4.6.4c.8.5 1.7 1 2.7 1.5-.1-.1 0 .4.2.4 1.1-.1 3.4 1.5 5 2.3 2.2 1.1 6.2 3.1 9.8 4.8.3.2.6.5 1 .7l1.2.8-.1 1.1c-.1 1.8-.2 3.9-.2 6.1-.3 2.5-.4 5.2-.6 7.8-.1 2.5-.4 5-.9 7.4-.7 0-.4-1.3-.8-1.6-.4-.6-.1 2.1-.4.5-.8-.1-.4-2.2-.2-2.4-.1-1 0-2 .2-3-.1-4.1 0-8.2.4-12.2 0-.9 0-1.8-.1-2.7l.2.3c-.7-.3-1.4-.7-2-1.3-2.9-.9-7.3-3.1-11.2-4.8-1.8-1.2-3.7-2.4-5.7-3.4h1.6c-.8.4-1.7.8-2.6 1-3.7 3.3-7.7 5.6-13.7 9l-1.7.9 1-1.8c-.3 6.3-.1 12.2-.4 18.7-.1.8-.2 1.6-.2 2.4l-.8-1.3c1 .6 1.9 1.2 2.1 1.8 1.9.5 4.5 2.5 6 3.7 1 0 1 .3 1.9.6 2.6 1.8 5.3 3.3 8.2 4.5h-1.4c.6-.4 1.2-.9 1.8-1.4 3.4-2.1 4.6-2.5 6.5-4.2 1.3-.8 2.1-.7 2.9-1.6.6-.3.5-.7 1-.5 1.6-.6 1.6-1.1 2.7-1 1-.1 2.2-1.1 3-.8z" fill="#2f326a"/><path d="m126.6 106.5-22.4-22.4-22.4 22.4 22.4 22.4z" fill="#ffcd00" fill-rule="nonzero"/><path d="m104.2 130.1c-.3-.6 1.1-1.4 1.7-2.1.5-.8 1-1.5 1.6-2.1.8-.8 1.8-1.9 2.3-2 1-1.3 2.1-2.6 3.2-3.8.5-.7.9-1.4 1.5-2.1.6-.8 1.2-1.3 1.8-2.1 2.4-3.1 5.8-7.5 9.3-10.2v1.8c-.2-.2-.3-.4-.5-.6-.8-.8-1.5-.8-2.3-1.6-5.1-6-10.5-11.6-16.3-16.9-1.2-1.6-2.3-2-2.7-3.4l-.3-.3h1c-2.2 2.5-4.5 4.7-7.1 6.7-.6 1.2-1.3 2.4-2.1 3.4-2.1 2.8-4.6 4.3-7.5 7.5.1-.1-.4-.1-.4.1-.1 1.1-2.4 2.9-3.5 4.2l-1.1 1.2v-2.4l6.7 5.8c1.4 1.8 2.9 3.4 4.5 5 1.5 1.9 3.2 3.9 4.9 5.8 1.7 2 3.4 4 5.1 6.2.2 1-.7-.2-.8.1-.3.2 1.6 1.7.6 1 .3 1.1-1.5-1-1.7-1.4-.8-.7-1.6-1.6-2.3-2.5-3.1-3-6.1-6.1-8.9-9.4-1.6-1.7-2.5-2-3.6-3.6-2.3-1.6-4.5-3.3-6.5-5.1l-.9-.7.9-1.1c.8-1 1.7-2.1 2.5-3.1 3.4-2.8 4.2-4.6 7-6.3 2.7-4.2 6-7.4 10.9-12.3.5-.4 1-.9 1.5-1.3l1.6-1.4 1.3 1.4c4.2 4.7 8.6 8.7 13 13.5.8 1.3 3.1 3 3.1 4.1 1.7 1 3.7 3.6 4.8 5.1.3.1.6.2.8.3l.7.5-.7 1c-.3.3-.5.6-.7 1-3.1 2.7-5.9 5.7-8.4 8.9-3.1 3.2-4.1 3.8-6 6.4-1.2 1.2-1.7 1.1-2.7 2.5-.5.4-.7 1.1-.9.8-1.3 1-1.6 1.8-2.1 1.5-.8 1.1-2.2 2.7-2.3 2z" fill="#2f326a"/><path d="m209.6 82.7h-47.5v30h47.5z" fill="#c7c7d4" fill-rule="nonzero"/><path d="m210.5 113.6c-.6-.2-.2-1.8-.3-2.7-.2-.9-.3-1.7-.4-2.6 0-1.1-.1-2.5.2-3-.5-1.5-.2-19-.4-20.7-.1-.5-.2-1-.3-1.5l.3.3c-.2.1-.5.1-.7.1-.9.1-1.7.1-2.6.2-3.8.5-9.8 1.2-14.4.5-1.1 0-1.6.4-2.6.5-7.5-.6-15.1-.8-22.7-.5-1.9-.3-2.9.3-4.2-.5h-.4l.7-.7c.2 3.1.1 22.3-.3 25.4.4 1.2.8 2.5 1 3.8 0 .2 0 .3.1.5l-1.5-1.5c3.1-.3 5.7.3 9.5.1-.1 0 .3.4.4.2.7-.7 3.5-.4 5.1-.4 2.3-.1 6.4-.3 10-.6 2.2.2 4.4.4 6.7.3 4.9.6 10 .5 15.4 1.3.9.5-.6.3-.5.7-.1.3 2.3.1 1.1.3 1 .6-1.7.3-2.1.2-1.1.1-2.1 0-3.2-.2-4.2.1-8.3 0-12.4-.3-2.3-.1-3 .4-4.9 0-2.6.6-7.4.9-11.5 1.4-4.4-.4-6.2.3-9.3-.4-1.4.3-2.8.5-4.1.7l-1.7.2-.2-2.1c-.3-3.9-.4-23.9-.3-27.8 0-.6.1-1.3.1-1.9l.1-2.2 1.9.1c6.1.3 11.8.1 18.1.4 1.4.4 4.1-.1 4.9.7 1.8-.5 5 0 6.8.2.9-.5 1-.2 1.9-.5 3.8.3 7.6.1 11.3-.5 2-.1 3.4-.1 4.5-.1h1.8v1.8c0 1.3.1 2.6.4 3.8 0 1.8-.5 18.2-.1 19.8-.1.7.3 1.3-.1 1.3-.3 1.7 0 2.4-.6 2.7-.1 1.4 0 3.6-.5 3.2z" fill="#2f326a"/><path d="m105.7 98.7c-.9.2-.3-1-.5-1.5-.4-.3-.3-1.1-.5-1.5 0-.7-.1-1.7.2-2-.5-.9-.3-2-.5-3.1-.1-.5-.3-.9-.5-1.5-.1-.6-.1-1.1-.2-1.8-.5-2.6-1.2-6.6-.5-9.7 0-.7-.4-1.1-.5-1.8.6-5.1.8-10.2.5-15.3.3-1.3-.3-2 .5-2.8-.2-2.2-.2-4.4.2-6.6-.4-.8-.8-1.7-1-2.6-.5-2.3.3-4.1 0-6.9 0 .1.4-.1.2-.3-.7-.6-.4-2.5-.5-3.6-.1-1.6-.4-4.5-.7-7.1.2-1.5.3-3.1.2-4.6.6-3.2.3-6.8 1.4-10 .8-.2.5.7 1 .8.4.2.1-1.5.5-.5.9-.2.4 1.3.2 1.5.1.7 0 1.4-.2 2 .1 2.7-.1 5.5-.5 8.2-.1 1.5.4 2.1 0 3.3.6 2 .9 5.1 1.4 7.9-.4 2.9.3 4.1-.5 6.1 1 3.2 1 6.2 1 10.7-.5 4.6-.2 8.8-.5 13.5-.4 1 .1 2.8-.7 3.3.5 1.2 0 3.4-.2 4.6.5.6.2.7.5 1.3-.3 2.6-.1 5.2.5 7.7.2 2.7-.2 3.6.5 5.4 0 1.1-.4 1.4 0 2.3-.1.4.4.7 0 .8-.2 1.1.2 1.4-.5 1.8.1.7.5 1.9-.3 2z" fill="#2f326a"/><path d="m118.9 1.4h-27v27h27z" fill="#00d9f5" fill-rule="nonzero"/><g fill="#2f326a"><path d="m120.9 30.2c-1.6-.2-1.7-4.1-1.7-6.8-.1-3.3-.3-5.5-.2-8.3-.3-2.1-.5-4.2-.5-6.4.1-1.2-.3-1.6-.5-2.4 0-.7.3-.8.2-1.5-.4-1.1-.5-2.2-.4-3.4l.9.9c-.8-.1-1.7.1-2.4.5-1.6-.7-2.9-.1-5.4-.2-4.2-.4-8.4-.2-12.4.7-1.9-.1-4.3-.3-6.7-.2l1.7-1.7c0 .8.1 1.5.2 2.3-.4 1.3-.4 5.5-.7 8.2.4 2.6 1 5.2 1.7 7.8-.2 1.4-.6 2.7-1.2 3.9.1 1.7.2 3.3.2 4.9l-1.8-2c2.5 0 5 .4 7.4 1.2 4.3-.1 8.5-.6 12.7-1.2 2.5.1 4.1-.4 6 1.1-.4 0-.3.1-.2.2 1 .7-1.9.1-1.8.5-1.5-.2-1.3.3-2.6.2-1.7.4-3.4.6-5.1.6-1.4.3-2.7.6-4.1.7-3.8-.2-7.6-.5-11.3-1.1-.3 0-.6.1-.9.2l-.3.1-.2-.6c-.5-1-.9-2.2-1-3.3.2-1.7.7-2.7 1-4.3-.2-1.4-1.1-1.9-.5-3.5-.2-.7-.4-1.3-.7-1.9.3-3.1-.1-5.8.7-8.5-.4-1.8-.4-3.6-.1-5.4l.1-1.2.9.1c1.6.2 3.2.5 4.7.6 2.4-.8 6.2-.6 9.3-1 4.3.4 8.6.5 12.9.2l1.2-.1.1 1.3c.1 1.6.1 3.3.2 5.1.6 2.5.3 6.2.8 8.9-.3 4.8 0 6.8-.4 11.1.2.7.1 1.7.3 2.4z"/><path d="m20.7 186.3c-.9.2-.3-1-.5-1.5-.4-.3-.3-1.1-.5-1.5 0-.7-.1-1.7.2-2-.5-.9-.3-2-.5-3.1-.1-.5-.3-.9-.5-1.5-.1-.6-.1-1.1-.2-1.8-.5-2.6-1.2-6.6-.5-9.7 0-.7-.4-1.1-.5-1.8.6-5.1.8-10.2.5-15.3.3-1.3-.3-2 .5-2.8-.2-2.2-.2-4.4.2-6.6-.4-.8-.8-1.7-1-2.6-.5-2.3.3-4.1 0-6.9 0 .1.4-.1.2-.3-.7-.6-.4-2.5-.5-3.6-.1-1.6-.4-4.5-.7-7.1.2-1.5.3-3.1.2-4.6.6-3.2.3-6.8 1.4-10 .8-.2.5.7 1 .8.4.2.1-1.5.5-.5.9-.2.4 1.3.2 1.5.1.7 0 1.4-.2 2 .1 2.7-.1 5.5-.5 8.2-.1 1.5.4 2.1 0 3.3.6 2 .9 5.1 1.4 7.9-.4 2.9.3 4.1-.5 6.1 1 3.2 1 6.2 1 10.7-.5 4.6-.2 8.8-.5 13.5-.4 1 .1 2.8-.7 3.3.5 1.2 0 3.4-.2 4.6.5.6.2.7.5 1.3-.3 2.6-.1 5.2.5 7.7.2 2.7-.2 3.6.5 5.4 0 1.1-.4 1.4 0 2.3-.1.4.4.7 0 .8-.2 1.1.2 1.4-.5 1.8.1.7.4 1.9-.3 2z"/><path d="m100.3 54.7c1.4 2.4 2.9 4.7 4.3 7.1.1.2.3.4.5.3.1 0 .2-.1.2-.2l5-7.3z" fill-rule="nonzero"/><path d="m101.4 55.3c-.8-.4 0-.1.1-.2-.3-.2.1-.1.1-.2.3 0 .6 0 .9.2-.1-.3.4-.2.7-.3.1-.1.1-.3.2-.4s.3-.1.5-.2c.4-.3.9-.5 1.4-.7.7-.2 1.4-.2 2 .1.3 0 .3-.4.6-.5 1.1.2 1.8.4 2.6.5l2.2.3-1.3 1.4c-.7.7-1.2 1.6-1.6 2.5-.5.2-.1.7-.9.5-.1.4-.3.7-.5 1s-.6.5-.9.7c.2.4.3.8.3 1.3 0 .2-.1.4-.2.5-.1.2-.2.3-.4.4s-.3.3-.4.4c-.2.2-.4.4-.6.6-.3.2-.7.3-1 .3s-.6-.1-.9-.3c.1 0 .1-.4-.1-.4s-.4 0-.6-.2c-.1-.1-.2-.2-.3-.3-.2-.2-.3-.5-.4-.7-.4-.5-1.3-1.4-2.1-2.5-.1-.6-.3-1.3-.6-1.8 0-.6-.1-1.2-.3-1.7-.1-.6-.2-1.1 0-1.3.6.3.5.4 1 .7.4.3-.1-.3.3.1.7.4.7.5.5.5.3.3.2.3.2.4.5.6.9 1.3 1 2.1.2.4.8.5.6.9 1 .4 1.8 1.1 2.6 1.5v.3h-.1l-.2.1c-.1.1-.2.2-.3.3-.2.1-.3.3-.4.5 0 0 0 .1 0 0s0 0 0-.1c-.1-.1-.2-.2-.3-.3s-.2-.2-.6-.4l-.1-.1c0-.1.1-.1.2-.2.2-.1.4-.2.6-.2-.3-1.5.4-2.3 1.3-3.5 1.2-1 1.8-2.3 2.9-3.4l1.4 2.7h-.1c-.3-.4-.8.1-1-.7-.3.5-1 0-1.5-.3 0 .5-.1.2-.2.4-.3-.2-.7-.2-1-.2-.4 0-.7.2-1 .4-.7 0-1.1-.2-1.2.1-.3 0-.8-.4-.7-.1-.2-.1.1.2-.2 0-.5-.2-.2 0-.9-.4-.6.2-1 .1-1.3-.1z"/><path d="m62.5 100.9-7.1 4.3c-.2.1-.4.3-.3.5 0 .1.1.2.2.2l7.3 5z" fill-rule="nonzero"/><path d="m61.9 102c.4-.8.1 0 .2.1.2-.3.1.1.2.1 0 .3 0 .6-.2.9.3-.1.2.4.3.7.1.1.2.1.4.2.1.1.1.3.2.5.3.4.5.9.7 1.4.2.7.2 1.4-.1 2 0 .3.4.3.5.6-.2 1.1-.4 1.8-.5 2.6l-.3 2.2-1.4-1.3c-.7-.7-1.6-1.2-2.5-1.6-.2-.5-.7-.1-.5-.9-.4-.1-.7-.3-1-.5-.3-.3-.5-.6-.7-.9-.4.2-.8.3-1.3.3-.2 0-.4-.1-.5-.2-.2-.1-.3-.2-.4-.4s-.3-.3-.4-.4c-.2-.2-.4-.4-.6-.6-.2-.3-.3-.6-.3-1 0-.3.1-.6.3-.9 0 .1.4.1.4-.1s0-.4.2-.6c.1-.1.2-.2.3-.3.2-.2.5-.3.7-.4.5-.4 1.4-1.3 2.5-2.1.6-.1 1.3-.3 1.8-.6.6 0 1.2-.1 1.7-.3.6-.1 1.1-.2 1.3 0-.3.6-.4.5-.7 1-.3.4.3-.1-.1.3-.4.7-.5.7-.5.5-.3.3-.3.2-.4.2-.6.5-1.3.9-2.1 1-.4.2-.5.8-.9.6-.4 1-1.1 1.8-1.5 2.6-.1 0-.2 0-.3 0v-.1l-.1-.2c-.1-.1-.2-.2-.3-.3-.1-.2-.3-.3-.5-.4h.1c.1-.1.2-.2.3-.3s.2-.2.4-.6l.1-.1c.1 0 .1.1.2.2.1.2.2.4.2.6 1.5-.3 2.3.4 3.5 1.3 1 1.2 2.3 1.8 3.4 2.9l-2.7 1.4v-.1c.4-.3-.1-.8.7-1-.5-.3 0-1 .3-1.5-.5 0-.2-.1-.4-.2.2-.3.2-.7.2-1 0-.4-.2-.7-.4-1 0-.7.2-1.1-.1-1.2 0-.3.4-.8.1-.7.1-.2-.2.1 0-.2.2-.5 0-.2.4-.9-.2-.6-.1-1 .1-1.3z"/><path d="m14.4 138.8c1.4 2.4 2.9 4.7 4.3 7.1.1.2.3.4.5.3.1 0 .2-.1.2-.2l5-7.3z" fill-rule="nonzero"/><path d="m15.5 139.4c-.8-.4 0-.1.1-.2-.3-.2.1-.1.1-.2.3 0 .6 0 .9.2-.1-.3.4-.2.7-.3.1-.1.1-.2.2-.4.1-.1.3-.1.5-.2.4-.3.9-.5 1.4-.7.7-.2 1.4-.2 2 .1.3 0 .3-.4.6-.5 1.1.2 1.8.4 2.6.5l2.2.3-1.3 1.4c-.7.7-1.2 1.6-1.6 2.5-.5.2-.1.7-.9.5-.1.4-.3.7-.5 1s-.6.5-.9.7c.2.4.3.8.3 1.3 0 .2-.1.4-.2.5-.1.2-.2.3-.4.4-.1.1-.3.3-.4.4-.2.2-.4.4-.6.6-.3.2-.6.3-1 .3-.3 0-.6-.1-.9-.3.1 0 .1-.4-.1-.4s-.4 0-.6-.2c-.1-.1-.2-.2-.3-.3-.2-.2-.3-.5-.4-.7-.4-.5-1.3-1.4-2.1-2.5-.1-.6-.3-1.3-.6-1.8 0-.6-.1-1.2-.3-1.7-.1-.6-.2-1.1 0-1.3.6.3.5.4 1 .7.4.3-.1-.3.3.1.7.4.7.5.5.5.3.3.2.3.2.4.5.6.9 1.3 1 2.1.2.4.8.5.6.9 1 .4 1.8 1.1 2.6 1.5v.3h-.1l-.2.1c-.1.1-.2.2-.3.3-.2.1-.3.3-.4.5 0 0 0 .1 0 0s0 0 0-.1c-.1-.1-.2-.2-.3-.3s-.2-.2-.6-.4l-.1-.1c0-.1.1-.1.2-.2.2-.1.4-.2.6-.2-.3-1.5.4-2.3 1.3-3.5 1.2-1 1.8-2.3 2.9-3.4l1.4 2.7h-.1c-.3-.4-.8.1-1-.7-.3.5-1 0-1.5-.3 0 .5-.1.2-.2.4-.3-.2-.7-.2-1-.2-.4 0-.7.2-1 .4-.7 0-1.1-.2-1.2.1-.3 0-.8-.4-.7-.1-.2-.1.1.2-.2 0-.5-.2-.2 0-.9-.4-.6.2-1 .1-1.3-.1z"/><path d="m192.2 146.1c-1.4-2.4-2.9-4.7-4.3-7.1-.1-.2-.3-.4-.5-.3-.1 0-.2.1-.2.2l-5 7.3z" fill-rule="nonzero"/><path d="m191.1 145.5c.8.4 0 .1-.1.2.3.2-.1.1-.1.2-.3 0-.6 0-.9-.2.1.3-.4.2-.7.3-.1.1-.1.2-.2.4-.1.1-.3.1-.5.2-.4.3-.9.5-1.4.7-.7.2-1.4.2-2-.1-.3 0-.3.4-.6.5-1.1-.2-1.8-.4-2.6-.5l-2.2-.3 1.3-1.4c.7-.7 1.2-1.6 1.6-2.5.5-.2.1-.7.9-.5.1-.4.3-.7.5-1 .3-.3.6-.5.9-.7-.2-.4-.3-.8-.3-1.3 0-.2.1-.4.2-.5.1-.2.2-.3.4-.4s.3-.3.4-.4c.2-.2.4-.4.6-.6.3-.2.6-.3 1-.3.3 0 .6.1.9.3-.1 0-.1.4.1.4s.4 0 .6.2l.3.3c.2.2.3.5.4.7.4.5 1.3 1.4 2.1 2.5.1.6.3 1.3.6 1.8 0 .6.1 1.2.3 1.7.1.6.2 1.1 0 1.3-.6-.3-.5-.4-1-.7-.4-.3.1.3-.3-.1-.7-.4-.7-.5-.5-.5-.3-.3-.2-.3-.2-.4-.5-.6-.9-1.3-1-2.1-.2-.4-.8-.5-.6-.9-1-.4-1.8-1.1-2.6-1.5 0-.1 0-.2 0-.3h.1l.2-.1.3-.3c.2-.1.3-.3.4-.5v.1l.3.3s.2.2.6.4l.1.1c0 .1-.1.1-.2.2-.2.1-.4.2-.6.2.3 1.5-.4 2.3-1.3 3.5-1.2 1-1.8 2.3-2.9 3.4l-1.4-2.7h.1c.3.4.8-.1 1 .7.3-.5 1 0 1.5.3 0-.5.1-.2.2-.4.3.2.7.2 1 .2.4 0 .7-.2 1-.4.7 0 1.1.2 1.2-.1.3 0 .8.4.7.1.2.1-.1-.2.2 0 .5.2.2 0 .9.4.6-.2 1-.1 1.3.1z"/><path d="m192.2 64.8c-1.4-2.4-2.9-4.7-4.3-7.1-.1-.2-.3-.4-.5-.3-.1 0-.2.1-.2.2l-5 7.3z" fill-rule="nonzero"/><path d="m191.1 64.2c.8.4 0 .1-.1.2.3.2-.1.1-.1.2-.3 0-.6 0-.9-.2.1.3-.4.2-.7.3-.1.1-.1.2-.2.4-.1.1-.3.1-.5.2-.4.3-.9.5-1.4.7-.7.2-1.4.2-2-.1-.3 0-.3.4-.6.5-1.1-.2-1.8-.4-2.6-.5l-2.2-.3 1.3-1.4c.7-.7 1.2-1.6 1.6-2.5.5-.2.1-.7.9-.5.1-.4.3-.7.5-1 .3-.3.6-.5.9-.7-.2-.4-.3-.8-.3-1.3 0-.2.1-.4.2-.5s.2-.3.4-.4.3-.3.4-.4c.2-.2.4-.4.6-.6.3-.2.6-.3 1-.3.3 0 .6.1.9.3-.1 0-.1.4.1.4s.4 0 .6.2c.1.1.2.2.3.3.2.2.3.5.4.7.4.5 1.3 1.4 2.1 2.5.1.6.3 1.3.6 1.8 0 .6.1 1.2.3 1.7.1.6.2 1.1 0 1.3-.6-.3-.5-.4-1-.7-.4-.3.1.3-.3-.1-.7-.4-.7-.5-.5-.5-.3-.3-.2-.3-.2-.4-.5-.6-.9-1.3-1-2.1-.2-.4-.8-.5-.6-.9-1-.4-1.8-1.1-2.6-1.5 0-.1 0-.2 0-.3h.1l.2-.1c.1-.1.2-.2.3-.3.2-.1.3-.3.4-.5v.1c.1.1.2.2.3.3s.2.2.6.4l.1.1c0 .1-.1.1-.2.2-.2.1-.4.2-.6.2.3 1.5-.4 2.3-1.3 3.5-1.2 1-1.8 2.3-2.9 3.4l-1.4-2.7h.1c.3.4.8-.1 1 .7.3-.5 1 0 1.5.3 0-.5.1-.2.2-.4.3.2.7.2 1 .2.4 0 .7-.2 1-.4.7 0 1.1.2 1.2-.1.3 0 .8.4.7.1.2.1-.1-.2.2 0 .5.2.2 0 .9.4.6-.2 1-.1 1.3.1z"/><path d="m150.8 6.4-11.5 7c-.3.2-.6.5-.5.8.1.1.2.3.3.3l11.8 8z" fill-rule="nonzero"/><path d="m150.2 7.5c.4-.9.1.2.2.4.2-.2.1.4.2.4 0 .4 0 .9-.2 1.3.3.1.2.9.3 1.3.1.2.3.3.4.5s.1.6.2.9c.3.8.5 1.5.7 2.3.2 1 .2 2.1-.1 3.1 0 .4.4.5.5 1-.2 1.6-.4 2.8-.5 3.9l-.2 2.2-1.5-1.3c-1.2-1-2.6-1.9-4-2.7-.4-.7-1.1-.4-1-1.3-1.1-.5-2.1-1.3-2.9-2.3-.6.1-1.1.1-1.7 0-.6-.2-1.1-.5-1.5-.9-.2-.2-.4-.4-.7-.6s-.5-.4-.8-.7c-.2-.3-.3-.7-.3-1.1 0-.3.1-.7.3-.9-.1.1.4.1.4-.1 0-.3.1-.5.3-.7.1-.2.3-.3.5-.4.3-.2.8-.4 1-.6.8-.6 2.2-1.8 3.7-2.9.9-.2 1.8-.6 2.6-1.1.9-.2 1.8-.5 2.6-.8.7-.3 1.4-.5 2.2-.5-.3.6-.6.6-.8 1.1-.3.5.6-.3 0 .3-.3.7-.8.8-.8.7-.2.2-.5.4-.8.4-1.1.8-2.3 1.5-3.6 1.9-.7.3-.9 1-1.5.9-.8 1.2-2 2.3-2.9 3.5-.2 0-.3.1-.5.2 0 0-.1 0-.1.1l-.1-.1c-.2-.2-.5-.4-.7-.6-.1 0-.1 0-.1 0-.1 0 0 0 0 0s.1 0 .1-.1c.2-.1.3-.3.5-.5l.2-.3c.1.1.2.1.3.2.2.2.4.5.4.7 2 .1 3.4 1.1 5.4 2.5 1.7 1.8 3.8 2.8 5.7 4.4l-2.7 1.4v-.2c.4-.5-.1-1.4.7-1.7-.5-.6 0-1.7.2-2.4-.5-.2-.2-.3-.4-.5.3-1.2.2-2.5-.2-3.6 0-1.2.2-1.9-.1-2.3 0-.5.4-1.1.1-1.1.1-.3-.2 0 0-.4.2-.7 0-.5.4-1.3.2-.6.3-1.1.6-1.6z"/><path d="m76.1 193.5c2.4-1.4 4.7-2.9 7.1-4.3.2-.1.4-.3.3-.5 0-.1-.1-.2-.2-.2-2.4-1.7-4.8-3.3-7.3-5z" fill-rule="nonzero"/><path d="m76.7 192.4c-.4.8-.1 0-.2-.1-.2.3-.1-.1-.2-.1 0-.3 0-.6.2-.9-.3.1-.2-.4-.3-.7-.1-.1-.2-.1-.4-.2-.1-.1-.1-.3-.2-.5-.3-.4-.5-.9-.7-1.4-.2-.7-.2-1.4.1-2 0-.3-.4-.3-.5-.6.2-1.1.4-1.8.5-2.6l.3-2.2 1.4 1.3c.7.7 1.6 1.2 2.5 1.6.2.5.7.1.5.9.4.1.7.3 1 .5.3.3.5.6.7.9.4-.2.8-.3 1.3-.3.2 0 .4.1.5.2.2.1.3.2.4.4s.3.3.4.4l.6.6c.2.3.3.6.3 1 0 .3-.1.6-.3.9 0-.1-.4-.1-.4.1s0 .4-.2.6c-.1.1-.2.2-.3.3-.2.2-.5.3-.7.4-.5.4-1.4 1.3-2.5 2.1-.6.1-1.3.3-1.8.6-.6 0-1.2.1-1.7.3-.6.1-1.1.2-1.3 0 .3-.6.4-.5.7-1 .3-.4-.3.1.1-.3.4-.7.5-.7.5-.5.3-.3.3-.2.4-.2.6-.5 1.3-.9 2.1-1 .4-.2.5-.8.9-.6.4-1 1.1-1.8 1.5-2.6h.3v.1l.1.2c.1.1.2.2.3.4s.3.3.5.4c0 0 .1 0 0 0s0 0-.1 0c-.1.1-.2.2-.3.3s-.2.2-.4.6l-.1.1c-.1 0-.1-.1-.2-.2-.1-.2-.2-.4-.2-.6-1.5.3-2.3-.4-3.5-1.3-1-1.2-2.3-1.8-3.4-2.9l2.7-1.4v.1c-.4.3.1.8-.7 1 .5.3 0 1-.3 1.5.5 0 .2.1.4.2-.2.3-.2.7-.2 1 0 .4.2.7.4 1 0 .7-.2 1.1.1 1.2 0 .3-.4.8-.1.7-.1.2.2-.1 0 .2-.2.5 0 .2-.4.9.2.6.1.9-.1 1.2z"/><path d="m117.8 193.5c2.4-1.4 4.7-2.9 7.1-4.3.2-.1.4-.3.3-.5 0-.1-.1-.2-.2-.2-2.4-1.7-4.8-3.3-7.3-5z" fill-rule="nonzero"/><path d="m118.4 192.4c-.4.8-.1 0-.2-.1-.2.3-.1-.1-.2-.1 0-.3 0-.6.2-.9-.3.1-.2-.4-.3-.7-.1-.1-.3-.1-.4-.2s-.1-.3-.2-.5c-.3-.4-.5-.9-.7-1.4-.2-.7-.2-1.4.1-2 0-.3-.4-.3-.5-.6.2-1.1.4-1.8.5-2.6l.3-2.2 1.4 1.3c.7.7 1.6 1.2 2.5 1.6.2.5.7.1.5.9.4.1.7.3 1 .5.3.3.5.6.7.9.4-.2.8-.3 1.3-.3.2 0 .4.1.5.2s.3.2.4.4.3.3.4.4l.6.6c.2.3.3.6.3 1 0 .3-.1.6-.3.9 0-.1-.4-.1-.4.1s0 .4-.2.6c-.1.1-.2.2-.3.3-.2.2-.5.3-.7.4-.5.4-1.4 1.3-2.5 2.1-.6.1-1.3.3-1.8.6-.6 0-1.2.1-1.7.3-.6.1-1.1.2-1.3 0 .3-.6.4-.5.7-1 .3-.4-.3.1.1-.3.4-.7.5-.7.5-.5.3-.3.3-.2.4-.2.6-.5 1.3-.9 2.1-1 .4-.2.5-.8.9-.6.4-1 1.1-1.8 1.5-2.6h.3v.1l.1.2c.1.1.2.2.3.4s.3.3.5.4c0 0 .1 0 0 0s0 0-.1 0c-.1.1-.2.2-.3.3s-.2.2-.4.6l-.1.1c-.1 0-.1-.1-.2-.2-.1-.2-.2-.4-.2-.6-1.5.3-2.3-.4-3.5-1.3-1-1.2-2.3-1.8-3.4-2.9l2.7-1.4v.1c-.4.3.1.8-.7 1 .5.3 0 1-.3 1.5.5 0 .2.1.4.2-.2.3-.2.7-.2 1 0 .4.2.7.4 1 0 .7-.2 1.1.1 1.2 0 .3-.4.8-.1.7-.1.2.2-.1 0 .2-.2.5 0 .2-.4.9.2.6.1.9-.1 1.2z"/><path d="m19.2 119.1c6.3 0 11.4-5.1 11.4-11.4s-5.1-11.4-11.4-11.4-11.4 5.1-11.4 11.4c0 6.2 5.1 11.4 11.4 11.4z" fill-rule="nonzero" stroke="#2f326a"/></g><path d="m188.4 45.6h-.1-.1v.1.1h.1.1.1c-.1-.1-.1-.1-.1-.2z" fill="#484b7d" fill-rule="nonzero"/><path d="m78.6 76.1c-.7.1-.3-.4-.4-.7-.3-.1-.2-.5-.4-.7 0-.3-.1-.7.2-.9-.4-.4-.2-.9-.4-1.3-.1-.2-.3-.4-.4-.7s-.1-.5-.2-.8c-.4-1.1-.9-2.9-.4-4.3 0-.3-.3-.5-.4-.8.5-2.2.6-4.5.4-6.8.2-.6-.2-.9.4-1.2-.2-1-.1-2 .2-2.9-.3-.3-.6-.7-.7-1.1-.3-1 .2-1.8 0-3 0 0 .3-.1.2-.1-.5-.2-.3-1.1-.4-1.6-.1-.7-.3-2-.5-3.1.2-.7.2-1.3.2-2 .5-1.4.3-3 1.1-4.4.6-.1.4.3.7.3.3.1.1-.6.4-.2.7-.1.3.6.2.7 0 .3 0 .6-.2.9.1 1.2-.1 2.4-.4 3.6-.1.7.3.9 0 1.5.5 1.1.8 2.3 1.1 3.5-.3 1.3.2 1.8-.4 2.7.8 1.4.7 2.7.7 4.7-.4 2-.1 3.9-.4 6-.3.4 0 1.2-.5 1.5.4.5 0 1.5-.2 2 .4.3.2.3.4.6-.2 1.1-.1 2.3.4 3.4.1 1.2-.1 1.6.4 2.4 0 .5-.3.6 0 1 0 .2.3.3 0 .3-.2.5.2.6-.4.8 0 .2.3.7-.3.7z" fill="#c7c7d4"/><path d="m81.2 68.3c.6.3.1.3.2.5.2.2.1.3.2.5-.1.1-.1.4-.4.3.2.4 0 .5 0 .8 0 .1.1.3.2.5v.4c.1.7.1 1.7-.7 2.1-.1.2.2.4.1.5-.9.7-1.6 1.7-2 2.8-.3.1 0 .5-.6.4 0 .2-.1.5-.3.7l-.7 1-.5-1.1c-.1-.2-.1-.5-.1-.8-.3 0-.6 0-.9-.1-.5-.3-.3-.9-.8-1.3 0 0 .2-.2.1-.1-.5.1-.5-.3-.7-.5-.4-.4-.8-.8-1.3-1.1 0-.4-.1-.7-.3-1 .1-.8-.5-1.5-.1-2.5.5-.3.4-.1.7-.2s-.1-.3.3-.3c.6-.4.4.1.3.2.2.1.1.3.1.5.4.4.4 1.1.6 1.8.1.3.5.3.4.6.6.3 1.2.6 1.8 1 0 .7.7.7.4 1.4.4.1.7.2 1 .5.3.2.5.5.6.9h-2.9l.2-.3c.6-.8 1.2-1.6 1.8-2.5.4 0 .3-.6.8-.4-.2-.4.3-.7.6-.8-.3-.3-.1-.2-.2-.4.2-.2.4-.5.5-.8s.1-.6 0-.9c.2-.6.5-.6.3-1.2.1-.2.4-.1.2-.4.1-.1-.2-.3.1-.2.3-.1 0-.4.5-.2.1-.2 0-.6.5-.3z" fill="#c7c7d4"/><path d="m77.3 33.1c-.7 0-.3-.1-.4-.1-.3 0-.2-.1-.4-.1 0 0-.1-.1.2-.1-.4-.1-.2-.1-.4-.2-.1 0-.3-.1-.4-.1s-.1-.1-.2-.1c-.4-.1-.9-.4-.4-.6 0 0-.3-.1-.4-.1.5-.3.6-.5.4-.9.2-.1-.2-.1.4-.2-.2-.1-.1-.3.2-.4-.2 0-.5-.1-.7-.1-.3-.1.2-.2 0-.4 0 0 .3 0 .2 0-.5 0-.3-.1-.4-.2-.2-.2-.3-.3-.5-.4.2-.1.2-.2.2-.3.5-.2.3-.4 1.1-.6h.7c.3 0 .1-.1.4 0 .7 0 .3.1.2.1.1.1-.1.1-.2.1.2.1-.2.3-.4.5-.1.1.3.1 0 .2.4.1.7.3 1.1.5-.3.2.2.2-.4.4.8.2.7.4.7.6-.4.3-.1.5-.4.8-.3.1 0 .2-.5.2.4.1 0 .2-.2.3.4 0 .2 0 .4.1-.2.2-.1.3.4.4.1.2-.1.2.4.3 0 .1-.3.1 0 .1 0 0 .3 0 0 0-.2.1.2.1-.4.1 0 .2.3.2-.3.2z" fill="#c7c7d4"/><path d="m75.5 124.7c.1.7-.4.3-.5.4-.1.3-.4.2-.5.4-.3 0-.6.1-.7-.2-.3.4-.7.2-1.1.4-.2.1-.3.3-.5.4s-.4.1-.6.2c-.9.4-2.3.9-3.4.4-.3 0-.4.3-.6.4-1.8-.5-3.6-.6-5.4-.4-.5-.2-.7.2-1-.4-.8.2-1.6.1-2.3-.2-.2.3-.6.5-.9.7-.8.3-1.4-.2-2.4 0 0 0 0-.3-.1-.2-.2.5-.9.3-1.3.4-.6.1-1.6.3-2.5.5-.5-.2-1.1-.2-1.6-.2-1.1-.5-2.4-.3-3.5-1.1-.1-.6.2-.4.3-.7s-.5-.1-.2-.4c-.1-.7.5-.3.5-.2h.4c.1 0 .2.1.3.2 1-.1 1.9.1 2.9.4.5.1.7-.3 1.2 0 .9-.4 1.8-.8 2.8-1.1 1 .3 1.4-.2 2.2.4 1.1-.8 2.2-.7 3.8-.7 1.6.4 3.1.1 4.8.4.3.3 1 0 1.2.5.4-.4 1.2 0 1.6.2.2-.4.2-.2.4-.4.9.2 1.9.1 2.7-.4 1-.1 1.2.1 1.9-.4.4 0 .5.3.8 0 .2 0 .2-.3.3 0 .4.2.5-.2.6.4 0 0 .4-.2.4.3z" fill="#c7c7d4"/><path d="m48.7 127.4c-.2.6-.2.2-.3.3-.1.3-.2.1-.3.3-.1-.1-.2 0-.2-.3-.2.3-.3.1-.5.2-.1 0-.2.2-.3.3s-.2 0-.3.1c-.4.2-1.1.5-1.3-.2-.1 0-.3.2-.4.2-.5-.7-.8-1-1.6-1.1 0-.3-.3.1-.2-.5h-.1l-1.7.1 1.9-1.2c.2-.1.4-.1.7.1 0-.3.1-.5.1-.8.1-.4.5.1.6-.2 0 0 .1.3.1.2-.2-.5.1-.4.1-.5.1-.2.2-.5.2-.8h.2c.1 0 .1-.1.2-.1.5.1.6-.3 1.4-.2.5.2.3.2.6.4s.2-.1.3.1c.6.3.2.3 0 .3 0 .2-.2.1-.3.2 0 .4-.6.5-1 .6-.2.1 0 .4-.3.3 0 .5-.1 1.1-.4 1.5-.5-.1-.5.5-1 0-.2.9-.8 1-1.5 1l-.2-.1.7-3c.4.5.9.5 1.3.9 0 .3.3.1.1.7.3-.3.4.2.4.4.2-.3.1-.1.3-.3.2.3.5.4 1 .1.4 0 .4.3.7-.1.1 0 0 .4.3.1 0 .1.2-.3.1 0 .1.2.2-.1.1.4.5.3.7.1.5.6z" fill="#c7c7d4"/><path d="m119.4 162.5c.1.7-.5.3-.8.4-.1.3-.6.2-.8.4-.4 0-.9.1-1.1-.2-.5.4-1.1.2-1.7.4-.3.1-.5.3-.8.4s-.6.1-1 .2c-1.4.4-3.6.9-5.3.4-.4 0-.6.3-1 .4-2.8-.5-5.6-.6-8.4-.4-.7-.2-1.1.2-1.5-.4-1.2.2-2.4.1-3.6-.2-.4.3-.9.6-1.4.7-1.2.3-2.2-.2-3.8 0 0 0-.1-.3-.1-.2-.3.5-1.3.3-2 .4-.9.1-2.5.3-3.9.5-.8-.2-1.7-.2-2.5-.2-1.7-.5-3.7-.3-5.4-1.1-.1-.6.4-.4.4-.7.1-.3-.8-.1-.3-.4-.1-.7.7-.3.8-.2.4 0 .8 0 1.1.2 1.5-.1 3 .1 4.5.4.8.1 1.2-.3 1.8 0 1.4-.5 2.9-.8 4.3-1.1 1.6.3 2.2-.2 3.3.4 1.7-.8 3.4-.7 5.9-.7 2.5.4 4.8.1 7.4.4.5.3 1.5 0 1.8.5.7-.4 1.8 0 2.5.2.3-.4.4-.2.7-.4 1.4.2 2.8.1 4.2-.4 1.5-.1 1.9.1 2.9-.4.6 0 .8.3 1.3 0 .2 0 .4-.3.4 0 .6.2.8-.2 1 .4.4 0 1-.2 1.1.3z" fill="#c7c7d4"/><path d="m116.8 166c-.2-.6 0-.3.1-.4-.1-.3.1-.2.1-.4.1 0 .2-.2.3.1 0-.4.2-.3.2-.5 0-.1 0-.3.1-.4 0-.1.1-.1.1-.2.2-.5.5-1.1 1-.7.1-.1 0-.4.1-.4.5.2 1 .2 1.4 0l-.4 1.1c-.1-.1-.2-.2-.4-.3.1-.3-.3-.1.1-.5-.3-.1-.4-.4-.3-.7-.2.1-.5.2-.8.2-.4 0-.1-.5-.5-.6 0 0 .2-.2.1-.1-.4.3-.4 0-.5-.1-.3-.1-.6-.2-.9-.2 0-.1 0-.2 0-.3s-.1-.2-.2-.2c.1-.6-.4-.7-.1-1.6.3-.5.3-.2.5-.5.2-.2-.1-.2.2-.3.4-.5.3-.1.3 0 .1 0 .1.2.1.3.4.1.4.6.5 1 .1.2.4 0 .3.3.5-.1 1-.1 1.5 0 0 .5.5.2.2.8.9-.2 1.1.2 1.4.7.1.4.2.7.4 1.1l.9 1.6-1.6.5c-.2.1-.4.1-.6.1-.2-.2-.3.2-.6-.4 0 .4-.4.2-.6 0 .1.4 0 .2 0 .4-.4-.1-.6.1-.8.7-.3.2-.4 0-.5.6-.1.1-.3-.3-.3.1-.1 0 0 .3-.1 0-.2-.1-.1.2-.3-.3-.2-.2-.2.1-.4-.5z" fill="#c7c7d4"/><path d="m92.1444444 2.23162412c2.1759358 7.96864098 4.8944543 13.51783428 8.1555556 16.64757988 3.261101 3.1297455 9.631471 6.3033442 19.11111 9.520796l-27.2666656-.2444444z" fill="#2f326a" opacity=".2"/><path d="m103.95 129.392183c5.774526-9.096783 8.619452-16.320435 8.534779-21.670954s-3.160354-12.708345-9.227044-22.073479l2.339118 1.6115244 19.781645 19.7773846-21.428498 21.863341" fill="#2f326a" opacity=".2"/><path d="m37.7 178.3v21.1l-18.4212293 10.5-16.53582873-9.563441c10.49951543.044441 17.71853483-1.17474 21.65705803-3.657543 3.9385232-2.482804 8.3718565-8.609142 13.3-18.379016z" fill="#2f326a" opacity=".2"/><path d="m162.9 83.7c1.349788 8.2931715 4.900523 14.1713326 10.652205 17.634483 5.751681 3.463151 17.767613 6.957851 36.047795 10.484101l-46.7.881416z" fill="#2f326a" opacity=".2"/></g></svg>