<svg height="216" viewBox="0 0 216 216" width="216" xmlns="http://www.w3.org/2000/svg"><g fill="none" fill-rule="evenodd" transform="translate(1 10)"><path d="m61.8 133.996584c10.5684198 10.628295 24.4897939 17.270981 39.4 18.8 15.6 1.6 30.7-3.5 43.5-13.3 2.5-1.9 4.8-3.9 7.2-5.8l29.1 29c-16.4 17.7-37 27.5-60.5 30.6-32.2 4.1-60.6-5.1-84.8-26.8-1.1-1-2-2.2-3.1-3.4z" fill="#7132fe" fill-rule="nonzero"/><path d="m106.2 131.096994c-11.0759825.026569-21.7031821-4.375127-29.5163036-12.225811-7.8131215-7.850685-12.1637968-18.498873-12.0836964-29.5745991.271005-23.0112051 18.8882131-41.5839807 41.9-41.8 23.2.1 42.2 19.3 41.8 42.4-.4 23.1000001-18.7 41.3000001-42.1 41.2004101z" fill="#fecc01" fill-rule="nonzero"/><path d="m61.8 133.996584-29.2 29.1c-20.5-20-29.8-44.6-30.8-73.3000001 10 0 19.6-.7 29.1.2 7.6.7 12.3 6.5 14.3 13.8000001 2.9996323 11.264994 8.6970636 21.6302 16.6 30.2z" fill="#01ebba" fill-rule="nonzero"/><path d="m181 162.696584-29.1-29c7.666745-8.987706 13.295797-19.529384 16.5-30.9 2.7-9.2000001 8.7-12.6000001 18.3-12.2000001 8 .2 16 0 24.8 0-1 27.5000001-10 52.2000001-30.5 72.1000001z" fill="#af64fe" fill-rule="nonzero"/><path d="m106.3 132.396584c-.4-.5.4-.6 1.5-.6h3.4c.681111-.35726 1.431818-.561998 2.2-.6l1.4-.3 1.2-.4 1.8-.4 1.8-.6 2.7-.7c1.3-.7 2.6-1.5 4.1-2.2l2.2-1.3 1.1-.7 1-.8 1.8-1.6c.5-.5 1-1.2 1.7-1.8s2.4-2.6 3.7-4.1c2.81345-3.921359 5.037073-8.23384 6.6-12.8 1.526798-4.9313684 2.400904-10.041525 2.6-15.2000001-.013388-.9465718-.147813-1.8875424-.4-2.8-.2442-.8558696-.444462-1.7236701-.6-2.6-.501526-4.1007717-1.684468-8.0889762-3.5-11.8-.4066-.8655769-.874455-1.7010325-1.4-2.5-.195705-.4207956-.430043-.8225185-.7-1.2l-.7-1.1-1.6-2.3-1.8-2-.9-1-1-1-2-1.8c-1.467171-1.2352989-3.039864-2.3395302-4.7-3.3-1.689763-1.072158-3.462-2.0084343-5.3-2.8l-3.1-1.1-.8-.3-.8-.2-1.7-.4-1.3-.4-1.3-.2-2.2-.3c-.624688-.1486536-1.259901-.2489505-1.9-.3l-1.8-.4c-.900927-.0667353-1.806478-.0331964-2.7.1l-2.6.2-2.7.4-1.3.2-1.2.3-2.5.6-2.5.8c-1.6.5-3.1 1.2-4.6 1.8l-1.5 1.2-1.5 1.3c-.5676229.3485312-1.0743298.7876772-1.5 1.3l-1.6 1.3c-.7.6-1.2 1.2-1.8 1.8s-1.3 1.1-1.8 1.7c-1.1700842 1.0985407-2.2721272 2.2673742-3.3 3.5l-1.6 2-1.4 2.3c-.5831018.7625672-1.0545111 1.6043695-1.4 2.5-.4598832.9065162-.860718 1.8417975-1.2 2.8.1-.2-.5.3-.5.7s-1.8 7.3-2 10.7c-.21293 3.2124885-.0112716 6.439024.6 9.6l.3 1.4c.0518574.5084347.1523165 1.0107304.3 1.5l.9 2.8000001c.4 1 .8 1.9 1.1 2.9s1 1.8 1.4 2.6c1.8072361 4.252462 4.5004492 8.070688 7.9 11.2 3.4480647 3.746584 7.6826844 6.683498 12.4 8.6 4.7234353 1.976238 9.708763 3.256254 14.8 3.8.7.8-2.1.4-2.5.9s4.7.4 1.6.5c.8.9-4.4.3-4.9-.1-2.1985991-.283828-4.3503588-.855389-6.4-1.7-4.160002-1.185519-8.0842407-3.079979-11.6-5.6-3.6402284-2.621429-6.8172379-5.832236-9.4-9.5l-1.8-2.5-1.4-2.1c-.2-.4-.5-.7-.6-1l-.6-1.1c-.2666667-.666667-.5666667-1.466667-.9-2.4-.4-.7-.7-1.5-1.1-2.3-.426559-.84009-.7941143-1.708857-1.1-2.6l-.9-3.0000001-.6-3.3c-.7834301-4.5975592-.8172005-9.291645-.1-13.9.7-2.3 1.1-4.2 1.8-5.9.3869899-.7646251.6888006-1.5694536.9-2.4.3737895-.6800081.7076873-1.3811935 1-2.1.4-.7.7-1.4 1-2l1.2-1.8c.8539692-1.3145236 1.8610205-2.5229852 3-3.6 2.910212-4.5424594 6.8067479-8.3706351 11.4-11.2.5977729-.4249154 1.2338586-.7931756 1.9-1.1l2-1c1.3602314-.761543 2.8028893-1.3654464 4.3-1.8l1.2-.5 1.2-.3 2.5-.6c.8546714-.2239123 1.7232407-.3909448 2.6-.5l2.7-.4h2.9c.465347-.049635.934653-.049635 1.4 0h1.4l2.8.2 2.7.4c1.9.3 3.6.9 5.4 1.3l2.6 1 2.6 1c6.90571 3.1008926 12.84758 8.0063902 17.2 14.2.4.7 1 1.4 1.5 2.3l1.6 2.8c.464422.869965.865463 1.7723081 1.2 2.7.299674.6223296.437264 1.3102827.4 2 .562923 1.0219151 1.031528 2.0930128 1.4 3.2.404059 1.2808327.73789 2.5827701 1 3.9.415048 2.4433468.549253 4.9261504.4 7.4.243219.6745323.37822 1.3832886.4 2.1v2.1c-.187498 2.0814404-.487941 4.1511571-.9 6.2-.3 1-.6 2.0000001-.8 2.9000001-.086178.511398-.220097 1.013594-.4 1.5l-.5 1.4c-1.316561 4.028344-3.166312 7.862375-5.5 11.4-1.938696 2.719402-4.224752 5.17355-6.8 7.3-2 1.6-3.7 3-6.2 4.7-.320347.275196-.695189.479655-1.1.6l-.9.5-1.7.6-1.5.7-1.8.8c-1.4.4-1.9 1.1-2.4.8l-3.8.8c-.694944.170425-1.424395.135689-2.1-.1l-2.1.3h-2.1c-1.4.3-2.4.2-2.5-.1z" fill="#2e316a"/><g fill="#f7f8fa"><path d="m99.9 55.1965839c.2.8-.4.4-.7.5s-.4.3-.6.6-.7.2-.9-.2-.9.4-1.3.7-.4.4-.6.6l-.8.3c-1 .7-2.5 1.8-3.9 1.5s-.3.6-.5.7c-2.2021471.1980002-4.243433 1.2365492-5.7 2.9-.6.1-.4.8-1.2.5-.4929876.8301168-1.2248475 1.4922758-2.1 1.9.0508065.4987093.0508065 1.0012906 0 1.5-.3 1-1.4 1.2-1.9 2.4h-.2c.3.6-.4 1.1-.6 1.5s-.7 1.9-1 2.9c-.4842267.3810635-.8344901.9064586-1 1.5-.5356928.4166139-.9500447.9690829-1.2 1.6-.2932216.6647027-.6992058 1.273679-1.2 1.8-.8 0-.5-.3-1-.4s-.2.6-.5.2-.3-.8-.1-.8c.010134-.3408508.1537882-.6640728.4-.9 0-1.2 1-2.4 1.8-3.4s.1-1 .7-1.3.5-2.4.8-3.8.9-1.6 2.1-1.9 1-2.9 2.5-4.4 3.3-2.7 5.5-3.6c.5.1 1.1-.7 1.7-.1s1.5-.7 2.1-.6.2-.3.4-.6c1.2535282-.0925829 2.4447293-.5830775 3.4-1.4 1.2-.4 1.6-.1 2.3-.8s.7.3 1.1-.1.3-.5.3-.1.7-.3.9.4.9-.3 1 .4z"/><path d="m85.1 72.1965839c.7.6.2.3.3.4l.3.4h-.2l.3.4c0 .1.2.3.3.4v.2c.3.4.7 1 .1.7s.2.3.3.3-.9-.2-.9.2.2.3-.4-.2 0 .3-.4.1l.6.7c.3.4-.3 0-.2.2s-.3-.2-.1-.1.2.3.2.4l.3.7c-.2-.1333334-.3-.1333334-.3 0-.6-.3-.5 0-1.4-.6-.2583667-.2068799-.4931202-.4416333-.7-.7-.3-.3-.1 0-.3-.3s-.3-.3-.2-.2h.3c-.1-.2.3 0 .6.1s-.3-.4.1-.1c-.3026039-.4101639-.5702117-.8450266-.8-1.3.4.2-.2-.3.5.1s-.6-.8-.4-1 .4-.1.8-.1 0-.1.6.4.1-.2.3 0-.1-.2-.3-.4.3-.1-.1-.6.2 0-.2-.5.4.3.1-.1c.2.1-.1-.2.4.3s0-.3.5.2z"/><path d="m72.7 87.7965839c-.8-.2-.3-.1-.4-.2h-.3l-.4-.2-.5-.2h-.2c-.5-.2-1.1-.4-.4-.4l-.5-.2c.7-.1.9-.2.6-.5s-.3-.1.5 0-.1-.2.3-.2l-.9-.2c-.5-.2.2-.2 0-.3h.2c-.6-.1-.3-.1-.4-.2l-.7-.4h.3c.6 0 .4-.2 1.5-.1l.9.2c.5.1.2-.1.5 0s.4.2.2.1-.1.1-.2.1-.3.1-.6.2.4.1 0 .1l1.4.6c-.5 0 .3.2-.5.1 1 .3.9.4.8.6s-.2.3-.5.4 0 .1-.7 0 0 .1-.3.1h.4c-.3.1-.1.2.5.4s-.2.1.4.3-.4 0 0 .1c-.2 0 .2.1-.5 0s.3-.1-.5-.2z"/><path d="m141.6 99.2965839c-.8-.3-.1-.5-.2-.8s0-.5-.2-.7.1-.7.5-.7-.1-.8-.3-1.3l-.4-.6c-.079894-.2293496-.146669-.4630609-.2-.7-.4-.9-1.1-2.4-.4-3.6s-.4-.3-.5-.6c.5-2.2.7-3.5 0-5.6s-.4-.7.3-1.1c-.313607-.7949458-.383236-1.6653069-.2-2.5-.426512-.1223435-.808531-.3654464-1.1-.7-.7-.7-.1-1.5-.7-2.4s.4-.2.2-.2-.7-.7-.9-1c-.452396-.7581235-.989145-1.4626073-1.6-2.1-.026171-.5674796-.198395-1.1185936-.5-1.6.1-1.3-.9-2.2-.6-3.8s.5 0 .9-.3-.2-.5.3-.4.7.2.5.4c.229286.153761.346784.4279234.3.7.631097.8821873 1.011245 1.9189541 1.1 3 .1.6.7.6.5 1.2.952651.6258869 1.797032 1.402718 2.5 2.3-.1 1.2.8 1.4.2 2.4 1.4.9 1.6 2.2 1.9 3.9s.3 3.5.1 5.3.2 1.1-.6 1.3.1 1.3-.2 1.8.2.3.5.5c-.254144 1.0144177-.111052 2.0876085.4 3 .2 1.1-.2 1.4.3 2.3s-.6.5-.3 1 .3.4-.1.3 0 .8-.7.7-.1.9-.8.6z"/><path d="m134.9 114.096584c-.6-.6-.2-.3-.3-.4s-.1-.2-.3-.4h.3c-.4-.3-.2-.2-.3-.4l-.3-.3-.2-.3c-.3-.4-.7-.9-.1-.5s-.3-.4-.3-.4.8.2.7-.2-.2-.2.4.2 0-.2.4 0l-.8-.6c-.3-.4.3 0 .2-.3s.3.2.2.2-.3-.3-.4-.4-.2-.3-.5-.6.3.1.3 0c.508304.099978 1.009407.233606 1.5.4l.8.4.5.2c.7.4.3.3.1.2h-.2c.1.3-.3.2-.6.1s.3.3-.1.2c.412668.27893.783119.615704 1.1 1-.5-.1.2.3-.6 0 .8.7.7.8.5.9s-.4.3-.7.3-.1.1-.7-.3-.1.1-.3 0 .1.1.3.3-.2.1.2.6-.3 0 .2.5-.4-.2-.1.1.3.3-.1 0 .2.2-.4-.2.2.2-.4-.3z"/></g><path d="m125.7 118.696584c.6.6.1.4.1.6s0 .3.1.6-.2.3-.5.1-.1.5-.2.8.1.4.1.6c0 .157379-.074097.305573-.2.4-.1.8-.5 2-1.5 1.8s0 .5-.1.6c-1.244956.050083-2.439211.50671-3.4 1.3-.4-.2-.4.4-.8-.2-.396343.388468-.984734.506146-1.5.3l-.3 1.1c-.4.6-1-.1-1.6.4v-.3c0 .7-.5.5-.8.7l-1.6.9c-.361635-.212408-.789024-.28364-1.2-.2-.360165-.249607-.769157-.42002-1.2-.5-.476333-.188058-.86753-.543693-1.1-1 0-.7.2-.5.2-.9s-.3-.2 0-.5.3-.4.3-.2.3.1.4.2 1.2.3 1.8.5.4-.4.7-.1 1-1 1.5-1.6.7-.5 1.3.2c.4-1.2 1-1.3 1.8-1.6s1.8-.5 2.7-.7.5-.3 1 .3.6-.4.9-.3.1-.3 0-.6.9-.4 1-1.3.6-.4.5-1.1.5.2.3-.3-.2-.4.1-.1.1-.3.6.1 0-.5.6 0z" fill="#fa0"/><path d="m130.8 116.496584.3.4.2.4-.2-.2.3.5c.108611.107878.178864.248385.2.4l.2.2c.2.4.6 1 .1.5l.2.4c-.4-.4-.6-.5-.5-.2s.1.3-.4-.3.1.2-.2-.1l.5.8c.2.4-.2-.2-.1.1s-.2-.3-.2-.2l.3.4c.045776.253018.148349.492357.3.7-.2-.2-.3-.2-.3-.1l-1-1c-.5-.7-.3-.5-.6-.8s-.1-.1-.3-.4-.2-.4-.1-.2l.2.2c-.1-.3.2.1.4.2s-.2-.3.1 0l-.8-1.3c.4.3-.1-.3.4.3s-.4-.8-.3-.9.2.1.5.2l.5.5c-.3-.4 0 0 .2.2l-.3-.4c.3.2.2 0-.1-.5s.2.1-.2-.5c.1 0-.2-.3 0 0s-.1-.2.4.3-.2-.2.3.4z" fill="#fa0"/><path d="m81.3 114.396584c-.6.7-.4.1-.6.1s-.4 0-.6.1-.4-.2-.2-.5-.5-.2-.9-.3h-.6l-.5-.2c-.8-.2-2-.6-1.9-1.7s-.5 0-.6-.1c-.1966251-1.383474-.7478154-2.692551-1.6-3.8.1-.4-.5-.3.1-.8-.4834758-.422628-.6443-1.106131-.4-1.7l-1.2-.2c-.6-.5-.1-1.2-.5-1.8s.3-.1.2-.1-.6-.5-.7-.8l-1.1-1.6c.1019883-.427333.1019883-.872668 0-1.3000001.2221582-.4008562.3583847-.8435922.4-1.3.0889879-.5479148.3731288-1.0451615.8-1.4.8-.1.5.1 1 .2s.1-.4.4-.2.5.3.3.4-.1.3-.2.5-.1 1.3-.2 2c-.1.7000001.4.5000001.1.8000001s1.1 1.1 1.8 1.5.6.9 0 1.6c1.2.4 1.4 1 1.8 2s.7 1.9 1 3 .4.5-.2 1 .4.7.4 1.1.3 0 .6 0 .5 1 1.5 1.1.4.7 1.1.6-.1.5.4.4.4-.2.1.1.4.1 0 .6.5.2 0 .7z" fill="#fa0"/><path d="m147.9 145.896584c.9.3-.5 1.1-.7 1.6s-.6 1.1-.8 1.7-1.3 1.4-1.9 1.4c-.242373.496262-.582511.938442-1 1.3-.5135.379992-.983064.816015-1.4 1.3l-1.2 1.4c-.5.5-1.1.8-1.7 1.3-1.356419 1.227649-2.869601 2.270063-4.5 3.1-1.781616.944747-3.707859 1.586828-5.7 1.9-.8.2-1.1.7-1.9 1-3.5.6-6.2.8-9 1.1l-9 .6c-1.5-.4-2.3.2-3.3-.6s-2.6-.1-3.9-.3c-1.25915-.18164-2.4980978-.483006-3.7-.9-1.0172153.237449-2.0558282.371463-3.1.4-2.7-.2-4.7-1.4-7.9-2.2.1 0 0-.4-.2-.3s-2.8-.7-4.1-1.1-5-1.7-7.9-3l-2.2-1.5-2.4-1.6c-2.8-2.5-6.4-5.1-8.3-8.4.4-.7.9.2 1.3-.1s-1.1-1.2-.1-.7 1.5.7 1.5.9c.6151203.521984 1.1537336 1.127924 1.6 1.8 2.3 1.6 4.8 4 7.3 5.8s2.3.9 3.3 1.9 2.6.8 4.1 1.2l2.3.7 2.4.6c1.1372838.590506 2.3478277 1.027647 3.6 1.3 1.0275585.282204 2.0056422.720655 2.9 1.3.9009266-.066735 1.8064783-.033196 2.7.1l2.8.2 3 .4c1.15148.243172 2.323346.377099 3.5.4 5.1 1 9.9.6 15.2.1 1.1.2 3-.5 3.8.1s3.7-.9 5.1-1.1.7-.4 1.2-.9c2.865652-.598303 5.522121-1.943787 7.7-3.9l1.6-1 1.2-.8 1-.7.8-1.1c.9-.8 1.5-.7 1.9-1.6s.2-.8.6-.6.9-1.2 1.7-1.1 1.2-1.8 1.8-1.4z" fill="#bc88ff"/><path d="m153.6 141.496584c-.1.9-.1.4-.1.5s-.1.3-.1.5v-.3c-.1.6-.1.3-.1.5v.7c0 .6.1 1.2-.1.5v.5c-.1-.6-.3-.8-.2-.4l-.2-.5c.1.3 0 .2-.2-.1l.5.8c.2.4-.2-.2-.1 0v-.2c.4.6.2.4.3.4.08256.229551.219861.435501.4.6-.1-.2-.1-.3-.1-.2s-.2-.3-1.1-.9l-.8-.6-.4-.3c-.7-.5-.3-.3-.1-.2h.2c-.1-.2.3 0 .5.2s-.2-.4.1-.1c-.308268-.388599-.545263-.828731-.7-1.3.3.3-.1-.3.4.3-.4-1-.2-1 0-1.1s.4.1.7.3.1-.1.3.6.1 0 .2.2 0-.2-.1-.4.2.1.3-.5.1.1.2-.5.1.4.1 0c.1.2.1-.2.1.4s.1-.1.1.6z" fill="#bc88ff"/><path d="m58.2 144.096584h-.4l-.5-.2s-.1-.1.3 0l-.5-.3-.4-.2-.2-.2c-.4-.3-.9-.9-.2-.7l-.3-.3c.7 0 1 .1.9-.4s-.1-.3.5.2.1-.3.4 0l-.5-.9c-.1-.4.4.1.4-.2v.2c-.3-.6 0-.4 0-.5l.2-.9c.0801313.141937.2383714.221057.4.2.3.5.5.2.9 1.2.0524052.331273.0524052.668726 0 1 .1.4.1.1.1.5s.1.4 0 .2 0-.1-.1-.2-.2-.2-.3-.4 0 .4-.2 0c.1064505.473932.2400033.941367.4 1.4l-.3-.3c.5.9.5.8.4.8s-.2 0-.4-.2l-.7-.3h-.2c.4.3.1.2.4.3s-.2.1.3.3l.5.3h-1z" fill="#bc88ff"/><path d="m61.9 154.196584v.4c0 .4-.1.3-.1.5v-.2c-.1.5-.1.2-.2.5v.4c0 .2-.1.1-.1.3s-.2 1.2-.3.5-.1.4-.1.4-.3-.8-.5-.4-.1.2-.1-.5-.2.1-.3-.3c.0272497.336636-.0066292.675426-.1 1-.1.4-.1-.3-.2 0v-.2c0 .6-.1.4-.2.4l-.2.8c-.1-.3-.1-.3-.2-.3-.1546108-.453272-.2553042-.923175-.3-1.4v-1c0-.4-.1-.1 0-.5v-.2c.1-.1.1.1.1.2s.2.3.3.5.1-.4.1 0 .2-.9.3-1.4.1-.3.2.5c.1-1.1.2-1 .4-1s.3.2.5.5.1-.1.1.7.1 0 .2.2v-.4c.1.3.2.1.3-.5s.1.1.2-.5 0 .4.1 0c0 .2 0-.2.1.5z" fill="#bc88ff"/><path d="m183.8 151.696584c-.8-.4.2-.8.3-1.1s.3-.8.4-1.2.6-1 1.1-.9.6-1.3.9-2c.052821-.410338.153506-.81308.3-1.2.12499-.384218.292706-.753194.5-1.1.346192-1.053365.746729-2.088085 1.2-3.1.526312-1.051785 1.237654-2.000241 2.1-2.8.2-.5 0-.9.2-1.3 2.340237-2.681631 4.109556-5.811965 5.2-9.2.6-.7.3-1.4 1.2-1.6.329555-1.532115.939833-2.990002 1.8-4.3-.245635-.601598-.348328-1.251987-.3-1.9 0-1.7 1-2.7 1.3-4.6 0 .1.4 0 .3-.1s0-1.8.1-2.5c.22501-1.656808.325292-3.328174.3-5 .361255-.965772.596527-1.974079.7-3 .358976-1.116895.659385-2.251774.9-3.4.169028-1.156301.541442-2.273543 1.1-3.3000001.8-.1.5.5.9.6s.3-1.1.5-.4.4 1 .2 1.1c.032996.4855465-.070945.9706071-.3 1.4000001.00821.980963-.126538 1.957889-.4 2.9-.2.9-.5 1.9-.8 2.8s.2 1.5-.3 2.3c.225747 1.924567.292639 3.864454.2 5.8-.9 1.9-.4 2.9-1.6 4.1.182516 1.200942.11442 2.426665-.2 3.6-.342426 1.328557-.776807 2.631699-1.3 3.9-.812836 1.42555-1.547262 2.894401-2.2 4.4-.7 1.4-1.4 2.8-2.3 4.3s-.9 1.8-1.7 1.7-1.2 2.1-1.9 2.7 0 .5 0 1c-1.229938 1.37478-2.120432 3.018769-2.6 4.8-1 1.8-1.7 2-1.9 3.4s-1 .6-1.1 1.3.1.6-.3.4-.5.9-1.2.7-.7 1.3-1.3.8z" fill="#7132fe"/><path d="m182.5 150.096584.4.2h-.2c.4.3.2.2.3.4l.4.3c0 .2 0 .2.1.3s.3 1.2-.2.6.2.5.1.5-.7-.6-.9-.2-.1.3-.2-.5-.2.2-.2-.3c-.056978.344755-.157795.680813-.3 1-.2.4-.2-.3-.4-.1v-.3c-.3.7-.3.4-.4.4l-.8.4c0-.3 0-.4-.2-.5.074644-.225542.108507-.462579.1-.7.158389-.266007.361347-.502791.6-.7l.8-.5.4-.2c.2-.2-.1.1-.2.4l.4-.6h.1l.2.3-.2-.2h.2z" fill="#7132fe"/><path d="m176.2 147.696584c.5.7.2.2.2.4l.3.4c-.1 0 0 .1-.2-.2s.1.3.2.5l.2.4v.3c.1.5.1 1.2-.2.5s.1.5 0 .5-.5-.7-.8-.3 0 .3-.1-.5-.2.2-.2-.2c-.044944.304418-.111784.605198-.2.9-.2.4-.2-.3-.3-.1v-.2c-.2.7-.2.4-.3.4l-.6.6c0-.2 0-.3-.2-.3s-.2-.5.3-1.5l.5-.8.3-.4c.5-.8.2-.4.1-.2v.2c.2-.2 0 .2 0 .5s.2-.4.1 0l.5-1.3c-.1.4 0-.3-.1.5l.2-.9v.2.2c.1.4 0-.1.2.7s0 0 .1.2 0-.2-.1-.5.1.2-.1-.4h-.1c.1 0 0-.1.1.1s-.2-.4.2.3z" fill="#7132fe"/><path d="m186 141.896584c-.9.1-.4 0-.5-.1h-.5c0-.1-.1-.1.2-.1s-.2-.1-.5-.1h-.7c-.5 0-1.2.2-.5-.1h-.5c.6-.3.7-.5.4-.4s-.3.1.4-.3-.2 0 .1-.3l-.9.5c-.4.2.2-.2 0-.1l.2-.2c-.6.4-.4.2-.5.2l-.6.4.2-.2c.4-.4.2-.3.8-1.1l.7-.7c.3-.3.1-.2.3-.4s.4-.3.2-.1 0 .1-.1.2 0 .3-.1.5.3-.2 0 .1l1.4-.6c-.3.3.3 0-.3.5 1-.5 1-.3 1.1-.1s0 .5-.2.8.1.1-.6.4.1.1-.2.2h.5c-.3.2-.1.3.6.2s-.2.2.5.2-.4.1 0 .1.4 0 0 .1h-.5s.3.4-.4.5z" fill="#7132fe"/><path d="m30.7 150.596584c-.5.7-.7-.3-1.1-.5s-.7-.5-1.1-.6-.8-.9-.7-1.3-1.1-1.1-1.7-1.6l-1-.7-1-1c-1.4-1.3-3.6-3.7-4-6.1-.3-.4-.8-.5-1.1-.9-1.1189587-3.667284-2.6627683-7.191198-4.6-10.5-.1-1.1-.9-1.3-.4-2.2-.971487-1.360715-1.5899837-2.941318-1.8-4.6-.6039527-.418898-1.1430486-.924301-1.6-1.5-1-1.4-.8-3-1.6-4.9 0 0 .3-.2.2-.3s-1-1.7-1.2-2.5-1.2-3.3-1.8-5.3c.11434372-1.199563.0807584-2.408634-.1-3.6.5-2.5000001.4-5.4000001 1.8-7.6000001.8-.1.4.5.9.7s.3-1.1.5-.3.3 1 .1 1.1c-.01215559.5246942-.14928303 1.0389221-.4 1.5.2 1.8-.3 3.9000001-.3 6.0000001s.5 1.5.2 2.4 1.6 3.6 2.6 5.4 1.1 2.7.9 4.4c1.7 1.8 2.4 3.9 3.7 6.9s2.6 6 3.9 9.3c-.1.8.9 1.8.4 2.5s1.2 2.2 1.4 3.1.4.4.8.6c.6511696 1.838104 1.7922717 3.46331 3.3 4.7 1.2 1.5 1.2 2.2 2.5 2.9s.2 1.1 1 1.4.6.1.3.4.8.7.4 1.3 1.1.9.6 1.4z" fill="#0cc"/><path d="m32.4 151.296584c.6.6.2.3.3.4s.1.3.3.4 0 .2-.3-.1.2.3.3.5l.3.4v.2c.3.4.8.9.1.6l.4.3c-.7-.1-.9-.1-.8.3s.2.2-.5-.2.1.3-.3.2l.8.5c.3.3-.3 0-.1.3h-.3c.6.3.4.2.4.3l.6.5c-.3 0-.4 0-.3.1-.5018118.004732-1.0032572-.028697-1.5-.1-.8-.2-.5-.2-.9-.4s-.2.1-.5-.1-.4-.2-.2-.1.1-.1.3-.1.3-.1.6-.2-.4-.2 0-.1l-1.1-1c.5 0-.2-.4.6-.1-.9-.6-.7-.8-.6-1s.5-.3.9-.4 0-.2.7.3.1-.2.3-.1l-.3-.3c.3 0 .3-.1-.1-.7s.2 0-.2-.5.4.2.1-.1-.2-.3.1-.1-.1-.2.4.3 0-.4.5.1z" fill="#0cc"/><path d="m16.5 101.196584c-.4.8-.3.3-.4.4l-.3.4c0-.1-.1 0 0-.3s-.2.2-.3.4c-.0272855.149635-.0966633.28839-.2.4 0 .2 0 .1-.1.2s-.2 1.2-.2.5 0 .5 0 .5-.4-.8-.4-.4.1.3-.3-.4 0 .2-.3-.1l.5.8c.3.4-.2-.1-.1.1h-.2l.4.3c.1644984.180139.3704493.317439.6.4l-.2-.2-.5-.2h-1.9c-.4-.1-.1.1-.4 0s-.5-.1-.3-.1.1-.1.3-.1.3-.4.6-.4-.3-.3.1-.2c-.4443196-.268092-.7670412-.698388-.9-1.2.5.1 0-.5.7-.1s-.2-1.1.1-1.3.8-.1 1.3 0 .2-.1.4.7.3-.1.3.2.1-.2.1-.5.3.2.7-.4c.4-.6000001.3.2.7-.3.4-.5000001-.1.4.2 0 .3-.4000001.2-.3000001.1.1-.1.4.2-.1-.1.5s.4-.3 0 .3z" fill="#0cc"/><path d="m142.9 183.296584c.6.7-1.1.7-1.7 1.1s-1.2.8-1.7 1.2-2.1.9-2.7.7-2.3 1.1-3.6 1.7l-1.9 1c-.7.4-1.4.5-2.2.9-1.989065.740932-4.027333 1.342388-6.1 1.8-2.243311.431384-4.544974.465232-6.8.1-1 .1-1.5.5-2.4.5l-10.2-1.5-10.1-1.5c-1.6-.6-2.8-.3-3.7-1.4-1.4898164-.309622-2.7894916-1.212174-3.6-2.5l-1.7-3 2.8 1.9c.6020053.394371.9457064 1.081773.9 1.8-.0636892.562907-.3094844 1.089611-.7 1.5-.7213263.679248-1.7395144.943223-2.7.7-1.1904121.400245-2.4606568.503238-3.7.3-1.4832268-.22608-2.9091268-.73533-4.2-1.5-1.4284281-.777455-2.8971661-1.478443-4.4-2.1.1 0 0-.4-.2-.4s-3.2-1.1-4.5-1.7-5.5-2.6-8.7-4.3c-1.6007907-1.319955-3.2697527-2.554987-5-3.7-3.1-2.9-7.2-5.8-9.5-9.4.2-.8.9.2 1.4 0s-1.4-1.4-.2-.8 1.6.8 1.6 1.1c.7352596.556975 1.4060764 1.19425 2 1.9 2.6 1.9 5.5 4.6 8.3 6.8s2.6 1.2 3.7 2.4 6.3 2.7 9.7 3.9 4.9 2.1 7.1 3.9l5.2.9c.6495438.213684 1.3504562.213684 2 0l.4.6c-.0625797-.110512-.1739204-.184739-.3-.2h.8l2.5-2c.1771243.283482.4165176.522876.7.7 1.4 1.3 4.8 1.6 7.6 2.2l8.8 1.5c1.2.5 3.6.3 4.3 1.1s4.3.3 6 .5.9-.2 1.6-.5c3.347768.261688 6.709303-.287134 9.8-1.6 3.3-1 4.5-1 6.5-2.4s1.9-.1 2.8-.9.7-.7 1-.4 1.6-.8 2.3-.3 2.4-1.3 2.7-.6z" fill="#592bd8"/><path d="m157.3 173.796584c.5.7.1.3.1.5l.2.4c-.1 0 0 .2-.3-.1s0 .4.1.6c.043195.164542.076587.331502.1.5.1.1 0 .1 0 .3s.2 1.3-.5.8l.2.5c-.8-.2-1.2-.2-1.5.4s0 .3-.5-.3-.2.3-.6 0c.071707.341175.172063.675694.3 1 0 .5-.5-.1-.6.3s-.2-.3-.1-.2-.1.5-.1.6c-.147101.28219-.248367.585987-.3.9h-.5c-.5-.5-.7-.1-1.4-1-.180442-.276768-.315479-.580601-.4-.9-.1-.4-.1 0-.2-.4s0-.4 0-.3.2.1.3.2.5 0 .9.1-.1-.4.2-.1c-.050308-.532147-.050308-1.067853 0-1.6.4.3.1-.4.7.2-.3-1.1 0-1.1.3-1.3s.8-.2 1.2-.1.2-.2.7.4.2-.1.4 0 0-.2-.1-.4.4-.1.2-.8.4 0 .1-.7.4.3.2-.1-.2-.3 0 0 0-.2.4.3 0-.3.5.3z" fill="#592bd8"/><path d="m169.2 167.696584c.5.8.1.3.2.5l.2.4c-.1 0 0 .2-.3-.1s.1.3.2.5v.4c.1.2 0 .2.1.3s.3 1.2-.2.7l.2.4c-.6-.4-.9-.5-1 0s.1.3-.4-.3-.1.2-.4 0c.175339.24351.310395.513622.4.8.1.5-.3-.1-.3.2v-.2c.3.6.1.4 0 .5s.1.5.1.8h-.3c-.5-.5-.5-.1-1.2-1l-.5-.8c-.2-.4-.1-.1-.3-.4s-.1-.5 0-.3l.2.2c0-.3.4 0 .6.2s-.1-.4.2-.1c-.213841-.474984-.348941-.981608-.4-1.5.3.3 0-.4.5.3-.4-1-.2-1.1 0-1.2s.5 0 .9.1 0-.1.5.5.1-.1.3.1-.1-.2-.2-.4.3 0 .1-.7.3.1 0-.5.3.3.1-.1c.2.2 0-.2.4.4s-.1-.3.3.3z" fill="#592bd8"/><path d="m50.4 131.596584c-.8.4-.5-.5-.8-.7s-.5-.5-.8-.7-.5-.9-.2-1.2-.7-1-1.1-1.5-.6-.4-.8-.7-.4-.6-.6-.9-2.6-3.1-2.7-5.1c-.3-.3-.7-.4-.9-.7-.624794-2.979909-1.7761625-5.824466-3.4-8.4-.1-.8-.8-1-.3-1.7-.8364811-1.040955-1.3878609-2.28156-1.6-3.6-.564971-.239916-1.1015857-.541761-1.6-.9-1-1-.9-2.3-2-3.4s.3-.3.1-.3-1.1-.8-1.5-1.2c-.8768725-.7738486-1.9490243-1.2926317-3.1-1.5000001-.4960382-.5170876-1.1834871-.8065398-1.9-.8-.7775638-.3756313-1.6377752-.5476736-2.5-.5l-2.9-.3c-.4-.7.2-.6.2-1.1s-.9.1-.5-.4.7-.6.9-.4.9-.1 1.3-.1c1.6850753-.3994004 3.4572613-.186738 5 .6l1.1.3c.3470214-.0250266.6704303.1771039.8.5 1.4-.1 3.2 1.1 4.7 2.2 1.5 1.1000001 1.8 2.0000001 1.8 3.5000001 1.9 1.2 2.6 2.8 3.8 5.3s2.2 4.8 3.1 7.5c-.1.6.8 1.5.2 2.1s.9 1.8.9 2.6.4.3.8.5c.3060978 1.527278 1.0740862 2.923621 2.2 4 .8 1.4.7 2 1.7 2.8s-.1.9.5 1.3.5.2.1.4.6.7 0 1.2.7 1 0 1.3z" fill="#83ffde"/><path d="m52.6 132.196584c.5.6.1.2.2.4l.3.3s.1.2-.2-.1.1.3.2.5l.3.3v.3c.3.4.7 1 .2.5l.3.4c-.6-.3-.9-.3-.7.1s.1.2-.5-.2.1.2-.3 0l.7.6c.3.4-.3 0-.1.2h-.1c.5.4.3.3.3.4l.5.5h-.3c-.4776044-.091556-.9461176-.225417-1.4-.4l-.8-.5-.4-.2c-.8-.4-.4-.3-.2-.2h.2c-.1-.3.3-.1.6-.1s-.3-.3.1-.1c-.3862845-.314788-.7233424-.685552-1-1.1.4.2-.2-.3.5.1-.8-.7-.6-.8-.5-1s.4-.2.8-.2l.6.4c-.3-.4.1-.1.3 0s-.1-.1-.3-.3.3-.1-.1-.6.3 0-.1-.5.3.2 0-.1-.2-.3.1 0-.1-.2.4.3-.2-.3.4.3z" fill="#83ffde"/><path d="m178.3 96.2965839c.8.1.2.5.2.8s.1.5.3.8-.1.8-.5.9-.1.9 0 1.5000001c.1.6.2.5.2.8.050352.297887.050352.602113 0 .9.1 1.3 0 3.4-1.2 4.6s.3.6.2.9c-1.521823 1.97712-2.673679 4.213076-3.4 6.6-.6.4-.2 1-1 1-.287434 1.048205-.878997 1.987746-1.7 2.7.177911.481211.279144.987378.3 1.5-.1 1.2-1.2 1.7-1.6 2.9s-.4-.1-.3 0-.3 1.2-.5 1.8-.8 2-1.2 3.3c-.56594.477036-1.040337 1.053089-1.4 1.7-1.4.9-2.2 2.5-3.9 3.1s-.3-.6-.6-.9-.5.5-.5-.1 0-.7.2-.7c.166661-.306877.458733-.525931.8-.6.4-1.1 1.6-2 2.5-2.9s.2-1.1.9-1.4.5-2.5.7-3.9.7-1.8 1.9-2.2c-.2-1.9.5-3.1 1.5-4.9s1.9-3.7 3-5.6c.6-.2.5-1.2 1.3-1.1s.6-1.5 1-1.9 0-.4-.2-.8c.719317-1.014835 1.006997-2.273436.8-3.5.2-1.3.7-1.5.3-2.5000001-.4-1 .6-.5.3-1.1s-.3-.4.1-.3 0-.7.7-.7.1-.9.8-.7z" fill="#dac2ff"/><path d="m186.4 92.7965839c-.1.9-.1.4-.2.5s0 .3-.1.5v-.3c-.1.5-.1.3-.2.5-.043195.1645418-.076587.3315019-.1.5 0 .1-.1.1-.1.2s-.4 1.2-.4.4c-.023413.168498-.056805.3354581-.1.5-.2-.6-.3-.9-.5-.5s-.1.2-.1-.5-.1.1-.2-.3c.017508.3126953-.051704.6241499-.2.9-.1.5-.1-.2-.2 0v-.2c-.1.6-.1.4-.2.4-.13662.2158787-.237894.4521865-.3.7-.1-.2-.1-.3-.2-.2s-.2-.4-.2-1.5c.036113-.3387225.103058-.6734434.2-1 .1-.4 0-.1 0-.5s.1-.4.1-.2.1.1.1.3.1.2.2.5.1-.4.1 0l.5-1.4c0 .4.2-.3.1.5.3-1 .4-1 .5-.9s.3.2.5.5.1 0 0 .8.1 0 .1.2.1-.2.1-.4.2.1.4-.5.1.2.2-.4 0 .4.1 0c.1.2.1-.2 0 .5s.1-.3.1.4z" fill="#dac2ff"/><path d="m196.9 99.0965839c.6.6.2.3.3.4l.3.3s0 .2-.2-.1.1.3.2.4000001c.122444.138546.193118.315229.2.5v.2c.2.5.3 1.3-.2.7v.5c-.6-.4-.8-.6-1.1-.2s0 .3-.2-.5-.2.2-.3-.2c.002751.343534-.065332.683949-.2 1-.1.4-.2-.3-.4-.1s.1-.4 0-.2-.2.4-.3.4l-.7.6c0-.3-.1-.4-.2-.4s-.3-.5.1-1.5c.4-1.0000001.3-.4.6-.8.3-.4000001 0-.2000001.2-.4000001s.3-.4.2-.2 0 .1-.1.2 0 .3 0 .5000001c0 .2.2-.3000001.1.1.238359-.4378693.407049-.9101994.5-1.4000001 0 .5.1-.3.1.5v-.9c.1.4.1.1.2.4s0-.1.3.7c.3.8000001 0-.1.2.1l-.2-.4c.2.3.2.1-.1-.5h-.1l-.2-.2h.1l.2.3z" fill="#dac2ff"/><g fill="#cccfdb"><path d="m44.8 79.4965839c-.1.8-1.4-.9-2.1-1.4s-1.4-1.2-1.9-1.7l-1.2-1.6c-.2663637-.4353439-.4684501-.9068788-.6-1.4l-.7-.9-.6-1.2c-.4101524-.8005134-.7449287-1.6374543-1-2.5-.3930622-.7737839-.7273393-1.576049-1-2.4-.2915286-.9855223-.5252597-1.9872272-.7-3-.491897-2.7084856-.5256999-5.4803243-.1-8.2.4183931-2.9777677 1.5885254-5.7998515 3.4-8.2.1111165-.2453457.2450383-.4797089.4-.7l.3-.7.8-1.4c.9671037-1.0341594 2.1669893-1.8226556 3.5-2.3.6758032-.2249254 1.3938883-.2933145 2.1-.2.796496.0529879 1.5287196.4557109 2 1.1.4088816.591618.6507002 1.2825283.7 2 0 .6-.1 1.1-.1 1.6-.0939531 1.0510635-.294996 2.089785-.6 3.1-.6509017 2.0753477-1.7424659 3.985585-3.2 5.6-1.7290894 1.87766-4.0673396 3.0822131-6.6 3.4-1.0184525-.0256493-2.0282803-.1939539-3-.5l-1.1-.4c-.3104185-.1780148-.5823546-.4159589-.8-.7-1.7604788-1.0127827-3.265623-2.4153033-4.4-4.1-.9845314-1.6298047-1.6623715-3.4260811-2-5.3-.7116413-1.3254091-1.2494086-2.7370482-1.6-4.2-.28346-1.9209193-.3170726-3.8704509-.1-5.8.3-1.9.7-3.9 1.2-6.2 0 .1.4-.2.3-.4.0157189-.9312714.2198187-1.8497204.6-2.7.4-1.2.9-2.4 1.3-3.3.6902823-1.7171439 1.4919889-3.387366 2.4-5 1.0897213-2.0318694 2.2915763-4.0015762 3.6-5.9l5.1-6.10000005c2.0655903-2.0982422 4.344612-3.97508357 6.8-5.6 1.3002705-.83399418 2.7151368-1.47405274 4.2-1.9 1.3976584-.39345038 2.8612477-.49556126 4.3-.3.4.6-1.1.4-1.2.8s2.4 0 .8.3c.2.4-.3.4-.9.5-.4986363.05222539-1.0013637.05222539-1.5 0l-3.1 1c-3.6 2.1-7.2 5.6-10.3 9.10000005-1.6 1.9-2 3-3.4 4.4l-2.9 5.5c-1.0552565 2.1209576-1.9251624 4.3291803-2.6 6.6-.7971273 1.6842781-1.368719 3.4662994-1.7 5.3-.3 1.4-.5 2.8-.9 4.4.113607 2.6294505.4819987 5.2416819 1.1 7.8.35044 1.3847325.853521 2.726282 1.5 4 .6428324 1.4604127 1.5593307 2.7842436 2.7 3.9 2.1249603 2.5170031 5.7484112 3.1490004 8.6 1.5 2.951549-1.8955671 4.8968688-5.0154195 5.3-8.5.1989475-.7876313.1989475-1.6123688 0-2.4-.0808015-.2026446-.2200349-.3766863-.4-.5l-.6-.4c-1.0712847.3166552-2.0608408.8626172-2.9 1.6-.5.4-.9 1-1.4 1.4l-.6.7-.5.7c-.1 1-.5 1-.7 2-2.0960016 3.6992322-2.8385112 8.0128598-2.1 12.2.0541913.9099581.1880369 1.8134154.4 2.7.0165207.7172786.1516816 1.4268733.4 2.1l.2.9.3.8c.2596391.619346.5603066 1.2206811.9 1.8.2866206.577891.5208904 1.1802991.7 1.8.2272463.5096185.5307201.9816888.9 1.4.3.7.9.7.7 1s1.5 1.7 1.5 2.5l.7.8.7.6c.5.5.8.9.7 1.1z"/><path d="m82.1 30.9965839c-.6.4-.4 0-.5-.1s-.3-.1-.5-.1-.2-.2 0-.4-.4-.3-.7-.4h-.4l-.4-.3c-.6-.3-1.5-.7-1.3-1.6h-.5c-.0689079-1.1213186-.5289459-2.1829448-1.3-3 .1-.4-.4-.3 0-.7-.385694-.3137979-.5760114-.8086232-.5-1.3h-.9c-.5-.3-.3-.9-.7-1.3s.2-.2.1-.2-.5-.3-.7-.4c-.3545096-.4133955-.7573958-.7827078-1.2-1.1-.0067163-.3234297-.1113153-.6372265-.3-.9.1-.8-.5-1.4-.1-2.4s.4 0 .7-.2-.1-.3.2-.3.5.1.4.2c.1170001.1461331.1170001.3538668 0 .5.4.4.4 1.1.6 1.7s.4.2.3.6c.6287372.2387093 1.2317902.5402358 1.8.9 0 .7.6.6.3 1.3s1.3.8 1.7 1.6.8 1.7 1.1 2.7.4.5-.1.9.4.6.3.9.2.1.5.1.4.9 1.1 1.2.3.7.9.8-.2.4.2.4.3 0 .1.2.3.2-.1.5.3-.1-.1.2z"/><path d="m104.6 27.1965839c-.7-.1-.2-.3-.3-.4s-.2-.3-.3-.5-.1-.3.2-.4-.1-.5-.2-.7l-.3-.4-.2-.5c-.3-.6-.6-1.6 0-2.2s-.3-.3-.3-.5c.574966-1.035294.819243-2.2217808.7-3.4.3-.3-.2-.5.4-.6-.114585-.5199484-.005751-1.0641188.3-1.5l-.7-.7c-.3-.5.3-.9.1-1.5s.3 0 .2-.1-.3-.6-.3-.8l-.5-1.7c.212035-.2870161.285334-.6535101.2-1 .5-.70000005.3-1.60000005 1.2-2.30000005s.3.2.7.2.1-.3.3-.1.4.3.2.4-.1.3-.2.4-.2 1.30000005-.4 1.90000005.3.5 0 .8c.412305.5885182.748318 1.2269436 1 1.9-.4.6.2.9-.4 1.4.558397.7047179.744398 1.6347231.5 2.5-.5 1-.3 2-.7 3.1s0 .7-.6.7-.1.8-.3 1.1.1.1.3.3c-.285086.5885266-.207321 1.2884074.2 1.8 0 .7-.3.8.1 1.3s-.3.3-.1.5.3.2 0 .2.1.3-.4.4.1.4-.4.4z"/><path d="m124.1 30.6965839c-.7-.2-.2-.3-.2-.5s-.1-.3-.3-.5.1-.4.4-.4 0-.5-.1-.8-.2-.4-.2-.5 0-.3 0-.5-.4-1.9.4-2.4-.2-.4-.2-.5c.810179-1.0190967 1.359403-2.220523 1.6-3.5.3-.3-.1-.6.6-.6-.024043-.5839957.236968-1.1433062.7-1.5-.248369-.2059515-.423711-.4864985-.5-.8-.2-.7.5-.9.5-1.7s.3.1.2 0-.1-.6 0-.9.1-1.2.1-1.9c.225895-.3002755.395317-.6391185.5-1 .7-.6.8-1.5 1.8-2s.3.3.6.4.3-.3.4 0 .2.4.1.4-.2.3-.4.4-.6 1.3-1 1.9.1.6-.2.7c.204626.7493569.305565 1.5232268.3 2.3-.5.5-.1 1-.8 1.3s.2 1.7-.2 2.8-.8 2-1.4 3-.2.7-.8.6-.3.8-.5 1.1.1.2.2.4c-.41799.5405076-.531121 1.2570011-.3 1.9-.1.7-.4.8-.1 1.4s-.4.2-.2.5.3.3 0 .2 0 .4-.5.3 0 .5-.5.4z"/><path d="m141.8 37.4965839c-.6-.3-.2-.2-.2-.3s-.1-.3-.2-.4 0-.2.3-.1-.1-.4-.1-.6-.2-.2-.2-.3 0-.2-.1-.3-.3-1.2.4-1.3-.2-.3-.2-.4c.710157-.2314459 1.218829-.8575034 1.3-1.6.3 0 0-.3.5-.1-.003594-.350692.252884-.649917.6-.7l-.4-.6c-.1-.5.4-.4.5-.8s.2.1.1 0-.1-.4 0-.6v-1.1c.221455-.0448244.407657-.1937857.5-.4.6-.1.6-.6 1.6-.6s.2.3.5.5.2-.1.4.1.2.3 0 .3-.1.1-.3.1-.5.6-.8.8.1.4-.3.3c.225384.4708004.361034.9794882.4 1.5-.4.2 0 .6-.7.5s.2 1.1-.1 1.6-.7.9-1.2 1.4-.2.3-.7.1-.2.4-.5.4.1.2.2.3-.4.5-.2 1.1-.3.3 0 .8-.4 0-.2.3c-.2.1 0 .3-.5.1s.1.3-.4 0z"/><path d="m170.5 78.0965839c-.2-.4.3-.3.9-.3.672935.1003098 1.360254.0315778 2-.2.4-.3 1.9-.8 2.4-1.4s2.1-2.1 2.7-2.5c.703784-1.6679491 1.2073-3.4134692 1.5-5.2 0-.8-.1-1.6-.1-2.6.00412-.9656664-.200554-1.9208121-.6-2.8-.44068-.8865674-1.440721-1.3449195-2.4-1.1-1.174378.4093547-2.189366 1.1793458-2.9 2.2-.391413.5304362-.726552 1.1001725-1 1.7-.232446.4641391-.33605.9821616-.3 1.5 0 .2.1.3.1.4.094427.1259029.242621.2.4.2.487401.0670862.982884-.0390888 1.4-.3.403741-.2545832.745417-.5962595 1-1l1-1c1.707397-1.4486239 3.160741-3.1723578 4.3-5.1 1.074046-1.6784718 1.915071-3.4950854 2.5-5.4.530984-1.9557904.8-3.9734119.8-6-.040937-1.076195-.174768-2.1468419-.4-3.2-.216035-1.0687932-.697476-2.066064-1.4-2.9-.41891-.6407137-1.060071-1.1037739-1.8-1.3-.641964-.1319527-1.276242-.2988679-1.9-.5-1.845271.2701029-3.615272.916834-5.2 1.9-1.498536.8650878-2.415489 2.4697549-2.4 4.2.636041 1.1537703 1.665108 2.040897 2.9 2.5.735198.3054969 1.509257.5074252 2.3.6.74581.0426105 1.492829-.0592558 2.2-.3 1.81578-.6402033 3.388106-1.8281825 4.5-3.4-.1.1.4 0 .4-.3.342875-.7951428.743965-1.5638972 1.2-2.3.6-1 1.3-2.1 1.7-2.9l.5-1 .5-1.2c.408727-.9046652.743164-1.8410884 1-2.8.743854-2.0751159 1.279817-4.2189666 1.6-6.4.638437-2.4462539.908076-4.974118.8-7.5.141745-2.763913-.162138-5.5326294-.9-8.2-.3-.7-.5-1.4-.7-2l-.8-2c-.3-.90000005-1.7-1.90000005-2-1.50000005h-.2c-.1-.1 0-.3.1-.4s.7-.3.8-.4.1-.1-.2-.2c-.313125-.02308281-.626122.04647195-.9.2l-.5.6v-.3c-.017592-.21376048.103109-.41492942.3-.5-.2 0-.2-.2.2-.5.443231-.18529523.934932-.22041669 1.4-.1.679255.21408024 1.251406.67895292 1.6 1.3.319946.28697507.590256.62486266.8 1 .1.3.3.5.4.80000005.212058.518074.379337 1.053365.5 1.6.939207 2.1630211 1.546062 4.4555844 1.8 6.8.267006 2.4281861.233419 4.8800388-.1 7.3-.080201.5629349-.113649 1.1315444-.1 1.7l-.2 1.4c-.028922.8974509-.232732 1.7806288-.6 2.6-.2 3.4-2 8.8-4.3 13.2-1.136209 1.6990873-2.406955 3.3042408-3.8 4.8-1.158678 1.3556001-2.746886 2.2732313-4.5 2.6-1.506632.6804318-3.201526.8216729-4.8.4-1.782855-.4918471-3.31691-1.6334696-4.3-3.2-.533298-.9419383-.776799-2.020298-.7-3.1.094618-1.1269882.511153-2.2030363 1.2-3.1 1.349155-1.7009899 3.205867-2.9271201 5.3-3.5 1.118627-.2375703 2.25678-.3714706 3.4-.4 1.228285-.0368724 2.441862.27519 3.5.9 1.072587.5997563 1.942751 1.5047268 2.5 2.6.499425 1.0163105.868994 2.0914204 1.1 3.2.283444 2.055056.317022 4.1368718.1 6.2-.272265 2.1041215-.844755 4.1583482-1.7 6.1l-.7 1.4-.8 1.5c-.38589.8583281-1.010788 1.587376-1.8 2.1-.635855 1.23653-1.481775 2.3531445-2.5 3.3-1.070378.8856559-2.207038 1.6880039-3.4 2.4-.291469.3345536-.673488.5776565-1.1.7-.472166.2030778-.991121.2722717-1.5.2-.413327-.099068-.792931-.3061248-1.1-.6-.355777-.2726221-.603718-.6622448-.7-1.1-.202818-.685309-.202818-1.4146911 0-2.1.343123-1.1410652.922317-2.1972425 1.7-3.1.702555-.9977984 1.626714-1.8192736 2.7-2.4.643175-.3621225 1.362598-.5676717 2.1-.6.864327.0070177 1.704327.2870177 2.4.8.59797.5034043 1.047412 1.1602815 1.3 1.9.169617.5575116.303226 1.1253488.4 1.7.050311.7992089.050311 1.600791 0 2.4-.08991 1.4743748-.256804 2.943044-.5 4.4-.255829.7661493-.59098 1.5034828-1 2.2l-1 1.8c-.5.7-.7 1.3-1 1.2l-2 1.4c-.400737.2041528-.85643.2742594-1.3.2-.820958.3625221-1.703202.5661169-2.6.6-.9 0-1.5-.3-1.5-.5z"/></g><path d="m61.7 132.796584c.7.2-3 3.4-4.6 5.1s-3.3 3.5-4.6 5-4.9 5.1-6.2 5.9c-2.5 3.1-5.7 6.1-8.9 9.6-1.5 1.6-2.6 3-4.2 4.9l-.2.2v-.7l2.4 2.6c.8713948.839109 1.8076328 1.608162 2.8 2.3 1.0767525.938256 2.2124031 1.806694 3.4 2.6l3.8 2.8 4.3 2.7c1.4 1 3 1.8 4.5 2.8 6.117954 3.397755 12.4286433 6.436235 18.9 9.1 2.8 1 4.4.9 7.2 1.7 5.379616 1.472447 10.8614529 2.542074 16.4 3.2 4.95129.480176 9.930079.613835 14.9.4l7.3-.6 3.8-.5 1.9-.3 1.9-.3c5.617235-1.076575 11.135985-2.615136 16.5-4.6 2.09131-.643989 4.13054-1.446309 6.1-2.4 1.522487-.789285 3.133939-1.39358 4.8-1.8 8.121878-4.409777 15.705731-9.74532 22.6-15.9.686807-.720878 1.321727-1.489465 1.9-2.3l1.8-2.3v1.5l-3.7-3.2c-7-6.4-12.1-12.4-20.5-20.5.2.2-.1-.7-.6-.9-1.674474-1.20121-3.24652-2.539122-4.7-4h2.2l-6.9 5.6c-3.583246 2.844292-7.396328 5.386346-11.4 7.6-5.105861 2.742158-10.553569 4.793455-16.2 6.1-6.617449 1.062437-13.353662 1.16348-20 .3-7.0742515-1.269556-13.9174102-3.595556-20.3-6.9-3.2275744-1.741704-6.30483-3.74861-9.2-6l-4-3.4-1.7-1.8c-.4880483-.522652-.9234798-1.092062-1.3-1.7-.6-1.4 1.9 1.3 2.5 1.3s.2-.2-.2-.5c-.4186699-.482311-.8880402-.918155-1.4-1.3l-1-.9c-.1-.1.2 0 1.1.7s.1-.4.7 0l.9.7.9.8 2.8 2.7c2.9 2.1 4.7 3.6 6.8 5 4.7899065 2.840569 9.8899267 5.122157 15.2 6.8 2.7952121.819391 5.632688 1.487033 8.5 2 2.845382.460019 5.718589.727294 8.6.8l4.1-.2 3.3-.5 6.4-1.1c4.772581-1.699318 9.389693-3.80713 13.8-6.3 2.500554-1.516993 4.905123-3.186832 7.2-5l1.8-1.4 1.7-1.5 3.3-2.9c.670994-.450356 1.306215-.951846 1.9-1.5l1.2-.9 1 1c7.1 7.5 11.1 10.6 16.3 16.8 4.4 3.8 8.6 7.7 13.1 12l1.4 1.3-1.3 1.6c-6.266285 6.915721-13.509463 12.878709-21.5 17.7-4.216877 2.369363-8.594211 4.441078-13.1 6.2-4.420062 1.796098-8.965508 3.266683-13.6 4.4-9.440259 2.408152-19.158607 3.551487-28.9 3.4l-7.7-.5c-2.1373791-.104994-4.2535071-.474477-6.3-1.1l-4.6-.6-2.5-.5-2.6-.6c-1.7-.4-3.4-1-5-1.5s-3-1.1-4.2-1.6-2.8-.8-5.3-1.5c-4.9060674-2.15002-9.6810283-4.587587-14.3-7.3l-3.4-2-3.4-2.2-3.4-2.3-3.6-2.5-4.6-3.9c-1.1573526-1.080398-2.2273616-2.250721-3.2-3.5l-1.1-1.2 1.2-1.2c3.2-3.2 5.4-5.5 8.6-9.2s4.7-4 7.2-7c1.4-1.3 2-2.4 2.5-2.3 3.5-3.2 4.4-4.5 5.7-5 2.4-2.2 6.1-6.1 6.3-5.6z" fill="#2e316a"/><path d="m63 133.896584c-.3.3-.7-.3-1.4-1.2-.5609547-.76443-1.1617871-1.498781-1.8-2.2-.7-.2-1.9-1.9-2.7-2.7s-2.5-3.4-2.7-4.3-2.8-4.1-4.2-6.5l-2.1-3.3c-.6782251-1.330972-1.2792205-2.699906-1.8-4.1-.6666667-1.466667-1.3666667-3.166667-2.1-5.1-.550024-1.901016-1.3575093-3.717858-2.4-5.4000001-.9589089-1.7635408-2.2491708-3.3254369-3.8-4.6-1.3880318-1.2805116-3.0207839-2.266966-4.8-2.9l-1.1-.2h-3.1c-5.2-.6-9.6-.7-13.9-.8h-13.3l1-1.1c.06666667 1.5333333.16666667 3.2333333.3 5.1.2 1.8.4 3.9.7 6.0000001.3 2.1.9 4.9.6 7 1.2 5.6 2.5 11.1 3.8 16.1.5 1 1.1 1.8 1.6 2.7l1.6 2.9c.6 1.3 1.2 2.5 1.7 3.7s1.2 2.4 1.7 3.6 1.3 2.5 2 3.8l1.1 2 1.4 2c-.1-.1-.2.5.1.7.4505683.307365.8546886.677809 1.2 1.1l1.4 1.9 1.5 2.1 1.5 1.8 1.6 1.9c.6.7 1.4 1.4 2.1 2.3s3.4 3.3 5.4 5.2h-3l3-3.2c2.5-2.2 5.2-4.8 8.1-7.7s6-5.4 9.2-8.2 6.3-5.8 9.7-8.5c1.1-.4-.7 1.2-.4 1.4s2.7-2.6 1.3-.9c1.3-.4-1.9 2.5-2.4 2.8s-2.7 2.6-3.9 3.7c-4.2 4.6-10 9.9-15.1 14.5-2.7 2.6-3.4 4.1-5.9 5.9l-1.7 2.1-.3.4-.5-.4c-4.4097734-3.744819-8.4913032-7.859804-12.2-12.3-3.9-6.2-6.1-8.5-7.8-13.6-4.5-6.8-7.5-14.2-9.9-25.4-1.3001681-7.334972-2.06883468-14.7542756-2.3-22.2000001v-1.9h13.7c2.4.3 7-.2 8.4.6 1.9317489-.162637 3.8750057-.1291325 5.8.1l3.1.4 1.5.3 1.2.5c1.7-.1 1.8.3 3.4.8 2.9070517 1.7779107 5.2885562 4.2974735 6.9 7.3.8190039 1.4068467 1.5213539 2.8784371 2.1 4.4000001l.9 2.4c.2.7.6 1.5.9 2.3 1.2 3.2 2 5.2 2.8 6.9.8006768 1.726043 1.7721906 3.367566 2.9 4.9 1.3 2.3 1.3 3.3 2.9 4.8s1.2 1.1 1 1.5c1.4 2.4 2.3 2.7 2.3 3.8l1 1.2c.3105485.508152.679748.978043 1.1 1.4.4576797.483695.7996023 1.064963 1 1.7.2.4.2.7.1.7z" fill="#2e316a"/><path d="m181 163.896584c-.2-.2.3-.7 1-1.3s1.6-1.4 2.1-2 .7-1 1.1-1.6c.468813-.5035.903132-1.038046 1.3-1.6l1.9-2.2c.451359-.576935.953354-1.112396 1.5-1.6.5-1 1.3-2 2-3.1s1.5-2.1 2.2-3.3 1-2.2 1.7-3.4l2-4c1.4-2.8 2.9-6.6 4.4-10.5s2.9-8.1 4.1-11.7c.5-1.7.3-2.7.7-4.4 1.967689-7.387296 3.141006-14.9635701 3.5-22.6000001l1 1-14.9.3c-3.2-.3-4.9.2-7-.6-2.772714-.0687794-5.54675.0649091-8.3.4-1.298324.1456744-2.574258.4478695-3.8.9-1.178663.4311545-2.316507.9666106-3.4 1.6-1.23751 1.6043838-2.216039 3.3927309-2.9 5.3-.5 1.2000001-.8 2.4000001-1.2 3.6000001s-.8 2.6-1.3 3.8-2.1 5.3-3.5 8.6c.1-.2-.5.1-.5.4s-2.4 5.8-3.8 8.2c-2.221623 3.825697-4.693678 7.500373-7.4 11v-2.9l3.4 3.1c2.2 2.5 4.7 5.2 7.6 8s5.3 6 8.1 9.1 5.7 6.3 8.4 9.6c.4 1.2-1.2-.7-1.4-.4s2.6 2.7.9 1.4c.5 1.3-2.4-1.9-2.7-2.5-1.310884-1.188773-2.546601-2.457887-3.7-3.8-4.5-4.1-9.7-9.9-14.4-14.9-2.6-2.7-4-3.4-5.8-5.8-.818769-.56748-1.588168-1.20307-2.3-1.9l-.4-.3.3-.5c3.262022-4.463169 6.107302-9.21646 8.5-14.2 1.443285-2.305605 2.649436-4.75141 3.6-7.3.9-2 1.6-3.9 2.8-6.2.118079-.94136.28497-1.875953.5-2.8.172473-1.055379.440235-2.092955.8-3.1000001.723418-2.1851545 1.841969-4.2188831 3.3-6 .875035-.9340671 1.8472-1.7721405 2.9-2.5 1.175061-.6857448 2.414274-1.2551129 3.7-1.7 2.708248-.8813591 5.556131-1.2542962 8.4-1.1 8.7.6 16.8.3 25.6.4h2v1.9c-.2 2.5-.4 5.3-.7 8-.199986.6856449-.333929 1.3888471-.4 2.1000001-.084503.807376-.218083 1.608859-.4 2.4-.054141 1.292336-.395763 2.556339-1 3.7 0 3.2-1.6 8.3-2.7 11.2s-.2 1.7-.4 3.2c-2.3 6.4-4.2 11.4-6.9 18-.8 1.5-1.5 2.8-2.2 3.9s-1.2 1.9-1.7 2.8l-1.4 2.4-1.6 2.7c-.595851.856451-1.265038 1.659475-2 2.4-.595588.685972-1.130905 1.422033-1.6 2.2-.7.8-.7 1.5-1.2 1.5-2 2-2.2 2.8-3.4 3.1l-3 2.7c-1.2.8-1.9 1.2-2 .9z" fill="#2e316a"/></g></svg>