<svg height="216" viewBox="0 0 216 216" width="216" xmlns="http://www.w3.org/2000/svg"><g fill="none" fill-rule="evenodd"><g transform="translate(21 3)"><path d="m89.4322353 1c-41.4914039-.21825726-75.8745597 33.4477951-76.4236519 74.879869-.2759397 18.3013251 6.1095139 36.080639 17.9702905 50.03551 11.5625069 13.421017 19.6706783 29.456757 23.6209484 46.71576l.079868.368861h68.6564927v-.149538c3.635985-17.009923 11.501754-32.832104 22.872187-46.007946 19.576789-22.35263 24.298393-54.0538686 12.08327-81.1280753-12.215123-27.0742068-39.122312-44.54620249-68.8594047-44.7144407z" fill="#ebecf2" fill-rule="nonzero"/><path d="m88.5 123c23.472102 0 42.5-19.027898 42.5-42.5 0-23.4721019-19.027898-42.5-42.5-42.5-23.4721019 0-42.5 19.0278981-42.5 42.5 0 23.472102 19.0278981 42.5 42.5 42.5z" fill="#ffcd00" fill-rule="nonzero"/><g fill="#2f326a"><path d="m31.262905 124.893021c.0899181.796614-.8592172-.238984-2.0781068-1.742591-1.2188895-1.503608-2.5676608-3.594718-3.426878-4.789638-.9035044-.94399-1.6885499-1.993923-2.3378701-3.126707-.4595813-.687079-.8692081-1.45382-1.2888259-2.140899-.4196177-.687079-.8092627-1.354242-1.1389623-1.891956-1.8982707-3.664422-3.9963592-8.523763-4.216159-10.644746-1.0829418-2.5022797-1.9194447-5.1034879-2.4977245-7.7669801-.6094448-2.837935-1.1189806-5.855108-1.4886438-8.9619-.2197998-1.433904-.3197087-2.778189-.4995449-4.1623047s-.2497724-2.8279773-.2797451-4.4709924c-.0299727-1.643015 0-3.28603.1498634-4.9788333.0699363-.8264863.1098999-1.672888.199818-2.5292473.0899181-.8563594.199818-1.7425917.2997269-2.658697.4992124-4.0712647 1.3346214-8.0945343 2.4977245-12.0288614 1.3705322-4.5548183 3.1876482-8.964095 5.4250577-13.1640353 2.3426614-4.3626239 5.1388156-8.4678098 8.3423998-12.2479301 3.0461649-3.6114774 6.472713-6.8864168 10.2206887-9.768471 3.1870964-2.6487393 4.5358676-4.1423893 7.9927184-6.422695 6.6193188-4.03597457 13.8098861-7.05704496 21.3305672-8.96189999.8592172-.238984 1.7184345-.43813734 2.5776517-.60741767l2.5576699-.537714c1.7184344-.25889934 3.3969053-.59746 5.095358-.746825 3.3421234-.39168522 6.7058441-.57128517 10.0708252-.537714 3.3757775.05052836 6.745456.30324495 10.0908069.75678267 1.6984531.18919566 3.3869141.54767166 5.1153401.85635933.859217.16928033 1.708443.388349 2.577651.58750233.869209.19915334 1.738417.39830667 2.597634.66716367 3.617207.98421533 7.156875 2.23229121 10.590352 3.73412501 3.777742 1.6253669 7.413592 3.56047935 10.870097 5.78540435 1.538598.9957667 2.807442 2.0711947 3.996359 2.9175963 1.188917.8464017 2.237961 1.7226764 3.217069 2.509332.979108.7866557 1.838325 1.583269 2.657579 2.38984.802302.836156 1.55617 1.7171766 2.257943 2.6387817 4.664848 4.5024366 8.691668 9.6180471 11.969096 15.205357 3.086562 5.3024811 5.43911 10.9968092 6.993628 16.9280334 1.836427 4.5202637 3.104908 9.2495373 3.77656 14.0801407.781515 6.1966386.680609 12.4722542-.299727 18.640752-1.125322 6.8807761-3.060247 13.6054188-5.764748 20.0348258.189827-.42818-.66939.537714-.829245 1.224793-.926769 2.893558-2.226452 5.654985-3.866477 8.215075-2.002583 3.271835-4.246744 6.390562-6.713884 9.330333l-2.287915 2.887724c-.849227.995766-1.678471 2.140898-2.597634 3.315903-1.758398 2.399797-3.616705 5.128198-5.395085 8.115498-3.703099 6.31638-6.717524 13.009511-8.991808 19.965122-1.568901 4.083392-2.844296 8.272872-3.816523 12.536702l-.379654 1.672888h-1.698453c-3.996359 0-8.202527 0-12.56855 0-17.783798-.617375-38.5748567-.338561-56.1388554-1.423946h-.5994539l-.0799272-.507841v-.169281c.1298817-.388349.289736-.288772.4595813.079662l.1098999.229026h.1298817c.9990898-.238984 3.7365958-.189196 4.1562135-.517799.88919-.288772-2.9173422-.258899-4.1562135-.29873l.5594902.448095c-.0799271-.438137-.0799271-.547671.0799272 0l-.6893719-.567587 1.268844-.089619c-1.3287894-.876274 7.6230552-.438137 8.6621086-.238984 4.995449-.109534 8.0926274.089619 11.5494781.238984 13.9872572-.238984 30.9717834.229027 46.1979124.477968h.99909l-.259764.209111c.899181-3.813786 1.558581-6.552144 2.287916-9.091349.74835-2.690282 1.717402-5.314673 2.89736-7.846642 2.213504-6.555523 5.173467-12.836636 8.821963-18.720413 2.124268-3.458927 4.459883-6.784422 6.993629-9.957667 1.298817-1.643015 2.547679-3.126707 3.706623-4.729891 1.158944-1.603185 2.247952-3.216327 3.267024-4.829469 3.550078-5.077089 6.340119-10.641965 8.282454-16.519769 1.639447-4.8527985 2.951186-9.8095162 3.926423-14.8369231.630609-8.9297329-.158409-17.9026938-2.33787-26.5869701-1.21087-4.8317545-2.883671-9.5366956-4.995449-14.0502677-2.42177-5.1770399-5.439301-10.0558648-8.991808-14.5381933-3.763795-4.9175925-8.157132-9.323098-13.068095-13.1042894-4.866789-3.722283-10.179487-6.8263796-15.815591-9.24071465-5.699437-2.39864965-11.671643-4.09406379-17.7837987-5.04853701-6.298368-.95218112-12.689665-1.13609299-19.0326607-.54767167-3.3708115.20738681-6.715263.72405254-9.990898 1.54343834-3.4668416.84640167-6.6039836 1.81229534-8.1226001 1.99153334-3.1771056 1.41398867-7.4232372 3.35573365-11.5095145 5.61612405-3.738718 2.0552849-7.3186961 4.3851817-10.7102427 6.9703666-1.0890079 1.2745814-1.7883707 1.911872-2.4577609 2.5889934-.8753231.797738-1.696392 1.6526683-2.4577609 2.5591203-5.0765164 4.8759308-9.3606073 10.5097026-12.6984314 16.699007-1.6217783 3.0522784-3.0207957 6.2170522-4.1861862 9.469741-1.2002922 3.4992929-2.1321269 7.0844107-2.7874606 10.7244071-1.1082451 5.4558764-1.6340304 11.013333-1.568571 16.579515.0403047 4.2692148.5937494 8.5182356 1.6484982 12.6561943.1398726.716952.2597633 1.3841157.3796541 1.9915334.1198908.6074176.2497725 1.1750046.3696632 1.702761.2197998 1.0555126.4096269 1.9915333.6494084 2.867808.4619023 1.9156705 1.1319183 3.7754591 1.9981796 5.5464201.3289295.864875.7092571 1.709453 1.1389624 2.529248.2938014.386787.4517846.85916.4495904 1.344285.4636652 1.184054.9871926 2.343948 1.568571 3.475225.4495904.995767.8692081 1.672888 1.2188895 2.300221.3064082.535531.5832354 1.087344.8292446 1.652973.2294461.476636.4037423.977742.5195267 1.49365.2797451.458053.5694812.995767.879199 1.443862l.9990898 1.503607c.6793811.995767 1.4386893 1.991534 2.1080795 2.917597 1.4286984 1.742591 2.5177063 3.086876 2.3178883 3.505098z"/><path d="m54 173v19c0 9.388841 7.6111593 17 17 17h35c4.50868 0 8.832697-1.791066 12.020815-4.979185 3.188119-3.188118 4.979185-7.512135 4.979185-12.020815v-19z" fill-rule="nonzero"/><path d="m54.6785565 174.456069c-1.1837815-.614017 2.1267939-.217877 3.2604152-.316912.3310576-.287202 2.3775951-.178263 3.2905114-.336719 1.6746302-.084709 3.3535971-.018411 5.0160234.19807 1.7857043-.39614 4.4642608-.19807 6.9421764-.376333 1.1637174-.079228 2.0666016-.287202 3.3807998-.406044 1.3141981-.118842 2.6584924-.099035 4.1332032-.217877 5.7985231-.465465 15.3991919-1.198324 23.0135151-.524886 1.725512 0 2.467884-.435754 4.203428-.475368 5.838651.227781 10.603873.415947 14.94775.514982h1.133621v1.059675c-.080256 3.377095-.110353 6.605638-.10032 10.03225 0 1.713306 0 3.47613.05016 5.337989 0 .930929 0 1.881666.05016 2.862113v1.544946c0 .546834-.040741 1.092927-.120385 1.634079-.090288.39614-.180576.762569-.260833 1.109192l-.280897.99035c-.143179.573278-.317317 1.138585-.521667 1.6935-.15847.493555-.384617.963379-.672147 1.396394-.257376.439593-.597958.826244-1.003204 1.138903-1.334272 2.446102-3.304582 4.497135-5.708235 5.942102-2.272448 1.379316-4.868148 2.153848-7.534067 2.248096-1.984905.557342-4.021681.915681-6.079421 1.069578-5.3470805.445658-9.741117-.257491-16.3020756 0 .1906089 0-.3109934-.376333-.6019228-.237684-1.3342622.653631-5.8085551.406044-8.4570155.475368l-3.3406716.108939-2.0064093.079228c-.7122753 0-1.5549673 0-2.3775951 0-1.7284175-.1329-3.4316907-.489167-5.0661837-1.059675-1.6932141-.600369-3.2936105-1.430311-4.7551901-2.465973-1.4576113-1.280579-2.745249-2.738063-3.8322419-4.337734-1.1747562-1.770331-2.0774037-3.702677-2.6785565-5.734129-.2003178-1.033797-.3343448-2.079044-.4012819-3.129508 0-1.069578 0-2.139157 0-3.169121.0902884-2.079736.1805768-4.199086.2708653-6.308532.2106729-4.199086.5718266-8.299137 1.0032046-11.606907.5517626 0 .3410896 1.901472.6922113 2.446165.3410896.841798.0601923-3.268156.3410896-.851701.6219869.079228.431378 3.317674.2608332 3.634586.0986787 1.502765.055017 3.011343-.1304166 4.506094.1504807 2.85221.1304166 5.882682 0 9.051803-.2070647 3.166454.5101577 6.325104 2.0666016 9.101321.3835317.655731.8267731 1.275611 1.3242302 1.851955.4715062.465465.8828201.891315 1.3141981 1.257745l2.7487809 2.257999c2.5112758 1.158891 5.2536329 1.747711 8.0256374 1.72321.7524035 0 1.6051275-.069325 2.4478194-.118842l2.5481399-.158456 5.0160234-.346623c6.7415355.435754 9.6006688-.316912 14.4862756.475368 3.80634-.500841 7.6376551-.795087 11.4766611-.881412 1.878311-.066042 3.729701-.461757 5.467466-1.168613 1.995979-.801866 3.787665-2.029492 5.24676-3.594972 1.681571-1.604051 2.92111-3.604849 3.601505-5.813357.172704-.544733.306789-1.100673.401282-1.663789l.140449-.841798c0-.287202 0-.574403.060192-.851701s0-.554596.05016-.871509v-2.901726c0-5.159726 0-10.359066.160513-15.845607l1.725512 1.703402h-.090288c-2.227115-.376333-6.47067.059421-7.764805-.713052-2.859133.514982-7.835028 0-10.794482-.247587-1.27407.514982-1.554967.19807-2.869165.455561-5.8826215-.309812-11.7802711-.197276-17.6463706.336719-6.2599972.099035-8.346663-.207974-12.1789049.267394-2.4578514 0-3.5714086-.39614-5.3270168-.079228-1.0032047 0-1.27407.287202-1.7756723 0-2.7186847-.19807-3.1400307.099035-4.4742929-.415947-1.8960568-.108938-4.4843249.108939-5.14644-.435754z"/><path d="m94.76489 174.882645c-.6616936.93748-.2105389-3.989276-.3007698-5.983914-.2907442-.997319-.1503849-4.268526-.3007699-5.983915-.0576164-2.662246.0293995-5.325646.2606672-7.978553-.3508981-3.510563-.1203079-7.709276-.2406158-12.037641 0-1.994638-.2205646-3.739947-.3007699-5.983915s0-4.477963-.1102823-6.981233c-.1403592-4.986596-.3007698-11.49909-.3408725-18.25094-.0401026-6.75185 0-13.7630036.4712061-19.8665965.1002566-2.8623058-.1203079-4.228633.150385-7.100912.5828538-5.3927265 2.1670113-10.630961 4.6719583-15.4484728 1.1386182-2.3033382 2.9345376-4.2216791 5.1632156-5.5151746 1.18558-.6477707 2.553592-.8862706 3.889957-.678177.685328.1139424 1.338231.3723768 1.914901.7579625.529772.3973698.993294.8752945 1.373516 1.4161931.725912.9385628 1.260594 2.0091054 1.574029 3.1515284.29291 1.2003002.40775 2.4367667.340872 3.6701342-.156595 2.5066391-.718564 4.9717491-1.664259 7.3003759-1.923572 5.2436662-5.424176 9.7706352-10.025662 12.9651483-1.8585834 1.1093461-3.8490015 1.9837627-5.9251663 2.6030028-1.6235067.4872813-3.3349057.613262-5.0128308.3690081-4.5688235.1722115-9.1302839-.4972686-13.4544381-1.9746918-4.1343089-1.3763451-7.8472692-3.7791978-10.7876121-6.9812337-2.6940956-2.2413056-4.7652265-5.1325811-6.0153971-8.3974269-.8051193-2.1540658-1.1731317-4.4454952-1.0827714-6.7418771.0397424-1.2405612.3839335-2.4526209 1.0025661-3.5305096.7554692-1.2064307 2.0126961-2.0145973 3.4287764-2.2040752 2.6084129-.1826741 5.160669.8138344 6.9477836 2.7127079 1.946893 1.8584724 3.4774316 4.1048813 4.4914964 6.5922793-.1303336-.3091689-.0701796.6083647.2105389.9973191.9784764 1.8826915 1.6710862 3.8992327 2.0552607 5.9839146.3107955 1.3264344.5514114 2.7326543.7820016 4.0690619s.4712061 2.6229493.6215911 3.7200003c1.0025661 6.1933516 2.4262101 17.6026818 3.288417 28.0047208.1503849 5.415442.4110521 11.489116.681745 18.081395-.0501283 12.416623.3709495 26.927616-.8321299 39.174694-.6015397.857694-.3107955-2.612976-.6416424-2.991957-.3107955-.997319-.2606672 5.724611-.4110521 1.994638-.681745.897587-.2005132-5.285791-.060154-5.983915 0-3.440751.1102823-5.604933.2205646-7.978552-.2005132-9.733835-.090231-21.462307-.4110521-32.06381-.090231-2.991957-.2706929-4.986595-.4411292-6.981233-.1704362-1.994638-.2706928-3.690081-.3007698-6.053727-1.0025662-7.599572-2.1855943-20.1059532-4.5917531-30.6376429-.8922839-5.4553355-2.1956199-9.1653626-4.1305727-11.9179633-.9082034-1.3281898-2.0452202-2.4862665-3.3585966-3.4208045-1.228396-.965122-2.8024983-1.3836479-4.3511373-1.1568901-1.0852524.6061674-1.7506239 1.7539521-1.7344394 2.9919573-.0799428.6925234-.0799428 1.3918734 0 2.0843969.062697.7239039.1698374 1.4433164.3208211 2.1542092.6641064 2.95477 1.9827889 5.7248426 3.8598798 8.1082043 2.0655388 2.6436007 4.6732037 4.8194475 7.6495799 6.3828423 3.4864277 1.8166151 7.2791184 2.9795697 11.1886386 3.4307777 2.1305383.3128796 4.283118.4529656 6.4364748.418874 2.033695-.0463448 4.0417475-.4620772 5.9251662-1.2267025 3.8108836-1.6181444 7.0748016-4.2903806 9.4040706-7.6993035 1.190736-1.7151068 2.182884-3.5585386 2.95757-5.4952282.808158-1.9099976 1.338177-3.9249474 1.574029-5.9839146.278041-1.9569542-.054407-3.9516494-.952438-5.7146384-.120308-.1994639-.23059-.4188741-.360923-.6083647l-.451155-.5485255-.220565-.2692762c-.058676-.061655-.12239-.118364-.190487-.1695442-.144171-.1158011-.302498-.2129811-.471206-.2892225-.772365-.3290578-1.639304-.3645476-2.436236-.099732-.9194.2278784-1.767109.6803661-2.466313 1.3164613-.866492.7854131-1.612938 1.6925874-2.215671 2.6927615-1.2231311 2.0644506-2.0953637 4.1787671-2.7269804 4.9865955-.7886281 2.8512799-1.4310989 5.740582-1.924927 8.6567298-.5213344 3.2113675-.8622069 6.4626278-1.0627202 8.87614.3107956 2.3337267.0701797 2.6728152.2205646 4.9865955-.3508982 10.6114748-.3107955 19.0089018 0 30.0891168 0 10.761074-.2606672 13.962468.1503849 21.06338 0 4.208686-.3809751 5.59496-.0902309 9.025738-.060154 1.705415.2807185 2.603003 0 2.991957-.2005133 4.358284.1002566 5.555067-.4311035 6.981234-.0401026 3.141555.1704363 7.918713-.4010265 8.12815z"/></g><g fill="#c7c7d4"><path d="m12.7807807 29.7679118c-.4506913.4821421-.2970465.0602677-.4404483.080357-.2458316.1808033-.2663176 0-.4302053.080357-.0717009-.1004463-.2560746-.1205355-.1024298-.3515619-.3789904.1707586-.3687474-.080357-.604336-.080357-.2355887 0-.2970466.080357-.4302053.0904016-.1331588.0100446-.1843737-.0703124-.3277755-.0703124-.56336409 0-1.39304573-.0703124-1.36231678-.7935255-.10242983-.0602677-.35850441.1205355-.46093425.0703124-.18070648-.8253164-.74029315-1.5223775-1.51596152-1.8883898 0-.3113834-.37899038 0-.08194386-.5624991-.3924371-.0903522-.66622176-.4385408-.65555093-.833704-.2491545.1331878-.51915121.2248384-.79895269.2712049-.50190618 0-.35850442-.5725437-.81943866-.7131684 0 0 .17413071-.2310265.09218685-.1607141-.39947635.3214281-.50190618 0-.66579392-.0904016-.39669362-.1370921-.80443311-.241253-1.218915-.3113834-.04473803-.2511343-.20286795-.4689675-.4302053-.592633-.07170088-.67299-.65555093-.8738825-.50190618-1.828122.34826143-.4720975.32777547-.2209818.56336408-.4821421.23558862-.2611603-.11267281-.2310264.17413072-.3314727.39947634-.5424098.37899038-.1205355.30728949 0 .16388774 0 .13315879.2008925.13315879.3415173.43020529.1104909.56336408.6830346.76822374 1.1049089.1229158.2209818.46093425 0 .40971933.3415173.56000005-.0853811 1.13009219-.0853811 1.69009224 0 .12291579.5424099.65555092.2410711.50190617.9140611.9218685-.2511157 1.25988694.1004462 1.78227909.6026776.29704651.7533469.95259744 1.0546857 1.35207379 1.7276757-.09218685.3113834.3585044.2712049 0 .753347.4199623-.1506694.3994763.3515619.4097193.6328115.3482615-.2209818.1946167 0 .3994764-.1205355.1434017.4620528.4711772.6127222 1.1369711.5926329.4199623.2008926.3175325.4821421.8808966.3415173.1434017.1004463-.0717009.3917405.2663175.2611603 0 .080357.2970466-.1406247.0921869.0904017 0 .241071.2765605 0-.0614579.4620528.020486.0904016.3482614.0502231-.0512149.4520082z"/><path d="m20.5409253 17.7012919c-.5124555.4105208-.2562278.1026302-.3736655.1399503s-.2135231.0559801-.3736655.1306202c-.1601423.0746402-.1708185 0 0-.2145904-.3629893.1772704-.2669039 0-.4483986.0466501-.1814946.0466501-.2669039.1026302-.3736655.1212902-.1067615.0186601-.1281138 0-.2455516 0-.4483985.0746402-1.0676156.1212903-.8007117-.3638706-.0640569 0-.341637.1212902-.3950178.0933002.1067616-.6064512.0960854-.8863517-.4163701-1.1289321.1601424-.1959304-.2775801 0 .1921708-.3545407-.2669039-.04665-.3202847-.2239204-.1281139-.4944909-.2483423.0847714-.5058903.147292-.7686832.1866004-.4163701 0 0-.3545407-.2882563-.4385108 0 0 .266904-.1399503.1601424-.1026302-.4911032.1866003-.3843416 0-.4804271-.0653101-.2592869-.0989171-.5270015-.1800228-.8007117-.2425805.1073901-.1137627.1073901-.278098 0-.3918607.3309609-.4011907 0-.569131.683274-1.100942.2349849-.0934914.4776575-.17146.7259787-.2332504.3309608-.1119602 0-.1306203.3309608-.1679403.6405694-.2705705.3629893 0 .2241993 0 .1067616 0 0 .1119602-.1067616.1959303.2562278.0839702 0 .4105208-.0640569.6531012-.0640569.2425805.3629893 0 .1174377.2052604.4369233-.0326888.876244-.0326888 1.3131673 0-.202847.3172206.3736655.1212902-.0960854.5224809.8434163-.1866003.9181494 0 1.0676156.2612405-.13879.4385108.2241993.559801.2455516.9330017-.2135231.2052604.1601424.1306203-.3202847.4758309.405694-.1492803.1708185.1772703.0533808.3545406.3736655-.1866003.1708185-.04665.3736655-.1306202-.0747331.2799005.1281139.3358806.6619217.2052604.2455516.0653101.064057.2612405.5551602.0653101.0747331 0-.202847.2705705.1067615.1212902 0 .0466501.2882562-.1492803 0 0-.0747331.1492803.1921708 0-.2135231.3078906.0640569.1492803.3309608.0653101-.1174377.4105207z"/><path d="m3.97613166 38.8887127c-.07777274.5966682-.07777274.2203083-.11665912.3212829-.04860796.2662058-.07777274.1744107-.11665912.3212828 0 0-.08749434.0826156-.06805115-.1744107-.08749434.3396419-.11665912.1652312-.18471027.3121034-.06805116.1468721-.07777275.2294877-.11665912.3212828-.03888638.0917951-.05832956.0734361-.10693753.1560517-.16526709.3304623-.41802851.7802583-.49580126.2753853 0 0-.08749434.2937443-.12638071.3121033-.21387505-.449796-.34025577-.6242067-.65134675-.4130779 0-.2294878-.11665912.1835902-.07777275-.3488214-.12638071.1560517-.22359664.0917951-.2819262-.2019492-.0574577.2180772-.12888071.4326603-.21387506.6425657-.1458239.2937443-.16526708-.2019493-.31109098 0v-.1652312c-.08749434.449796-.1555455.2662058-.21387506.3029238-.14896469.1365247-.28254029.2872622-.39858532.449796 0-.1652312-.10693753-.2203082-.18471027-.1927697-.08749434-.4406165-.28192621-.2753853-.31109099-1.0464641.06805115-.5232321.07777275-.3304624.12638071-.6517452.04860797-.3212829-.04860796-.1101542 0-.3304624.07777275-.6058477.10693753-.2937443.09721594-.1560517.04860796-.0642565.05832956.0734361.06805115.1744107.13610231-.1468721.22359665.1927697.33053417.3763599.10693753.1835902.13610231-.2570263.15554549 0 .14171421-.3184889.31078576-.6254965.50552286-.917951.08749434.3121034.21387505-.1927697.23331824.3580009.25276142-.6976427.37914213-.6333862.58329559-.5874886.16526709.3580009.38886374.1835902.57357401.4038984 0 .2662058.13610231 0 .07777275.5140526.10693752-.3488214.15554549 0 .18471027.1927697.07777274-.3580009.04860796-.1376927.10693752-.3212829.09721594.2294878.20415346.1376927.39858533-.2845648.1458239-.1101541.1458239.1285132.2916478-.2937443.04860797 0 0 .3029238.10693753 0 0 0 .06805115-.2753853 0 0-.06805116.2753853.08749434-.1376926 0 .3396419.11665912.0734361.20415346-.2019492.1361023.3121033z"/><path d="m33.1469639 13.9547852c-.675858.1017333-.264007 0-.3907304 0-.1259775.018732-.2541926.018732-.3801701 0 0 0-.1161631 0 .1795247-.1017332-.4012907 0-.2217659 0-.3907304-.0610399h-.3801701c-.1056028 0-.0950425 0-.2006454 0-.4118509 0-.9715459-.1220799-.4329715-.3153731 0 0-.3484893 0-.3801701 0 .4540921-.284853.601936-.4374529.2956878-.6205727.2428865-.0813866-.2323262 0 .3590496-.1525998-.2006453-.06104-.1584042-.1525999.147844-.2746798-.3273688 0-.6124964 0-.7709006 0-.3696099 0 .1795248-.1831198 0-.254333h.1900851c-.5280141.0508666-.3273688-.0508667-.3907304-.0813866-.1948073-.0802147-.3961308-.1448635-.6019361-.1932932.1689645-.0712132.2217659-.1424265.1584042-.1932931.4752127-.1831198.2323262-.2950264 1.0560282-.5188395.2516617-.0389557.5056023-.0627397.7603403-.0712133.3484893 0 .1056028-.0712132.3696098-.0712132.6969786-.1017333.3484893 0 .2006454 0 .0844822 0-.0633617.0610399-.1795248.1017332.2006453.0712133-.147844.2238131-.3273687.3560663-.1795248.1322532.3273687 0 0 .1220799.3936496.0216166.785298.0692036 1.1721912.1424265-.3273687.1525999.2745673.1220799-.337929.2746798.8342622 0 .8131417.1322532.8131417.3051997-.3590496.2238131-.1056028.3458929-.3062482.5595327-.2006453.2136398.0633617.1017333-.5491346.2034665.4224112 0 0 .1220799-.1689645.1932931.1260024-.0184161.2541677-.0184161.3801701 0-.2323262.1322532-.0950425.1932932.411851.2339865.1689645.0813866-.1056028.1525998.4012907.1525998 0 0-.337929.1017333 0 .0813866 0 0 .3273687 0 0 0-.1584042.06104.1689645 0-.3696099.1220799-.0211205-.0813866.2428865-.0712133-.337929.0610399z"/><path d="m159.823074 9.35253688c.398083.49396264 0 .27547917 0 .40846911v.40846911c0 .1709871-.153109.2089842-.367462 0 .11228.370472-.132694.3134763-.173523.5319598-.040829.2184834 0 .2754791 0 .4084691 0 .1329899-.091866.1614877-.11228.2849784-.091866.5034619-.265389 1.2254073-.969691 1.0734188-.07145.0854935.071451.3419741 0 .4274677-.826805.0128065-1.592377.408228-2.041453 1.0544202-.306218-.0569957-.091866.3324749-.5614 0-.132776.3380239-.507356.5383683-.888032.4749641.108896.2384141.174436.4920205.193938.7504432 0 .4464663-.592022.2374821-.765545.6364519 0 0-.214353-.1899856-.153109-.1044921.275596.3989698-.061244.4464662-.142902.5889555-.168607.3378646-.298612.6912771-.387876 1.0544202-.249873.0037514-.480574.1254144-.612436.3229756-.67368 0-.89824.4939626-1.827101.2659799-.44912-.3609727-.204146-.3134763-.44912-.5509584-.244975-.237482-.234767.0759943-.316425-.1804863-.510364-.4084691-.091866-.3514734 0-.2754792 0-.1424892.204145-.1044921.347047-.0949928.132694-.3799713.714508-.4464662 1.143214-.5889554.22456-.0949929 0-.4179684.367461-.3324749-.035998-.5130881.008706-1.0283185.132695-1.5293843.551192 0 .306218-.5699569.949276-.3419742-.163316-.8644346.234767-1.1304145.785959-1.5388836.78596-.1614877 1.163629-.7124461 1.878138-.9499281.296011.1329899.316425-.2849785.74513.1139914-.091865-.4084691.408291-.303977.67368-.2564806-.173524-.3514734 0-.1804864-.061244-.3894706.479742-.0569957.67368-.3229755.755338-.9499281.265389-.34197416.520571-.19948493.479742-.7314447.122487-.1044921.367461.14248922.296011-.18998563.081658 0-.091866-.29447773.102072-.06649497.234767 0 .091866-.23748204.438913.14248922.204145-.01899856.22456-.31347629.540985.12349066z"/><path d="m166.802561 23.4304508c.374079.4925452.067142.2462726.086326.3599369.019183.1136642 0 .2083844.086326.3504648.086326.1420803-.067143.1610244-.239795 0 .143877.3409928 0 .2462726 0 .426241s.076734.2462726.086326.3504648c.009592.1041923 0 .1231363 0 .2273286 0 .426241 0 1.0229784-.48918.7577618 0 .0568321.105509.3031047.067142.3694088-.671424-.0663041-.959177 0-1.285298.4736012-.22061-.1231363 0 .2652166-.402854-.1420804-.057551.2557446-.258978.3220488-.565915.1894405.098042.2188764.172003.4475152.220611.6819856 0 .3694089-.402854.0473601-.48918.3409928 0 0-.172652-.2178565-.115102-.1231363.230203.416769 0 .3599369-.05755.4546571-.097392.247729-.168121.504889-.211019.7672338-.143585-.0723444-.318752-.0369619-.422038.0852482-.479589-.2083845-.623466.1420803-1.304482-.3504648-.335712-.4357131-.16306-.3220488-.345303-.5967374-.182244-.2746887-.163061 0-.230203-.2557447-.383671-.5020171-.086326-.3220487 0-.2178565 0-.1041922.143877 0 .239794 0 .076735-.2652166.479589-.1326083.776934-.1231363.153468 0 0-.3409928.230203-.1610243-.052167-.4056681-.052167-.8162229 0-1.2218909.383671.1136642.153468-.388353.633057 0-.211019-.7672339 0-.8808981.364487-1.0892826.527548.0568321.709791-.3220488 1.160605-.3883529.230202.1799684.172652-.1704964.537139.2557446-.134285-.3694089.230203-.1799685.422038-.0852482-.182244-.3409928 0-.1610244-.105509-.3409928.316528.0473601.412446-.1420804.345303-.6535696.115102-.2462726.316529-.0852482.182244-.5399053.067143-.0663041.278162.1799685.16306-.1136642 0 0-.124693-.2652167.057551 0 .16306.0663041 0-.1894405.32612.1894404.019184-.0473601-.038367-.3125767.278162.1231363z"/><path d="m142.865566 9.70054446c.190448.68602544 0 .27223231 0 .40290384.012901.1303706.012901.2616438 0 .3920145 0 0 0 .1197822-.134433-.1633394.100825.4029038 0 .2286751 0 .4137931s.078419.2722323.100825.3811252c-.006062.065203-.006062.1308044 0 .1960073.089622.4137931.313678.9364791 0 .4573503 0 0 .168042.3266787.168042.3593466-.358489-.3702359-.582545-.4355717-.492923-.1306715-.20165-.1742287.123231.1960073-.324881-.2395644.100825.1851179 0 .1742287-.28007 0l.56014.5662432c.268867.261343-.224056-.0653358-.089622.1088929 0 0-.257665-.185118-.168042-.1088929.448111.3266787.257664.2286751.291272.2831216.137333.1482074.295778.27655.470518.3811252-.179245-.076225-.235259-.076225-.201651 0-.394381-.1054137-.794588-.1890322-1.198699-.2504537-.616153-.185118-.392097-.1415608-.76179-.261343-.369692-.1197822-.134433 0-.392098-.0980037-.705776-.2068965-.324881-.1742286-.168041-.1197822-.067217-.0653357.100825 0 .224055 0-.145636-.1742287.268868-.1415608.504126-.1415608.235259 0-.257664-.2177858 0-.1088929-.329772-.2538168-.61373-.5592698-.840209-.9038112.380895.0871143-.089623-.3266788.504125 0-.593748-.6533576-.425706-.7731398-.224056-.9255899.459315.1197822.470518-.19600725.817804-.1524501.224056.2286752.089623-.11978219.470518.3920145-.190448-.3920145.123231-.0980036.28007.0653358-.201651-.3920145-.067217-.1633394-.145637-.3702359.235259.1633393.246462 0 .168042-.51179677.07842-.20689655.212853 0 .123231-.46823957.056014 0 .190448.30490018.123231 0 0 0-.067217-.32667876 0 0 .112028.15245009 0-.18511796.212853.34845735.212853-.09800363.212853-.38112522.4033.20689655z"/><path d="m172.966572 35.9698079c-.092914.7026532-.074331.2634949-.102206.3842635 0 .3183897-.06504.2086001-.102206.3842635 0 0-.06504.0988106-.046457-.2086002-.074332.4172003-.083623.2086002-.130081.3842635-.046457.1756633-.046457.2744739-.074331.3842635-.027875.1097895 0 .0878316-.06504.1976212-.102207.4172004-.18583.9771272-.25087.3842635v.3952424c-.13008-.505032-.260161-.6697163-.371658-.3623055-.06504-.2525161 0 .2305581-.120789-.3842635 0 .2086001-.092915.1537054-.204412-.1537054 0 .3403476.074331.6367795.083623.7904849 0 .3732845-.139372-.1866423-.148663 0 0 0-.074332-.2964319-.055749-.1866423.111497.5269899 0 .3403477 0 .4062214-.018879.2043335-.018879.4104881 0 .6148216-.074332-.1646844-.130081-.2086002-.139372-.1427264-.232286-.4391583-.213704-.1976213-.631819-.9661483-.25087-.5599268-.139372-.3732845-.288035-.7136322-.148664-.3403476-.092915-.0768527-.167247-.3403476-.288035-.6367795-.092914-.3513267 0-.2086002 0-.0988106.074332 0 .139372.1427264 0-.2195791.241578.0768527.38095.2305581s0-.3403476.102206 0c-.067365-.404753-.086132-.8187025-.055749-1.2296432.185829.3074108.092915-.3074108.31591.3074108-.06504-.8673376.083623-.8563586.269452-.8783165.241578.3513266.38095.0988106.585362.3183897.055749.3074108.111498-.0548948.148663.5818848 0-.4391583.120789 0 .167247.1976212 0-.4391583 0-.1756633.046457-.3952425.102206.252516.167246.1317475.306618-.3842635.120789-.1537054.13008.1427265.250869-.3732845.046458 0 0 .3623056.092915 0 0 0 .06504-.3293687 0 0s.083623-.1646844 0 .4062214c.055749.0768527.148663-.1866423.06504.4172004z"/><path d="m174.907487 50.0223881c-.143909.7164179-.092513.2686567-.13363.380597-.028226.1313916-.06959.2590191-.12335.380597 0 0-.071955.1007463 0-.2126866-.092513.4141791-.092513.2126866-.154189.380597-.061675.1679105-.061675.2798508-.092512.3917911-.023514.0622508-.044099.125766-.061676.1902985-.113071.4141791-.185026.9962686-.226142.391791v.4029851c-.092513-.5149254-.226143-.6940298-.298098-.380597-.061675-.2574627 0 .2350746-.12335-.3917911 0 .2126866-.071955.1567165-.195305-.1567164.061675.3358209.113071.6380597.133629.7947762.061676.3694029-.12335-.1902986-.113071 0 0 0-.102792-.3022389-.061675-.1902986.164467.5261194.071954.3358209.071954.4029851.026371.2020969.071134.4008364.13363.5932836-.092513-.1679104-.13363-.2126866-.12335-.1567164-.26726-.4365672-.195306-.2126866-.719545-.9402985-.339215-.5373135-.195306-.358209-.390611-.6828358-.195305-.3246269-.102792-.0783583-.215863-.3246269-.39061-.6156717-.143909-.3358209-.061675-.2014925 0-.0895523.082233 0 .164467.1231343 0-.2238806.25698 0 .411169.2126865.154188.2126866-.071955-.3358208.092513 0-.11069-.3992711-.166121-.8142771-.164468-1.2313432.215864.3022388.082234-.3134329.349493.2910447-.12335-.8843283.051396-.8843283.246702-.8955223.267259.3582089.400889.0895522.627032.3134328.051396.3246269.113071-.0559702.154188.5932836 0-.4477612.12335 0 .164467.2014925.006302-.1357042.023499-.2705472.051396-.4029851.092513.2686567.164468.1343284.328935-.380597.13363-.1455224.123351.1567164.277539-.369403 0 0 0 .369403.102792 0 0 0 .092513-.3358209 0 0s.092513-.1567164 0 .4141791c-.030838.1231344.071955-.1455224-.051396.4589553z"/></g></g><path d="m125.096419 177.327324c5.222517-15.504667 11.52371-28.135376 18.903581-37.892128 11.069806-14.635128 20.179816-17.766214 29.179816-39.145125 6-14.2526074 8.940061-27.1677301 8.820184-38.7453683l4 18.5141562-6.070382 28.4411411-12.721248 21.342516-14.13604 22.568668-9.07233 24.91614z" fill="#2f326a" opacity=".2"/></g></svg>