<svg height="216" viewBox="0 0 216 216" width="216" xmlns="http://www.w3.org/2000/svg"><g fill="none" fill-rule="evenodd"><g transform="translate(27 2)"><rect fill="#c45c0c" fill-rule="nonzero" height="188.3" rx="13.8" width="156.8" x="2.204059" y="21.4"/><path d="m21.704059 44.5h117.9v152.38h-117.9z" fill="#232357" fill-rule="nonzero" opacity=".2"/><g fill="#2e316a"><path d="m145.504059 210.9c-.6-.2-.3-.3.5-.4h.7l.8-.2c.648489-.046933 1.287633-.18149 1.9-.4 1.532807-.474684 2.983201-1.183016 4.3-2.1 1.140218-.810214 2.151611-1.787894 3-2.9.98358-1.664404 1.756185-3.444754 2.3-5.3.281449-1.212793.41575-2.455078.4-3.7-.1-1.2-.1-2.3-.2-3.2.1-5.9-.1-13.4.3-16.4-.5-7.2-.3-15.8-.5-24.7-.1-4.1-.3-7.6-.5-12.3s-.1-9.2-.2-14.4c-.5-20.5-1.2-53.1-.5-78.1 0-2.9-.1-5-.2-7.2s-.1-2.1-.2-3.3c-.004808-1.1728767-.10514-2.3434133-.3-3.5-.515611-2.5317471-1.809184-4.839201-3.7-6.6-1.798198-1.6744216-4.067057-2.7564928-6.5-3.1-.593482-.1160303-1.195522-.1829236-1.8-.2h-13.6l-28.7-.3c-18.7999997-.1-37.7999997 0-62.0999997.2-10.4-.4-16 .2-22.6-.5h-3.4c-1.1071961.0649486-2.1924983.3362741-3.2.8-2.01327327.7344074-3.80392254 1.9740877-5.20000005 3.6-1.44842983 1.6137489-2.44835333 3.5791158-2.9 5.7-.15699499.5210545-.2575718 1.0574642-.3 1.6 0 .5-.1 1-.1 1.6v3.3c0 9-.1 17.8-.3 26.1.4 6.7.7 13.1.9 20.5.5 18.2-.3 33.2 0 55.5 0-.6-.4 1.1-.2 2.1.6 4.5.4 19.8.4 28.8.1 3.2.1 7 .2 11.4v6.7c.1 1.2.1 2.4.1 3.6v3.5c.56955384 4.583927 3.71962655 8.434016 8.10000005 9.9 1.1054449.319943 2.2492474.488149 3.4.5h4l8-.2c11.1.3 23.5.3 37 .3 25.4.6 55.0999997.3 80.1999997 1.4 1.8.8-5.3.5-6.2 1s11.8.1 4.1.5c1.9.8-10.8.4-12.3.2-7.1.1-11.5-.1-16.4-.2-19.9999997.2-43.9999997-.3-65.7999997-.5-12.2-.1-17 .4-26.7 0l-6.4.2c-1.1862047-.061644-2.3609929-.263037-3.5-.6-1.2396196-.308887-2.42141295-.81537-3.50000005-1.5-2.34468824-1.46282-4.24620089-3.537198-5.5-6-.62164636-1.291799-1.02703553-2.676879-1.2-4.1-.1-.7-.1-1.4-.2-2.1v-2.1c-.3-11.2-.5-23.2-.7-34.4.4-22.9-.3-32.7.5-49.3-.6-12.8-.8-25.3-.9-39.1 0-7-.1-14.2-.1-22v-13.7c-.01642665-.6017319.01702106-1.2037906.1-1.8.16035291-1.253944.42800119-2.4918173.8-3.7.89380325-2.4501257 2.36945064-4.6464381 4.3-6.4.95928825-.8784261 2.03631328-1.6188808 3.2-2.2 1.15333061-.6555874 2.40156845-1.1278936 3.70000005-1.4 1.267442-.3619239 2.5822485-.5304888 3.9-.5h43.8c17.9 0 35.9 0 54.8999997.2 7.6.4 22.4-.1 26.7.7h4.1c1.638205-.0697255 3.272961.2027339 4.8.8 3.454844 1.1855034 6.320003 3.6567034 8 6.9.875605 1.6089386 1.419665 3.3771325 1.6 5.2.150185 1.6632834.150185 3.3367166 0 5 0 3.1-.1 6-.2 8.5.6 4.8.2 5.5.5 10.3-.3 21.8-.1 39 .5 61.7s-.2 28.6.5 43.1c0 8.6-.5 11.5 0 18.5-.1 3.5.4 5.3 0 6.2-.1 4.4-.1 7.3-.1 9.4.080094 1.930675-.406574 3.842584-1.4 5.5-.677185 1.81028-1.695617 3.473719-3 4.9-1.312133 1.474384-2.911455 2.665368-4.7 3.5-1.374747.69896-2.866133 1.139597-4.4 1.3h-1.5c-.4.1-.6 0-.6-.1z"/><path d="m43.604059 14.1h74v23.44h-74z" fill-rule="nonzero"/><path d="m118.404059 38.4c-.6-.1-.2-2.7-.2-4s-.2-2.8-.4-4-.1-4 .2-4.7c-.4-2.3-.2-4.8-.4-7.4s-.3-2.3-.5-3.6v-.6l.5.5-3.7.2c-6 .5-15.4999997 1.2-22.7999997.5-1.7 0-2.5.4-4.2.5-13.9-.6-21.9-.9-36.1-.5-3-.3-4.6.3-6.6-.5h-.6l.7-.7c.1867338 5.0335008.1199826 10.0732107-.2 15.1.4197415 1.9801979.7202816 3.9837986.9 6 .1.8.1 1.6.2 2.4l-1.6-1.6c4.3-.1 8.2.4 13.6.2-.2 0 .4.4.6.2s5.7-.4 8.2-.4l16.3-.6c3.2.3 6.8.4 10.7.4 7.5999997.6 15.9999997.5 23.9999997 1.3 1.1.5-1.2.3-1.1.7s3.5.1 1.5.3c1.2.6-2.9.4-3.5.2-1.63378.072419-3.270535.0390159-4.9-.1-5.8.2-13.0999997-.2-19.5999997-.4-3.6-.1-4.9.4-7.9 0s-11.8.9-18.4 1.5-9.7.3-14.6-.5l-4.9.5-1.6.2-.2-1.9c-.4-5.9-.4-12.1-.4-20.5.1-1 .1-2 .1-3v-2.1h2c9.7.3 18.8.1 28.9.3 2.2.4 6.5 0 7.8.7 2.9-.5 7.9 0 10.8.3s1.6-.2 3-.5c6.0035337.3291574 12.0239967.1619223 17.9999997-.5h7.2v1.7c-.063872 2.5731205.069854 5.147348.4 7.7 0 2.7-.5 3.4-.1 5.8s.3 1.8-.1 1.9c-.3 2.7 0 3.7-.5 4.2s.1 5.2-.5 4.8z"/><circle cx="80.604059" cy="15.4" fill-rule="nonzero" r="14.2"/><path d="m96.1040593 15.4c-.9.3-.4-1.2-.6-1.7s-.4-1.2-.8-1.6-.7-1.8-.5-2.3c-.4101545-.36841644-.7491167-.80906727-1-1.3-.2996921-.48980339-.6338699-.95765238-1-1.4-.4274469-.35702107-.8977412-.65935309-1.4-.9l-1.5-1.2c-1.4216682-.6768831-2.8925373-1.24517345-4.4-1.7l-4.8-.9c-.8 0-1 .5-1.7.6-2.5038415.19868119-4.8822247 1.17801544-6.8 2.8-.9246071.7915537-1.7030874 1.73926877-2.3 2.8-.7461673 1.14543128-1.2246816 2.444256-1.4 3.8-.2023272.4790043-.3369538.9838541-.4 1.5.0533813.4701157-.091571.9412106-.4 1.3.1722002 2.2434785.608551 4.4587978 1.3 6.6l2.2 1.7c.9.7 1.5 1.4 2.3 2.1.8936272.8135483 1.9504588 1.4271925 3.1 1.8-.1 0-.1.4.1.3s2.4.3 3.5.3c2.2504694-.0357912 4.440966-.731187 6.3-2 1.3638025-.4136424 2.57915-1.2122993 3.5-2.3 1.2736241-.9165231 2.2756662-2.1604374 2.9-3.6.7457419-1.4722344 1.3485038-3.0126259 1.8-4.6.8-.3.5.7 1 .8s.2-1.6.5-.5.3 1.6.1 1.7c-.1120035.8120126-.383914 1.5937553-.8 2.3-.3593919 1.4660315-1.0428099 2.8328676-2 4-.9664484 1.2394515-2.152904 2.2903121-3.5 3.1-1.3.9-1.7 1.6-3.1 1.9-1.1529457.8154031-2.4387045 1.4244467-3.8 1.8-1.6393597.3741245-3.3190189.5420904-5 .5l-2.1-.8-.9-.3-.8-.3-1.4-.8c-.4726807-.3601148-.8787899-.8000664-1.2-1.3-1.8611097-.7638682-3.4352166-2.093114-4.5-3.8-1.3637782-2.0264311-2.1896737-4.3664682-2.4-6.8-.0307369-2.749098.5142821-5.474193 1.6-8 1.1352663-2.55899989 2.9730462-4.74353078 5.3-6.3l1.9-1.1c.5407667-.32322958 1.1836326-.43037389 1.8-.3l1.1-.6c.4524852-.1574377.922734-.2582053 1.4-.3.8989647-.1239833 1.8126695-.09014238 2.7.1.7-.6.8-.3 1.5-.5l2.2.4 2.1.6c1.4630505.44978287 2.8987929.9840126 4.3 1.6 1.0316738.67877918 1.9439837 1.52351058 2.7 2.5l2 2.1c.2663636.43534388.46845.90687879.6 1.4.0958507.44411081.3022218.85685289.6 1.2.1.5.7.6.3.9.0568668.4748772.1572898.9435178.3 1.4.0932102.3038498-.0299815.632361-.3.8.1.9.5 2.4-.2 2.5z"/></g><path d="m84.2040593 15.9c-.8.1-.3-.2-.5-.4s-.2-.2-.5-.2-.2-.3.1-.5-.4-.3-.7-.3h-.9l-.8.3c-.1.1-.2.1-.4-.2v.5c-.5-.6-1.4-.3-1.1.4s.2.2-.5.3.2.5-.1.9l1-.2c.2-.1.2 0 .2.1 0 .1104569.089543.2.2.2 0 0-.1.3 0 .2s.2-.3.3-.4c.1818909-.1868186.222306-.4697247.1-.7.1.2.2.2.2.1s.4.2.6.1l.9-.3c.8 0 .5.1 1 .2s.1-.3.5-.1.4.4.2.4-.2.3-.4.4c.0890184.3562476-.0759172.7273529-.4.9l-1 .4c-.3 0-.1.5-.5.3s-1 1.2-1.9 1.6c-.3002755-.2258954-.6391185-.3953169-1-.5-.2 0-.5-.2-.5-.7s-2.2-.9-2.3-2.4c.1402748-.7483298.3409308-1.4840686.6-2.2.3029693-.6887448.8322131-1.2532715 1.5-1.6.4.1.7-.5 1.2.2s.9-.3 1.2-.1.1-.2.3-.4c.7334487.2753269 1.5204675.3779816 2.3.3.2730917.1483149.5116629.3528045.7.6.2051554.2314455.4917503.374743.8.4.2.3-.2.6.3.7s.5.1.1.3.3.4-.3.7.3.7-.5.7z" fill="#fff"/><path d="m21.704059 37.6h117.9v152.38h-117.9z" fill="#fff" fill-rule="nonzero"/><path d="m47.604059 58h91.9v131.97h-91.9z" fill="#232357" fill-rule="nonzero" opacity=".06"/><path d="m140.404059 190.6c-.6 1-.2-6.8-.3-10.3-.3-2-.2-7.3-.4-10.4.1-4.8-.1-11 .2-13.2-.4-6.1-.2-13-.3-20.3-.1-3.4-.3-6.3-.5-10.2s-.1-7.5-.2-11.7c-.5-16.9-1.2-43.1-.5-63.2-.1-4.7-.5-6.9-.5-11.6v-2.1l1.6 1.6c-37.3-.6-59.1999997-.8-97.7999997-.5-8.5-.3-13 .3-18.4-.4h-1.6l.7-.7c.2 14.3.1 28.7-.3 41.6.4 5.5.8 10.7 1 16.7.4 14.8-.3 26.9 0 45-.1-.5-.4.9-.3 1.7.7 3.7.4 16 .5 23.3.1 5.4.2 13 .3 24.1l-1.9-2 22.2-.4c8.9.3 18.9.4 29.7.4s21.3.4 32.3999997.6c11.1.2 22.3.5 32.8.9 2 .5-4 .3-4.3.7s9.6 0 3.7.3c2.1.6-8.6.4-9.9.2-5.7.1-9.5 0-13.6-.1-16.0999997.2-35.9999997-.1-53.6999997-.4-9.9-.1-13.8.4-21.7 0-4.8.3-10.8.5-17.6.6h-.9v-.8c-.3-10.6-.6-22.9-.9-34.1.5-18.6-.3-26.5.5-40-1-20.8-1-40.5-.9-70 0-2.8 0-5.6.1-8.3v-2.1h2.1c26.7.3 52.2.1 79.9999997.4 6.2.4 18.2-.1 21.7.7s10.3-.3 16.1-.2h1.2v1.1c-.1 5.1-.3 10.1-.4 13.9s.2 4.5.5 8.4c-.4 17.7-.2 31.7.3 50.5s-.2 23.3.3 35.5c0 7.1-.4 9.2-.1 15.2-.1 2.8.3 4.6 0 5-.3 7.2 0 9.4-.5 11.5-.1 5.1.1 13.3-.4 13.1z" fill="#2e316a"/><path d="m43.8 54 2.7 5.4 6.1.9-4.4 4.3 1 6-5.4-2.8-5.4 2.8 1-6-4.4-4.3 6.1-.9z" fill="#ffcd00" fill-rule="nonzero"/><path d="m44.1 51.1440478c.1.8-.4 1-.7 1.6-.0987895.5085785-.2324382 1.0097609-.4 1.5-.3.4-.5 1.2-.9 1.2s-.5 1.5-.7 2.4c-.2950708.2577797-.6336905.4609515-1 .6l-1.3.5c-1.127705.5057096-2.2992366.9073775-3.5 1.2l.7-2.4c.9699846.6630116 1.7602705 1.5563782 2.3 2.6.4.3.9.2 1.3.6l.8 1 .6.8v.5c-.6755703 1.951968-1.1775183 3.9597599-1.5 6l-1.5-1.1 3.4-1.9c.9-.2 1.1-.9 2-.6h.8c1.5299956.5299637 2.9282304 1.3825459 4.1 2.5h1.5l-1.8 1.3-.3-.4c-.7-1.6-.2-3.1-.8-5 0 0 .3-.2.2-.3s-.3-.1-.4-.3l.5-1.3c.2-.6 1-1.2 1.5-1.7l2.4-3 1.1 3.6h-1.4c-1.0850209-.4412712-2.2320538-.7111613-3.4-.8l-1.2-.4-1.2-.4-.2-.6c-.1816216-.757481-.3152209-1.5256768-.4-2.3-.2-.9-.3-2-.6-3.3s.2-.1.3-.5-.6-1.1-.2-.8.7.5.7.8c.4047594.4907705.6798337 1.0753034.8 1.7.7315938.933933 1.3058125 1.9810377 1.7 3.1l-.5-.3 2.7.8c1.1.2 1.6-.2 2.4.3l.9-.2h1l-.6 1.1c-.7 1.3-1.9 2.8-2.8 4.3-.3362447.1825717-.640278.4190421-.9.7l.4-1.4c.2 1.4.7 2.1.3 3.4.51911.8065646.9230125 1.6816866 1.2 2.6l1.2 3.5-4.1-1.4c-1.6370494-.6539585-3.2103655-1.457354-4.7-2.4l-.8-.5h2c-2 .8-3.7 1.7-5.5 2.6l-3.4 1.7.7-3.6c.1137265-.9825273.3145158-1.9530087.6-2.9.5-.6.3-2 1.1-2.3-.0820282-.2237451-.1160984-.4622367-.1-.7l.4 1.1c-.6596712-.6325659-1.2014576-1.3775222-1.6-2.2-.7 0-.5-.2-1-.3-.4896628-.6982318-1.0603045-1.3360079-1.7-1.9l-1.6-1.4 2.2-.5c1.036459-.211913 2.043685-.5476549 3-1 1.4-.4 2.2-.3 2.9-.6l-1.4 1c.1576245-.417986.2585225-.8552108.3-1.3.6-1 1.1-1 1.3-2.1s.2-.9.5-.6.8-1.3 1.2-.9 1.1-1.7 1.1-1z" fill="#2e316a"/><path d="m64.9357448 2.50823145c.2.68825443-.8.34412722-1.2.34412722h-1.2c-.5321185.17519294-1.0678816.17519294-1.6 0h-5c-2.529012.64097026-5.0669629.75588842-7.6.34412721h-1.4c-4.6-.34412721-7.3-.68825443-12-.34412721-.7348444.10300285-1.4709014-.01213225-2.2-.34412722h-5.3l-2 .68825443c-1.7985975.34581848-3.6014026.34581848-5.4 0h-.2c-.9261394.4937341-1.8659852.60924357-2.8.34412721l-5.6.68825442h-3.60000004c-2.5-.34412721-5.4-.34412721-7.8-1.03238163-.20000001-.68825443.49999999-.68825443.6-1.03238164.1-.34412721-1.10000001 0-.4-.34412721.7-.34412721 1.1-.34412721 1.2-.34412721h1.6c2-.34412721 4.3.34412721 6.4.34412721 2.10000004 0 1.70000004-.34412721 2.60000004 0l6.2-1.03238164c2.3.34412722 3.2-.34412721 4.8.34412722 2.8247295-.93166341 5.6632123-1.27641607 8.5-1.03238164 3.5.68825442 6.9.34412721 10.6.68825442h2.6c1.2007163-.22405237 2.4047494-.10895777 3.6.34412722h1c2.1.34412721 3.8 0 6-.34412722 2.2-.34412721 2.8 0 4.2-.68825442.5957744.34655076 1.2042255.34655076 1.8 0 .3.34412721.5-.34412721.6 0s1.1 0 1.4.68825442c.3.68825443 1.6 1.03238164 1.6 1.72063606z" fill="#2e316a" transform="translate(61 58)"/><path d="m40.8801622 2.19801587c.1243188.68214286-.497275 0-.7459125.34107143h-1.7404626c-.3729563.68214286-.8702313.34107143-1.4918251.68214286h-1.6161438c-1.5586582.75541432-3.1451623.98449913-4.7241127.68214286h-.8702313c-2.4797039-.62851066-4.9731646-.74252513-7.4591254-.34107143-.6215938-.34107143-.99455 0-1.3675063-.68214286-1.0738405.34119803-2.1584472.34119803-3.2322877 0l-1.2431875.68214286c-1.117997.17137384-2.2386095.17137384-3.3566065 0h-1.8647813l-3.48092518.68214285h-2.23773761c-1.49182508-.68214285-3.35660642-.34107142-4.8484315-1.36428571-1.49182507-1.02321429.24863752-.34107143.37295627-.68214286.12431876-.34107143-.74591254 0-.24863751-.34107143.49727502-.34107142.62159378-.34107142.74591254-.34107142h.99455005c1.3270694-.22196314 2.65877179-.10778949 3.9782002.34107142.53688781-.17213254 1.07925601-.17213254 1.61614383 0l3.85388141-1.36428571c1.3675064.68214286 1.9891001 0 2.9836502.68214286 1.7192665-.91309651 3.4722715-1.25662583 5.2213877-1.02321429h6.5888941c.4972751.34107143 1.3675063 0 1.6161439.68214286.7476731-.22475272 1.5037399-.10951455 2.2377376.34107143h.6215938c1.2483634.11359568 2.4977429-.11491777 3.7295626-.68214286.8712839.26974239 1.7526951.15459132 2.6106939-.34107143h1.1188688c.2486375 0 .3729563-.34107143.3729563 0h.8702313c.3729563 1.70535714.99455 1.36428572.99455 2.04642857z" fill="#2e316a" transform="translate(61 91.955556)"/><path d="m56.9389656 1.49090909c.1753701.74545455-.7014808.37272727-1.0522211.37272727l-1.0522211.74545455h-5.7872159c-2.2175663.69424065-4.4429709.81870953-6.6640667.37272727h-1.2275913c-4.033514-.37272727-6.4010115-.74545454-10.5222106-.37272727-.644349.11156332-1.2897612-.01314055-1.929072-.37272727-1.5495085.25230768-3.1011431.12786222-4.6473097-.37272728l-1.7537018 1.11818182h-4.910365c-.8120861.53476784-1.6361907.65987719-2.4551825.37272727l-4.9103649.74545455h-3.15666324c-2.19212722-.74545455-4.7349948-.37272727-6.83943694-1.49090909-.17537018-.74545455.43842545-.37272727.52611053-.74545455.08768509-.37272727-.96453597-.37272727-.35074035-.74545454s.96453598-.37272727 1.05222107 0h1.40296142l5.61184569.74545454h2.27981232l5.4364755-1.49090909c2.0167571.37272728 2.8059229-.37272727 4.2088843.37272728 1.4029614.74545454 4.2965693-.74545455 7.4532325-.74545455h9.2946195c.7631286.0189819 1.5249787.26809218 2.2798123.74545455 1.0503879-.37337663 2.1062753-.37337663 3.1566632 0h.8768509c1.7534439.43170749 3.5120197.30711976 5.2611053-.37272728h5.7872159c.7891658 0 .964536-.37272727 1.2275912.37272728.2630553.74545454 1.4029615 0 1.4029615.74545454z" fill="#2e316a" transform="translate(60.968314 126.8)"/><path d="m32.8833424 2.40560147c.1.64628099-.4 0-.6.3231405h-1.4c-.3.64628099-.7.32314049-1.2.64628099h-1.3c-1.2537595.7157004-2.5299178.93274167-3.8.64628099h-.7c-1.9946338-.59546837-4.0003333-.70348882-6-.3231405-.5-.32314049-.8 0-1.1-.64628099h-2.6l-1 .64628099c-.9.3231405-1.6-.32314049-2.7 0h-1.50000004l-2.8.64628099h-1.8c-1.2-.64628099-2.7-.32314049-3.9-1.29256198s.2-.32314049.3-.64628099-.6 0-.2-.3231405c.4-.32314049.5-.32314049.6-.32314049h.8c1.0674732-.21029401 2.1386731-.10212274 3.2.32314049.43186389-.16308312.86813611-.16308312 1.3 0l3.1-1.29256198c.80399424.01265033 1.60644734.22873791 2.40000004.64628099 1.3829502-.86509286 2.7930391-1.19056203 4.2-.96942149h5.3c.4.3231405 1.1 0 1.3.646281.6014161-.21293694 1.2095841-.10375712 1.8.32314049.3-.64628099.3-.32314049.5-.32314049 1.0041634.10762368 2.009144-.10887628 3-.646281.7008466.2555614 1.4098396.14646409 2.1-.32314049h.9c.2 0 .3-.3231405.3 0h.7c.3 1.93884297.8 1.61570248.8 2.26198347z" fill="#2e316a" transform="translate(61 157.855556)"/><path d="m44.0040593 85.6 2.7 5.4 6.1.9-4.4 4.3 1 6-5.4-2.8-5.4 2.8 1-6-4.4-4.3 6.1-.9z" fill="#db234b" fill-rule="nonzero"/><path d="m44.1 84.1440478c.1.7-.4 1-.7 1.6-.0987895.5085785-.2324382 1.0097609-.4 1.5-.3.4-.5 1.2-.9 1.2s-.5 1.5-.7 2.4l-1 .6-1.3.5c-1.127705.5057096-2.2992366.9073775-3.5 1.2l.7-2.4c.9699846.6630116 1.7602705 1.5563782 2.3 2.6.4.3.9.2 1.3.6l.8 1 .6.8v.5c-.6755703 1.951968-1.1775183 3.9597602-1.5 6.0000002l-1.5-1.1 3.4-1.9000002c.9-.2 1.1-.9 2-.6h.8c1.5299956.5299637 2.9282304 1.3825462 4.1 2.5000002h1.5l-1.8 1.3-.3-.4c-.7-1.6-.2-3.1000002-.8-5.0000002 0 0 .3-.2.2-.3s-.3-.1-.4-.3l.5-1.3c.2-.6 1-1.2 1.5-1.7l2.4-3 1.1 3.4h-1.4c-1.1039746-.3582926-2.2442762-.5930606-3.4-.7l-1.2-.4-1.2-.4-.2-.6c-.1816216-.757481-.3152209-1.5256768-.4-2.3-.2-.9-.3-2-.6-3.3s.2-.1.3-.5-.6-1.1-.2-.8.7.5.7.8c.4047594.4907705.6798337 1.0753034.8 1.7.7412378.9643462 1.3158425 2.045955 1.7 3.2l-.5-.3 2.7.8c1.1.2 1.6-.2 2.4.3l.9-.2h1l-.6 1.1c-.7 1.3-1.9 2.8-2.8 4.3-.3362447.1825717-.640278.4190421-.9.7l.4-1.4c.2 1.3.7 2.1.3 3.4.51911.8065642.9230125 1.6816862 1.2 2.6000002l1.2 3.5-4.1-1.5c-1.6334335-.621952-3.206637-1.391817-4.7-2.3l-.8-.5h2c-2 .8-3.7 1.7-5.5 2.6l-3.4 1.7.7-3.6c.1137265-.982527.3145158-1.9530089.6-2.9000002.5-.6.3-2 1.1-2.3-.0820282-.2237451-.1160984-.4622367-.1-.7l.4 1c-.6779132-.5770136-1.2236166-1.2932493-1.6-2.1-.7 0-.5-.2-1-.4-.515749-.646123-1.0843783-1.2482011-1.7-1.8l-1.6-1.4 2.2-.5c1.036459-.211913 2.043685-.5476549 3-1 1.4-.4 2.2-.3 2.9-.6l-1.4 1c.1576245-.417986.2585225-.8552108.3-1.3.6-1 1.1-1 1.3-2.1s.2-.9.5-.6.8-1.3 1.2-.9 1.1-1.7 1.1-1z" fill="#2e316a"/><path d="m44.0040593 118.3 2.7 5.4 6.1.9-4.4 4.3 1 6-5.4-2.8-5.4 2.8 1-6-4.4-4.3 6.1-.9z" fill="#00ecbb" fill-rule="nonzero"/><path d="m44.0040593 117c.1.7-.4 1-.7 1.5-.0738607.513995-.2081225 1.017477-.4 1.5-.3.5-.5 1.3-.9 1.3s-.5 1.5-.7 2.4l-1 .6-1.3.5c-1.127705.50571-2.2992366.907378-3.5 1.2l.7-2.4c.9699846.663012 1.7602704 1.556378 2.3 2.6.4.3.9.2 1.3.6l.8 1 .6.8v.5c-.6755704 1.951968-1.1775184 3.95976-1.5 6l-1.6-1.1 3.4-1.9c.9-.2 1.1-1 2-.6h.8c1.5299955.529964 2.9282303 1.382546 4.1 2.5h1.6l-1.8 1.3-.3-.4c-.7-1.6-.2-3.1-.8-5.1 0 .1.3-.1.2-.2s-.3-.1-.4-.3l.5-1.3c.2-.6 1-1.2 1.5-1.7l2.4-3 1.1 3.6h-1.4c-1.1039747-.358293-2.2442762-.593061-3.4-.7l-1.2-.4-1.2-.4-.2-.6c-.189821-.789554-.3234887-1.591561-.4-2.4-.2-.8-.3-1.9-.6-3.2s.2-.1.3-.5-.6-1.1-.2-.8.7.5.7.8c.4047594.490771.6798336 1.075303.8 1.7.7412377.964346 1.3158424 2.045955 1.7 3.2l-.5-.3 2.7.8c1.1.2 1.6-.2 2.4.3l.9-.2h1l-.6 1.1c-.7 1.3-1.9 2.8-2.8 4.3-.3362447.182572-.640278.419042-.9.7l.4-1.4c.2 1.3.7 2.1.3 3.4.51911.806565.9230124 1.681687 1.2 2.6l1.2 3.5-4.1-1.4c-1.6334335-.621952-3.206637-1.391817-4.7-2.3l-.8-.5h2c-2 .8-3.7 1.7-5.5 2.6l-3.4 1.7.7-3.6c.1137265-.982527.3145157-1.953009.6-2.9.5-.6.3-2 1.1-2.3-.0820283-.223745-.1160985-.462237-.1-.7l.4 1c-.6779132-.577014-1.2236167-1.293249-1.6-2.1-.7 0-.5-.2-1-.4-.5157491-.646123-1.0843783-1.248201-1.7-1.8l-1.6-1.7 2.2-.5c1.036459-.211913 2.0436849-.547655 3-1 1.4-.4 2.2-.3 2.9-.6l-1.4 1c.1576244-.417986.2585224-.855211.3-1.3.6-1 1.1-1 1.3-2.1s.2-.9.5-.6.8-1.3 1.2-.9 1.1-1.7 1.1-1z" fill="#2e316a"/><path d="m44.0040593 150.9 2.7 5.5 6.1.9-4.4 4.3 1 6-5.4-2.8-5.4 2.8 1-6-4.4-4.3 6.1-.9z" fill="#00d9f5" fill-rule="nonzero"/><path d="m44.1 150.133512c.1.7-.4 1-.7 1.5-.0738606.513994-.2081225 1.017476-.4 1.5-.3.5-.5 1.3-.9 1.3s-.5 1.5-.7 2.4l-1 .6-1.3.5c-1.127705.505709-2.2992366.907377-3.5 1.2l.7-2.4c.9699846.663011 1.7602705 1.556378 2.3 2.6.4.3.9.2 1.3.6l.8 1 .6.8v.5c-.6755703 1.951968-1.1775183 3.95976-1.5 6l-1.5-1.1 3.4-1.9c.9-.2 1.1-1 2-.6h.8c1.5054634.534982 2.896463 1.349226 4.1 2.4h1.5l-1.8 1.3-.3-.4c-.7-1.6-.2-3.1-.8-5.1 0 .1.3-.1.2-.2s-.3-.1-.4-.3l.5-1.3c.2-.6 1-1.2 1.5-1.7l2.4-3 1.1 3.6h-1.4c-1.1039746-.358293-2.2442762-.593061-3.4-.7l-1.2-.4-1.2-.4-.2-.6c-.1898209-.789555-.3234886-1.591561-.4-2.4-.2-.8-.3-1.9-.6-3.2s.2-.1.3-.5-.6-1.1-.2-.8.7.5.7.8c.4047594.49077.6798337 1.075303.8 1.7.7412378.964346 1.3158425 2.045955 1.7 3.2l-.5-.3 2.7.8c1.1.2 1.6-.2 2.4.3l.9-.2h1l-.6 1.1c-.7 1.3-1.9 2.8-2.8 4.3-.3362447.182571-.640278.419042-.9.7l.4-1.4c.2 1.3.7 2.1.3 3.4.51911.806564.9230125 1.681686 1.2 2.6l1.2 3.5-4.1-1.4c-1.6334335-.621952-3.206637-1.391818-4.7-2.3l-.8-.5h2c-2 .8-3.7 1.7-5.5 2.6l-3.4 1.7.7-3.6c.1137265-.982528.3145158-1.953009.6-2.9.5-.6.3-2 1.1-2.3-.0820282-.223745-.1160984-.462237-.1-.7l.4 1c-.6779132-.577014-1.2236166-1.29325-1.6-2.1-.7 0-.5-.2-1-.4-.515749-.646123-1.0843783-1.248201-1.7-1.8l-1.6-1.4 2.2-.5c1.036459-.211913 2.043685-.547655 3-1 1.4-.4 2.2-.3 2.9-.6l-1.4 1c.1576245-.417986.2585225-.855211.3-1.3.6-1 1.1-1 1.3-2.1s.2-.9.5-.6.8-1.3 1.2-.9 1.1-1.9 1.1-1.2z" fill="#2e316a"/><g fill="#cccfdb"><path d="m13.4040593 12.6c-.4.5-.2.1-.4.2s-.2.1-.3.1-.2 0 0-.2-.3 0-.5 0l-.3.2h-.3c-.4 0-1.1.1-.9-.5h-.4c0-.8-.1-1.1-.60000005-1.4-.5-.3-.3-.1.1-.5.40000005-.4-.4-.3-.2-.6l-.8.2c-.4 0 0-.5-.3-.6h.1c-.4.2-.4-.1-.5-.2l-.8-.3c.1-.2.1-.4-.1-.5s0-.8.6-1.4.4-.1.7-.2 0-.2.3-.2.3 0 .2 0 0 .2-.1.3.1.5 0 .8.4.1.2.3.8.1 1.30000005.1c.5 0 .4.2 0 .7s.9 0 1.1.4.3.7.4 1.1.2.2-.2.6.2.2.1.5.2-.1.4-.2.2.4.7.3.1.3.6.1-.2.3.1.1.3-.1.1.1.2-.1-.2.3.3 0-.1.4z"/><path d="m21.8040593 11.8c-.7.1-.3-.1-.4-.1h-.4c0-.1-.1-.1.2-.2s-.3-.1-.4-.2h-.6c-.4-.2-1-.5-.5-.8h-.4c.4-.6.5-.9.2-1.4s-.3-.2.3-.3-.2-.4.1-.6h-.8c-.3-.2.2-.4-.1-.6h.2c-.5 0-.3-.2-.4-.3l-.6-.5c.0795374-.11733451.1149638-.25904018.1-.4.4-.4.1-.7.9-1.1s.4 0 .7 0 .1-.2.4-.1.3.1.2.1-.1.1-.2.2-.1.5-.2.8.3.1 0 .3c.4230278.10488901.8276508.27348193 1.2.5-.3.3.3.3-.3.6.9.1.8.4.9.8s0 .8-.2 1.3.1.2-.5.3.1.3-.1.5h.4c-.2.3-.1.5.4.6s0 .4.5.4-.3.2 0 .2.3.1 0 .1.2.1-.3.2.2-.4-.3-.3z"/><path d="m31.8040593 11.1c-.7-.2-.3-.2-.3-.3l-.4-.2h.3c-.4-.2-.2-.2-.3-.3l-.3-.2-.2-.2c-.3-.3-.7-.7-.1-.8l-.4-.2c.6-.3.8-.6.6-1.1s-.2-.1.4-.1-.1-.4.2-.5l-.7-.3c-.3-.2.2-.3.1-.5h.1c-.5-.1-.3-.2-.3-.3l-.5-.6c.1-.1.2-.2.1-.3s.3-.5 1.1-.8h.7c.4 0 .1-.1.4 0s.3.1.2.1-.1.1-.2.2-.2.4-.4.6.3.2 0 .3.7.4 1.1.7.2.3-.4.5.7.5.6.9-.2.7-.5 1.1 0 .2-.6.2 0 .2-.2.3l.3.2c-.3.1-.2.3.2.7s-.2.2.2.5-.3 0 0 .2.2.2-.1.1h-.3c-.1.1.1.2-.4.1z"/><path d="m129.304059 11.2c-.7.1-.3-.1-.4-.1h-.4c0-.1-.1-.2.2-.2s-.3-.2-.4-.2h-.6c-.4-.2-1-.4-.5-.8h-.4c.4-.5.6-.8.3-1.3s-.3-.1.3-.2-.2-.4.1-.6h-.7c-.4-.2.2-.4-.1-.6h.2c-.5-.1-.3-.2-.3-.3l-.6-.6c.2-.1.2-.2.1-.4s.3-.6 1.1-.8.4 0 .7 0 .1-.1.4 0 .3.1.2.1-.1.1-.2.2-.2.4-.3.6.3.2 0 .3.7.4 1.1.6.2.3-.4.5.8.4.8.8 0 .7-.2 1 .1.3-.5.4 0 .2-.2.4h.4c-.2.3 0 .4.5.6s-.1.3.4.3-.3.2 0 .2c-.1.2.2.1-.3.2s.2-.2-.3-.1z"/><path d="m136.204059 13.6c-.6.1-.2-.1-.3-.1s-.2-.2-.3-.3-.1-.2.2-.2-.2-.3-.3-.4l-.3-.3-.2-.3c-.2-.4-.5-1.2.1-1.4l-.2-.3c.648999-.36340819 1.119331-.97845713 1.3-1.7.2 0-.1-.3.4-.2s.2-.5.6-.6-.4-.5-.4-.7.4-.3.4-.7h.1c-.4-.2-.1-.4-.1-.5.007801-.33617288-.025785-.67202866-.1-1 .2 0 .3-.2.3-.4.221455-.04482431.407657-.19378568.5-.4l.8-.4.7.2c.3.1.2-.1.4 0s.3.3.1.3-.1.2-.2.2-.4.7-.7 1 .2.3-.1.4c.226031.44328692.394077.91381763.5 1.4-.5.2-.1.6-.7.6s.2 1-.1 1.5-.6.9-1.1 1.3-.1.3-.6.2-.2.3-.4.4.1.1.2.3-.3.5.1.9-.2.4.2.6-.3.1 0 .2.3.1 0 .1.1.2-.4.2.2.2-.4.1z"/><path d="m147.004059 15c-.6-.4-.2-.3-.2-.4s-.1-.2-.2-.4.1-.2.3-.1 0-.4 0-.6l-.2-.4v-.3c-.1-.5-.2-1.3.5-1.3l-.2-.4c.8-.5 1.2-.8 1.4-1.7s0-.4.5-.2c-.003594-.35069195.252884-.64991694.6-.7-.2-.3-.4-.5-.4-.7s.4-.4.4-.9h.2c-.4-.3-.1-.4-.1-.6.008232-.3692637-.025315-.73827417-.1-1.1.133943-.02401249.252312-.10158005.327795-.21480369.075482-.11322363.101556-.25232153.072205-.38519631.7-.2.7-.7 1.6-.8s.3.2.6.4.2-.2.4 0 .2.3.1.3-.2.2-.3.2-.5.7-.8 1 .1.4-.2.4c.237907.46608802.37424.97733956.4 1.5-.4.2 0 .6-.7.6s.2 1.2-.1 1.8-.8 1-1.3 1.5-.2.4-.7.2-.3.4-.5.4.1.2.2.4-.5.5-.3 1.1-.4.4-.2.9-.4 0-.2.3.2.2 0 .1 0 .2-.5 0 0 .4-.4.1z"/></g></g><path d="m186.004059 115.79c-1.916648 39.767624-5.142249 65.470957-9.676803 77.11-4.534553 11.639043-13.764415 17.9058-27.689587 18.800273h24.35069c8.284272 0 15-6.715729 15-15 0-.122881-.00151-.245756-.004529-.368599z" fill="#2f326a" fill-opacity=".2"/></g></svg>