<svg height="216" viewBox="0 0 216 216" width="216" xmlns="http://www.w3.org/2000/svg"><g fill="none" fill-rule="evenodd" transform="translate(2 2)"><circle cx="105.755556" cy="105.9" fill="#7132fe" fill-rule="nonzero" r="104.3"/><path d="m105.755556 105.9v-104.2c57.2 0 104.3 47 104.3 104.2 0 16.889375-4.083198 33.528407-11.9 48.5z" fill="#af64fe" fill-rule="nonzero"/><path d="m133.555556 63.1c-.513172 3.1120886-1.940341 6.0012366-4.1 8.3-2.073889 2.2910979-4.277509 4.4613301-6.6 6.5-.445294.355448-.761502.8473263-.9 1.4-.069784.5021743.07545 1.0104923.4 1.4 1.259406 2.4229061 3.255184 4.3836706 5.7 5.6 11 5.5 23.7 6 35.6 3.5 6.3-1.3 12.6-3.5 17.6-7.5.548571-.436353.868217-1.099047.868217-1.8s-.319646-1.363647-.868217-1.8c-5.251474-4.1080733-9.607376-9.2466764-12.8-15.1" fill="#fa0" fill-rule="nonzero"/><path d="m167.655556 64c.5-.5.9 1.1 1.4 1.7s.9 1.1 1.4 1.5c.550426.7481084 1.019732 1.5526325 1.4 2.4.981961.9185041 1.916505 1.8864245 2.8 2.9l1.6 1.3c.6.4 1.1 1 1.8 1.5l2.3 1.6 1.3.9c.1.1.3.2.4.4.177597.0801704.319829.2224025.4.4.293875.3070687.500932.6866728.6 1.1.207342.809137.100134 1.6667976-.3 2.4-.175321.3971381-.451034.7417788-.8 1l-.7.6c-.910197.6298296-1.881817 1.165896-2.9 1.6-.59768.5859192-1.270168 1.0902854-2 1.5-3.156044 1.3550607-6.438805 2.3934853-9.8 3.1-3.362471.8204358-6.767646 1.454733-10.2 1.9-1.7-.1-2.6.4-3.8-.1-2.94148.2923159-5.910563.1236179-8.8-.5-1.152586.2219832-2.329631.2892429-3.5.2-3.1-.3-5.4-1.4-9-2.5.1 0 0-.4-.2-.3-.742105-.0013249-1.469211-.2090694-2.1-.6l-1.3-.5-1.2-.7c-1.343656-.7778213-2.586352-1.71824-3.7-2.8l-1.8-2.3c-.360474-.5789642-.598691-1.2255541-.7-1.9-.08202-.47609-.012044-.965919.2-1.4.084622-.3986867.255261-.7740933.5-1.1l1.3-1.1 1.1-1c.837-.6188523 1.607765-1.3225946 2.3-2.1 1.693105-1.2935941 3.206405-2.8068949 4.5-4.5 1.236772-1.6776801 2.214358-3.5317234 2.9-5.5.6-.2.2.9.5 1.1s.5-1.9.5-.6.4.4.2.9c-.070216.433687-.241499.8447656-.5 1.2-.30526.8939181-.743517 1.7367184-1.3 2.5-.861208 1.6314363-1.97496 3.116439-3.3 4.4-1.328263 1.2812472-2.730681 2.4833198-4.2 3.6l-1.7 1.7c-.444978.4375644-.816421.9440768-1.1 1.5.158042.6530249.506019 1.244586 1 1.7.486595.670864 1.058013 1.2758945 1.7 1.8 1.299311 1.2275385 2.878194 2.1199505 4.6 2.6l2.1 1.1 1.8.6c1.182509.3369351 2.323098.8065892 3.4 1.4 4.2.2 8 .9 13.8 1s11.4-.7 17.3-2.2c1.3 0 3.5-1.1 4.3-.8s4-1.8 5.5-2.5.6-.6 1.2-1.2l1-.6.5-.4.5-.3c.367174-.4063752.516076-.964758.4-1.5l-.4-.6-1-.6-2.3-1.6c-2.8-2.4-3.3-3.5-5.3-5.1s-.9-1.7-1.9-2.5-.7-.5-.6-.8-1.2-1.6-1-2.3-1.5-2.2-1.1-2.6z" fill="#2e316a"/><path d="m105.755556 105.9v-104.2c-57.1000004 0-104.20000044 47-104.20000044 104.2 0 16.889375 4.08319784 33.528407 11.90000004 48.5z" fill="#01ebba" fill-rule="nonzero"/><path d="m.35555556 106.2c.4-1 .5 1 .6 3.8s.1 2.9.2 4.4.1 1.5.1 2.2l.3 1.8c.6 2 1.4 8.5 2.6 11.9.31924159 1.487506.71984346 2.95638 1.2 4.4l.6 2.2c.2.8.5 1.5.7 2.2.9 2.8 1.9 5.2 2.2 6.7s1.70000004 3.2 2.50000004 4.9l2.8 5.3c.5.9 1 1.8 1.6 2.7.2285467.48744.4960828.955629.8 1.4l.8 1.3 1.8 2.7 1.9 2.6c2.4952422 3.179846 5.1660646 6.217906 8 9.1 3.2426387 3.398676 6.6818809 6.604183 10.3 9.6 4.4351085 3.465149 9.113862 6.606597 14 9.4 5.6883474 3.181317 11.6444444 5.858216 17.8 8 12.4459305 4.273135 25.5430838 6.337544 38.7000004 6.1 5.7-.3 8.3-1 13.9-1.9 5.39314-.931158 10.708255-2.268293 15.9-4 4.761259-1.524705 9.379077-3.465528 13.8-5.8 4.237365-2.135981 8.314672-4.575681 12.2-7.3 1.9-1.3 3.7-2.7 5.5-4.1l2.6-2.3 1.3-1.1 1.3-1.1 2.5-2.4 2.4-2.5c.8-.8 1.5-1.7 2.3-2.6l2.3-2.6c3.005393-3.725033 5.777358-7.632502 8.3-11.7 2.597588-4.44509 4.902481-9.054875 6.9-13.8 2.111088-5.184154 3.783618-10.53625 5-16 .38144-1.144196.682178-2.313731.9-3.5l.6-3.1c.115756-.49222.182746-.994646.2-1.5l.2-1.4.3-2.6c.4-3.5.6-6.4 1.1-9.6.068655-8.9217998-.938613-17.8193371-3-26.5l-.9-3.2c-.2-1-.5-2.1-.8-3.1s-.7-2.1-1-3.1-.7-2-1.1-3-.7-2-1.1-3l-1.2-2.9c-.8-1.9-1.7-3.8-2.6-5.6-3.502165-5.7012576-7.447685-11.117988-11.8-16.2-.6-.8-1.4-1.6-2.1-2.4l-2.2-2.4c-1.5-1.5-2.9-3.1-4.4-4.5l-2.3-2.1-2.3-2.1-4.9-4c-3.493915-2.7626193-7.206077-5.2373944-11.1-7.4l-3.1-1.8-3.3-1.6-3.5-1.6-3.7-1.5c.6.3-.8-.7-1.8-.9l-4.8-1.3-7.1-1.8c-2.6-.6-5.4-1.1-8-1.5-2.451296-.39354282-4.921234-.66056323-7.4-.8-8.222609-.532484-16.4793114-.09615422-24.6000004 1.3-4.9849121.86738251-9.8984504 2.10412346-14.7 3.7-4.9096826 1.680228-9.6892252 3.7190539-14.3 6.1-10.7496336 5.128264-20.4487373 12.2160706-28.6 20.9-9.0823737 9.261466-16.2820115 20.1967649-21.2 32.2-4.86276293 12.0420893-7.63586308 24.8254046-8.20000004 37.8-.8 1.7-.4-5.3-.8-6.1s-.4 11.6-.6 4c-.2.5-.4 0-.4-.9-.11137793-1.333027-.07784853-2.674203.1-4 .05675648-1.5101823.22386875-3.0141927.5-4.5.2-1.4.4-2.4.5-2.8s.5-3.3.8-4.7c.06607066-.7111527.20001397-1.414355.4-2.1.11933224-.6776154.28641532-1.3459477.5-2 .3-1.2.5-2.4.9-3.6s.7-2.3 1.1-3.4c1.43679519-4.9745829 3.27620438-9.8239345 5.50000004-14.5 2.3833345-4.9472204 5.1588654-9.6957191 8.3-14.2 3.1668179-4.5573702 6.7127437-8.8392428 10.6-12.8 3.8072048-3.9509022 7.9199447-7.5955254 12.3-10.9 3.727708-2.8318021 7.5995592-5.4686662 11.6-7.9l2.5-1.5 2.6-1.3c1.9139343-.9817097 3.8840098-1.8498785 5.9-2.6 1.8-.9 3.7-1.7 5.7-2.5s4.3-1.7 6.7-2.4l7.4-2c2.6-.5 5.2-1.1 8-1.5 11.2884164-1.63309241 22.7644864-1.46432668 34.0000004.5l4 .9 2 .5 1.8.6 3.4 1 3.3 1.1 3 1.1 2.8 1.1 5.2 2.3c6.696547 3.1721723 12.949554 7.2063701 18.6 12 10.647945 7.6349884 19.65855 17.3256385 26.5 28.5 8.24575 13.554712 13.306285 28.8047024 14.8 44.6.741479 9.044357.371488 18.145491-1.1 27.1-.4 2.2-.8 4.5-1.3 6.6s-.5 2.2-.8 3.3l-.9 3.2-.5 1.6-.5 1.6-1.1 3.2-1.2 3.1c-.4 1.1-.9 2.1-1.3 3.1l-1.4 3.1-1.5 3c-1 2-2.2 3.9-3.3 5.9-2.359396 3.86336-4.964772 7.571009-7.8 11.1-5.717557 7.314866-12.413575 13.808994-19.9 19.3-3.2 2.1-7.8 5.3-12.4 7.7s-9 4.3-11.1 4.7c-5.588287 2.583097-11.462398 4.496379-17.5 5.7-5.9978 1.162556-12.09067 1.765148-18.2 1.8-4.7.7-5.4.3-10.2000004.4-5.1448147-.321676-10.2587759-1.023593-15.3-2.1-4.8173675-1.014652-9.5613282-2.350979-14.2-4-9.8225116-3.366399-19.1157473-8.11403-27.6-14.1-2.0620497-1.443041-4.0325077-3.012728-5.9-4.7-.8998867-.654054-1.7368411-1.390574-2.5-2.2l-2.3-2.1c-2.5040973-2.401362-4.8743376-4.938521-7.1-7.6-4.0857569-4.738046-7.7969406-9.786593-11.1-15.1-.5531011-.834928-1.0540566-1.703251-1.5-2.6l-1.2-2.3c-.7-1.4-1.30000004-2.6-1.80000004-3.9l-1.6-3.7c-.5-1.3-1.1-2.6-1.8-4.2-1.1-3.4-2.2-5-2-5.9-2.3-8.7-2.8-11.1-2.7-14.2-.2-1.5-.5-3.3-.7-5s-.3-3.6-.4-5.3-.1-5.8.3-6z" fill="#2e316a"/><path d="m104.855556 106.7c-.3-1.1 4.9 2.2 7.4 3.4s5.1 2.4 7.3 3.3 7.7 3.9 9.1 5.1c4.4 1.8 9 4.4 14.2 6.9l7.2 3.3 8.3 4.1c10.8 5.1 27.3 13.1 40.4 20.4l-1.8.6 1.9-3.5c1.5-3.3 1.8-5.1 3.1-8.5 2.479748-6.30008 4.322277-12.832682 5.5-19.5.583101-2.972731.983849-5.978342 1.2-9 .2-3 .4-6 .3-8.9s0-3-.1-4.5l-.3-4.4-.6-4.6c-.2-1.5-.6-3-.8-4.6-1.400206-6.7905019-3.477246-13.4236295-6.2-19.8-.972249-2.4565203-2.073789-4.8598795-3.3-7.2l-1.4-2.9c-.493221-.9043428-.92746-1.8396267-1.3-2.8-5.928766-9.5334338-13.090694-18.2420693-21.3-25.9-3.4-2.5-6.9-4.6-10.8-7.1s-9.3-5.5-14.3-8c-5.476518-2.71962004-11.247816-4.79997172-17.2-6.2.4.1-.5-.6-1.1-.6-1.110905-.01839394-2.216872-.15245059-3.3-.4l-4.6-.7-5.2-.7c-1.591563-.22028121-3.19393-.35381186-4.8-.4-1.4-.2-3.1-.1-6.6-.2l1.8-1.7c.1 6.7.4 18.5.6 29.4-.3 7-.3 14.8-.3 23.3-.6 16.1-.5 34.6-1.5 51-.6 1.5-.4-3.1-.8-3.4s-.1 7.5-.4 2.8c-.8 1.7-.4-6.7-.2-7.7-.1-4.4 0-7.4.2-10.6-.3-12.6.1-28.1.4-41.9.1-7.8-.4-10.8 0-17s-.7-16.1-1-25.9v-1.3h8.6l3.7.2 3.6.3c5.744182.97926378 11.42183 2.3151809 17 4 2.2.7 4.4 1.4 6.5 2.3l3.3 1.5 3.4 1.8c7.782755 3.1731376 15.086119 7.4138004 21.7 12.6l2.6 2.2 2.7 2.3c1.7 1.6 3.5 3.3 5.2 5.1 3.757796 3.9239663 7.201712 8.1369113 10.3 12.6 6.516019 9.7033651 11.475841 20.3652944 14.7 31.6 3.26004 11.3625856 4.512156 23.206925 3.7 35-.3 2.4-.6 6-1.1 9.3-.388095 2.588412-1.024361 5.133474-1.9 7.6-.665109 3.890675-1.703231 7.708285-3.1 11.4-1.385488 3.707383-3.022633 7.315784-4.9 10.8-.314224 1.332346-.819452 2.612256-1.5 3.8l-.4 1-1.1-.5-2.2-1.1c-12.2-6.7-21.9-11.6-35.1-17.9s-16.1-8.6-24.8-12.6c-4.9-2.5-6.2-3.7-10.5-5.5-1.9-1.1-3.3-1.4-3.5-1.9-4.8-2.8-6.6-3.3-7.7-4.6-3.4-1.8-9.2-4.5-8.9-5z" fill="#2e316a"/><path d="m104.655556 105.4c1.8-.1-4.3 2.5-6.5000004 3.8-2.2 1.3-4.7 2.7-6.6 3.9s-7.4 4.1-9.4 4.7c-3.6 2.4-8.6 4.8-13.4 7.6l-6.6 4c-2.6 1.4-5.1 2.7-8 4.4-10.2 5.9-26.3 15.1-40 21.8l-1.3.6-.5-1.2c-.6-1.3-1.2-2.5-1.7-3.7-1.70000004-3.4-2.70000004-4.9-4.10000004-8.3-2.28403635-6.592851-3.9250106-13.391173-4.9-20.3-.5-3.1-.8-6.2-1-9.3s-.2-6-.1-9.1c.1-1.5.1-3 .2-4.5l.3-4.5.6-4.7c.3-1.5.6-3.1.8-4.7 1.37146-6.9481628 3.41437995-13.7467325 6.1-20.3 1.4-3 2.40000004-5.3 3.50000004-7.3l1.5-2.9c.6-.8 1.2-1.7 1.9-2.5 2.8932467-5.0597637 6.2403459-9.8461155 10-14.3 3.5847268-4.2400493 7.5698224-8.1246803 11.9-11.6 3.0124914-3.1742638 6.2911216-6.0848845 9.8-8.7 4.5450972-3.2975358 9.4416523-6.0811939 14.6-8.3 5.746308-2.53657116 11.6602607-4.67494952 17.7-6.4-.4.2.8.2 1.4 0 .9969485-.46209751 2.0347622-.83035398 3.1-1.1 1.4-.4 3.1-.7 4.8-1s3.6-.5 5.3-.8l5-.4c1.5000004-.2 3.2000004-.2 6.7000004-.3h1.7v1.7c.1 6.9.4 19 .6 30.1-.3 7.1-.3 15-.3 23.7-.6 16.1-.5 35.2-1.5 50.6-.6.8-.4-3.6-.8-4.4s-.1 7.4-.4 2.4c-.8.7-.4-7.1-.2-7.9-.1-4.5 0-7.3.2-10.3-.3-12.7.1-27.7.4-41.4.1-7.7-.4-10.9 0-17s-.7-16.1-1-25.8l1.3 1.2-3.5.2h-1.8l-1.8000004.2-3.6.6-3.5.5c-5.569844.66905923-11.0620228 1.87465946-16.4 3.6l-6.4 2.3-3.2 1.2-3.5 1.3c-7.1164078 3.9746326-13.8750204 8.5584441-20.2 13.7l-2.4 2.2-2.5 2.2c-1.7 1.6-3.4 3.2-5 5-3.6192158 3.7612568-6.9299 7.8076485-9.9 12.1-6.610401 9.0671944-11.5852457 19.2199387-14.70000004 30-3.13068107 10.9793641-4.44800506 22.396172-3.9 33.8-.03591566 3.048055.19833375 6.093297.7 9.1.4 3.2 1 6.2.9 7.5.9 3.1 2 7.1 3.3 11.2s2.80000004 8 4.00000004 10.9c.8419693 1.039254 1.5476848 2.181841 2.1 3.4l-1.5-.5 2.1-1.2c12.3-6.1 21.9-11.3 34.1-18.4s16.1-8.2 23.7-12.9c4.8-2.5 6.7-3 10.3-5.3 2-1 2.6-1.8 3.4-1.8 5.2-2.5 6.2-3.4 8.5-3.9s8.7000004-4.8 9.6000004-4.5z" fill="#2e316a"/><path d="m40.9555556 62.4c-.9916372-1.0794736-2.5634658-1.4019-3.9-.8-1.3584903.6128993-2.2774093 1.9147011-2.4 3.4-.1360278 1.4542866.2542898 2.9091065 1.1 4.1.9200519 1.1335205 2.1293556 1.9973088 3.5 2.5l2.2.8" fill="#a56f5b" fill-rule="nonzero"/><path d="m75.5555556 62.9c.8607155-1.0048169 2.238357-1.3984288 3.5-1 1.2572251.4445485 2.2001638 1.5006399 2.5 2.8.1774036 1.3088932-.0678438 2.6402362-.7 3.8-.7676945 1.0658046-1.7570186 1.9527848-2.9 2.6l-1.9.8" fill="#a56f5b" fill-rule="nonzero"/><path d="m41.6555556 71.8c-.1.4-.3.1-.4.1s-.3.1-.5.1-.4 0-.4-.2-.5-.1-.7-.1h-.9c-.8754684.044392-1.7102326-.3729901-2.2-1.1h-.5c-.4254535-.5439864-.7628927-1.1513769-1-1.8-.3597642-.5682098-.6612907-1.1712628-.9-1.8.1-.3-.2-.5.1-.7-.1914478-.5680064-.1180445-1.1919339.2-1.7-.1801601-.1901684-.2865402-.4383887-.3-.7 0-.7.6-1 .9-1.7s.2.1.2 0 .3-.6.5-.8c.57209-.4896147 1.2120637-.8938085 1.9-1.2h1.4l1.3.7c.4776515.1758059.8222598.5969939.9 1.1-.3.3-.3.1-.5.2s.2.3-.1.3-.3 0-.3-.1-.2-.3-.3-.4l-1.6-.7c-.4 0-.5.3-.8.1s-.9.8-1.1 1.4-.3.7-.9.8c.0998293.6964408.0998293 1.4035592 0 2.1-.0037922.9137253.2379673 1.811689.7 2.6 0 .3.4.4.2.7s.5.6.6.8h.4c.3449654.4774405.9124947.7422875 1.5.7.6.2.7.4 1.2.2s.3.3.5.2.2-.1.2.1.3 0 .3.3.5.1.4.5z" fill="#2e316a"/><path d="m76.2555556 72.5c-.2-.4.2-.2.2-.4s.2-.2.2-.3.3-.2.5-.1.3-.3.5-.5l.2-.3.2-.3c.4-.5.8-1.2 1.4-1.4s0-.3.1-.4c.9068243-.4965602 1.4504695-1.4673553 1.4-2.5.2-.2-.1-.3.3-.5-.098378-.4277497-.098378-.8722503 0-1.3l-.7-.3c-.3-.2-.2-.7-.6-1s.1-.1 0-.1-.4-.1-.6-.2c-.3601536-.0977376-.7398465-.0977376-1.1 0h-.7c-.2702192-.0599256-.5528462-.0245972-.8.1l-.9.2c-.3-.2-.1-.2-.3-.4s-.2.2-.2-.1 0-.4.1-.3.3-.2.5-.3c.5124822-.3904734 1.1703743-.5366717 1.8-.4.3 0 .5-.2.8 0s1.3-.1 2 .1.9.6.9 1.3 1.2 1.3 1.3 2.5c-.1215318 1.1357767-.4975166 2.2295505-1.1 3.2-.3.1-.3.6-.7.5s-.5.6-.8.7 0 .2 0 .4c-.5441082.2602265-.9971458.6784151-1.3 1.2-.5.5-.8.3-1 .8s-.4-.1-.4.2-.1.3-.2.1-.2.2-.5-.1-.3.2-.5-.1z" fill="#2e316a"/><path d="m75.2555556 86c-.4-7.8.2-5.8 0-18-.1-7.5-1.5-16.1-6.8-21.8s-11.5-6.4-17.4-2.6-8.9 11.5-10 18.2c-1.7 10.1-.7 17.2-.7 26.7l-9.9 6.7s8.9 13.1 27.9 12 28.6-12.1 28.6-12.1z" fill="#a56f5b" fill-rule="nonzero"/><path d="m74.5555556 86.5c.1-.7 2.1 1.4 3.2 2.1s2.3 1.5 3.3 2.1 3.2 2.4 3.7 3.2c.7428494.3599518 1.4465758.795592 2.1 1.3v-.2c-1.0948391 1.173772-2.2639104 2.2760393-3.5 3.3-.925319.848687-1.893238 1.6497234-2.9 2.4-1.1698961.835121-2.4075361 1.571016-3.7 2.2-3.2810425 1.895124-6.8170909 3.309543-10.5 4.2-4.0130181 1.034181-8.1791866 1.339023-12.3.9h-2.3c-.7386453.020034-1.4770765-.047096-2.2-.2-4.0268164-.794454-7.8631966-2.356166-11.3-4.6-3.1999259-1.974206-6.0126766-4.5158477-8.3-7.5l-.5-.6.7-.5 9.9-6.8-.4.7v-1.9c.1-3.1-.4-4.7.1-6.7-.4803008-5.3407067-.2448848-10.7216452.7-16-.0707644-2.1121205.0969627-4.2254828.5-6.3.5167374-2.6514784 1.498537-5.1906154 2.9-7.5 1.5569261-2.6506524 3.5912199-4.9900902 6-6.9-.2.1.4.1.6-.2.3699416-.4356133.8091634-.8072625 1.3-1.1l2.2-1c1.6731778-.5613291 3.4379459-.798894 5.2-.7 1.24933.0843137 2.4880481.285187 3.7.6 1.4409256.5022401 2.8172035 1.1735952 4.1 2 2.8181122 2.0342556 5.1141539 4.7072594 6.7 7.8 1.4351846 3.5960757 2.4095897 7.3592952 2.9 11.2.1 2 .2 4 .2 6.1s-.1 4-.2 6.1-.2 4.1-.4 6.1-.1 1.9-.1 2.9v1.5c.0123624.4025001-.0211874.8050979-.1 1.2-.5.8-.4-1.4-.8-1.6s-.1.5-.1 1.3.1 1.3-.1 0c-.2.2-.3.1-.4-.2-.082948-.4280819-.1165008-.8642682-.1-1.3 0-1 .1-2.1.1-2.3-.0225425-1.6385341.0777383-3.2764539.3-4.9-.1-5.9.6-13.1-.9-19.5-.3437353-1.3608064-.7780365-2.6971178-1.3-4-.5903135-1.0714503-1.1243715-2.1729449-1.6-3.3-1.6130886-2.3673831-3.7304521-4.3481425-6.2-5.8-1.3852528-.7944361-2.9151362-1.3043972-4.5-1.5-1.5446809-.1735563-3.1084611-.0375754-4.6.4-2.4501221.5203608-4.6829815 1.7763442-6.4 3.6-1.4442151 1.5131588-2.7494687 3.1530929-3.9 4.9-1.4239292 3.4893421-2.3659217 7.1563843-2.8 10.9-.6546948 4.5357168-.9223265 9.1189097-.8 13.7-.1 4.2.1 8.3.1 12.4v.8l-.7.4-9.9 6.7.4-1.9c.7116075 1.0056082 1.5150566 1.9429654 2.4 2.8.9531381.9193056 1.954556 1.7872012 3 2.6l1.5 1.2 2 1.1c1.0325071.580487 2.0338806 1.21469 3 1.9l2.4.7 2.7.8 2.9.6 2.4.4c1.0220563-.19409 2.0596923-.294506 3.1-.3 1.5 0 3.1-.2 4.5-.3.7398852-.044012 1.4753447-.144302 2.2-.3l2.1-.4c2.9629987-.68403 5.8215327-1.760184 8.5-3.2 2.1434234-.987367 4.2151473-2.1234741 6.2-3.4 1.4940091-.9691643 2.8410926-2.1478623 4-3.5.4247706-.3744377.8255623-.7752294 1.2-1.2l.3 2.4c-.9238878-.9321745-1.9661208-1.7390646-3.1-2.4-.9-.7-1.6-.8-1.5-1.2-2.1-1.8-3-2.1-3.3-3s-4-3-3.6-3.3z" fill="#2e316a"/><path d="m52.6555556 59.3c-.1.2-.1 0-.1 0h-.1c-.0552285 0-.1-.0447715-.1-.1 0 .2-.1.1-.1.1h-.2c-.1.1-.3.3-.3.1h-.1c-.2-.2-.3-.3-.5-.2s-.1.1-.1-.1-.2.1-.2 0c-.0578614.0512889-.0936858.1229376-.1.2 0 .2-.1 0-.2.1 0 .2-.1.2-.1.2s-.1.1-.2.2h-.2c-.1-.1-.2.1-.4-.2v-.2c0-.1-.1 0-.1-.1s0-.1.1-.1h.1c0-.1.2-.1.3 0s0-.2.1-.1c0-.1573787.074097-.3055728.2-.4.1.1.1-.1.3 0s.2-.3.4-.3h.6c0 .1.1 0 .1.2s.1 0 .2.1.2.1.4 0 .1.1.2-.1 0 .2.1.1c.1 0 .1 0 .1.1s0 .3-.1.5z" fill="#2e316a"/><path d="m67.2555556 59.5c-.1.2-.1 0-.1 0h-.1c-.1 0-.1 0-.1-.1h-.4c-.1.1-.3.2-.4 0 0 .0552285-.0447716.1-.1.1-.2-.2-.3-.2-.6-.2s-.1.1-.1-.1c-.0379667.0430501-.0925999.0677124-.15.0677124-.0574002 0-.1120334-.0246623-.15-.0677124 0 .1 0 .2-.1.2s-.1 0-.2 0c0 .2-.1.1-.2.1s-.1.2-.2.3h-.2c-.2-.1-.3 0-.5-.2s0-.1 0-.2-.1 0-.1-.1 0-.1 0-.1h.5c.1.1.1-.1.2 0s.1-.3.3-.4.1-.1.3.1.2-.3.5-.3l.6.2c0 .1.1 0 .1.2s.2 0 .2.1h.1c.1.1.2 0 .4-.1h.4s.1-.1 0 .1.2.2.1.4z" fill="#2e316a"/><circle cx="52.055556" cy="63.9" fill="#2e316a" fill-rule="nonzero" r="1"/><circle cx="64.655556" cy="63.9" fill="#2e316a" fill-rule="nonzero" r="1"/><path d="m40.0555556 84.4c.7 0 .3.1.4.2h.3c0 .1.1.2-.2.2s.2.3.4.4l.3.2.2.2c.3.2.8.7.3 1s.3.1.3.2-.7.9-.4 1.5.2.3-.4.3.1.5-.2.7l.7.3c.3.3-.2.4-.1.7h-.1c.4.1.2.3.3.4l.5.8c-.1856749.0901119-.2723081.3066949-.2.5-.5.3-.3.7-1.2.9h-1c-.7 0-.4-.1-.2-.1s.1-.2.2-.2.2-.6.4-.9-.3-.2 0-.3-.6-.6-1-.9-.2-.4.4-.6-.7-.7-.7-1.2.2-.9.5-1.3-.1-.3.5-.3 0-.4.2-.5-.1-.1-.3-.2.1-.5-.3-.8.1-.3-.3-.6.3-.1 0-.2-.3-.1 0-.1-.2-.1.3-.1-.1-.3.4-.2z" fill="#2e316a"/><path d="m75.9555556 91.3c-.5 0-.2-.1-.3-.2s-.1-.1-.2-.1-.1-.2.1-.2-.2-.2-.3-.3h-.2c-.1-.1-.1-.1-.1-.2s-.6-.5-.3-.8-.2-.1-.2-.2c.314792-.3962229.3912579-.9314842.2-1.4.1-.1-.2-.1.2-.2-.1061453-.199608-.0651455-.4456071.1-.6l-.5-.2c-.2-.2.2-.4 0-.7h.1c-.3 0-.2-.2-.2-.3l-.4-.6c.1-.2.2-.3.1-.4s.2-.7.7-1h.7c.5 0 .3.2.2.2s-.1.1-.1.2-.2.5-.3.7.2.2 0 .3.5.5.8.7.1.4-.3.6.6.5.5.9 0 .8-.2 1.2.1.3-.3.3 0 .3-.1.5h.2c-.1.2-.1.4.3.6s-.1.4.2.5-.2.2 0 .2.2.1 0 .1.1.1-.2.2.1.1-.2.2z" fill="#2e316a"/><path d="m58.3555556 64.8h.3c0 .1 0 .1-.1.2s.1.1.1.2h.2c.0861001.0759332.1354248.1851998.1354248.3s-.0493247.2240668-.1354248.3c-.2.2-.3.2-.4.1v.2c-.3232572-.0421145-.6397374.1161255-.8.4h-.2l-.3.3v.2c.1.2-.1.2-.1.4.0578613.0512889.0936857.1229376.1.2.0272855.149635.0966633.2883906.2.4v.2c0 .2.1.3.1.6l-.2.2c-.1.1 0 .1-.1.1s-.2 0-.1 0v-.2c-.2-.1-.2-.4-.2-.6s-.1-.1 0-.2-.3-.4-.5-.6 0-.4.2-.5c-.0838528-.3146694-.0092325-.6504607.2-.9.3182804-.2088289.6192506-.4429168.9-.7.2.1.2-.1.4.1s.2-.1.3-.1v-.2c0 .0552285.0447715.1.1.1.0552284 0 .1-.0447715.1-.1 0 .1 0 0-.1 0h-.1c0-.2.1-.3-.1-.4s.1-.1 0-.2c0-.1-.1-.1.1-.1s-.2.3 0 .3z" fill="#2e316a"/><path d="m38.4555556 65.5c.1-.4.1-.2.1-.2l.2-.2s.1 0 0 .2.2-.1.3-.1h.4c.4 0 .8.2.6.6s.2-.1.3 0c-.2382263.3774877-.1974212.8671496.1 1.2-.1.1.2.1-.2.2s.2.3 0 .5h.5c.2.2-.1.3.1.5h-.2c.4 0 .3.1.3.2l.4.5c-.1.2-.2.3-.1.4s-.2.5-.8.7h-.7c-.5 0-.2-.1-.1-.1s0-.1.1-.1.1-.4.3-.6-.2-.1 0-.2-.5-.3-.8-.5-.2-.2.2-.4-.5-.3-.6-.6 0-.5 0-.8-.1-.2.3-.4-.1-.2 0-.3h-.3c.1-.2 0-.3-.3-.2s-.1-.2-.3 0h.1z" fill="#2e316a"/><path d="m77.0555556 64.3c.4.6.1.3.1.4s0 .2.1.3 0 .2-.2 0 0 .2.1.4v.3c.1.1 0 .1.1.2s.4.8-.1.6.2.3.2.3-.8 0-.7.4.2.2-.4 0 .1.3-.3.3l.7.3c.2.3-.3.2-.1.4h-.2c.4.2.2.3.3.3l.4.5c-.2 0-.2.1-.2.2s-.3.3-1.1.4l-.8-.2h-.3c-.7 0-.3-.1-.2-.1s.1-.1.2-.1.2-.3.5-.4-.3-.2 0-.2c-.3427872-.2142463-.6470425-.4846954-.9-.8.3-.1-.2-.3.4-.3s-.5-.7-.4-1 .5-.6.8-.8.1-.2.6.1.2-.2.4-.1-.1-.1-.2-.3.3-.2.1-.7.3-.1.1-.6.3.2.2-.1-.1-.3.1 0 0-.2.3.2.1-.4.4.1z" fill="#2e316a"/><path d="m61.7555556 72.2c.1.2-.1.1-.1.1v.2s-.1.1-.1 0l-.2.2c-.1 0-.1.1-.1.2h-.1c-.2.1-.5.4-.8.3h-1.5c-.1 0-.2.1-.2-.1h-.6c-.1.1-.1.2-.2.2s-.3 0-.6 0h-1.3c-.3-.2-.6-.2-.7-.5s0-.1.1-.3-.1 0 0-.1.1-.1.1 0h.2l.6.3c.1 0 .1-.1.2 0l.7-.3c.2.2.3 0 .5.2.1864686-.2459501.4977893-.3626953.8-.3.365002.0494103.7349979.0494103 1.1 0 0 .1.2 0 .2.2s.3-.1.4-.1.1 0 .1-.1c.2137604.0175923.4149294-.1031091.5-.3.2-.1.3 0 .4-.2h.1c.1 0 0-.1.1 0s.1-.1.2 0 .1.2.2.4z" fill="#2e316a"/><path d="m135.155556 62.4c-1.024069-1.0964044-2.633013-1.4181931-4-.8-1.307494.6730973-2.20361 1.9425943-2.4 3.4-.146631 1.4705528.283619 2.9405725 1.2 4.1.902121 1.1090892 2.072387 1.969579 3.4 2.5l2.2.8" fill="#ffbab3" fill-rule="nonzero"/><path d="m169.755556 62.9c.844993-1.0290453 2.238906-1.427306 3.5-1 1.208188.4868777 2.103632 1.5315616 2.4 2.8.274106 1.3094503.022709 2.6741737-.7 3.8-.74081 1.089636-1.736253 1.9821022-2.9 2.6l-1.9.8" fill="#ffbab3" fill-rule="nonzero"/><path d="m135.755556 71.8c-.1.4-.3.1-.4.1s-.3.1-.4.1-.4 0-.4-.2-.5-.1-.8-.1h-.9c-.875469.044392-1.710233-.3729901-2.2-1.1h-.5l-1-1.8c-.322481-.5736062-.590326-1.1762573-.8-1.8.1-.3-.3-.5.1-.7-.221633-.5532603-.184969-1.1765398.1-1.7-.111164-.2182606-.179077-.4559564-.2-.7 0-.7.5-1 .9-1.7s.2.1.1 0 .3-.6.6-.8c.5163-.5131922 1.127707-.9207964 1.8-1.2h1.4c.49479.1722439.96533.4075136 1.4.7.452511.1867886.76172.6119514.8 1.1-.2.3-.3.1-.5.2s.2.3 0 .3-.4 0-.4-.1-.1-.3-.2-.4-1-.5-1.7-.7-.4.3-.7.1c-.472362.3729708-.849376.8528073-1.1 1.4-.6.2-.4.7-.9.8.050063.6991049.050063 1.4008951 0 2.1-.087941.9088463.122693 1.8215953.6 2.6 0 .3.4.4.2.7s.5.6.7.8h.3c.388144.4791435.984675.7401255 1.6.7.5.2.7.4 1.2.2s.2.3.5.2.2-.1.1.1.4 0 .3.3.5.1.4.5z" fill="#2e316a"/><path d="m170.455556 72.5c-.2-.4.1-.2.2-.4s.1-.2.2-.3.3-.2.4-.1.4-.3.5-.5l.2-.3.3-.3c.3-.5.7-1.2 1.4-1.4s0-.3 0-.4c.928633-.4867651 1.507505-1.4515518 1.5-2.5.2-.2-.1-.3.3-.5-.131578-.4201254-.165775-.8646937-.1-1.3l-.6-.3c-.4-.2-.3-.7-.7-1s.1-.1 0-.1-.4-.1-.6-.2c-.35946-.1028154-.740541-.1028154-1.1 0h-.6c-.269713-.069114-.5556-.0333782-.8.1l-1 .2c-.3-.2-.1-.2-.2-.4s-.3.2-.3-.1.1-.4.2-.3.3-.2.4-.3c.553574-.3838747 1.238641-.5280994 1.9-.4.3 0 .4-.2.7 0 .6562-.2143499 1.368454-.1787372 2 .1.5.6.9.6.9 1.3.906424.4864931 1.422303 1.4785685 1.3 2.5-.134526 1.1189118-.473486 2.2035849-1 3.2-.3.1-.4.6-.8.5s-.5.6-.7.7-.1.2-.1.4c-.544109.2602265-.997146.6784151-1.3 1.2-.5.5-.7.3-.9.8s-.4-.1-.5.2-.1.3-.2.1-.2.2-.4-.1-.4.2-.5-.1z" fill="#2e316a"/><path d="m169.455556 86c-.5-7.8.1-5.8 0-18-.1-7.5-1.6-16.1-6.8-21.8s-11.6-6.4-17.4-2.6-9 11.5-10.1 18.2c-1.6 10.1-.6 17.2-.6 26.7l-9.9 6.7s8.8 13.1 27.9 12 28.6-12.1 28.6-12.1z" fill="#ffbab3" fill-rule="nonzero"/><path d="m168.655556 86.5c.1-.7 2.2 1.4 3.3 2.1 2.535949 1.4817813 4.885914 3.2610401 7 5.3.742849.3599518 1.446575.795592 2.1 1.3v-.2c-1.130247 1.1737532-2.33258 2.2758915-3.6 3.3-.890259.848926-1.824905 1.6500505-2.8 2.4l-3.7 2.2c-3.317019 1.894059-6.885885 3.308138-10.6 4.2-4.013018 1.034181-8.179187 1.339023-12.3.9h-2.2c-.738764.023927-1.477662-.043246-2.2-.2-4.038032-.756637-7.881583-2.321268-11.3-4.6-3.249754-1.945405-6.1003-4.4905352-8.4-7.5l-.4-.6.6-.5 9.9-6.8-.3.7c-.09488-.6285908-.128371-1.2649223-.1-1.9.2-3.1-.3-4.7.2-6.7-.480301-5.3407067-.244885-10.7216452.7-16-.107174-2.1083814.027031-4.2221038.4-6.3.562298-2.6381254 1.541229-5.1698438 2.9-7.5 1.556926-2.6506524 3.591219-4.9900902 6-6.9-.1.1.5.1.7-.2.354509-.4133954.757395-.7827078 1.2-1.1l2.3-1c1.639935-.5558779 3.370938-.7934666 5.1-.7 1.251093.0684765 2.491379.269604 3.7.6 1.473029.501027 2.882561 1.1722328 4.2 2 2.814315 2.0107973 5.082755 4.6916815 6.6 7.8 1.481145 3.5808621 2.457158 7.3502916 2.9 11.2.2 2 .2 4 .2 6.1s-.1 4-.1 6.1-.3 4.1-.4 6.1-.1 1.9-.2 2.9v1.5c-.1.4-.1.7-.2 1.2s-.4-1.4-.7-1.6-.2.5-.2 1.3.1 1.3-.1 0c-.1.2-.3.1-.4-.2s-.1-.9-.1-1.3c-.023261-.7718429.043862-1.5437569.2-2.3-.048646-1.6360043.018186-3.2734022.2-4.9-.1-5.9.6-13.1-.8-19.5-.325831-1.3785267-.795054-2.7191637-1.4-4-.5-1-.9-2-1.5-3.3-1.613089-2.3673831-3.730452-4.3481425-6.2-5.8-1.378236-.8099881-2.91142-1.3210494-4.5-1.5-1.544681-.1735563-3.108462-.0375754-4.6.4-2.441276.5436298-4.66769 1.7959873-6.4 3.6-1.444215 1.5131588-2.749469 3.1530929-3.9 4.9-1.37787 3.5044137-2.318301 7.1653774-2.8 10.9-.604791 4.5406285-.87219 9.1198399-.8 13.7 0 4.2.1 8.3.1 12.4v.8l-.6.4-10 6.7.4-1.9c.776933.9821993 1.611748 1.9171923 2.5 2.8l2.9 2.6 1.6 1.2c.597772.424915 1.233858.793176 1.9 1.1 1.060832.531752 2.065832 1.168252 3 1.9l2.4.7 2.8.8 2.8.6 2.5.4c.987684-.198525 1.992562-.299012 3-.3 1.6 0 3.1-.2 4.6-.3l2.1-.3 2.2-.4c2.958016-.700434 5.81446-1.775801 8.5-3.2 2.10185-1.005782 4.139116-2.1413068 6.1-3.4 1.506206-.9925472 2.883399-2.1682001 4.1-3.5l1.2-1.2.2 2.4c-.923888-.9321745-1.966121-1.7390646-3.1-2.4-.8-.7-1.5-.8-1.5-1.2-2.1-1.8-2.9-2.1-3.2-3s-4.1-3-3.7-3.3z" fill="#2e316a"/><path d="m146.755556 59.3c0 .2 0 0-.1 0s0 .1-.1.1c-.1.2-.1.1-.2.1 0 .0552285-.044772.1-.1.1-.2.1-.3.3-.4.1h-.1c-.090112-.1856748-.306695-.272308-.5-.2 0 0 0 .1-.1-.1s-.1.1-.2 0v.2c-.1.2-.2 0-.3.1 0 .2-.1.2-.1.2l-.2.2h-.1c-.2-.1-.3.1-.5-.2s0-.1-.1-.2c-.1-.2 0-.1 0-.1.055228 0 .1.0447715.1.1.037966-.0430501.092599-.0677124.15-.0677124.0574 0 .112033.0246623.15.0677124.1 0 .1-.2.1-.1s.2-.3.2-.4.2-.1.3 0 .2-.3.4-.3h.6c0 .1.1 0 .1.2s.2 0 .2.1 0 0 .1-.1.1.1.3 0 .1.1.3-.1 0 .2.1.1.1 0 0 .1.1-.1 0 .1z" fill="#2e316a"/><path d="m161.355556 59.5c-.1.2-.1 0-.1 0 0 .0552285-.044772.1-.1.1-.055229 0-.1-.0447715-.1-.1h-.3c-.2.1-.4.2-.4 0-.055229 0-.1.0447715-.1.1-.156766-.1583675-.379567-.2326346-.6-.2-.1 0-.1.1-.1-.1-.037967.0430501-.0926.0677124-.15.0677124-.057401 0-.112034-.0246623-.15-.0677124v.2c-.1.1-.2 0-.3 0 0 .2-.1.1-.1.1l-.3.3c0-.0265216-.010536-.051957-.02929-.0707107-.018753-.0187536-.044189-.0292893-.07071-.0292893-.2-.1-.3 0-.5-.2v-.2c0-.1-.1 0-.1-.1s0-.1.1-.1h.5c0 .1 0-.1.1 0l.3-.4c.1.1.2-.1.3.1s.3-.3.5-.3l.6.2c.1.1.2 0 .2.2s.1 0 .2.1.2 0 .4-.1h.4c0 .1.1 0 0 .1s.1-.1.1.1-.1.1-.2.3z" fill="#2e316a"/><circle cx="146.255556" cy="63.9" fill="#2e316a" fill-rule="nonzero" r="1"/><circle cx="158.755556" cy="63.9" fill="#2e316a" fill-rule="nonzero" r="1"/><path d="m134.255556 84.4c.6 0 .2.1.3.2h.4c-.1.1 0 .2-.2.2s.2.3.3.4l.4.2c.1 0 0 .1.1.2s.9.7.3 1 .3.1.4.2-.7.9-.5 1.5.2.3-.4.3.1.5-.2.7l.7.3c.3.3-.2.4 0 .7h-.2c.5.1.3.3.3.4l.5.8c-.2.1-.2.3-.2.5s-.3.7-1.1.9h-1.1c-.7 0-.3-.1-.2-.1 0-.1104569.089543-.2.2-.2-.1-.3.2-.6.4-.9s-.3-.2.1-.3-.7-.6-1.1-.9-.2-.4.4-.6-.7-.7-.6-1.2.2-.9.4-1.3 0-.3.6-.3 0-.4.2-.5l-.4-.2c.3-.2.2-.5-.3-.8s.2-.3-.3-.6.3-.1 0-.2-.3-.1 0-.1-.1-.1.4-.1-.2-.3.4-.2z" fill="#2e316a"/><path d="m170.055556 91.3c-.4 0-.2-.1-.3-.2s-.1-.1-.2-.1-.1-.2.1-.2-.1-.2-.2-.3h-.3v-.2c-.3-.2-.6-.5-.3-.8s-.2-.1-.2-.2c.314792-.3962229.391258-.9314842.2-1.4.2-.1-.1-.1.2-.2s0-.4.2-.6l-.5-.2c-.3-.2.1-.4 0-.7h.1c-.4 0-.2-.2-.3-.3-.07936-.2096711-.179879-.4107095-.3-.6.06771-.1223057.102188-.2602196.1-.4.3-.3.1-.7.7-1h.7c.4 0 .2.2.1.2s0 .1-.1.2-.1.5-.2.7.2.2 0 .3.4.5.7.7.2.4-.2.6.5.5.5.9c-.115262.3903684-.182426.7933505-.2 1.2-.2.1 0 .3-.4.3s0 .3-.1.5h.3c-.2.2-.1.4.2.6s-.1.4.3.5-.3.2 0 .2.2.1 0 .1.1.1-.3.2.1.1-.3.2z" fill="#2e316a"/><path d="m152.555556 64.8c.2 0 .1.1.1.1h.1v.2c.1 0 0 .1.1.2h.1c0 .0552285.044771.1.1.1 0 .1.2.3 0 .6s-.4.2-.5.1 0 .2-.1.2c-.318737-.0179894-.62315.1342174-.8.4h-.2c0 .1333333-.1.2333333-.3.3l.2.2c0 .2-.2.2-.1.4h-.1c.2.1.1.2.1.2l.2.4c.006314.0770624.042138.1487111.1.2-.1.2 0 .3 0 .6l-.2.2c-.1.1 0 .1-.1.1s-.1 0-.1 0 0-.1-.1-.2-.1-.4-.1-.6-.2-.1-.1-.2-.3-.4-.4-.6 0-.4.2-.5-.1-.6.2-.9c.280749-.2570832.581719-.4911711.9-.7.1.1.2-.1.3.1s.2-.1.3-.1.1-.1.1-.2.1 0 .1 0 .1 0 0 0h-.1c-.1-.2 0-.3-.2-.4s.1-.1 0-.2c.1-.1 0-.1.2-.1s-.1.1.1.1z" fill="#2e316a"/><path d="m132.555556 65.5c.1-.4.1-.2.1-.2l.2-.2s.1 0 0 .2.2-.1.3-.1h.5c.3 0 .8.2.5.6s.3-.1.3 0-.2.8.1 1.2.2.1-.2.2.2.3 0 .5h.5c.3.2-.1.3.1.5h-.1c.3 0 .2.1.2.2l.4.5c-.067711.1223057-.102189.2602196-.1.4-.3.2-.2.5-.8.7h-.7c-.4 0-.2-.1-.1-.1h.1c-.1-.2.2-.4.3-.6s-.2-.1 0-.2c-.270315-.1076418-.510507-.2792076-.7-.5.2-.2-.2-.2.2-.4s-.6-.3-.6-.6-.1-.5 0-.8-.1-.2.2-.4 0-.2 0-.3h-.2c.1-.2-.1-.3-.4-.2s0-.2-.3 0h.2z" fill="#2e316a"/><path d="m171.255556 64.3c.3.6 0 .3 0 .4s.1.2.1.3 0 .2-.2 0 0 .2.1.4l.2.3v.2c.1.4.4.8-.1.6.050513.1395724.160427.2494868.3.3-.6-.1-.8 0-.7.4s.1.2-.4 0 0 .3-.3.3l.6.3c.3.3-.3.2-.1.4h-.2c.5.2.3.3.3.3l.5.5c-.2 0-.3.1-.3.2s-.3.3-1.1.4l-.7-.2h-.4c-.6 0-.3-.1-.1-.1s0-.1.2-.1.2-.3.4-.4-.3-.2 0-.2l-.9-.8c.4-.1-.2-.3.5-.3s-.6-.7-.4-1 .4-.6.8-.8.1-.2.6.1.1-.2.3-.1-.1-.1-.2-.3.3-.2.2-.7.2-.1.1-.6.3.2.1-.1-.1-.3.1 0 0-.2.3.2.1-.4.4.1z" fill="#2e316a"/><path d="m155.855556 72.2c.1.2 0 .1-.1.1s0 .1 0 .2-.1.1-.2 0-.1.1-.2.2c-.006315.0770624-.042139.1487111-.1.2h-.1c-.1.1-.4.4-.7.3h-1.5c-.1 0-.1.1-.2-.1h-.5l-.3.2c-.2.2-.3 0-.5 0s0-.1-.1 0h-1.3c-.2-.2-.5-.2-.7-.5s.1-.1.1-.3-.1 0 0-.1.1-.1.1 0 .2 0 .2.1l.6.3c.1 0 .2-.1.3 0l.6-.3c.2.2.4 0 .5.2.199178-.2282718.499837-.341019.8-.3.365002.0494103.734997.0494103 1.1 0 .1.1.2 0 .3.2s.2-.1.3-.1.1 0 .1-.1c.231187-.0189428.446133-.1264159.6-.3.1-.1.2 0 .3-.2h.2c.1 0 .1-.1.2 0s.1.1.2.3z" fill="#2e316a"/><path d="m88.0555556 147.8c-1.0240684-1.096404-2.6330122-1.418193-4-.8-1.3074941.673097-2.2036096 1.942594-2.4 3.4-.0983369 1.46567.3269242 2.918646 1.2 4.1.9021212 1.109089 2.0723873 1.969579 3.4 2.5.7330445.354968 1.5049007.623439 2.3.8" fill="#ffe2c0" fill-rule="nonzero"/><path d="m122.655556 148.3c.860715-1.004817 2.238357-1.398429 3.5-1 1.208188.486878 2.103632 1.531562 2.4 2.8.274106 1.30945.022709 2.674174-.7 3.8-.70006 1.088155-1.663042 1.982352-2.8 2.6l-1.9.8" fill="#ffe2c0" fill-rule="nonzero"/><path d="m88.6555556 157.2c0 .4-.2.1-.4.1s-.3.1-.4.1-.4 0-.4-.2-.5-.1-.8 0h-.9c-.8403991.009634-1.6294009-.403653-2.1-1.1h-.5l-1.1-1.7c-.2-.6-.5-1.1-.8-1.9s-.2-.4.1-.7c-.1914478-.568006-.1180445-1.191934.2-1.7-.1801601-.190168-.2865402-.438389-.3-.7 0-.7.6-1 .9-1.7h.2c-.2-.4.3-.7.5-.9.5163005-.513192 1.1277069-.920796 1.8-1.2h1.5l1.3.7c.4518806.259639.7772734.693496.9 1.2-.3.2-.3 0-.5.1s.1.3-.1.3-.3 0-.3-.1-.2-.2-.3-.4-1-.5-1.6-.6-.5.2-.8 0c-.4490848.395577-.8219047.870075-1.1 1.4-.5.3-.4.7-.9.8.0998293.696441.0998293 1.403559 0 2.1-.0510262.919257.1943409 1.83062.7 2.6-.1.3.4.4.1.8s.5.5.7.8.2 0 .4 0c.377126.425751.9332872.648216 1.5.6.6.2.7.4 1.2.3s.2.3.5.1.2-.1.2.1.3 0 .3.3.4.2.3.5z" fill="#2e316a"/><path d="m123.355556 157.9c-.2-.4.1-.2.2-.3s.2-.3.2-.4.3-.2.5-.1.3-.3.5-.5v-.3l.3-.3c.3-.5.7-1.2 1.4-1.4s0-.3.1-.4c.874071-.480072 1.412356-1.402846 1.4-2.4.2-.3-.1-.4.3-.6-.086712-.427566-.120299-.864203-.1-1.3l-.6-.3c-.3-.2-.2-.7-.7-1h.1c-.3.2-.5-.1-.7-.2h-2.5l-.9.2c-.4-.2-.1-.2-.3-.4s-.3.2-.3 0 .1-.5.2-.4.3-.2.5-.3c.512482-.390473 1.170374-.536672 1.8-.4.3 0 .5-.2.7 0 .690278-.212296 1.433017-.176927 2.1.1.4.6.9.7.9 1.3.84811.532664 1.31488 1.5051 1.2 2.5-.073104 1.131201-.415996 2.228456-1 3.2-.3.1-.4.6-.7.5s-.5.6-.8.7-.1.2-.1.4c-.446749.27673-.82327.653251-1.1 1.1-.5.5-.8.4-1 .8s-.4 0-.5.2 0 .3-.1.1-.3.2-.5-.1-.3.4-.5 0z" fill="#2e316a"/><path d="m122.355556 171.4c-.4-7.8.1-5.8 0-18-.1-7.4-1.6-16.1-6.8-21.8s-11.6-6.4-17.4000004-2.6c-5.8 3.8-9 11.5-10.1 18.2-1.6 10.1-.6 17.2-.6 26.8l-9.9 6.7s8.9 13 27.9000004 11.9c19-1.1 28.6-12.1 28.6-12.1z" fill="#ffe2c0" fill-rule="nonzero"/><g fill="#2e316a"><path d="m121.555556 171.9c.2-.7 2.2 1.4 3.3 2.1 1.112519.627502 2.181596 1.329084 3.2 2.1 1.4 1.1 3.3 2.4 3.8 3.2l2.1 1.3v-.2c-1.104404 1.199942-2.308733 2.30391-3.6 3.3-.890259.848926-1.824905 1.650051-2.8 2.4l-3.7 2.3c-3.286589 1.860359-6.822401 3.241009-10.5 4.1-4.047195 1.033351-8.246007 1.338103-12.4.9h-4.4000004c-4.0057068-.8639-7.8298019-2.420611-11.3-4.6-3.2004426-2.01457-6.0119698-4.58898-8.3-7.6l-.5-.6.7-.5 9.8-6.7-.3.7c0-.5-.1-1.2-.1-2 .2-3.1-.3-4.7.2-6.7-.4803008-5.340707-.2448848-10.721645.7-16-.059589-2.074606.0743236-4.15025.4-6.2 1.2532209-5.720462 4.4298309-10.838333 9-14.5-.2.2.4.1.6-.2.396753-.407831.8321243-.776223 1.3-1.1.7063728-.389718 1.4419124-.724054 2.2000004-1 1.673177-.561329 3.437945-.798894 5.2-.7 1.217229.077514 2.423427.278547 3.6.6 1.492956.496188 2.907275 1.203348 4.2 2.1 2.862704 1.985267 5.169309 4.670568 6.7 7.8 1.401521 3.572527 2.374968 7.298481 2.9 11.1.1 2 .2 4 .1 6.1s0 4-.1 6.1-.2 4.1-.4 6.1-.1 2-.1 2.9v1.4c0 .4-.1.8-.1 1.2s-.4-1.4-.8-1.6-.2.5-.1 1.3.1 1.3-.2 0c-.1.3-.2.1-.3-.2s-.1-.9-.2-1.3c-.017272-.771662.049793-1.542902.2-2.3-.06917-1.639308.031364-3.281374.3-4.9-.1-5.9.6-13.1-.9-19.5-.325831-1.378527-.795054-2.719164-1.4-4-.4-1-.9-2-1.5-3.3-1.546367-2.388262-3.636853-4.375937-6.1-5.8-1.410279-.737087-2.929526-1.243502-4.5-1.5-1.577801-.171133-3.173811-.035302-4.7.4-2.421179.521133-4.6218101 1.778637-6.3000004 3.6-1.4831329 1.5051-2.8222942 3.145572-4 4.9-1.3197124 3.522978-2.2583965 7.177141-2.8 10.9-.5694199 4.576786-.8033772 9.189087-.7 13.8-.1 4.1.1 8.2 0 12.4v.7l-.6.4-9.9 6.7.3-1.9c.7769331.982199 1.6117482 1.917192 2.5 2.8.9309159.943309 1.9339547 1.812609 3 2.6l1.5 1.2 1.9 1.2c1.0733256.468337 2.0816668 1.073342 3 1.8l2.4.7 2.8.8 2.8.6 2.5000004.4c1.4-.3 1.6-.1 3-.3 1.536073.035544 3.072808-.031271 4.6-.2l2.2-.4 2.1-.4c2.962998-.68403 5.821532-1.760184 8.5-3.2 2.143423-.987367 4.215147-2.123474 6.2-3.4 1.453916-1.021214 2.794825-2.19451 4-3.5l1.2-1.1.2 2.3c-.92969-.925595-1.971037-1.7318-3.1-2.4-.8-.7-1.5-.8-1.5-1.2-2-1.8-2.9-2.1-3.2-3s-4.1-3-3.8-3.3z"/><path d="m99.7555556 144.7h-.6c-.1.1-.3.2-.4 0-.2-.2-.3-.2-.5-.1s-.1 0-.1-.2h-.3v.3c-.1.1-.2-.1-.2 0h-.1c.1.1 0 .1-.1.1v.3h-.2c-.2-.1-.3 0-.5-.2v-.3h-.1c-.1-.2 0-.1 0-.1h.5s0-.2.1-.1c.0272855-.149635.0966633-.288391.2-.4h.2c.1-.2.2-.3.4-.3h.6c.1.1.2 0 .2.2h.5c.2 0 .2.1.3-.1s0 .2.1.1c0 .1.1 0 0 .1s0 .5 0 .7z"/><path d="m114.255556 144.9c0 .2 0 0-.1.1h-.1s-.1 0 0-.1h-.4c-.1.1-.3.3-.4 0s-.1.1-.1.2-.4-.3-.6-.2-.1 0-.1-.2h-.3v.2h-.3c0 .2-.1.1-.1.1l-.2.3h-.2c-.2-.2-.3 0-.5-.2s0-.2-.1-.3c-.1-.2 0-.1 0-.1h.6l.3-.4c.2.1.2-.1.3.1s.3-.3.5-.3l.7.2c0 .1.1 0 .1.2s.1 0 .2.1 0-.1.1-.1c.037966.04305.092599.067712.15.067712.0574 0 .112033-.024662.15-.067712h.5s.1 0 0 .1 0 .1-.1.3z"/><circle cx="99.155556" cy="149.3" fill-rule="nonzero" r="1"/><circle cx="111.755556" cy="149.3" fill-rule="nonzero" r="1"/><path d="m87.1555556 169.8c.6 0 .2.1.3.2s.2.1.4.2.1.1-.2.2.2.2.3.3l.4.2.2.2c.3.3.8.7.3 1s.3.1.3.2-.7.9-.5 1.6.2.2-.3.2.1.5-.3.7l.7.3c.4.3-.2.4 0 .7h-.2c.5.1.3.3.4.4.0762889.313501.2516309.594049.5.8-.1968909.085071-.3175923.28624-.3.5-.4.3-.3.7-1.1.9h-.7c-.3 0-.1.2-.4 0s-.3-.1-.1-.1 0-.2.1-.2.3-.6.5-.8-.3-.3 0-.4-.7-.6-1-.9-.3-.4.4-.6c-.8-.4-.7-.7-.7-1.1s.2-.9.4-1.4 0-.3.6-.3 0-.4.2-.5h-.3c.2-.3.1-.5-.3-.9s.1-.3-.4-.5.4-.2 0-.3-.3-.1 0-.1-.1-.1.4-.1-.2-.4.4-.4z"/><path d="m122.955556 176.7c-.4 0-.1-.1-.2-.2h-.3v-.2c-.2-.1-.1-.2-.2-.3h-.3c-.2-.3-.6-.6-.2-.9l-.3-.2c.297135-.365155.373637-.862419.2-1.3.2-.2-.1-.2.3-.3-.106146-.199608-.065146-.445607.1-.6l-.5-.2c-.2-.2.1-.4 0-.6h.1c-.3 0-.2-.2-.2-.3l-.4-.6c.079537-.117335.114963-.25904.1-.4.3-.3.2-.7.7-.9h.7c.5-.1.2.1.1.1s0 .1-.1.2-.1.5-.2.7.2.2 0 .3l.7.7c-.2.3.2.4-.2.6s.5.5.5.9c-.115262.390368-.182426.79335-.2 1.2-.2.1 0 .3-.4.4s.1.3-.1.4h.3c-.2.2-.1.4.2.7s0 .3.3.4-.2.2 0 .2.2.1 0 .1.1.1-.2.2.1-.1-.3-.1z"/><path d="m105.455556 150.2c.2 0 .1.1.1.1h.1c0 .1.1.2 0 .2s.1.1.1.2h.2c0 .1.2.3 0 .6-.125709.141917-.311096.216072-.5.2-.349415-.033883-.691008.117936-.9.4-.1 0 0 .2-.2.1l-.2.3v.2c.1.2-.1.2-.1.4h-.1l.2.2.2.4c-.1.1-.1.1 0 .2s.1.3 0 .7h-.2c-.1.1.1.1 0 .1s-.2 0-.2 0v-.2c-.2-.1-.2-.4-.2-.6s-.2-.1-.1-.2-.3-.4-.4-.6 0-.4.2-.5 0-.6.2-.9.5-.5.9-.6.2-.2.3 0 .3-.1.4-.1h.2c0 .1 0 .1-.1 0h-.1c-.1-.2 0-.3-.1-.4s.1-.1 0-.1-.1-.1 0-.1-.1-.1.1-.1 0 .1.2.1z"/><path d="m85.4555556 150.9c.1-.4.1-.1.2-.2s.1-.1.1-.2.1 0 .1.2.1-.1.3-.1h.4c.3 0 .8.2.6.6h.2c-.1361554.40844-.0612627.857796.2 1.2-.2.1.1.1-.2.2.0893164.154701.0893164.345299 0 .5h.5c.2.2-.1.4 0 .5h-.1c.3 0 .2.1.3.2l.3.6c-.0731248.08202-.1092881.190509-.1.3-.3.3-.2.6-.7.7h-.8c-.4 0-.2-.1-.1-.1h.2c-.1-.2.1-.4.2-.5s-.2-.2 0-.3-.4-.3-.7-.5-.2-.2.2-.4-.6-.3-.6-.6 0-.5 0-.8-.1-.2.3-.3-.1-.2 0-.4h-.3c.1-.3 0-.4-.4-.3s0-.2-.2 0c.1 0 0 0 .1-.1z"/><path d="m124.155556 149.7c.3.6 0 .3.1.4s0 .2.1.4-.1.1-.2-.1 0 .2 0 .4l.2.3v.2c.2.4.5.9 0 .6l.2.3c-.5-.1-.8 0-.7.4s.1.2-.4 0 0 .3-.3.3c.22955.08256.435501.219861.6.4.3.2-.2.1-.1.3h-.2c.5.1.3.2.3.2l.5.5c-.2 0-.3.1-.2.2s-.3.3-1.2.4h-1c-.7 0-.4-.1-.2-.1h.2c-.2-.2.2-.3.4-.4s-.2-.2.1-.2-.6-.5-1-.8-.1-.3.5-.3-.6-.7-.4-1 .4-.5.8-.7.1-.3.6.1.1-.3.3-.2l-.2-.3c.3 0 .3-.2.2-.7s.3-.1.1-.5.3.2.2-.2c.2.1 0-.2.4.2s0-.5.3-.1z"/><path d="m108.755556 157.6c.1.2 0 .1 0 .1v.2h-.2c0 .2-.1.1-.2.2v.2h-.2c-.131832.254247-.424972.379878-.7.3-.1 0-.1.1-.1.2h-2.1l-.2.3c-.2.1-.4-.1-.6-.1h-1l-.4-.2c-.2-.2-.5-.2-.7-.5l.2-.2c0-.1-.2-.1-.1-.2s.2 0 .2 0c.055228 0 .1.044772.1.1l.6.3h.3l.7-.3c.2.2.3 0 .4.2.230456-.244994.568638-.357722.9-.3.331511.049288.668488.049288 1 0 .1.1.2 0 .3.2s.3-.1.4-.1c.238012.008583.464059-.10444.6-.3.2-.1.3 0 .3-.2h.4s0-.1.1.1z"/><path d="m60.3555556 42.7c-1.1487508 4.7195467-3.9516988 8.8707481-7.9 11.7-1.0668274.8566606-2.3451293 1.4094398-3.7 1.6-.2572153.1004066-.5427848.1004066-.8 0-.1908986-.1953647-.3286036-.4363484-.4-.7-.4-1.5.9-3 2.1-4 .5339688 1.3592313.2638296 2.9028834-.7 4-.9561278 1.0507852-2.1119379 1.9006456-3.4 2.5-.4.3-1.3.2-1.1-.3-.9264752 1.9270561-2.2974373 3.6064848-4 4.9.232583-.4960611.1544302-1.0822073-.2-1.5-.3768092-.3911893-.7775827-.7585651-1.2-1.1-1.1324761-1.1613242-1.5860763-2.8245251-1.2-4.4.3204242-1.5349656.9313944-2.9945056 1.8-4.3-.2616364.5382074-.8017458.8854205-1.4.9-.6084807-.0398484-1.1074905-.497274-1.2-1.1-.0847665-.6903548.134131-1.3835301.6-1.9 2.1-3.1 4.4-6.5 8.1-7.6-.5220379.2779928-1.1624539.1979408-1.6-.2 4.1-3.7 10.2-4.2 15.4-2.7 1.9192018.3636895 3.6320895 1.4342443 4.8 3 1.1-1.4 3.3-.8 4.8.1 4.2291003 2.6194995 7.2764128 6.7781848 8.5 11.6-.474355.1488324-.9913636-.0102471-1.3-.4 1.5.6 2 2.3 2.3 3.9.1285938.5399936.0575585 1.1082755-.2 1.6-.1658163.1988691-.4176287.3051874-.6757945.2853284-.2581659-.0198589-.4907554-.1634388-.6242055-.3853284.3812027.4145815.4227963 1.0384852.1 1.5-.2423734.4962626-.5825112.9384417-1 1.3-.9938813 1.2490172-1.5239834 2.8039835-1.5 4.4l.6-4.5c.3311102-1.0416902.1846861-2.1764771-.4-3.1-.5945093-.5400814-1.3175079-.9187949-2.1-1.1-6.4237825-2.2286562-11.3527393-7.4563376-13.2-14" fill-rule="nonzero"/><path d="m59.3555556 42.9c.1-.3.2.2.4.8l.8 2c.3.4 1 1.9 1.5 2.6s2 2.6 2.5 3.2c1.4520565 1.3426573 3.0254551 2.5478137 4.7 3.6.8979544.4779709 1.8346042.8793923 2.8 1.2l1.6.5c.5767203.2007195 1.0929049.5448426 1.5 1 .5882483 1.1048634.7313698 2.3929569.4 3.6-.1 1.3-.3 2.6-.4 4h-.7c-.0876248-1.4184835.2993826-2.8257831 1.1-4 .4-.6.9-1.1 1.3-1.6s.4-1.1.1-1.4l.6-.3h.3l.4-.2c.1356286-.4878887.1696644-.9984251.1-1.5-.1392155-.5541932-.3404874-1.0909182-.6-1.6-.2154904-.4628157-.483952-.8990659-.8-1.3l-.7-.5.5-.6c.0433418.1400326.1459503.2539922.2806847.3117355.1347345.0577433.2880214.0534532.4193153-.0117355l-.2.4c-.7876521-3.2283503-2.408232-6.1936666-4.7-8.6-1.0981022-1.1277737-2.3425338-2.1031391-3.7-2.9-.6961485-.3371806-1.4370052-.5729078-2.2-.7-.7736379-.1410111-1.5656964.1230084-2.1.7l-.2.3-.2-.3c-.6090526-.954537-1.4757736-1.7172515-2.5-2.2-1.2784164-.5431082-2.6236415-.9130451-4-1.1-1.783152-.3050163-3.5913685-.4389582-5.4-.4-2.9133237.248064-5.6758733 1.4020404-7.9 3.3v-.2c.3490448.350085.9015191.392583 1.3.1v.3c-.7272722.2727531-1.4298409.6073097-2.1 1-1.326796.9617446-2.4771092 2.1458905-3.4 3.5-.9449255 1.211308-1.8132822 2.4804447-2.6 3.8-.4.7-.4 1.3.1 1.7.2668559.1750362.6012301.2121889.9.1.2876474-.0872541.5127458-.3123526.6-.6l.7.2c-.652281 1.1085372-1.1884528 2.2814131-1.6 3.5l-.2.4c-.11806.9705973-.050184 1.9547989.2 2.9.1773778.5880233.5254315 1.1101038 1 1.5.4.5 1 .8 1.4 1.4.120121.1892905.2206402.3903289.3.6.0592609.3787287-.0112193.7663697-.2 1.1l-.6-.5c1.5567241-1.3472987 2.8458476-2.9756653 3.8-4.8l.2-.3.7.7c0 .1 0-.1-.1-.2h.7l.3-.2.7-.4c.8753927-.5759945 1.6240055-1.3246072 2.2-2.2.6649498-.8545403.8178231-2.00109.4-3l.9.2c-.6347287.5015659-1.1763097 1.1108445-1.6 1.8-.2179985.2928925-.3558661.6375617-.4 1-.0521683.3464614.0185902.7002542.2 1h.1c.1.1.3 0 .5 0l1-.2 2.2-1.2c1.31503-.9297702 2.5224661-2.0030467 3.6-3.2 2.1553613-2.3731364 3.7300688-5.2144565 4.6-8.3.3-.4-.2 1.3-.2 1.5s.8-2.8.4-.9c.2-.2 0 .4-.2 1.2-.1591277.5628133-.3946533 1.1011576-.7 1.6-.5114684 1.2487531-1.1838197 2.425368-2 3.5-1.5143299 2.1950029-3.4523306 4.0650036-5.7 5.5l-1.9.8-1 .3c-.3926237.060601-.7925063-.0484579-1.1-.3-.4020981-.5894018-.4774225-1.3426462-.2-2 .2603219-.6287993.6330808-1.2048813 1.1-1.7l1-1h.1c.3299767.8296672.3652756 1.7474385.1 2.6-.3263733.8090578-.8405259 1.5288714-1.5 2.1-.5035588.5384118-1.0750207 1.0090275-1.7 1.4l-1.1.6-.7.2-.4-.2c-.0972367-.0363479-.1687724-.1203816-.1891308-.2221738-.0203585-.1017923.0133538-.2068756.0891308-.2778262h.3c-.9621774 1.933585-2.2860627 3.6648197-3.9 5.1l-1.6 1.3 1.1-1.8c.122306-.2302753.0818909-.5131814-.1-.7-.1077657-.2987988-.3211983-.5478035-.6-.7-.6111721-.3694112-1.152729-.8432734-1.6-1.4-.7038979-1.5445671-.7756791-3.3032053-.2-4.9.3826819-1.1815448.8853013-2.3208155 1.5-3.4l.8.3c-.3132262.7179847-1.0167733 1.1870162-1.8 1.2-.8276742-.0431294-1.5036175-.6768263-1.6-1.5-.0375353-.6077322.1394147-1.2093621.5-1.7.2285467-.4874403.4960828-.9556285.8-1.4l1.9-2.7c1.4060709-1.9694915 3.4023856-3.4404602 5.7-4.2l3.3-1.1-2.8 2c-.726424.5197704-1.7312042.3887121-2.3-.3l-.3-.4.4-.3c1.5144153-1.3694634 3.3301096-2.3629564 5.3-2.9 2.7057939-.7281182 5.5367281-.8645487 8.3-.4 1.3276231.2605329 2.6319064.6284077 3.9 1.1 1.3747434.5451057 2.5576501 1.4844728 3.4 2.7h-.8c.3239703-.413269.7850779-.6970275 1.3-.8.4432314-.1852952.9349319-.2204167 1.4-.1.9064046.1143237 1.7861104.3850024 2.6.8 1.4964643.967002 2.8727721 2.1083304 4.1 3.4.7974989.9162681 1.5324898 1.8851197 2.2 2.9.5626385.831814 1.000606 1.7414386 1.3 2.7.4753203.9567437.8441955 1.9627671 1.1 3v.3h-.2c-.5839236.2453585-1.2596833.0341836-1.6-.5l-.6-.8 1 .4c.7635217.4249972 1.3621928 1.0941002 1.7 1.9.2481524.6436084.4160834 1.3153326.5 2 .2000215.437691.2694671.9238106.2 1.4-.0359948.2089497-.103426.4112434-.2.6-.210354.243282-.489142.4175245-.8.5h-.6c-.2210229-.1251593-.3694771-.3478407-.4-.6l-.2-1.1.7.9c.4715006.6705537.43039 1.5749868-.1 2.2-.4925412.4823685-.9286725 1.0191454-1.3 1.6-.68969 1.0712747-1.0383607 2.326489-1 3.6h-.5l.3-2.9c.1663068-.9908559.2333055-1.9958366.2-3 .0194036-.5135755-.1596444-1.01491-.5-1.4l-1.2-.7-2.4-1.2c-1.4566089-.5939854-2.8338146-1.3665642-4.1-2.3-1.1904379-.9326307-2.2948593-1.9701175-3.3-3.1l-1-1.2c-.785493-.9138758-1.3956993-1.9647867-1.8-3.1l-1-2.4c-.1869932-.4496388-.3212228-.9194423-.4-1.4z"/><path d="m64.0555556 41c-2.0952556-4.455042-1.5158104-9.7086785 1.5-13.6 3.1006569-3.7640554 8.0126653-5.5293084 12.8-4.6 1.3269663.1137879 2.5353644.8095323 3.3 1.9.5479391 1.4922681.1090821 3.1679042-1.1 4.2-1.257949.97283-2.7337411 1.6249243-4.3 1.9.1691364-.3448349.4074089-.6511853.7-.9 1.2818104-.9974248 3.0016349-1.2267347 4.5-.6 1.481891.6369885 2.6630115 1.818109 3.3 3.3.7 1.4.9 3.3-.4 4.3s-2.6.5-3.9.1c1.1073913-.8756318 2.6934481-.789899 3.7.2.9745991 1.0651785 1.0172269 2.6850366.1 3.8-.8662348.7418423-1.9600503 1.1652548-3.1 1.2-1.8545646.300603-3.7454355.300603-5.6 0-3.6-.6-7.4-2.3-10.9-1.2" fill-rule="nonzero"/><path d="m64.7555556 41.3c-.3-.1 1-.4 1.6-.4s1.1-.1 1.6-.1c.7451118-.0269182 1.4893003.074562 2.2.3l3.2.6 1.7.2 1.9.3c1.6413471-.0034034 3.2798316-.1371573 4.9-.4.8429371-.1540284 1.6141311-.5746797 2.2-1.2.4893788-.660346.6377021-1.5132051.4-2.3-.2-.6-.5-.8-1.1-1.2-.8664531-.4441441-1.9084435-.3669596-2.7.2v-.6c.9841778.3911171 2.0590875.4951406 3.1.3.8978263-.3479407 1.4650624-1.2393118 1.4-2.2-.0047995-1.0346787-.318162-2.0444023-.9-2.9-.6691245-.9645712-1.5610055-1.7535429-2.6-2.3-.4790044-.2023272-.9838542-.3369538-1.5-.4h-1.4c-.5050545.0948-.9830383.2996502-1.4.6-.4086072.2624557-.7236538.6475127-.9 1.1l-.2-.3c1.2858604-.2661327 2.5302651-.703356 3.7-1.3.6691071-.5829383 1.155313-1.3469761 1.4-2.2.3693896-1.0019899.1366603-2.126848-.6-2.9-.9770656-.7510543-2.1679611-1.1713704-3.4-1.2.1 0-.2-.2-.3-.1-1.2404604-.0307088-2.4806904.0698503-3.7.3-1.1042826.2464245-2.1775983.6153768-3.2 1.1-1.1948194.6548364-2.2755178 1.4991321-3.2 2.5-1.1884057 1.0746594-2.1124376 2.4093722-2.7 3.9-.6957612 1.6084457-1.0368324 3.3479085-1 5.1-.019774 1.741177.2854471 3.470763.9 5.1-.1.3-.4-.6-.5-.6s.6 1.4.1.5-.3-.2-.4-.6-.3-.8-.3-.9c-.229067-.7442459-.3304998-1.5218976-.3-2.3-.4345152-2.9844028.2803232-6.0224659 2-8.5.608122-1.0530146 1.3851396-1.998949 2.3-2.8.978009-.9283401 2.0905406-1.7037409 3.3-2.3 1.4314789-.6425861 2.9463762-1.0802231 4.5-1.3 1.2403137-.0256723 2.4800235.0748447 3.7.3 1.0905723.1243048 2.0923231.660957 2.8 1.5.653181.5838715 1.0184956 1.4240952 1 2.3-.0415289.9049254-.3552058 1.7762502-.9 2.5-1.1 1.5-3 2.2-5 2.7l-.9.2.2-.9c.2152486-.5951333.5970863-1.1158211 1.1-1.5 1.1977265-.7316111 2.6403315-.9480019 4-.6 1.245962.3240454 2.3627398 1.0220316 3.2 2 .8607783.9993833 1.4466462 2.2055819 1.7 3.5.0482953.7132897-.0539154 1.4287646-.3 2.1-.3164143.6901686-.8908737 1.2287243-1.6 1.5-1.1812446.191383-2.3923954.0529658-3.5-.4l-.6-.3.5-.2.3-.2c.7696968-.5076345 1.7349215-.6190066 2.6-.3.4699033.1429937.8872737.4212406 1.2.8.2551779.3337596.4575405.7047576.6 1.1.220027.467332.2898954.991345.2 1.5-.117154.7731076-.5522482 1.4620069-1.2 1.9-.6213982.3682584-1.2960508.6381195-2 .8-1.3804284.2913427-2.7893934.4255299-4.2.4-1.1127107.0106754-2.2220632-.1237915-3.3-.4l-2.5-.5-2.4-.5h-.8c-1.2-.2-1.5 0-1.9-.2s-2 .3-2.1.1z"/></g><path d="m135.955556 63.9c.6-2.1 1.8-4.6 2.7-6.9.497747-1.2752213 1.731122-2.1107336 3.1-2.1 2.4.1 4.1-.2 7.1-.3.389348-1.6076364.994863-3.1550632 1.8-4.6 0 1.2.1 2.4.2 3.6-.045524.3143592.02562.6345082.2.9.3.4.9.4 1.4.4l11.2.2c.475742-.0385779.954089.0297574 1.4.2.521584.3028542.939773.7558919 1.2 1.3 1.277496 2.0718832 2.381266 4.2459755 3.3 6.5 1.454319-6.5012379-.047135-13.3127114-4.1-18.6-1.448683-2.1482816-3.501908-3.8187019-5.9-4.8-2.410672-.9903068-5.144457-.8055916-7.4.5-1.2-1.9-4-1.8-6.1-1-4.765526 1.5926154-8.695221 5.0266039-10.912182 9.5356772-2.216961 4.5090732-2.536683 9.7179658-.887818 14.4643228" fill="#fa0" fill-rule="nonzero"/><path d="m135.155556 62.9c-.5.5-.7-1.3-.9-2s-.5-1.5-.7-2.2c-.178909-.9623655-.144775-1.9522443.1-2.9-.069998-1.5169277.098725-3.0354358.5-4.5.2-.7.3-1.4.5-2.3.33939-.8288963.740517-1.6311498 1.2-2.4 1.091629-2.1609793 2.624678-4.0687737 4.5-5.6 1.03318-.850494 2.176938-1.5569323 3.4-2.1l1.9-.7c.614243-.1966663 1.255044-.2978453 1.9-.3 1.00198-.3162386 2.065689-.384865 3.1-.2.990147.2924248 1.84203.931337 2.4 1.8l-1.5-.3c1.745298-.931045 3.742001-1.2813438 5.7-1 1.713204.2980366 3.346951.944728 4.8 1.9 2.919846 2.1599987 5.256647 5.0122709 6.8 8.3.6 1.9 1.3 2.8 1.1 4.2.97994 3.2224492 1.014646 6.6584135.1 9.9v2.1l-1-1.3-1.8-2.6c-.469237-.6771269-.90315-1.3780626-1.3-2.1l-.5-1-.5-.9c-.139898-.1914433-.308557-.3601027-.5-.5h-3.8c.2 0-.2-.3-.3-.2s-3.7.3-5.3.3h-2.7c-.616272.0711792-1.240126-.0327966-1.8-.3-.403741-.2545831-.745417-.5962594-1-1-.134124-.3564963-.234562-.7247713-.3-1.1 0-.4-.1-.8-.1-1.3-.120209-.8617143-.187003-1.7300387-.2-2.6l3.1.8c-.271717.4811744-.50575.9826747-.7 1.5-.443758.8666332-.811794 1.7699938-1.1 2.7l-.3 1.1h-1l-3.7.2h-3.7c-.774505-.0601685-1.50023.3833299-1.8 1.1-1.1 2.4-2.3 4.6-3.3 6.6-.7.2-.1-1-.4-1.3s-.7 2.1-.5.6c-.8.2.3-2 .6-2.2.311546-.9537219.748722-1.861704 1.3-2.7l.5-1.4.3-.7.5-.7c.407095-.4551574.923279-.7992805 1.5-1 .585825-.1605097 1.193228-.2279989 1.8-.2 2 .2 4.1 0 6.1 0h.5c.254619-1.4128999.762806-2.7680655 1.5-4 .079894-.2293495.146669-.4630609.2-.7l.4-.9.2 1.1c.190227.7556775.32393 1.5244689.4 2.3.010274.4401495.0775.8771159.2 1.3.005185.1388322.039242.2750607.1.4h2.8l3-.2c1.627237.1770053 3.266895.2104677 4.9.1h2.2c.499335.1130015.973802.3163446 1.4.6.362306.3492396.666175.7543983.9 1.2 1.685733 2.0409489 3.097675 4.2933325 4.2 6.7l-3 .3c.478532-2.4720041.546105-5.0060055.2-7.5-.30204-3.1108308-1.36683-6.0991126-3.1-8.7-1.503113-2.6818643-3.914614-4.7387331-6.8-5.8-.696878-.3995588-1.500136-.5741802-2.3-.5-.667682.0752593-1.343157.0414856-2-.1l-1.4.8-.7.5-.5-.7c-.401782-.5285394-.962636-.9141262-1.6-1.1-.672631-.2404968-1.386936-.3425404-2.1-.3-.7.6-.8.3-1.6.8-1.696989.5139749-3.288615 1.3267201-4.7 2.4-1.422433 1.165401-2.610209 2.5907319-3.5 4.2-.807628 1.1160868-1.479051 2.3246476-2 3.6-.405904 1.0214707-.642346 2.1023496-.7 3.2-.2 1.4-.6 1.8-.3 3s.3.9 0 1.1.3 1.9-.2 2.5.9 2.6.4 2.9z" fill="#2e316a"/><path d="m122.455556 148.2c-2.597547-3.99597-4.617509-8.338888-6-12.9l-26.6000004 3.1 1.8.7c-1.9 2.7-2.8 5.8-3.7 8.9l-1.2-5.2c-.1-.2-.1-.5-.3-.7-.3074938-.251542-.7073764-.360601-1.1-.3-1.8509379-.261783-3.2904501-1.742424-3.5-3.6 0-.7.4-1.5 1-1.4-1.5.2-2.8-1.5-2.6-3 .3448501-1.501036 1.2360341-2.819988 2.5-3.7 1.6318164-1.275538 3.4112919-2.349939 5.3-3.2 4.7363759-2.230258 9.8013785-3.682226 15.0000004-4.3 2.969959-.436781 5.997651-.266686 8.9.5 2.913358.920681 5.238383 3.13499 6.3 6 4.072854-.604129 7.88609 2.144947 8.6 6.2.201894 2.108945-.1068 4.235504-.9 6.2-.647637 2.741573-1.837699 5.325707-3.5 7.6" fill="#f7751e" fill-rule="nonzero"/><path d="m123.155556 149.6c-.3 0-.1-.4.3-.9l1-1.6c-.1-.6.6-1.8.8-2.6s.8-2.8 1.3-3.3.7-3.4.4-5.3c-.140432-.867374-.482997-1.689531-1-2.4-.491801-.844544-1.136039-1.590503-1.9-2.2-1.624445-1.149858-3.635123-1.616623-5.6-1.3l-.8.2-.3-.8c-.5987-1.398917-1.524677-2.633551-2.7-3.6-1.198279-.931624-2.552704-1.642697-4-2.1-.964188-.085099-1.932242-.11848-2.9-.1-2.237455-.156775-4.485511-.056116-6.7.3-2.0039679.187545-3.9819857.589854-5.9000004 1.2-1.9882754.537784-3.9283127 1.240211-5.8 2.1-2.119893.886553-4.1057074 2.064578-5.9 3.5-.7315473.373509-1.3264915.968453-1.7 1.7l-1 1.5c-.1 1.2 1 2.5 2 2.3v1.2h-.1c-.1115608.182126-.1799729.387363-.2.6.0527805.486012.1880526.959464.4 1.4.4845633.913122 1.3118257 1.596513 2.3 1.9h1.1c.3082496.025257.5948445.168555.8.4l.4.7c.3263435.710237.5939064 1.446035.8 2.2.3593642 1.015166.6598635 2.050219.9 3.1h-2.3c.8294569-2.834583 1.9347404-5.581045 3.3-8.2-.1.1.3-.1.4-.4l.2-.6.5 1.6-1.9-.6-4.7-1.7 5-.6 3.6-.5 12.2000004-1.9c2.4-.1 5-.4 7.9-.7l3-.2h1.2l.3 1.1c1 4.4 3.2 9 5 13-.3.6-.9-.8-1.3-.7s1.2 2.2.2.9c-.4.7-1.6-1.8-1.6-2.2-.640816-1.0177-1.113536-2.131969-1.4-3.3-1.231813-2.272975-2.172544-4.691998-2.8-7.2l.6.4-6.5.4c-2.6.3-3.6.8-5.7.7s-8.7000004 1.7-13.4000004 2.6h-1l.3-2.4 1.8.8 1.3.5-.8 1.2c-.6550357 1.03672-1.1917238 2.143639-1.6 3.3l-1.5 3.4-.3 2-.7 4.4-1.6-4.5c-.3929944-1.013128-.7268885-2.0482-1-3.1-.2-.5-.3-1.1-.5-1.6v-.6h.3l.4-.2v.2c0 .1-.1.2-.1.3v.2h-.8l-1.3-.4c-.7874471-.361806-1.4741647-.91118-2-1.6-.5974035-.761155-1.0083637-1.651568-1.2-2.6v-1c.0276818-.339959.0947991-.675545.2-1 .2028961-.379697.4741016-.718704.8-1 .5196082-.455912 1.2232859-.64109 1.9-.5l7.1 2-7.2 1.2c-1.1036003.180285-2.2252907-.193612-3-1-.5477513-.526983-.9595206-1.178951-1.2-1.9-.1-.4-.1-.7-.2-1.1s.1-.8.1-1.1c.3023747-1.231323.963672-2.345087 1.9-3.2.7630048-.750114 1.6006925-1.420264 2.5-2 .8296128-.591326 1.6982607-1.125879 2.6-1.6 3.5711127-1.855059 7.3702096-3.233492 11.3-4.1 1.7-.2 4.9000004-1 5.9000004-.5 1.301356-.357304 2.65366-.492535 4-.4 1.3962.082849 2.775069.351897 4.1.8.788106-.062223 1.579175.075354 2.3.4 2.627775 1.205296 4.675421 3.396635 5.7 6.1l-1-.6c2.011461-.396427 4.098213-.078108 5.9.9 1.812632 1.012311 3.197867 2.646178 3.9 4.6.463922 1.487227.666919 3.043533.6 4.6-.3 2.1-.9 2.5-1 4.1s-.1 1.2-.4 1.3c-.8 1.8-.8 2.5-1.6 2.9l-1.1 2.1c-.9.4-1.3.8-1.6.7z" fill="#2e316a"/><path d="m86.9555556 95.1-6.6-5.2c-3.7392467 4.0245111-8.5689943 6.8737148-13.9 8.2-1.3384043.2135249-2.6472776.5826943-3.9 1.1-1.2757809.5553139-2.2316531 1.658243-2.6 3-.2.7-.1 1.5-.7 1.9-.4154754.266822-.9264335.339816-1.4.2-1.0895474-.336126-1.9705781-1.143737-2.4-2.2-.2-.5-.3-1.1-.8-1.3-.3481379-.247136-.7765201-.354232-1.2-.3-7.0401656.224601-13.7513657-2.9818613-18-8.6l-5 3.3s8.9 13.1 27.9 12 28.6-12.1 28.6-12.1z" fill="#af64fe" fill-rule="nonzero"/><path d="m86.3555556 95c.2.3.1.1.2 0l-.4.4c-.4245911.3746289-.8253711.775409-1.2 1.2-.5272626.6390421-1.1318957 1.2100845-1.8 1.7-.7988728.7133065-1.7114741 1.2879074-2.7 1.7-1.3039183 1.013039-2.7118281 1.884602-4.2 2.6l-2.1 1.2c-.9.5-1.7.7-2.7 1.2-3.8 1.6-10.3 3.2-15.4 2.8-.9642994.083255-1.9322563.116633-2.9.1-4.1351465-.427818-8.1630097-1.578636-11.9-3.4-.8655769-.4066-1.7010325-.874455-2.5-1.4l-2.5-1.6c-1.8683664-1.297645-3.579816-2.8077479-5.1-4.5l-1.1-1.5-.4-.4.5-.3c.6871671-.5609657 1.464989-1.0006042 2.3-1.3l2.8-2 .3-.2.2.3c1.4678509 1.917296 3.1827039 3.632149 5.1 5.1l3.8 1.5c1.5674394.5718139 3.1709279 1.039498 4.8 1.4l2.6.3h2.5c.43017.115823.7925748.405746 1 .8-.1-.2 0 .3.2.5.3260779.641177.7666577 1.21732 1.3 1.7.3070687.293875.6866728.500932 1.1.6h.6c.1 0 .2-.2.2-.5s.1-.8.2-1.3c.3134175-1.168885 1.0656272-2.1718313 2.1-2.8.9674806-.6667269 2.0537202-1.1419567 3.2-1.4l3-.9c2.3076519-.5643207 4.5046401-1.5107156 6.5-2.8 2.1293937-1.1885068 4.0817145-2.6695777 5.8-4.4l.5-.6.6.5c2.2372324 1.7800277 4.3738572 3.6829592 6.4 5.7-.1.3-1.1-.6-1.4-.7s1.8 1.4.4.6-1.9-1.2-2-1.4c-.8757922-.5700675-1.6813481-1.2413642-2.4-2l-1.8-1.3h.6c-2.5422946 2.6629116-5.6059864 4.7734548-9 6.2-1.5613138.8599233-3.2488383 1.4674321-5 1.8l-2.5.8c-.9780776.2756334-1.8718013.7912433-2.6 1.5-.388424.303886-.6688838.724576-.8 1.2-.1669429.484249-.2678514.988792-.3 1.5-.0444111.393153-.1815014.770151-.4 1.1-.3038859.388424-.7245757.668884-1.2.8-.7245856.088937-1.4588457-.050923-2.1-.4-.5645649-.352688-1.0706503-.791295-1.5-1.3-.2735481-.445452-.507767-.91389-.7-1.4-.1-.5-.3-.6-.3-.6h-.8c-1.5182124.125371-3.0463377-.044421-4.5-.5-2.5939327-.204773-5.1154947-.9544262-7.4-2.2-2.747935-1.5018621-5.1364439-3.5832769-7-6.1l1.5.3-.7.5-4.3 2.7.2-1.3c1.6106289 2.0770093 3.4943098 3.927053 5.6 5.5 2.2268859 1.567507 4.6054726 2.907556 7.1 4l2.7 1c.7740654.137485 1.5184263.408162 2.2.8 1 0 2.3.3 3.6.4 1.1893814.215908 2.3922334.349558 3.6.4.659768-.141556 1.3277359-.241751 2-.3 4.0807034-.059541 8.1152099-.873223 11.9-2.4l4.4-1.7c1.1386269-.461987 2.2139113-1.066834 3.2-1.8l1.7-.9c.5096185-.2272463.9816888-.5307201 1.4-.9.6-.4.7-.8 1-.7s1.7-1.4 2.4-1.5l1.5-1.3.6-.6h.2c-.0666667.1333333-.0666667.2 0 .2z" fill="#2e316a"/><path d="m152.555556 107.2c19-1.2 28.6-12.1 28.6-12.1l-4.1-3.2c-15.7 1.9-31.6 3.5-47.2.9h-1.6l-3.6 2.4s8.8 13.1 27.9 12z" fill="#fff" fill-rule="nonzero"/><path d="m152.455556 106.5c.4.5-1.5.2-2.2.3l-1 .2h-1.3c-.980515.001436-1.956487-.133181-2.9-.4l-2.2-.2-2.3-.5-2.2-.5-2.5-.9c-.994552-.368237-1.963378-.802538-2.9-1.3l-1.6-.9c-.571037-.308556-1.107423-.677322-1.6-1.1-2.128774-1.3971554-3.963302-3.1977113-5.4-5.3l-.2-.3-.4-.5.5-.4c.7-.5 1-.9 1.8-1.4l1.8-1.1.2-.2h1.9c6.127348 1.1723681 12.363966 1.6753212 18.6 1.5 1.9.1 3-.2 4.2.1l9.7-.5 3.7-.8c3.3-.5 6-.5 10.1-1.1-.1 0 .2.2.4.1l.3-.2h.1l.4.2c1.392836.8818161 2.728809 1.8503963 4 2.9h.2l.7.6-.6.6c-2.377716 2.6362822-5.142686 4.895466-8.2 6.7-2.048828 1.044463-4.151803 1.979119-6.3 2.8-4.5 1.4-10 2.7-14.6 2.4-.4-.4.9-.3 1-.6s-2.1.1-.7-.2c-.4-.4 1.9-.4 2.2-.3l3-.3c3.892033-.706412 7.708886-1.777809 11.4-3.2l2.4-1.2c.606639-.46656 1.281115-.837521 2-1.1 2.422777-1.7403236 4.637332-3.753555 6.6-6v1.1l-2-1.5-2.1-1.7.6.2c-2.117377.3439823-4.255584.5444393-6.4.6-5.176943 1.0178158-10.427032 1.6197369-15.7 1.8-6.67482.2145346-13.356513-.0193246-20-.7l-2.7-.5c-.755296-.0483443-1.498004-.2171416-2.2-.5h-1.6l-3.7 2.3v-.6l.2.3c.45597.3747579.89002.7754189 1.3 1.2 2.376132 2.8533364 5.438743 5.055663 8.9 6.4.9.5 1.7.7 2.3 1l1.7.7c1.07226.348967 2.178406.583604 3.3.7 1.041159.31787 2.114407.519104 3.2.6.6.1 1-.2 1.1.1 1.6.2 2 0 2.5.3s3.1 0 3.2.3z" fill="#2e316a"/><path d="m134.055556 180.5-11.7-9.1c0-.6-.1-1.2-.1-1.7-1.071453.642009-2.106383 1.343091-3.1 2.1-3.4 2-7.4 2.7-11 4.4-.520941.249938-.994619.588279-1.4 1-.178226.383609-.312415.786177-.4 1.2l-1 3.5c-1.3-1.1-1.3-3.2-2.6-4.5-.742265-.64701-1.637033-1.094394-2.6-1.3l-12.7000004-3.7v1.6l-9.9 6.7s8.9 13 27.9000004 11.9c19-1.1 28.6-12.1 28.6-12.1z" fill="#ebecf2" fill-rule="nonzero"/><path d="m133.455556 180.5h.2l-.4.5-1.3 1.1c-.2.5-1.3 1.3-1.8 1.8l-1.6 1.1-1.3.7c-1.340036 1.012341-2.781008 1.883627-4.3 2.6l-2.2 1.2c-.906517.459883-1.841798.860718-2.8 1.2-2.436583.909402-4.945457 1.611887-7.5 2.1-1.420172.265076-2.856897.432137-4.3.5-1.396001.149665-2.804.149665-4.2 0-1.2-.1-1.8.1-3.0000004 0-4.2082102-.599949-8.2734626-1.955033-12-4-1.7715131-.970908-3.4458426-2.109452-5-3.4-1.8265728-1.390023-3.4726148-3.002473-4.9-4.8l-.3-.5.5-.3h.1c1.9-1.1 2.7-2 4-2.5l5.9-4-.2.4c.0798256-.529408.1132859-1.064773.1-1.6v-.7h.4l2.2.8 4.2.7 5.1 1.5 2.8000004 1c.563659.226232 1.074377.566711 1.5 1 .368933.510239.703025 1.044786 1 1.6-.1-.1-.1.3.1.5s.7 1.6 1.5 2.2l-1.3.4c.2-.9.5-1.9.7-2.7.02694-.372789.093994-.741587.2-1.1.130824-.511246.369497-.988593.7-1.4.415652-.427316.886475-.797248 1.4-1.1l1.4-.6 6.2-2.5c1.067179-.347738 2.103997-.782533 3.1-1.3 1.1-.6 2.1-1.5 3.4-2.2l1.6-.9v3.4l-.4-.7c3.8 3.2 8.3 6.9 11.4 9.8-.1.3-1.1-.6-1.5-.7s1.9 1.5.5.6-2-1.3-2.2-1.5-1.8-1.4-2.5-2.1-4.3-3.2-6.5-5.1h-.1v-1.7l.3.2-2.8 1.8-2.6 1.4c-.75762.402734-1.56438.705269-2.4.9l-5.6 2.4-1.4.8c-.302581.328766-.479617.753652-.5 1.2-.3 1.2-.5 2.4-.8 3.5v.3l-.5 1.3-.9-.9c-.758537-.840595-1.337067-1.827499-1.7-2.9-.204838-.662882-.545392-1.275879-1-1.8-.8-.7-2.2000004-.9-3.8000004-1.6-3.6-.7-7-1.7-11.2-2.9l1.4-1.1v2.2l-.5.4-3.8 2.5-6.2 4 .3-1.3c1.3806956 1.930007 3.069993 3.619304 5 5 1.9483821 1.530311 4.0614592 2.838407 6.3 3.9l1.2.6 1.5.5c.7954299.262832 1.565275.597547 2.3 1l1.7.3 2 .3c1.2214493.245157 2.4572914.412163 3.7000004.5.693766-.120937 1.395877-.187804 2.1-.2 4.170154.056236 8.312158-.690682 12.2-2.2l2.7-.9 2-.8 1.6-.8 1.7-1c1.156859-.467365 2.235874-1.10803 3.2-1.9.6-.3.7-.7 1-.7s1.8-1.4 2.4-1.5l1.6-1.4.6-.5.3-.2c-.1.1-.1.2 0 .3z" fill="#2e316a"/><g fill="#f7f8fa"><path d="m105.755556 125.5c.1.2-.4 0-.6 0s-.5 0-.7 0h-2l-.6.2h-.7l-3.6000004 1.2c-.3.1-.3.3-.6.4-1.8742709.688899-3.6289182 1.667452-5.2 2.9-.5.3-.6.6-1 .6v-.3l2.3-1.1c.1780147-.310418.4159588-.582355.7-.8l.9-.8c.2-.1.3-.3.2-.3h-.3l-1.3.2c-.9102659.206503-1.7859606.543309-2.6 1-.5601077.166601-1.0975054.401712-1.6.7-1.1657338.573528-2.3006223 1.20773-3.4 1.9-.2-.1.1-.3.1-.4s-.5.3-.3 0 .4-.4.5-.4l.7-.4c.8479973-.670461 1.7918506-1.209805 2.8-1.6.6-.2.7-.5 1.2-.5.9313774-.553847 1.9435906-.958733 3-1.2h.8c.2819196-.029928.5653309.040925.8.2.3190378.176164.4495319.567646.3.9-.0799669.235276-.2647242.420033-.5.5-.9106586 1.166636-2.1200799 2.065063-3.5 2.6l-.6.2-4 1.4 3.4-2.3c1.2878963-1.014266 2.659476-1.917502 4.1-2.7.3-.1.9-.5 1.2-.4.4965314-.376534 1.0822995-.617733 1.7-.7l.5-.3 2.9000004-.9 2.2-.3c.331398.050798.668602.050798 1 0h.3c.4.1.6 0 .7.2s.8.1.8.3z"/><path d="m122.355556 131.5c.1.2 0 .1-.1.1h-.2c0 .2-.1.1-.1.2h-.1c-.1.2-.3.4-.5.3v.2c-.298115-.024687-.591626.085379-.8.3-.1 0-.1.2-.2 0s-.2.2-.4.2c.073124.08202.109288.190509.1.3l-.3.3h-.1c.1.2 0 .2 0 .3s-.1.2-.1.4h-.2c-.3.1-.3.3-.7.3s0-.1-.1-.2h-.2c-.2-.1 0-.1 0-.1h.2c0-.2.2-.2.3-.3s0-.2.2-.2 0-.4 0-.6.2-.2.4-.2.1-.4.4-.6l.8-.4c.1.1.1-.1.2.1s.2-.1.3-.1c.2 0 .3-.1.4-.3l.3-.2h.2c.1 0 .1-.1.1.1s.2-.1.2.1z"/><path d="m122.055556 134.3c.1.2 0 .1 0 .2.1.1 0 .1 0 .1.1.2.1.4-.1.3-.2 0-.3 0-.4.2h-.3v.3h-.2c.1.2 0 .2 0 .2v.3h-.1c-.2-.1-.2.1-.5-.1s0-.1-.1-.2h-.1c-.1-.1 0-.1 0-.1h.4s-.1-.1 0-.1v-.4h.2c-.1-.3 0-.3.1-.4h.6c-.1-.2 0-.1.1-.1h-.1c.2 0 .2-.1.1-.2v-.2s.1 0 0-.1 0-.1.1 0h.2z"/><path d="m122.255556 139c.1.2 0 .1.1.1v.2h-.1v.2c.1.2.1.4 0 .3s0 .1 0 .1-.3-.1-.3.1h-.3c.057861.051289.093685.122938.1.2.1.1-.1 0-.1.1.1.1 0 .1 0 .1v.2h-.1c-.2 0-.2.1-.4-.1v-.2h-.1c-.2-.1-.1-.1 0 0 0-.1.2-.1.2 0s0-.1.1-.1-.1-.2-.1-.4 0-.1.2 0-.1-.2 0-.3h.5c.1 0 .1 0 0-.2s.1 0 0-.2h.3z"/><path d="m49.1555556 51.4c0 .2-.2 0-.3 0h-.3c-.1-.1-.3-.3-.3-.4s-.2-.3-.3-.6-.2-.2-.2-.3c-.0795375-.1173345-.1149639-.2590402-.1-.4-.0723942-.8355699.2627247-1.6547494.9-2.2.2-.2.1-.3.3-.4.2144625-.2615006.4889099-.4673361.8-.6l.3.5c-.7654204.4109165-1.5692604.7458498-2.4 1-.3 0-.5.2-.7 0-.5144306.2008131-1.0855695.2008131-1.6 0h-.7c-.2934331-.2096305-.4770331-.5401105-.5-.9.0091071-.3423047.0767509-.6805237.2-1h.1c-.1-.2.2-.6.3-.9.2292943-.5190524.4966914-1.0204219.8-1.5l.9-.8c.6079652-.5205241 1.3259234-.8965974 2.1-1.1.2.2 0 .2 0 .3s.3-.1.1.1-.2.2-.2.2l-.5.2c-.529636.3244403-1.0313659.6923755-1.5 1.1-.2.2-.2.4-.5.5s-.5 1.1-.6 1.7c-.2171735.3770335-.3852049.7803089-.5 1.2.1638861.160032.3736427.2649103.6.3h1c1.0089852-.0784526 1.9934988-.3500425 2.9-.8l.4-.2.4.6h-.3c-.1.3-.6.5-.8.7s-.1.2-.1.3c-.4020302.3933833-.6198265.9378741-.6 1.5 0 .5 0 .7.2.9s.1.3.2.3.2.1.1.1.2.1.2.3.3.1.2.3z"/><path d="m43.9555556 52.3c.1.2 0 .1 0 .1v.1.2c0 .1 0 .3-.1.3-.2 0-.3 0-.4.2s0 .1-.2-.1 0 .1-.1.1v.2c.1.2-.1 0-.1.2 0-.0552285-.0447716-.1-.1-.1.1.1.1.1 0 .2v.2c-.1 0-.1 0-.1.1h-.5c-.1-.2-.1-.1-.1-.2s-.1 0-.1-.1-.1-.1 0-.1h.1c0-.1.1 0 .2 0s0-.2.1-.1 0-.3 0-.4 0-.2.2 0 0-.3.1-.4l.3-.2h.2c0-.1.1 0 .2 0h-.1c.1 0 .2-.1.1-.3s.1 0 .1-.2c.1 0 0-.1.1.1s0 .1.2.2z"/><path d="m63.5555556 45c-.1.1 0 0-.1 0s-.1 0-.1 0c-.0552285 0-.1-.0447715-.1-.1-.1.1-.1 0-.1 0h-.2c0-.0552285-.0447716-.1-.1-.1-.2 0-.4-.2-.3-.4s-.1-.1-.2-.1c.1333513-.3156379.1682081-.6642061.1-1 .1 0 0-.1.2-.1-.0344145-.0514004-.0431083-.1158325-.0235472-.1745157s.0651753-.1050127.1235472-.1254843c0-.1-.1-.2-.1-.3s.2-.1.2-.3h.1c-.2-.1 0-.2 0-.2s.1-.3.2-.5h.3c.3.1.5-.1.7.1s0 .2 0 .3.1 0 .1.1 0 .1-.1.1c0-.0552285-.0447716-.1-.1-.1 0 .1-.2.1-.4.1h-.1v.5c-.2 0-.1.2-.3.1.1221977.1358705.16054.327582.1.5-.2.2-.1.3-.2.5s0 .1-.2.2.1.1 0 .2h.2c-.1.2 0 .3.2.3h.3s.1 0 0 .1.1.2-.1.4z"/><path d="m66.4555556 43.6c.1.1 0 0 0 .1v.1s0 .1-.1 0 0 .1 0 .2c0 .2 0 .4-.2.3v.2c-.3 0-.4 0-.6.2s0 .1-.1 0h-.3v.2c0 .2-.2.1-.2.2.1.2 0 .2 0 .2s-.1.2-.1.3-.2 0-.2.1-.3.1-.5-.1-.1-.1-.1-.2-.1 0-.1-.1-.1-.1 0-.1h.1c0-.1.2-.1.3-.1s0-.1.1 0v-.5c.2 0 .1-.2.3 0-.0160719-.1889043.0580829-.3742913.2-.5l.5-.2c.1.1.1-.1.2.1s.1-.1.2-.1 0 0 0-.1.1-.1.1-.3.2 0 .1-.2.1.1.1 0h.2s0 .1.1.3z"/><path d="m76.2555556 36c-.2.1-.1-.3-.1-.5s.1-.4.1-.6c.0037711-.2468876.0727707-.4883862.2-.7.0506572-.364917.0506572-.735083 0-1.1-.0801704-.1775975-.2224026-.3198296-.4-.4-.0801704-.1775975-.2224026-.3198296-.4-.4-.4508799-.2198961-.984952-.1817481-1.4.1-.3661455.2927811-.5854624.7314149-.6 1.2 0 .1573787.074097.3055728.2.4h-.5c.7425733-.4312554 1.3891441-1.0097661 1.9-1.7.4868485-.7270282.8265774-1.5423776 1-2.4.1-.4 0-.6.2-.9.0161297-.4025901-.0174572-.8056327-.1-1.2-.1093895-.3239228-.3196632-.6042877-.6-.8h-.9c-.7560587.0430027-1.4996238.2119948-2.2.5h-.1c-.3195851.3001729-.692725.5376256-1.1.7-.6594295.500239-1.2629262 1.0702081-1.8 1.7-.4152139.3146735-.7853266.6847862-1.1 1.1-.7246683.9036437-1.3609197 1.8747642-1.9 2.9-.2 0-.1-.2-.2-.3s-.2.5-.1.1 0-.5.1-.5l.3-.7c.4771801-.8851451 1.0838711-1.6940664 1.8-2.4.4-.4.4-.6.8-.9.6202086-.7535801 1.3641673-1.3960898 2.2-1.9.6755511-.3863509 1.4254018-.6249397 2.2-.7.5855027-.2989313 1.250878-.4039906 1.9-.3.4377552.0962817.8273779.3442234 1.1.7.3403556.38509.5194036.8864245.5 1.4-.1137905 1.7597724-.7785254 3.4391027-1.9 4.8-.2.2-.7.8-1 .8-.1883371.2471955-.4269083.4516851-.7.6h-.2l-.2-.2c-.0772063-.2934881-.110899-.5967225-.1-.9-.2-.2-.1-.3-.1-.5.1514591-.5192885.4672595-.9754447.9-1.3.5234602-.2849689 1.1467397-.3216324 1.7-.1.4248708.1261204.7836914.4131768 1 .8.1768048.3493677.3110959.7186684.4 1.1-.0937019.2933465-.160642.5945771-.2.9-.1.2 0 .3-.1.3s-.1.5-.3.6 0 .7-.2.7z"/><path d="m138.055556 50.7c-.2-.1 0-.2 0-.3s.1-.2.1-.3.1-.3.2-.3.1-.3.2-.5v-.3c0-.1.1-.2.1-.3.12357-.5936267.39924-1.144968.8-1.6.1-.1 0-.2.1-.4l1.8-2.1c.2-.2.2-.3.4-.3.230713-.3743522.584133-.6570882 1-.8.006882-.1847711.077555-.3614537.2-.5.2-.4.6-.4 1-.8h.1c0-.2.3-.4.5-.5l1.2-.7.8-.2c.624596-.1487723 1.275403-.1487723 1.9 0 .1.2-.1.2-.1.3s.3 0 .1.1-.2.1-.3.1h-.3c-.492221.1157564-.994646.1827465-1.5.2-.2.1-.3.3-.5.2-.39097.3055794-.758653.6398362-1.1 1-.5.1-.6.4-1 .5-.375102.5175388-.811627.9876423-1.3 1.4-.6.5-1 1.1-1.6 1.7s-.2.4-.5.4-.3.5-.5.6 0 .2 0 .3c-.297779.3431471-.50415.7558892-.6 1.2-.2.5-.4.6-.4.9s-.2.2-.2.4.1.2 0 .1-.1.3-.3.2-.1.4-.3.3z"/><path d="m145.555556 44.1c.1.2 0 .1 0 .2 0 .0552285-.044772.1-.1.1 0 0-.1.1-.1 0s-.1.2-.1.2c-.057862.0512889-.093686.1229376-.1.2-.1.2-.2.5-.5.5v.2c-.354701.0427344-.659659.2714531-.8.6-.1 0 0 .1-.2 0 0 .1656854-.134315.3-.3.3.073124.0820196.109288.1905094.1.3 0 .2-.2.2-.2.4h-.1c.2.1 0 .2 0 .2v.6l-.2.3c-.2.1-.2.3-.5.5h-.2c-.1-.1-.1.1-.1 0s-.1-.1-.1-.1.1-.1.1-.2.2-.3.3-.5 0-.1.1-.2c-.080314-.1892776-.114585-.3949061-.1-.6.2-.2.1-.3.3-.4s.1-.5.3-.7.4-.5.7-.7h.3c0-.2.2-.2.3-.2.206214-.0923431.355175-.2785449.4-.5l.3-.3h.1c0-.1 0-.2.1-.1s0-.1.1.1.1-.4.2-.2z"/><path d="m127.555556 82c-.2 0-.1-.2-.1-.3s0-.2-.1-.3c-.009289-.1094906.026875-.2179804.1-.3-.1-.1 0-.3 0-.5v-.5h.3c-.039678.1762343-.107192.3450181-.2.5l-.5.2c-.34649.0853341-.712984.0120353-1-.2h-.3c-.397171-.2204251-.739101-.5281625-1-.9-.351001-.4383994-.351001-1.0616006 0-1.5.2-.2.1-.3.4-.3.178014-.3104185.415958-.5823546.7-.8.1-.1.1-.3.2-.4s.5-.4.8-.8.1.1.1 0 .2-.3.4-.4l.9-.9.7-.3c.5-.1 1-.5 1.6-.4s-.1.1 0 .2.2 0 .1.1-.2.2-.2.2h-.3c-.378918.2396461-.780933.4406536-1.2.6l-.5.3-.8 1c-.4.2-.4.4-.8.5-.265519.5115664-.6022.9829202-1 1.4-.3.2-.6.5-.6.6s-.1.3.1.6.3.2.3.4.4.2.6.4h.7c.2 0 .3-.2.2-.2l1-1.8v1.9c-.094459.2237736-.094459.4762264 0 .7-.1.2-.2.2-.1.4s.1.1 0 .1 0 .2-.2.3-.1.4-.3.4z"/><path d="m131.655556 82.8c.1.2 0 .1 0 .1 0 .1-.1.1 0 .1 0 .1 0 .3-.1.2-.2-.1-.2-.1-.3 0h-.1c0 .1 0 .1-.1 0v.2c0 .1-.1 0-.1.1.1.2 0 .1 0 .1.009288.1094906-.026876.2179804-.1.3-.2-.1-.2 0-.3-.2s-.1-.1-.1-.3h-.1c-.1-.2 0-.1 0 0h.3v-.4c.1 0 0-.1.1 0s0-.2.1-.3h.5c-.1-.1 0 0 0-.1v-.2s.1.1.1-.1 0-.1.1.1z"/><path d="m177.455556 79.3c-.2.1-.1-.1-.1-.1l-.2-.2v-.2l-.2-.3h-.3c-.2-.2-.6-.3-.7-.7 0 .0552285-.044772.1-.1.1-.055229 0-.1-.0447715-.1-.1-.239526-.4508723-.628408-.8044013-1.1-1 0-.1-.2-.1-.1-.3-.221456-.0448243-.407657-.1937857-.5-.4-.1 0-.3.1-.4 0s-.3-.3-.5-.4c-.1.1-.3-.1-.4-.2l-.6-.2c-.080171-.1775975-.222403-.3198296-.4-.4-.1-.3-.5-.4-.5-.8l.2-.2c.1-.1-.1-.1 0-.1h.2s.1.1.1.2l.6.6c.1.1.2 0 .2.2l.9.2c.1.2.3.1.4.4s.6.2 1 .5.7.5 1 .9.2.2.1.3.3.3.4.4h.1c.183422.2517853.423124.4572438.7.6.2.2.1.3.4.5s-.1.2.1.2.1.1 0 .1.1.2-.1.3.1.1-.1.1z"/><path d="m176.255556 81c.1.2.1 0 .1.1h-.1c.1.1 0 0 0 .1s0 .3-.1.1.1.2 0 .2-.2-.2-.2 0h-.3v.4h-.2v.2h-.1l-.3-.3c-.1-.1 0-.1-.1-.2-.1-.2 0-.1 0-.1.1-.1.1 0 .2 0s0-.1.1 0 0-.2-.1-.4.1-.1.2.1 0-.3.1-.3h.2l.2.2c.1 0 .1 0 .1-.2s.1 0 0-.1h.1s0-.1.1.1z"/><path d="m46.9555556 67.5c.1.2 0 .1 0 .1 0 .1 0 .3-.1.2-.1-.2-.1-.2-.2-.1h-.1v.2h-.1v.2l-.2-.4c-.1-.1-.1-.1-.1-.2-.1-.2-.1-.1 0-.1h.2v-.4c0 .1 0-.1.1.1s0-.3 0-.3h.2c.1.1.1 0 .1.2s.1-.1.1 0v-.2s.1.1.1-.1z"/><path d="m47.7555556 69.4v.2h-.1v.3c-.1.2-.1.3-.2.1v.2l-.2-.2h-.1v.2c0 .1-.1-.1-.1 0v.2c-.0552285 0-.1.0447715-.1.1h-.1c0-.2-.1-.1-.1-.4v-.2h.1c0-.1 0 0 .1.1 0-.2.1-.2.1-.4s0-.1.1.1 0-.2.1-.2c0 .0552285.0447715.1.1.1.1.1.1 0 .1.2 0-.2 0-.1.1-.2.1 0 .1.1.1-.1.1.1.1 0 .1.1z"/><path d="m48.9555556 67.6v.2.2c-.1.1-.1.3-.1.1h-.1v.2c0 .2-.1.1-.1.2-.1-.2-.1-.1-.1-.4v-.2c0-.1 0 0 .1.1v-.4c.1.1.1-.1.1.1s0-.2.1-.2c.1.1.1 0 .1.2v-.2z"/><path d="m68.0555556 67.7v.2c0 .2.1.3 0 .2s-.1-.2-.1-.1h-.1v.3h-.1v.2c-.0552285 0-.1.0447715-.1.1l-.2-.3v-.3c-.1-.2-.1-.1 0 0h.1v-.4-.2h.2v.2c0-.2 0-.1.1 0s0 0 0-.1v-.2z"/><path d="m69.8555556 66.8c.1.1.1.3 0 .1h-.2c0-.1.1.1 0-.1h-.1c0 .1.1.2.1.3s-.1-.1-.1 0v.8h-.1c0-.1 0 0-.2-.3s0-.1-.1-.2c-.1-.2 0-.1 0-.1 0-.1.1 0 .1.1s0-.1.1-.1c-.0731248-.0820196-.1092881-.1905094-.1-.3h.1c-.1-.3 0-.3 0-.3h.3c-.1-.1 0 0 0 .1v-.2c.1 0 0-.1.1.1z"/><path d="m69.7555556 68.6v.3c0 .1 0 .1-.1.1s0 .3-.1.1c0-.1-.1-.2-.1-.1s-.1.1-.1-.1c-.0063143.0770624-.0421387.1487111-.1.2-.1.1 0 0-.1 0h-.2c0-.2-.1-.1 0-.4l.2-.2c.2-.2.1-.1.1 0v.2l.2-.3c-.1.1 0-.1 0 .1s0-.2.1-.2v.2c.1.1.1.1.1-.1h.1z"/><path d="m141.455556 68.7h-.2c0-.1-.1 0 0-.1h-.3c-.1 0-.2.1-.1 0-.055229 0-.1.0447715-.1.1 0-.2 0-.3-.1-.3s-.1.1 0-.1l-.2.2c-.1 0 0-.1 0-.1-.1.1-.1 0-.1 0h-.2c.1-.1 0-.1.1-.3s.1-.1.2-.2 0-.1 0-.1.1-.1.1 0v.2l.3-.2c0 .1.1 0 0 .1h.3v.2s.1 0 0 .1 0 0 0 .1h.1c-.1.1 0 .1.1 0s0 .1.1 0 .1.3 0 .4z"/><path d="m143.255556 67.6h-.2c0 .1-.1.2-.1.1 0-.2 0-.2-.1-.2v.3c-.1.2-.1.1-.1.1-.006315.0770624-.042139.1487111-.1.2v-.2c.1-.1.1-.1.1-.2.1-.2.1-.1 0-.1s.1.1 0 .1.1.1.1.1v-.3c0 .1.1-.1 0 .1l.2-.2c0 .1.1 0 0 .2s0 0 0 .1h.2s.1-.1 0 .1.1-.4 0-.2z"/><path d="m143.155556 69.8c.1.2 0 .1 0 .1h.1s0 .1-.1 0 0 .1 0 .1h.1c0 .1 0 .3-.1.2-.2 0-.2-.1-.3.1s0 .1-.1-.1h-.2c.057861.0512889.093685.1229376.1.2h-.2c-.073125.0820196-.109289.1905094-.1.3h-.2l-.2-.3v-.3c-.1-.2 0-.1 0 0 .1-.1.1.1.2.1 0-.2.1-.2.1-.4s0-.1.1.1 0-.3.1-.3h.2c.1 0 0-.1.1.1s.1 0 .1 0c.1 0 .1 0 0-.2s.1 0 0-.1h.2s-.1.3.1.4z"/><path d="m162.355556 67.8c.1.2 0 .1 0 .1 0 .1-.1.3-.2.2s-.2-.2-.3-.1h-.1v.2c0 .1 0-.1-.1 0v.2h-.3c0-.2-.1-.1-.1-.4s0-.1.1-.3-.1 0 0-.1c.1 0 .1.1.1.2h.1c0-.2.1-.3.1-.4s0-.1.1.1 0-.2.1-.2h.2v.2c-.1-.2 0-.1 0 0 .1 0 .1 0 .1-.2.1 0 0-.1.1 0h.1z"/><path d="m164.255556 68.1h-.1c-.055229 0-.1-.0447715-.1-.1h-.3c-.1 0-.2.1-.1 0 0-.1-.1 0 0-.1v.2c-.1.1 0-.1 0 0-.1.2 0 .1-.1.1v.2c0-.2.1-.1 0-.4v-.2c0-.1.1 0 .1.1l.2-.3c0 .1.1-.1.1.1s.2-.2.2-.1.1.1.1.3.1 0-.1.1.1.1 0 .1.1 0 .1 0h.3c.1 0-.1.1.1.1h-.2s0-.1-.2-.1z"/><path d="m163.055556 70.8c.1.2 0 .1 0 .1v.2.2.2c-.1-.2-.2-.2-.2-.1h-.1v.3h-.1c.1.2 0 .1 0 .1v.2l-.2-.4v-.2h-.1c.055228 0 .1.0447715.1.1 0-.1 0 0 .1.1v-.4c0 .1 0-.1.1.1s0-.2 0-.2.1 0 .1.1.1-.1.1.1c.1 0 .1 0 .1-.2.1 0 0-.1.1.1z"/><path d="m93.6555556 152.4v.2c0 .055228-.0447716.1-.1.1v.2c0 .2 0 .3-.1.2s-.1-.2-.2-.1h-.1v.2c0 .1-.1-.1-.1 0v.2c-.1 0-.1.1-.1.2h-.1c0-.1-.1 0-.2-.3v-.4c-.1-.2 0-.1 0 0h.2v-.4h.1c0-.2.1-.2.1-.2h.3c.1 0 .1 0 .1-.2s.1.1.1-.1h.1z"/><path d="m95.3555556 152.6h-.3c-.1.2-.2.3-.1.1 0 .055228-.0447716.1-.1.1.1-.1.1-.2 0-.1h.1c-.1 0-.1 0 0-.1l-.2.2c0 .1.1-.1 0 0s.1-.1 0-.1c0 .1-.1.1-.1.2 0-.1 0-.1.1-.3v-.2s.1-.1.1 0 .1-.2.2-.3h-.1l.2-.2v.2h-.1c.1-.1 0 0 0 .1h.1c0 .1 0 0 .1-.1s.2.4.1.5z"/><path d="m94.7555556 154.4h.1s0 .1-.1 0 0 .1 0 .1c0 .1 0 .3-.1.2-.2-.2-.2-.2-.3-.1s-.1.1-.1-.1h-.1c0 .1 0 .2-.1.2s0 0-.1 0c0 .1 0 .1-.1.1h-.2c0-.2-.1-.1-.1-.4s0-.1.1-.3 0-.1 0 0c.1 0 .1.1.1.2s.1-.1.1 0 .1-.2.2-.3c.1-.3.1-.3.2-.3s.1.1.1.2.1-.1.1.1h.1s.1 0 .1-.2c.1 0 0-.1.1.1z"/><path d="m117.155556 152.3c.1.2 0 0 0 .1v.2h-.1c0 .1 0 .3-.1.1s.1.1 0 .1h-.4c.073124.08202.109288.190509.1.3 0 .1-.1-.1-.1 0v.2h-.1l-.3-.3v-.1h-.2c-.1-.2 0-.1 0-.1h.3v-.4h.1c0-.3 0-.3.1-.3h.2c.1.1.1 0 .1.2h.1c.1.1.1 0 .1-.1s.1 0 .1-.2h.1z"/><path d="m117.955556 154.7c.1.3 0 .1 0 .2v.2c0 .2-.1.4-.1.2h-.1c-.1-.1-.1-.2-.2-.1s-.1 0 0-.2h-.1v.2h-.5c0-.1-.1-.1 0-.4v-.2h.1c.1-.1 0 0 0 .1h.1l.2-.3v-.2c.1.2.1.1.1.2s.1-.1.1.1c.1.1.1 0 .1-.1v-.2h.1z"/></g><path d="m126.555556 172.5h.2c.1.1 0 .3-.1.4s-.2.6-.4.8-.8.7-1.2.7-.9.9-1.4 1.4l-.7.8-.9.8c-1.47146 1.532559-3.1553 2.845954-5 3.9-.4.3-.4.6-.8.9-2.3 1.4-3.8 2.4-5.7 3.8l-.3.2-.3-.2-2.6-2c-.6-.7-1.1-.7-1.3-1.4l-.5-.3.6-.3c-.291163 1.97279-1.421596 3.723137-3.1 4.8-.779313.231943-1.604094.266308-2.4.1l-2.4000004-.7s-.1-.2-.2-.2-1.6-.4-2.3-.8c-1.4719354-.6553-2.9073638-1.389706-4.3-2.2-.7225249-.668801-1.5293571-1.240307-2.4-1.7-1.6-1.4-3.7-2.7-5.1-4.3.1-.4.5.1.7-.1s-.8-.6-.1-.4.8.3.9.5l1 .8c1.5363983.967334 3.0063483 2.036389 4.4 3.2.8.6 1.2.6 1.8 1.2s3.1 1.5 4.8 2 2.4.7 3.5000004 1.3c.86212-.019978 1.698317-.29871 2.4-.8.79264-.513397 1.308029-1.360108 1.4-2.3v-.3l.2-2.3 1.5 1.4c1.4 1.3 2.9 2.4 4.4 3.7h-1.1l2.2-1.6c.7-.2 1.5-1.1 2-.9.699554-.742005 1.552784-1.322202 2.5-1.7.2-.5.3-.4.6-.7 1.455436-.861746 2.77062-1.940872 3.9-3.2.998649-.642685 1.906721-1.416228 2.7-2.3.6-.4.9-.3 1.2-.8s.3-.5.4-.3l.6-.4h.3c.1 0 .1-.1.1-.2h.3z" fill="#2e316a"/><path d="m62.8555556 16.5c.7.7-1.2 1-1.9 1.4s-1.3.9-1.8 1.4-2.1 1.3-2.8 1.2-2.4 1.7-3.7 2.7l-1.6 1.7-2 1.6c-2.8 2.6-6.9 6.8-10.6 9.4-.7.8-.8 1.4-1.5 2.2-2.7945063 2.4012238-5.3712077 5.0448525-7.7 7.9-2.3180057 2.9248762-4.391655 6.0353501-6.2 9.3-1.3 1.5-1.2 2.7-2.5 3.3-1.4 3.1-2.9 6-4.4 8.7-.0679911 1.2777052-.2351609 2.5481958-.5 3.8-.8 3.2-2.3 5.5-3.2 9.5.1-.1-.4.1-.3.3s-.5 3.5-.8 5.2c-.5666579 3.4066657-.9007635 6.8479535-1 10.3-.52986154 2.1285803-.83156231 4.30753-.90000004 6.5-.9 4.6-.7 9.9-1.5 14.5-.7.4-.5-.9-1-1.1s-.1 2.2-.4.8c-.9.4-.6-2-.4-2.2-.09687969-1.03742-.02938227-2.08363.2-3.1-.15625073-4.02579.17956675-8.0556 1-12 .3-2.2-.1-3.2.5-4.9-.04353424-3.9482362.22395951-7.8937689.8-11.8 1.40000004-4 1.2-6 3.00000004-8.7.5-4.8 2.2-9.1 5.3-15.1s6.8-11.4 11.5-16.7c1.2-.9 2.7-3.3 3.7-3.3.6155662-1.01849 1.392328-1.9303408 2.3-2.7.9-.8 1.9-1.5 2.7-2.1s.5-.8 1-1.6c3.0108346-2.4009495 5.8821711-4.9717973 8.6-7.7 1.6-1.2 2.7-2 3.7-2.6.9939064-.6098928 1.9019293-1.3497633 2.7-2.2 1.4-.8 2.1-.7 3.1-1.7s.7-.8 1-.5 1.8-1.2 2.6-.8 2.6-1.5 3-.9z" fill="#f7f8fa"/><path d="m75.5555556 14.1c.4.8.1.3.1.5l.2.4c-.1 0-.1.2-.3-.1s.1.3.1.5c.0431945.1645418.0765865.331502.1.5.1.1 0 .1 0 .2s.2 1.3-.2.7.1.4.1.5-.9-.5-1 0 0 .3-.4-.4-.2.3-.5 0c.1614563.2758927.2636294.582412.3.9.1.5-.3-.1-.3.2v-.2c.2.6 0 .4 0 .5-.0969993.2547903-.1312971.5291726-.1.8-.1-.2-.3-.2-.3-.1s-.5-.1-1.2-1l-.4-.9c-.2-.4-.1-.1-.2-.4s-.1-.4 0-.3.1.1.2.2.4.1.6.2-.1-.4.2-.1c-.1639625-.4821463-.231908-.9917376-.2-1.5.3.4 0-.4.5.3-.3-1-.1-1 .1-1.1s.6-.1.9 0 .2-.1.5.6.2-.1.4.1l-.2-.5c.3.2.4 0 .2-.6s.3.1.1-.6.3.4.1 0-.1-.4.1 0-.1-.3.3.3-.1-.3.2.4z" fill="#f7f8fa"/><path d="m181.855556 43.1c-.7.6-.6-.2-.9-.3s-.5-.3-.8-.3-.6-.6-.4-1-.8-.6-1.3-.9l-.8-.3-.8-.5c-1.1-.6-2.9-1.6-3.4-3.2s-.7 0-.9-.2c-1.17081-2.2026931-2.893744-4.0634612-5-5.4-.2-.7-.9-.5-.7-1.3-.970278-.4856117-1.771766-1.2522523-2.3-2.2-.522782.1500374-1.077219.1500374-1.6 0-1.1-.2-1.4-1.4-2.6-1.9s.1-.3 0-.2-1.2-.3-1.6-.5c-1.032054-.4116853-2.104655-.7133545-3.2-.9-.466393-.4418102-1.062293-.7222341-1.7-.8-.595102-.438775-1.276931-.7455983-2-.9-.738448-.0963518-1.451431-.3340128-2.1-.7-.3-.8.2-.6.2-1s-.8-.1-.4-.5.7-.5.8-.3c.378072-.1024618.78219-.0289858 1.1.2 1.3-.3 2.8.5 4 1.2s1.1 0 1.5.6 2.7.3 4.2.6 1.8.9 2.2 2.1c1.9.1 3.1 1.1 4.8 2.5s3.2 3 4.7 4.9 1 .9.6 1.6 1.2 1.2 1.4 1.8.4.1.8.2c.667698 1.1276814 1.686247 2.005741 2.9 2.5 1 .9.9 1.5 2 1.8s.1.8.7.9.5 0 .2.3.6.4.2 1 .8.6.2 1.1z" fill="#f7f8fa"/><path d="m194.555556 63.8c-.8.4-.3 0-.5.1h-.5c0-.1-.2-.1.2-.3s-.4 0-.6 0h-.8c-.5 0-1.3.1-.8-.5h-.5c.4-.7.4-1.1-.1-1.4s-.4 0 .3-.4-.3-.3-.1-.6l-.9.3c-.5 0 .1-.5-.3-.6s.4-.1.2-.1-.4 0-.5 0l-1-.2c.2-.2.2-.4.1-.5s0-.6.9-1.4l.8-.4c.4-.2.1-.2.4-.2s.5-.1.3 0 0 .1-.1.2 0 .5-.1.9.4-.1.1.2c.529407-.0798257 1.064772-.113286 1.6-.1-.3.4.4.2-.2.7 1.1-.3 1.1 0 1.3.3s.1.8.1 1.3.1.1-.5.6.1.2-.1.4.3 0 .5-.1.1.4.7.3 0 .4.7.2-.4.3.1.2c-.1.2.2 0-.4.4s.4.3-.3.7z" fill="#f7f8fa"/><path d="m58.5555556 190.3c-.4.8-.7 0-1-.1s-.6-.1-1-.1-.8-.4-.7-.8-1-.4-1.6-.6h-1l-.9-.4c-1.4-.4-3.6-1.2-4.5-2.9s-.8 0-1.1-.2c-1.7314568-2.248355-3.7105933-4.294581-5.9-6.1-.3-.7-1-.6-.7-1.4-1.0113844-.720238-1.7788982-1.731961-2.2-2.9-.5988978-.093139-1.1753182-.296582-1.7-.6-1.1-.7-1.1-2-2.2-3.1s.3-.3.2-.3-1.1-.9-1.5-1.5l-2.4-3.4c-.1419013-.900247-.4112717-1.7757-.8-2.6 0-1.9-.8-3.9 0-5.8.7-.2.6.3 1 .3s0-.8.4-.4.6.6.4.8c.1500809.351309.1500809.748691 0 1.1.4256004 1.404146.7267629 2.843034.9 4.3.1.8.8.9.7 1.6s2 2.1 3.2 3.1 1.3 1.6 1.3 2.9c1.8.8 2.7 2.1 4.2 3.8s3.1 3.5 4.8 5.4c.1.6 1.1.9.8 1.7s1.4 1.1 1.8 1.8.4 0 .8 0c.9105222 1.107675 2.1876219 1.85265 3.6 2.1 1.3.8 1.4 1.3 2.6 1.3s.3.9 1 .8.5-.2.3.2.8.3.5 1 1.1.4.7 1z" fill="#f7f8fa"/><path d="m66.6555556 194.7c-.7.5-.3.1-.5.2l-.4.2s-.1 0 .1-.2-.2.1-.4.2l-.5.2h-.2c-.5.2-1.1.6-.7 0l-.4.2c.3-.6.3-.9-.1-.8s-.3.2.2-.4-.3 0-.1-.4c-.2583668.20688-.4931202.441633-.7.7-.4.3 0-.4-.3-.2s.2-.3.1-.2-.3.2-.4.3l-.6.4c.1-.2 0-.3 0-.3s-.1-.4.3-1.5c.1117901-.276905.2455499-.544425.4-.8.2-.4 0-.2.2-.4s.3-.4.2-.2 0 .1 0 .3.2.3.2.6.3-.3.1.1l1.2-1c-.1.5.4-.1 0 .6s.9-.5 1.1-.3.3.5.4.9.1.1-.4.7.2.1 0 .3l.4-.2c-.1.3.1.3.7 0s0 .2.6-.1-.3.4.1.1.3-.2 0 .1.2-.1-.3.4.3 0-.3.5z" fill="#f7f8fa"/><path d="m175.055556 174.1c-.5-.7-.1-.4-.1-.6s.1-.3 0-.5.2-.3.4-.1.2-.4.2-.7c-.043195-.164542-.076587-.331502-.1-.5 0-.2.1-.2.1-.4s.1-1.6 1-1.4-.2-.5-.1-.6c.968893-.010058 1.836697-.601743 2.2-1.5.4.1 0-.4.7 0 .024923-.212886.134231-.406867.30342-.538459.16919-.131592.384109-.189787.59658-.161541-.20167-.301761-.337926-.642401-.4-1-.1-.5.6-.4.7-.9h.2c-.5-.5-.1-.6 0-.8.051392-.43181.051392-.86819 0-1.3.4-.133333.6-.333333.6-.6.9-.1.9-.7 2.1-.7s.4.3.8.6.3-.2.5.1.2.4.1.4-.3.2-.4.2-.7.7-1.2 1 .1.6-.3.5c.197686.648314.298772 1.322217.3 2-.6.2-.2.8-1 .7s0 1.5-.6 2.1-1.3 1.1-2.1 1.5-.3.4-.9-.1-.5.5-.8.4 0 .3.1.5-.8.5-.8 1.3-.6.3-.5 1-.5-.2-.4.3.2.4-.1 0-.1.4-.5-.2-.2.6-.6 0z" fill="#f7f8fa"/><path d="m33.5555556 10.2c.4.5-.3.4-.5.7s-.3.4-.4.6-.6.5-.9.4-.7.6-1 1c-.1703269.2101557-.3054165.4465624-.4.7l-.6.6c-.8649202 1.2431193-2.0360135 2.241993-3.4 2.9-.3.2-.2.5-.4.8-2.1329533 1.0026545-3.9871995 2.5135217-5.4 4.4-.6.2-.5.7-1.1.6-.547537.8981731-1.301827 1.6524631-2.2 2.2.0206448.4689599-.0129106.9387355-.1 1.4-.4 1-1.2 1.4-1.8 2.5s-.3-.1-.2 0-.3 1.1-.6 1.6c-.4089769.9731757-.7432761 1.9760733-1 3-.4124176.5525232-.7487575 1.1579351-1 1.8-.4249154.5977729-.7931756 1.2338586-1.1 1.9-.3020178.7433689-.7432588 1.4222013-1.3 2-.60000004-.1-.30000004-.4-.60000004-.6s-.3.7-.4.2-.2-.7 0-.8c.0824755-.3108581.25671797-.589646.5-.8.06347947-.6371907.26846916-1.2521598.60000004-1.8l1-1.7c.4-.6.2-1 .7-1.4.1437165-1.2661837.4460886-2.5092691.9-3.7.9-1 .8-1.8 1.9-2.3s1.1-2.8 2.6-4.4 3-2.9 4.8-4.2.9-1 1.5-.7 1.2-1 1.8-1.2.2-.3.3-.6c1.0580072-.6022779 1.9778334-1.4199012 2.7-2.4 1-.9 1.4-.8 1.9-1.7s.7-.1.9-.5.1-.5.3-.2.5-.5 1-.1.7-.7 1-.2z" fill="#cccfdb"/><path d="m18.8555556 7.9c.4.5 0 .3 0 .5s-.1.2-.1.4-.2.3-.4.1-.2.4-.3.6.1.3 0 .5v.3c-.2.6-.4 1.5-1.2 1.5s.1.3 0 .4c-.9737777.2132702-1.8104109.8316513-2.3 1.7-.4.1-.1.5-.6.2-.1846863.4124286-.5570898.7103514-1 .8.1706676.2345431.274365.5110697.3.8 0 .5-.6.5-.8 1h-.2c.4.4 0 .6 0 .8-.2290549.4293928-.3329964.9144534-.3 1.4-.2876475.0872541-.5127459.3123526-.6.6-.2703149.1076418-.510507.2792076-.7.5l-1.70000004-1.8c.43233791-.1128174.89000284-.0776125 1.30000004.1.3.5 0 .4.2.7s.3 0 .2.3 0 .4-.1.3-.3 0-.4 0l-.30000004.2-2 1.1 1.2-1.9c.2-.4.6-.6 1.00000004-.9.4-.3-.10000004-.5.3-.5-.1009143-.6293135-.1009143-1.2706865 0-1.9.6-.3.3-.8 1-.8s.2-1.4.8-2 1.2-1.2 2.1-1.7.3-.4.8-.1.5-.4.8-.4 0-.2-.1-.5.8-.5 1-1.2.6-.3.6-.9.4.1.4-.3-.1-.3.1-.1.1-.3.5.1.2-.4.5.1z" fill="#cccfdb"/><path d="m189.255556 25.8c-.5.4-.4-.1-.5-.2s-.3-.2-.5-.2-.4-.4-.2-.6-.4-.4-.7-.6l-.5-.2c-.177598-.0801704-.31983-.2224025-.4-.4-.7-.4-1.8-1.1-1.8-2.1s-.4-.1-.5-.2c-.339169-1.4248608-1.149629-2.6934077-2.3-3.6-.1-.5-.5-.3-.3-.9-.524901-.3431645-.941152-.8287911-1.2-1.4-.317079.127599-.663933.1622844-1 .1-.7-.1-.8-.8-1.5-1s.1-.3 0-.2-.7-.1-1-.2l-1.9-.2c-.252162-.3116527-.606349-.5241649-1-.6-.7-.6-1.6-.5-2.4-1.4s.2-.3.2-.7-.4-.1-.2-.3.5-.3.5-.2c.221753-.0527111.454224.0247791.6.2.85056.0105412 1.668171.3304762 2.3.9.4.2.7-.1.9.3.855093-.2003003 1.744906-.2003003 2.6 0 .6.7 1.2.5 1.4 1.3s2 .6 3 1.6 1.7 2.1 2.3 3.4.6.6.2 1.1.5.8.5 1.2.3.1.6.1c.190139.7714599.69908 1.4258131 1.4 1.8.5.6.4.9 1.1 1.1s-.1.6.3.6.4 0 .1.2.3.3-.1.6.5.4 0 .7z" fill="#cccfdb"/><path d="m198.255556 19.2c-.6.2-.3-.1-.4-.1h-.4c0-.1-.2-.2.1-.3s-.3-.2-.5-.3h-.4l-.2-.2c-.5-.1-1.1-.3-.8-.8h-.4c.1-.8 0-1.2-.6-1.6s-.3-.1.1-.5c-.140033-.0433419-.253993-.1459504-.311736-.2806848s-.053453-.2880213.011736-.4193152l-.7.2c-.5 0-.2-.5-.6-.6h.1c-.4.3-.4 0-.5 0l-.9-.2c0-.2-.1-.3-.3-.4s-.4-.6-.3-1.5.3-.3.5-.6-.1-.2.1-.3.3-.2.3-.1.1.2.1.3.5.6.6.9.4 0 .3.3c.488351-.1328909.998329-.1668894 1.5-.1 0 .5.5.2.3.8s1.1.2 1.5.7.5 1 .7 1.7.2.3-.3.6.2.4.1.6.2 0 .4 0 .2.6.7.8.1.5.6.6-.2.3.1.3.3 0 0 .1.2.1-.2.3.2-.1-.3.1z" fill="#cccfdb"/></g></svg>